%FSDAX24Y24*%
%MOIN*%
%SFA1B1*%

%IPPOS*%
%ADD28C,0.009800*%
%ADD29C,0.007900*%
%ADD30C,0.010000*%
%ADD31C,0.003000*%
%LNde-120418_legend_top-1*%
%LPD*%
G54D28*
X035827Y023107D02*
D01*
X035826Y023110*
X035826Y023113*
X035825Y023117*
X035825Y023120*
X035824Y023123*
X035822Y023126*
X035821Y023130*
X035819Y023132*
X035817Y023135*
X035815Y023138*
X035813Y023141*
X035810Y023143*
X035808Y023145*
X035805Y023147*
X035802Y023149*
X035799Y023151*
X035796Y023152*
X035793Y023153*
X035789Y023154*
X035786Y023155*
X035783Y023155*
X035779Y023155*
X035776*
X035772Y023155*
X035769Y023155*
X035766Y023154*
X035762Y023153*
X035759Y023152*
X035756Y023151*
X035753Y023149*
X035750Y023147*
X035747Y023145*
X035745Y023143*
X035742Y023141*
X035740Y023138*
X035738Y023135*
X035736Y023132*
X035734Y023130*
X035733Y023126*
X035731Y023123*
X035730Y023120*
X035730Y023117*
X035729Y023113*
X035729Y023110*
X035729Y023107*
X035729Y023103*
X035729Y023100*
X035730Y023096*
X035730Y023093*
X035731Y023090*
X035733Y023087*
X035734Y023083*
X035736Y023081*
X035738Y023078*
X035740Y023075*
X035742Y023072*
X035745Y023070*
X035747Y023068*
X035750Y023066*
X035753Y023064*
X035756Y023062*
X035759Y023061*
X035762Y023060*
X035766Y023059*
X035769Y023058*
X035772Y023058*
X035776Y023058*
X035779*
X035783Y023058*
X035786Y023058*
X035789Y023059*
X035793Y023060*
X035796Y023061*
X035799Y023062*
X035802Y023064*
X035805Y023066*
X035808Y023068*
X035810Y023070*
X035813Y023072*
X035815Y023075*
X035817Y023078*
X035819Y023081*
X035821Y023083*
X035822Y023087*
X035824Y023090*
X035825Y023093*
X035825Y023096*
X035826Y023100*
X035826Y023103*
X035827Y023107*
X039409Y023137D02*
D01*
X039408Y023140*
X039408Y023143*
X039407Y023147*
X039407Y023150*
X039406Y023153*
X039404Y023156*
X039403Y023160*
X039401Y023162*
X039399Y023165*
X039397Y023168*
X039395Y023171*
X039392Y023173*
X039390Y023175*
X039387Y023177*
X039384Y023179*
X039381Y023181*
X039378Y023182*
X039375Y023183*
X039371Y023184*
X039368Y023185*
X039365Y023185*
X039361Y023185*
X039358*
X039354Y023185*
X039351Y023185*
X039348Y023184*
X039344Y023183*
X039341Y023182*
X039338Y023181*
X039335Y023179*
X039332Y023177*
X039329Y023175*
X039327Y023173*
X039324Y023171*
X039322Y023168*
X039320Y023165*
X039318Y023162*
X039316Y023160*
X039315Y023156*
X039313Y023153*
X039312Y023150*
X039312Y023147*
X039311Y023143*
X039311Y023140*
X039311Y023137*
X039311Y023133*
X039311Y023130*
X039312Y023126*
X039312Y023123*
X039313Y023120*
X039315Y023117*
X039316Y023113*
X039318Y023111*
X039320Y023108*
X039322Y023105*
X039324Y023102*
X039327Y023100*
X039329Y023098*
X039332Y023096*
X039335Y023094*
X039338Y023092*
X039341Y023091*
X039344Y023090*
X039348Y023089*
X039351Y023088*
X039354Y023088*
X039358Y023088*
X039361*
X039365Y023088*
X039368Y023088*
X039371Y023089*
X039375Y023090*
X039378Y023091*
X039381Y023092*
X039384Y023094*
X039387Y023096*
X039390Y023098*
X039392Y023100*
X039395Y023102*
X039397Y023105*
X039399Y023108*
X039401Y023111*
X039403Y023113*
X039404Y023117*
X039406Y023120*
X039407Y023123*
X039407Y023126*
X039408Y023130*
X039408Y023133*
X039409Y023137*
X035240Y019463D02*
D01*
X035239Y019466*
X035239Y019469*
X035238Y019473*
X035238Y019476*
X035237Y019479*
X035235Y019482*
X035234Y019486*
X035232Y019488*
X035230Y019491*
X035228Y019494*
X035226Y019497*
X035223Y019499*
X035221Y019501*
X035218Y019503*
X035215Y019505*
X035212Y019507*
X035209Y019508*
X035206Y019509*
X035202Y019510*
X035199Y019511*
X035196Y019511*
X035192Y019511*
X035189*
X035185Y019511*
X035182Y019511*
X035179Y019510*
X035175Y019509*
X035172Y019508*
X035169Y019507*
X035166Y019505*
X035163Y019503*
X035160Y019501*
X035158Y019499*
X035155Y019497*
X035153Y019494*
X035151Y019491*
X035149Y019488*
X035147Y019486*
X035146Y019482*
X035144Y019479*
X035143Y019476*
X035143Y019473*
X035142Y019469*
X035142Y019466*
X035142Y019463*
X035142Y019459*
X035142Y019456*
X035143Y019452*
X035143Y019449*
X035144Y019446*
X035146Y019443*
X035147Y019439*
X035149Y019437*
X035151Y019434*
X035153Y019431*
X035155Y019428*
X035158Y019426*
X035160Y019424*
X035163Y019422*
X035166Y019420*
X035169Y019418*
X035172Y019417*
X035175Y019416*
X035179Y019415*
X035182Y019414*
X035185Y019414*
X035189Y019414*
X035192*
X035196Y019414*
X035199Y019414*
X035202Y019415*
X035206Y019416*
X035209Y019417*
X035212Y019418*
X035215Y019420*
X035218Y019422*
X035221Y019424*
X035223Y019426*
X035226Y019428*
X035228Y019431*
X035230Y019434*
X035232Y019437*
X035234Y019439*
X035235Y019443*
X035237Y019446*
X035238Y019449*
X035238Y019452*
X035239Y019456*
X035239Y019459*
X035240Y019463*
G54D29*
X033950Y022550D02*
X034950D01*
Y020550D02*
Y022550D01*
X033950Y020550D02*
X034950D01*
X033950D02*
Y022550D01*
X034131Y023107D02*
Y022793D01*
X036033Y022812D02*
Y023167D01*
X036388*
X036033Y020233D02*
Y020588D01*
Y020233D02*
X036388D01*
X038612D02*
X038967D01*
Y020588*
Y022812D02*
Y023167D01*
X038612D02*
X038967D01*
X040541Y023472D02*
Y024928D01*
X039359Y023472D02*
Y024928D01*
X040521D02*
X040541D01*
X040521Y023472D02*
Y024003D01*
X039359Y024928D02*
X039379D01*
Y023472D02*
Y024003D01*
X038544Y024948D02*
X039056D01*
X037943Y024919D02*
X038257D01*
X037144Y024898D02*
X037656D01*
X035450Y017200D02*
X040450D01*
X035450Y019200D02*
X040450D01*
X035450Y017200D02*
Y019200D01*
X040450Y017200D02*
Y019200D01*
X034009Y017672D02*
Y019128D01*
X035191Y017672D02*
Y019128D01*
X034009Y017672D02*
X034029D01*
Y018597D02*
Y019128D01*
X035171Y017672D02*
X035191D01*
X035171Y018597D02*
Y019128D01*
X039400Y022550D02*
X040400D01*
Y020550D02*
Y022550D01*
X039400Y020550D02*
X040400D01*
X039400D02*
Y022550D01*
X035193Y021331D02*
X035507D01*
G54D30*
X033750Y025350D02*
X040650D01*
Y017050D02*
Y025350D01*
X033750Y017050D02*
X040650D01*
X033750D02*
Y025350D01*
G54D31*
X035710Y023780D02*
Y023613D01*
X035743Y023580*
X035810*
X035843Y023613*
Y023780*
X035910Y023580D02*
X035977D01*
X035943*
Y023780*
X035910Y023747*
X035683Y021483D02*
X035650Y021450D01*
Y021383*
X035683Y021350*
X035817*
X035850Y021383*
Y021450*
X035817Y021483*
X035850Y021550D02*
Y021617D01*
Y021583*
X035650*
X035683Y021550*
X035650Y021717D02*
Y021850D01*
X035683*
X035817Y021717*
X035850*
X038033Y025201D02*
X038000Y025234D01*
X037933*
X037900Y025201*
Y025068*
X037933Y025034*
X038000*
X038033Y025068*
X038100Y025201D02*
X038133Y025234D01*
X038200*
X038233Y025201*
Y025168*
X038200Y025134*
X038167*
X038200*
X038233Y025101*
Y025068*
X038200Y025034*
X038133*
X038100Y025068*
X035483Y022833D02*
X035450Y022800D01*
Y022733*
X035483Y022700*
X035617*
X035650Y022733*
Y022800*
X035617Y022833*
X035650Y022900D02*
Y022967D01*
Y022933*
X035450*
X035483Y022900*
X035450Y023200D02*
X035483Y023133D01*
X035550Y023067*
X035617*
X035650Y023100*
Y023167*
X035617Y023200*
X035583*
X035550Y023167*
Y023067*
X034700Y020050D02*
Y020250D01*
X034800*
X034833Y020217*
Y020150*
X034800Y020117*
X034700*
X034767D02*
X034833Y020050D01*
X034900Y020217D02*
X034933Y020250D01*
X035000*
X035033Y020217*
Y020183*
X035000Y020150*
X034967*
X035000*
X035033Y020117*
Y020083*
X035000Y020050*
X034933*
X034900Y020083*
X034250Y023850D02*
Y024050D01*
X034350*
X034383Y024017*
Y023950*
X034350Y023917*
X034250*
X034317D02*
X034383Y023850D01*
X034583D02*
X034450D01*
X034583Y023983*
Y024017*
X034550Y024050*
X034483*
X034450Y024017*
X037550Y019350D02*
Y019550D01*
X037650*
X037683Y019517*
Y019450*
X037650Y019417*
X037550*
X037750Y019517D02*
X037783Y019550D01*
X037850*
X037883Y019517*
Y019483*
X037850Y019450*
X037817*
X037850*
X037883Y019417*
Y019383*
X037850Y019350*
X037783*
X037750Y019383*
X033950Y020200D02*
Y020400D01*
X034050*
X034083Y020367*
Y020300*
X034050Y020267*
X033950*
X034283Y020200D02*
X034150D01*
X034283Y020333*
Y020367*
X034250Y020400*
X034183*
X034150Y020367*
X040200Y020200D02*
Y020400D01*
X040300*
X040333Y020367*
Y020300*
X040300Y020267*
X040200*
X040400Y020200D02*
X040467D01*
X040433*
Y020400*
X040400Y020367*
X037283Y025180D02*
X037250Y025213D01*
X037183*
X037150Y025180*
Y025046*
X037183Y025013*
X037250*
X037283Y025046*
X037350Y025013D02*
X037417D01*
X037383*
Y025213*
X037350Y025180*
X037517D02*
X037550Y025213D01*
X037617*
X037650Y025180*
Y025146*
X037617Y025113*
X037583*
X037617*
X037650Y025080*
Y025046*
X037617Y025013*
X037550*
X037517Y025046*
X034133Y019717D02*
X034100Y019750D01*
X034033*
X034000Y019717*
Y019583*
X034033Y019550*
X034100*
X034133Y019583*
X034200Y019717D02*
X034233Y019750D01*
X034300*
X034333Y019717*
Y019683*
X034300Y019650*
X034333Y019617*
Y019583*
X034300Y019550*
X034233*
X034200Y019583*
Y019617*
X034233Y019650*
X034200Y019683*
Y019717*
X034233Y019650D02*
X034300D01*
X038683Y025230D02*
X038650Y025263D01*
X038583*
X038550Y025230*
Y025096*
X038583Y025063*
X038650*
X038683Y025096*
X038883Y025063D02*
X038750D01*
X038883Y025196*
Y025230*
X038850Y025263*
X038783*
X038750Y025230*
X040383Y023017D02*
X040350Y023050D01*
X040283*
X040250Y023017*
Y022883*
X040283Y022850*
X040350*
X040383Y022883*
X040450Y022850D02*
X040517D01*
X040483*
Y023050*
X040450Y023017*
X040000Y019300D02*
X040067D01*
X040033*
Y019500*
X040000Y019467*
X040167D02*
X040200Y019500D01*
X040267*
X040300Y019467*
Y019333*
X040267Y019300*
X040200*
X040167Y019333*
Y019467*
X040200Y018033D02*
X040233Y018000D01*
X040300*
X040333Y018033*
Y018167*
X040300Y018200*
X040233*
X040200Y018167*
Y018133*
X040233Y018100*
X040333*
X035300Y017250D02*
X035367D01*
X035333*
Y017450*
X035300Y017417*
X035633Y019300D02*
X035500D01*
X035633Y019433*
Y019467*
X035600Y019500*
X035533*
X035500Y019467*
M02*