%FSDAX24Y24*%
%MOIN*%
%SFA1B1*%

%IPPOS*%
%ADD10R,0.043300X0.039400*%
%ADD11O,0.041300X0.011800*%
%ADD12O,0.011800X0.041300*%
%ADD13R,0.208700X0.208700*%
%ADD14R,0.086600X0.078700*%
%ADD15R,0.059100X0.051200*%
%ADD16R,0.039400X0.043300*%
%ADD17C,0.030000*%
%ADD18C,0.010000*%
%ADD19C,0.020000*%
%ADD20R,0.059100X0.059100*%
%ADD21C,0.059100*%
%ADD22R,0.059100X0.059100*%
%ADD23C,0.031500*%
%ADD24C,0.026000*%
%LNde-120418_copper_signal_top-1*%
%LPD*%
G36*
X040650Y019351D02*
X040584Y019320D01*
X040550Y019316*
X040358Y019508*
X040309Y019541*
X040250Y019553*
X039163*
X038549Y020168*
Y020177*
X038558Y020224*
Y020461*
X038576Y020472*
X038676Y020414*
Y020371*
X038687Y020313*
X038721Y020263*
X039142Y019842*
X039191Y019809*
X039250Y019797*
X039693*
X039716Y019766*
X039770Y019725*
X039833Y019699*
X039900Y019690*
X039967Y019699*
X040030Y019725*
X040084Y019766*
X040125Y019820*
X040151Y019883*
X040160Y019950*
X040151Y020017*
X040125Y020080*
X040084Y020134*
X040030Y020175*
X039967Y020201*
X039900Y020210*
X039833Y020201*
X039770Y020175*
X039716Y020134*
X039693Y020103*
X039313*
X038982Y020435*
Y020643*
X039038Y020654*
X039091Y020690*
X039126Y020742*
X039139Y020804*
X039126Y020866*
X039091Y020919*
Y020946*
X039126Y020998*
X039139Y021060*
X039126Y021122*
X039097Y021188*
X039126Y021254*
X039139Y021316*
X039126Y021378*
X039091Y021431*
Y021457*
X039126Y021510*
X039139Y021572*
X039126Y021634*
X039097Y021700*
X039126Y021766*
X039139Y021828*
X039126Y021890*
X039098Y021933*
X039100Y021938*
X039221Y021970*
X039247Y021950*
Y021550*
X039259Y021491*
X039292Y021442*
X039503Y021231*
Y020755*
X039511Y020716*
X039533Y020683*
X039566Y020661*
X039605Y020653*
X040195*
X040234Y020661*
X040267Y020683*
X040289Y020716*
X040297Y020755*
Y021345*
X040289Y021384*
X040267Y021417*
X040234Y021439*
X040195Y021447*
X039719*
X039562Y021604*
X039572Y021697*
X039660Y021736*
X039701Y021705*
X039797Y021665*
X039900Y021651*
X040003Y021665*
X040099Y021705*
X040182Y021768*
X040245Y021851*
X040285Y021947*
X040299Y022050*
X040285Y022153*
X040245Y022249*
X040182Y022332*
X040099Y022395*
X040003Y022435*
X039900Y022449*
X039827Y022439*
X039129Y023137*
X039080Y023170*
X039021Y023182*
X038557*
X038545Y023238*
X038510Y023291*
X038458Y023326*
X038396Y023339*
X038393Y023338*
X038308Y023399*
X038298Y023504*
X038305Y023513*
X038312Y023516*
X038411Y023531*
X038433Y023498*
X038466Y023476*
X038505Y023468*
X038798*
X038878Y023414*
X038976Y023395*
X039415*
Y023216*
X039423Y023177*
X039445Y023144*
X039478Y023122*
X039517Y023114*
X039695*
Y022950*
X039715Y022852*
X039746Y022806*
X039750Y022795*
X039791Y022741*
X039845Y022700*
X039908Y022674*
X039975Y022665*
X040042Y022674*
X040105Y022700*
X040159Y022741*
X040200Y022795*
X040226Y022858*
X040235Y022925*
X040226Y022992*
X040217Y023014*
X040265Y023114*
X040383*
X040422Y023122*
X040455Y023144*
X040477Y023177*
X040485Y023216*
Y024003*
X040477Y024042*
X040455Y024075*
X040422Y024097*
X040383Y024105*
X039517*
X039478Y024097*
X039445Y024075*
X039423Y024042*
X039415Y024003*
Y023905*
X039197*
Y024082*
X039189Y024121*
X039178Y024138*
X039167Y024159*
Y024241*
X039178Y024262*
X039189Y024279*
X039197Y024318*
Y024524*
X038800*
Y024574*
X038750*
Y024932*
X038505*
X038466Y024924*
X038452Y024915*
X038424Y024901*
X038378Y024896*
X038336Y024895*
X038319Y024899*
X038297Y024903*
X038150*
Y024585*
X038050*
Y024903*
X037903*
X037864Y024895*
X037854Y024889*
X037817Y024873*
X037773*
X037734Y024874*
X037722Y024877*
X037695Y024882*
X037450*
Y024524*
X037400*
Y024474*
X037003*
Y024268*
X037011Y024229*
X037022Y024212*
X037033Y024191*
Y024109*
X037022Y024088*
X037011Y024071*
X037003Y024032*
Y023843*
X036903Y023809*
X036884Y023834*
X036830Y023875*
X036767Y023901*
X036700Y023910*
X036633Y023901*
X036570Y023875*
X036516Y023834*
X036475Y023780*
X036449Y023717*
X036440Y023650*
X036449Y023583*
X036475Y023520*
X036490Y023501*
X036414Y023435*
X036191Y023658*
X036142Y023691*
X036083Y023703*
X035453*
Y023747*
X035445Y023786*
X035423Y023819*
X035390Y023841*
X035353Y023848*
Y024093*
X035384Y024116*
X035425Y024170*
X035451Y024233*
X035460Y024300*
X035451Y024367*
X035425Y024430*
X035384Y024484*
X035330Y024525*
X035267Y024551*
X035200Y024560*
X035133Y024551*
X035070Y024525*
X035016Y024484*
X034975Y024430*
X034949Y024367*
X034940Y024300*
X034949Y024233*
X034975Y024170*
X035016Y024116*
X035047Y024093*
Y023849*
X034918*
X034879Y023841*
X034862Y023829*
X034841Y023819*
X034759*
X034738Y023829*
X034721Y023841*
X034682Y023849*
X034249*
X034210Y023841*
X034177Y023819*
X034155Y023786*
X034147Y023747*
Y023353*
X034155Y023314*
X034177Y023281*
Y023219*
X034168Y023205*
X034155Y023186*
X034147Y023147*
Y022753*
X034155Y022714*
X034177Y022681*
X034210Y022659*
X034249Y022651*
X034682*
X034721Y022659*
X034738Y022671*
X034759Y022681*
X034841*
X034862Y022671*
X034879Y022659*
X034918Y022651*
X034979*
X034997Y022638*
X035051Y022551*
Y022118*
X035059Y022079*
X035072Y022059*
X035081Y022042*
Y021958*
X035072Y021941*
X035059Y021921*
X035051Y021882*
Y021449*
X035059Y021410*
X035081Y021377*
X035114Y021355*
X035153Y021347*
X035187Y021311*
X035183Y021247*
X035098Y021200*
X035085Y021203*
X034847*
Y021345*
X034839Y021384*
X034817Y021417*
X034784Y021439*
X034745Y021447*
X034155*
X034116Y021439*
X034083Y021417*
X034061Y021384*
X034053Y021345*
Y020755*
X034061Y020716*
X034083Y020683*
X034116Y020661*
X034155Y020653*
X034745*
X034784Y020661*
X034817Y020683*
X034839Y020716*
X034847Y020755*
Y020897*
X035021*
X035051Y020867*
Y020668*
X035059Y020629*
X035072Y020609*
X035081Y020592*
Y020508*
X035072Y020491*
X035059Y020471*
X035051Y020432*
Y020265*
X035350*
Y020165*
X035051*
Y019999*
X035059Y019960*
X035081Y019927*
X035114Y019854*
Y019803*
X035099Y019767*
X035097Y019750*
X035350*
Y019650*
X035097*
X035099Y019633*
X035125Y019570*
X035133Y019560*
X035076Y019484*
X035069Y019479*
X035033Y019486*
X034887*
X034854Y019531*
X034832Y019586*
X034851Y019633*
X034860Y019700*
X034851Y019767*
X034825Y019830*
X034784Y019884*
X034730Y019925*
X034667Y019951*
X034600Y019960*
X034533Y019951*
X034470Y019925*
X034416Y019884*
X034375Y019830*
X034349Y019767*
X034340Y019700*
X034349Y019633*
X034368Y019586*
X034346Y019531*
X034313Y019486*
X034167*
X034128Y019478*
X034095Y019456*
X034073Y019423*
X034065Y019384*
Y018597*
X034073Y018558*
X034095Y018525*
X034128Y018503*
X034167Y018495*
X035033*
X035072Y018503*
X035105Y018525*
X035127Y018558*
X035135Y018597*
Y018996*
X035553*
X035605Y018899*
X035565Y018803*
X035551Y018700*
X035565Y018597*
X035605Y018501*
X035668Y018418*
X035751Y018355*
X035847Y018315*
X035950Y018301*
X036053Y018315*
X036149Y018355*
X036232Y018418*
X036295Y018501*
X036335Y018597*
X036345Y018675*
X036409Y018709*
X036448Y018714*
X036565Y018597*
X036605Y018501*
X036668Y018418*
X036751Y018355*
X036847Y018315*
X036950Y018301*
X037053Y018315*
X037149Y018355*
X037232Y018418*
X037247Y018438*
X037347Y018404*
Y018150*
X037359Y018091*
X037392Y018042*
X037584Y017850*
X037565Y017803*
X037551Y017700*
X037565Y017597*
X037605Y017501*
X037641Y017453*
X037596Y017353*
X037363*
X037261Y017456*
X037295Y017501*
X037335Y017597*
X037349Y017700*
X037335Y017803*
X037295Y017899*
X037232Y017982*
X037149Y018045*
X037053Y018085*
X036950Y018099*
X036847Y018085*
X036751Y018045*
X036668Y017982*
X036605Y017899*
X036565Y017803*
X036551Y017700*
X036565Y017597*
X036605Y017501*
X036668Y017418*
X036751Y017355*
X036847Y017315*
X036950Y017301*
X036979Y017305*
X037134Y017150*
X037092Y017050*
X033750*
Y025350*
X039405*
X039433Y025284*
X039441Y025250*
X039423Y025223*
X039415Y025184*
Y024841*
X039950*
X040485*
Y025184*
X040477Y025223*
X040459Y025250*
X040467Y025284*
X040495Y025350*
X040650*
Y019351*
G37*
%LNde-120418_copper_signal_top-2*%
%LPC*%
G36*
X036650Y025053D02*
X036633Y025051D01*
X036570Y025025*
X036516Y024984*
X036475Y024930*
X036449Y024867*
X036447Y024850*
X036650*
Y025053*
G37*
G36*
X039095Y024932D02*
X038850D01*
Y024624*
X039197*
Y024830*
X039189Y024869*
X039167Y024902*
X039134Y024924*
X039095Y024932*
G37*
G36*
X036750Y025053D02*
Y024800D01*
Y024547*
X036767Y024549*
X036830Y024575*
X036884Y024616*
X036903Y024641*
X037003Y024607*
Y024574*
X037350*
Y024882*
X037105*
X037066Y024874*
X037052Y024865*
X037018Y024866*
X036980Y024875*
X036940Y024893*
X036925Y024930*
X036884Y024984*
X036830Y025025*
X036767Y025051*
X036750Y025053*
G37*
G36*
X036650Y024750D02*
X036447D01*
X036449Y024733*
X036475Y024670*
X036516Y024616*
X036570Y024575*
X036633Y024549*
X036650Y024547*
Y024750*
G37*
G36*
X040485Y024741D02*
X040000D01*
Y024295*
X040383*
X040422Y024303*
X040455Y024325*
X040477Y024358*
X040485Y024397*
Y024741*
G37*
G36*
X039900D02*
X039415D01*
Y024397*
X039423Y024358*
X039445Y024325*
X039478Y024303*
X039517Y024295*
X039900*
Y024741*
G37*
G36*
X034450Y022449D02*
X034347Y022435D01*
X034251Y022395*
X034168Y022332*
X034105Y022249*
X034065Y022153*
X034051Y022050*
X034065Y021947*
X034105Y021851*
X034168Y021768*
X034251Y021705*
X034347Y021665*
X034450Y021651*
X034553Y021665*
X034649Y021705*
X034732Y021768*
X034795Y021851*
X034835Y021947*
X034849Y022050*
X034835Y022153*
X034795Y022249*
X034732Y022332*
X034649Y022395*
X034553Y022435*
X034450Y022449*
G37*
G36*
X035033Y018305D02*
X034650D01*
Y017859*
X035135*
Y018203*
X035127Y018242*
X035105Y018275*
X035072Y018297*
X035033Y018305*
G37*
G36*
X034550D02*
X034167D01*
X034128Y018297*
X034095Y018275*
X034073Y018242*
X034065Y018203*
Y017859*
X034550*
Y018305*
G37*
G36*
X036245Y018097D02*
X036000D01*
Y017750*
X036347*
Y017995*
X036339Y018034*
X036317Y018067*
X036284Y018089*
X036245Y018097*
G37*
G36*
X035900D02*
X035655D01*
X035616Y018089*
X035583Y018067*
X035561Y018034*
X035553Y017995*
Y017750*
X035900*
Y018097*
G37*
G36*
X035135Y017759D02*
X034650D01*
Y017314*
X035033*
X035072Y017322*
X035105Y017344*
X035127Y017377*
X035135Y017416*
Y017759*
G37*
G36*
X034550D02*
X034065D01*
Y017416*
X034073Y017377*
X034095Y017344*
X034128Y017322*
X034167Y017314*
X034550*
Y017759*
G37*
G36*
X036347Y017650D02*
X036000D01*
Y017303*
X036245*
X036284Y017311*
X036317Y017333*
X036339Y017366*
X036347Y017405*
Y017650*
G37*
G36*
X035900D02*
X035553D01*
Y017405*
X035561Y017366*
X035583Y017333*
X035616Y017311*
X035655Y017303*
X035900*
Y017650*
G37*
%LNde-120418_copper_signal_top-3*%
%LPD*%
G54D10*
X035135Y023550D03*
X034465D03*
X035135Y022950D03*
X034465D03*
G54D11*
X036171Y022596D03*
Y022340D03*
Y022084D03*
Y021828D03*
Y021572D03*
Y021316D03*
Y021060D03*
Y020804D03*
X038829D03*
Y021060D03*
Y021316D03*
Y021572D03*
Y021828D03*
Y022084D03*
Y022340D03*
Y022596D03*
G54D12*
X036604Y020371D03*
X036860D03*
X037116D03*
X037372D03*
X037628D03*
X037884D03*
X038140D03*
X038396D03*
Y023029D03*
X038140D03*
X037884D03*
X037628D03*
X037372D03*
X037116D03*
X036860D03*
X036604D03*
G54D13*
X037500Y021700D03*
G54D14*
X039950Y024791D03*
Y023609D03*
X034600Y017809D03*
Y018991D03*
G54D15*
X038800Y023826D03*
Y024574D03*
X037400Y023776D03*
Y024524D03*
G54D16*
X038100Y023915D03*
Y024585D03*
X035350Y020215D03*
Y020885D03*
Y022335D03*
Y021665D03*
G54D17*
X034709Y017700D02*
X035950D01*
X034600Y017809D02*
X034709Y017700D01*
X036926Y024574D02*
X038800D01*
X039950Y022950D02*
Y023600D01*
Y022950D02*
X039975Y022925D01*
X039900Y023650D02*
X039950Y023600D01*
Y023659*
X038800Y024574D02*
X039074D01*
X039341Y024841D02*
X039950D01*
X039074Y024574D02*
X039341Y024841D01*
X036700Y024800D02*
X036926Y024574D01*
X038976Y023650D02*
X039900D01*
X038800Y023826D02*
X038976Y023650D01*
X035350Y019700D02*
Y020215D01*
X038711Y023915D02*
X038800Y023826D01*
X038100Y023915D02*
X038711D01*
G54D18*
X036450Y019400D02*
Y019850D01*
X036171Y020129D02*
X036450Y019850D01*
X036171Y020129D02*
Y020804D01*
X036750Y019550D02*
Y019900D01*
X036604Y020046D02*
X036750Y019900D01*
X036604Y020046D02*
Y020371D01*
X037600Y019600D02*
X038600D01*
X037116Y020084D02*
Y020371D01*
Y020084D02*
X037600Y019600D01*
X037550Y019350D02*
X038200D01*
X036860Y020040D02*
X037550Y019350D01*
X036860Y020040D02*
Y020371D01*
X036450Y019400D02*
X036700Y019150D01*
X037500Y018150D02*
X037950Y017700D01*
X037500Y018150D02*
Y018850D01*
X037200Y019150D02*
X037500Y018850D01*
X036700Y019150D02*
X037200D01*
X035750Y019700D02*
Y020950D01*
Y019650D02*
Y019700D01*
X036600Y020367D02*
X036604Y020371D01*
X036950Y017550D02*
X037300Y017200D01*
X038250*
X038450Y017400*
Y019100*
X038200Y019350D02*
X038450Y019100D01*
X039000Y019200D02*
X039250D01*
X038600Y019600D02*
X039000Y019200D01*
X039450Y018200D02*
Y019000D01*
X039250Y019200D02*
X039450Y019000D01*
X038950Y017700D02*
X039450Y018200D01*
X039950Y017700D02*
X040450Y018200D01*
Y019200*
X040250Y019400D02*
X040450Y019200D01*
X039100Y019400D02*
X040250D01*
X038396Y020104D02*
X039100Y019400D01*
X039250Y019950D02*
X039900D01*
X038829Y020371D02*
X039250Y019950D01*
X038950Y018550D02*
Y018700D01*
X039950Y017700D02*
Y017900D01*
X037750Y019850D02*
Y020365D01*
X037500Y021700D02*
X038396Y022596D01*
X037372Y020371D02*
Y021572D01*
X037500Y021700*
X037628Y021936D02*
Y023029D01*
X038396Y022596D02*
X038829D01*
X037400Y023776D02*
X037884Y023292D01*
Y023029D02*
Y023292D01*
X038396Y020104D02*
Y020371D01*
X038829D02*
Y020804D01*
X037756Y020371D02*
X037884D01*
X037628D02*
X037756D01*
X037750Y020365D02*
X037756Y020371D01*
X039400Y021550D02*
X039900Y021050D01*
X039400Y021550D02*
Y022100D01*
X039160Y022340D02*
X039400Y022100D01*
X038829Y022340D02*
X039160D01*
X039900Y022050D02*
Y022150D01*
X039021Y023029D02*
X039900Y022150D01*
X038396Y023029D02*
X039021D01*
X038100Y023915D02*
X038140Y023876D01*
Y023029D02*
Y023876D01*
X034465Y022950D02*
Y023500D01*
X035085Y021050D02*
X035350Y020785D01*
X034450Y021050D02*
X035085D01*
X035350Y020785D02*
Y021665D01*
X035355Y022340D02*
X036171D01*
X035135Y022950D02*
X035817D01*
X036171Y022596*
X036083Y023550D02*
X036604Y023029D01*
X035085Y023550D02*
X036083D01*
X035200Y023665D02*
Y024300D01*
X035085Y023550D02*
X035200Y023665D01*
X036700Y023650D02*
X036860Y023490D01*
Y023029D02*
Y023490D01*
X035750Y020950D02*
X035860Y021060D01*
X036171*
G54D19*
X036750Y018700D02*
X036950D01*
X036250Y019200D02*
X036750Y018700D01*
X036150Y019200D02*
X036250D01*
X034600D02*
X036150D01*
Y019700*
X034600Y019200D02*
Y019700D01*
G54D20*
X034450Y021050D03*
X039900D03*
G54D21*
X034450Y022050D03*
X039950Y018700D03*
Y017700D03*
X038950Y018700D03*
Y017700D03*
X037950Y018700D03*
Y017700D03*
X036950Y018700D03*
Y017700D03*
X035950Y018700D03*
X039900Y022050D03*
G54D22*
X035950Y017700D03*
G54D23*
X036750Y019550D03*
X036150Y019700D03*
X035750D03*
X039900Y019950D03*
X039975Y022925D03*
X037750Y019850D03*
X036700Y024800D03*
X035350Y019700D03*
X034600D03*
X035200Y024300D03*
X036700Y023650D03*
G54D24*
X036791Y022409D03*
X037264D03*
X037736D03*
X038209D03*
X036791Y021936D03*
X037264D03*
X037736D03*
X038209D03*
X036791Y021464D03*
X037264D03*
X037736D03*
X038209D03*
X036791Y020991D03*
X037264D03*
X037736D03*
X038209D03*
M02*