%FSDAX24Y24*%
%MOIN*%
%SFA1B1*%

%IPPOS*%
%ADD32R,0.051300X0.047400*%
%ADD33O,0.049300X0.019800*%
%ADD34O,0.019800X0.049300*%
%ADD35R,0.216700X0.216700*%
%ADD36R,0.094600X0.086700*%
%ADD37R,0.067100X0.059200*%
%ADD38R,0.047400X0.051300*%
%ADD39R,0.067100X0.067100*%
%ADD40C,0.067100*%
%ADD41R,0.067100X0.067100*%
%ADD42C,0.039500*%
%LNde-120418_soldermask_top-1*%
%LPD*%
G54D32*
X035135Y023550D03*
X034465D03*
X035135Y022950D03*
X034465D03*
G54D33*
X036171Y022596D03*
Y022340D03*
Y022084D03*
Y021828D03*
Y021572D03*
Y021316D03*
Y021060D03*
Y020804D03*
X038829D03*
Y021060D03*
Y021316D03*
Y021572D03*
Y021828D03*
Y022084D03*
Y022340D03*
Y022596D03*
G54D34*
X036604Y020371D03*
X036860D03*
X037116D03*
X037372D03*
X037628D03*
X037884D03*
X038140D03*
X038396D03*
Y023029D03*
X038140D03*
X037884D03*
X037628D03*
X037372D03*
X037116D03*
X036860D03*
X036604D03*
G54D35*
X037500Y021700D03*
G54D36*
X039950Y024791D03*
Y023609D03*
X034600Y017809D03*
Y018991D03*
G54D37*
X038800Y023826D03*
Y024574D03*
X037400Y023776D03*
Y024524D03*
G54D38*
X038100Y023915D03*
Y024585D03*
X035350Y020215D03*
Y020885D03*
Y022335D03*
Y021665D03*
G54D39*
X034450Y021050D03*
X039900D03*
G54D40*
X034450Y022050D03*
X039950Y018700D03*
Y017700D03*
X038950Y018700D03*
Y017700D03*
X037950Y018700D03*
Y017700D03*
X036950Y018700D03*
Y017700D03*
X035950Y018700D03*
X039900Y022050D03*
G54D41*
X035950Y017700D03*
G54D42*
X036750Y019550D03*
X036150Y019700D03*
X035750D03*
X039900Y019950D03*
X039975Y022925D03*
X037750Y019850D03*
X036700Y024800D03*
X035350Y019700D03*
X034600D03*
X035200Y024300D03*
X036700Y023650D03*
M02*