%FSDAX24Y24*%
%MOIN*%
%SFA1B1*%

%IPPOS*%
%ADD10R,0.043300X0.039400*%
%ADD11O,0.041300X0.011800*%
%ADD12O,0.011800X0.041300*%
%ADD13R,0.208700X0.208700*%
%ADD14R,0.086600X0.078700*%
%ADD15R,0.059100X0.051200*%
%ADD16R,0.039400X0.043300*%
%ADD20R,0.059100X0.059100*%
%ADD21C,0.059100*%
%ADD22R,0.059100X0.059100*%
%LNde-120418_pads_top-1*%
%LPD*%
G54D10*
X035135Y023550D03*
X034465D03*
X035135Y022950D03*
X034465D03*
G54D11*
X036171Y022596D03*
Y022340D03*
Y022084D03*
Y021828D03*
Y021572D03*
Y021316D03*
Y021060D03*
Y020804D03*
X038829D03*
Y021060D03*
Y021316D03*
Y021572D03*
Y021828D03*
Y022084D03*
Y022340D03*
Y022596D03*
G54D12*
X036604Y020371D03*
X036860D03*
X037116D03*
X037372D03*
X037628D03*
X037884D03*
X038140D03*
X038396D03*
Y023029D03*
X038140D03*
X037884D03*
X037628D03*
X037372D03*
X037116D03*
X036860D03*
X036604D03*
G54D13*
X037500Y021700D03*
G54D14*
X039950Y024791D03*
Y023609D03*
X034600Y017809D03*
Y018991D03*
G54D15*
X038800Y023826D03*
Y024574D03*
X037400Y023776D03*
Y024524D03*
G54D16*
X038100Y023915D03*
Y024585D03*
X035350Y020215D03*
Y020885D03*
Y022335D03*
Y021665D03*
G54D20*
X034450Y021050D03*
X039900D03*
G54D21*
X034450Y022050D03*
X039950Y018700D03*
Y017700D03*
X038950Y018700D03*
Y017700D03*
X037950Y018700D03*
Y017700D03*
X036950Y018700D03*
Y017700D03*
X035950Y018700D03*
X039900Y022050D03*
G54D22*
X035950Y017700D03*
M02*