%FSDAX24Y24*%
%MOIN*%
%SFA1B1*%

%IPPOS*%
%ADD10R,0.043300X0.039400*%
%ADD15R,0.059100X0.051200*%
%ADD16R,0.039400X0.043300*%
%ADD17C,0.030000*%
%ADD18C,0.010000*%
%ADD19C,0.020000*%
%ADD20R,0.059100X0.059100*%
%ADD21C,0.059100*%
%ADD22R,0.059100X0.059100*%
%ADD23C,0.031500*%
%ADD24C,0.026000*%
%ADD25R,0.031500X0.035400*%
%ADD26R,0.051200X0.059100*%
%ADD27R,0.200000X0.200000*%
%LNde-120418_copper_signal_bot-1*%
%LPD*%
G36*
X040650Y022801D02*
X040600Y022785D01*
X040594Y022794*
X040294Y023094*
X040228Y023138*
X040150Y023154*
X040110Y023146*
X040105Y023150*
X040042Y023176*
X039975Y023185*
X039908Y023176*
X039845Y023150*
X039791Y023109*
X039750Y023055*
X039724Y022992*
X039715Y022925*
X039724Y022858*
X039750Y022795*
X039791Y022741*
X039845Y022700*
X039908Y022674*
X039975Y022665*
X040042Y022674*
X040105Y022700*
X040109Y022703*
X040246Y022566*
Y022330*
X040196Y022313*
X040182Y022332*
X040099Y022395*
X040003Y022435*
X039900Y022449*
X039797Y022435*
X039701Y022395*
X039618Y022332*
X039555Y022249*
X039515Y022153*
X039501Y022050*
X039515Y021947*
X039555Y021851*
X039618Y021768*
X039701Y021705*
X039797Y021665*
X039900Y021651*
X040003Y021665*
X040099Y021705*
X040182Y021768*
X040196Y021787*
X040246Y021770*
Y021487*
X040196Y021447*
X040195*
X039605*
X039566Y021439*
X039533Y021417*
X039511Y021384*
X039503Y021345*
Y020755*
X039511Y020716*
X039533Y020683*
X039566Y020661*
X039605Y020653*
X040195*
X040196*
X040246Y020613*
Y019034*
X040196Y019009*
X040149Y019045*
X040053Y019085*
Y019743*
X040084Y019766*
X040125Y019820*
X040151Y019883*
X040160Y019950*
X040151Y020017*
X040125Y020080*
X040084Y020134*
X040030Y020175*
X039967Y020201*
X039900Y020210*
X039833Y020201*
X039770Y020175*
X039716Y020134*
X039675Y020080*
X039649Y020017*
X039640Y019950*
X039649Y019883*
X039675Y019820*
X039716Y019766*
X039747Y019743*
Y019043*
X039668Y018982*
X039605Y018899*
X039565Y018803*
X039551Y018700*
X039565Y018597*
X039605Y018501*
X039668Y018418*
X039751Y018355*
X039847Y018315*
X039950Y018301*
X040053Y018315*
X040149Y018355*
X040196Y018391*
X040246Y018366*
Y018034*
X040196Y018009*
X040149Y018045*
X040053Y018085*
X039950Y018099*
X039847Y018085*
X039751Y018045*
X039668Y017982*
X039605Y017899*
X039565Y017803*
X039551Y017700*
X039565Y017597*
X039605Y017501*
X039641Y017454*
X039616Y017404*
X039284*
X039259Y017454*
X039295Y017501*
X039335Y017597*
X039349Y017700*
X039335Y017803*
X039295Y017899*
X039232Y017982*
X039149Y018045*
X039053Y018085*
X038950Y018099*
X038847Y018085*
X038751Y018045*
X038668Y017982*
X038605Y017899*
X038565Y017803*
X038551Y017700*
X038565Y017597*
X038605Y017501*
X038641Y017454*
X038616Y017404*
X038284*
X038259Y017454*
X038295Y017501*
X038335Y017597*
X038349Y017700*
X038335Y017803*
X038295Y017899*
X038232Y017982*
X038149Y018045*
X038053Y018085*
X037950Y018099*
X037847Y018085*
X037751Y018045*
X037668Y017982*
X037605Y017899*
X037565Y017803*
X037551Y017700*
X037565Y017597*
X037605Y017501*
X037641Y017454*
X037616Y017404*
X037284*
X037259Y017454*
X037295Y017501*
X037335Y017597*
X037349Y017700*
X037335Y017803*
X037295Y017899*
X037232Y017982*
X037149Y018045*
X037053Y018085*
X036950Y018099*
X036847Y018085*
X036751Y018045*
X036704Y018009*
X036654Y018034*
Y018100*
X036638Y018178*
X036594Y018244*
X036394Y018444*
X036328Y018488*
X036313Y018542*
X036335Y018597*
X036349Y018700*
X036335Y018803*
X036295Y018899*
X036232Y018982*
X036212Y018997*
X036229Y019047*
X036671*
X036688Y018997*
X036668Y018982*
X036605Y018899*
X036565Y018803*
X036551Y018700*
X036565Y018597*
X036605Y018501*
X036668Y018418*
X036751Y018355*
X036847Y018315*
X036950Y018301*
X037053Y018315*
X037149Y018355*
X037232Y018418*
X037295Y018501*
X037335Y018597*
X037349Y018700*
X037335Y018803*
X037295Y018899*
X037232Y018982*
X037212Y018997*
X037229Y019047*
X037387*
X037584Y018850*
X037565Y018803*
X037551Y018700*
X037565Y018597*
X037605Y018501*
X037668Y018418*
X037751Y018355*
X037847Y018315*
X037950Y018301*
X038053Y018315*
X038149Y018355*
X038232Y018418*
X038295Y018501*
X038335Y018597*
X038349Y018700*
X038335Y018803*
X038295Y018899*
X038232Y018982*
X038149Y019045*
X038053Y019085*
X037950Y019099*
X037847Y019085*
X037800Y019066*
X037719Y019147*
X037740Y019197*
X038237*
X038584Y018850*
X038565Y018803*
X038551Y018700*
X038565Y018597*
X038605Y018501*
X038668Y018418*
X038751Y018355*
X038847Y018315*
X038950Y018301*
X039053Y018315*
X039149Y018355*
X039232Y018418*
X039295Y018501*
X039335Y018597*
X039349Y018700*
X039335Y018803*
X039295Y018899*
X039232Y018982*
X039149Y019045*
X039053Y019085*
X038950Y019099*
X038847Y019085*
X038800Y019066*
X038408Y019458*
X038359Y019491*
X038334Y019496*
X038339Y019546*
X038950*
X039028Y019562*
X039094Y019606*
X039194Y019706*
X039238Y019772*
X039254Y019850*
Y019903*
X039280*
X039319Y019911*
X039352Y019933*
X039374Y019966*
X039382Y020005*
Y020595*
X039374Y020634*
X039352Y020667*
X039319Y020689*
X039305Y020692*
Y022950*
X039286Y023048*
X039230Y023130*
X038980Y023380*
X038898Y023435*
X038800Y023455*
X037947*
X037922Y023471*
X037883Y023479*
X037568*
X037529Y023471*
X037496Y023449*
X037476Y023420*
X037450Y023417*
X037424Y023420*
X037404Y023449*
X037371Y023471*
X037332Y023479*
X037017*
X036978Y023471*
X036945Y023449*
X036933Y023448*
X036901Y023489*
X036925Y023520*
X036951Y023583*
X036960Y023650*
X036951Y023717*
X036925Y023780*
X036884Y023834*
X036830Y023875*
X036767Y023901*
X036700Y023910*
X036633Y023901*
X036570Y023875*
X036516Y023834*
X036497Y023809*
X036447Y023811*
Y023880*
X036439Y023919*
X036417Y023952*
X036384Y023974*
X036345Y023982*
X036340*
X036318Y024031*
X036331Y024051*
X036383Y024050*
X036396Y024031*
X036429Y024009*
X036468Y024001*
X036635*
Y024300*
X036685*
Y024350*
X037003*
Y024497*
X036995Y024536*
X036973Y024569*
X036940Y024591*
Y024705*
X036951Y024733*
X036953Y024750*
X036700*
Y024800*
X036650*
Y025055*
X034600*
X034502Y025036*
X034420Y024980*
X034246Y024806*
X034190Y024724*
X034171Y024626*
Y024047*
X034170*
X034131Y024039*
X034098Y024017*
X034076Y023984*
X034068Y023945*
Y023700*
X034426*
Y023600*
X034068*
Y023355*
X034076Y023316*
X034098Y023283*
X034131Y023261*
X034170Y023253*
X034409*
X034467Y023195*
X034447Y023149*
X034099*
X034060Y023141*
X034027Y023119*
X034005Y023086*
X033997Y023047*
Y022653*
X034005Y022614*
X034027Y022581*
X034060Y022559*
X034099Y022551*
X034297*
Y022414*
X034251Y022395*
X034168Y022332*
X034105Y022249*
X034077Y022181*
X034042Y022158*
X033892Y022008*
X033859Y021959*
X033847Y021900*
Y020350*
X033859Y020291*
X033892Y020242*
X033992Y020142*
X034041Y020109*
X034100Y020097*
X034197*
Y020053*
X034205Y020014*
X034227Y019981*
X034260Y019959*
X034299Y019951*
X034422*
X034439Y019901*
X034416Y019884*
X034375Y019830*
X034349Y019767*
X034340Y019700*
X034349Y019633*
X034375Y019570*
X034396Y019543*
Y018903*
X034053*
X034014Y018895*
X033981Y018873*
X033959Y018840*
X033951Y018801*
Y018368*
X033959Y018329*
X033981Y018296*
X034010Y018276*
X034013Y018250*
X034010Y018224*
X033981Y018204*
X033959Y018171*
X033951Y018132*
Y017965*
X034250*
Y017915*
X034300*
Y017597*
X034447*
X034486Y017605*
X034504Y017617*
X034507*
X034550Y017602*
X034557Y017597*
X034561Y017581*
X034583Y017548*
X034616Y017526*
X034655Y017518*
X034948*
X035028Y017464*
X035126Y017445*
X035553*
Y017405*
X035561Y017366*
X035583Y017333*
X035616Y017311*
X035655Y017303*
X035900*
Y017700*
X036000*
Y017303*
X036245*
X036271Y017308*
X036306Y017256*
X036462Y017100*
X036441Y017050*
X033750*
Y025350*
X040650*
Y022801*
G37*
G36*
X036100Y022518D02*
X036321D01*
X036398Y022441*
Y021470*
X036348Y021431*
X036345Y021432*
X036100*
Y021074*
X036000*
Y021432*
X035755*
X035716Y021424*
X035683Y021402*
X035661Y021369*
X035653Y021330*
Y021329*
X035274*
X035176Y021310*
X035094Y021254*
X034970Y021130*
X034915Y021048*
X034897Y020961*
X034847Y020966*
Y021345*
X034839Y021384*
X034817Y021417*
X034784Y021439*
X034745Y021447*
X034155*
X034153Y021449*
Y021717*
X034203Y021741*
X034251Y021705*
X034347Y021665*
X034450Y021651*
X034553Y021665*
X034649Y021705*
X034732Y021768*
X034795Y021851*
X034835Y021947*
X034849Y022050*
X034835Y022153*
X034795Y022249*
X034732Y022332*
X034649Y022395*
X034603Y022414*
Y022580*
X034604Y022581*
X034624Y022610*
X034650Y022613*
X034676Y022610*
X034696Y022581*
X034729Y022559*
X034768Y022551*
X034935*
Y022850*
X035035*
Y022551*
X035201*
X035240Y022559*
X035273Y022581*
X035295Y022614*
X035297Y022621*
X035653*
Y022620*
X035661Y022581*
X035683Y022548*
X035716Y022526*
X035755Y022518*
X036000*
Y022876*
X036100*
Y022518*
G37*
G36*
X034876Y020010D02*
X034896Y019981D01*
X034929Y019959*
X034968Y019951*
X035023*
X035095Y019879*
Y019750*
X035350*
Y019650*
X035097*
X035099Y019633*
X035125Y019570*
X035146Y019543*
Y019250*
X035162Y019172*
X035206Y019106*
X035246Y019066*
Y018983*
X035245Y018982*
X034804*
Y019543*
X034825Y019570*
X034851Y019633*
X034860Y019700*
X034851Y019767*
X034825Y019830*
X034784Y019884*
X034756Y019905*
X034768Y019958*
X034771Y019959*
X034804Y019981*
X034824Y020010*
X034850Y020013*
X034876Y020010*
G37*
%LNde-120418_copper_signal_bot-2*%
%LPC*%
G36*
X036750Y025053D02*
Y024850D01*
X036953*
X036951Y024867*
X036925Y024930*
X036884Y024984*
X036830Y025025*
X036767Y025051*
X036750Y025053*
G37*
G36*
X037003Y024250D02*
X036735D01*
Y024001*
X036901*
X036940Y024009*
X036973Y024031*
X036995Y024064*
X037003Y024103*
Y024250*
G37*
G36*
X034200Y017865D02*
X033951D01*
Y017699*
X033959Y017660*
X033981Y017627*
X034014Y017605*
X034053Y017597*
X034200*
Y017865*
G37*
%LNde-120418_copper_signal_bot-3*%
%LPD*%
G54D10*
X034515Y020250D03*
X035185D03*
X034315Y022850D03*
X034985D03*
X036015Y024300D03*
X036685D03*
G54D15*
X034950Y018624D03*
Y017876D03*
X036050Y020326D03*
Y021074D03*
Y023624D03*
Y022876D03*
G54D16*
X034250Y018585D03*
Y017915D03*
G54D17*
X035150Y020950D02*
X035274Y021074D01*
X035150Y020185D02*
Y020950D01*
Y020185D02*
X035350Y019985D01*
X037726Y023200D02*
X038800D01*
X039050Y022950*
Y020326D02*
Y022950D01*
X035274Y021074D02*
X036050D01*
X038209Y020991D02*
X038276Y020924D01*
Y020300D02*
Y020924D01*
X034426Y023650D02*
Y024626D01*
X034600Y024800*
X036700*
X035400Y017700D02*
X035950D01*
X035126D02*
X035400D01*
X036709Y021074D02*
X036791Y020991D01*
X036050Y021074D02*
X036709D01*
X036324Y022876D02*
X036791Y022409D01*
X036050Y022876D02*
X036324D01*
X036685Y024300D02*
Y024785D01*
X035350Y019700D02*
Y019985D01*
X034950Y017876D02*
X035126Y017700D01*
X034911Y017915D02*
X034950Y017876D01*
X034250Y017915D02*
X034911D01*
X035209Y022876D02*
X036050D01*
G54D18*
X034315Y020250D02*
X034465Y020100D01*
X034100Y020250D02*
X034315D01*
X034000Y020350D02*
X034100Y020250D01*
X034000Y021900D02*
X034150Y022050D01*
X034000Y020350D02*
Y021900D01*
X036950Y023200D02*
X037174D01*
X036700Y023450D02*
X036950Y023200D01*
X036700Y023450D02*
Y023650D01*
X037450Y019200D02*
X037950Y018700D01*
X036050Y019200D02*
X037450D01*
X035750Y019500D02*
X036050Y019200D01*
X037700Y019350D02*
X038300D01*
X037500Y019550D02*
X037700Y019350D01*
X036750Y019550D02*
X037500D01*
X035750Y019500D02*
Y019700D01*
X039900Y018750D02*
Y019950D01*
X038300Y019350D02*
X038950Y018700D01*
X035126Y022950D02*
X035135D01*
X034150Y022050D02*
X034450D01*
Y022935*
X035135Y022950D02*
X035209Y022876D01*
X035200Y023676D02*
Y024300D01*
X036015Y023659D02*
Y024300D01*
Y023659D02*
X036050Y023624D01*
X036076Y023650*
X036700*
G54D19*
X037750Y019850D02*
Y020150D01*
X037600Y020300D02*
X037750Y020150D01*
X036150Y020300D02*
X037600D01*
X036150Y019700D02*
Y020300D01*
X039050Y019850D02*
Y020326D01*
X038950Y019750D02*
X039050Y019850D01*
X037850Y019750D02*
X038950D01*
X037750Y019850D02*
X037850Y019750D01*
X034985Y022850D02*
Y022965D01*
X034426Y023524D02*
X034985Y022965D01*
X034426Y023524D02*
Y023650D01*
X035400Y017700D02*
X035450Y017750D01*
Y019150*
X035350Y019250D02*
X035450Y019150D01*
X035350Y019250D02*
Y019700D01*
X036450Y017400D02*
Y018100D01*
X036250Y018300D02*
X036450Y018100D01*
X036100Y018300D02*
X036250D01*
X035950Y018450D02*
Y018700D01*
Y018450D02*
X036100Y018300D01*
X036050Y020326D02*
X036150Y020226D01*
X036900Y018700D02*
X036950D01*
X034600Y018635D02*
Y019700D01*
X040150Y022950D02*
X040450Y022650D01*
Y017450D02*
Y022650D01*
X040200Y017200D02*
X040450Y017450D01*
X036650Y017200D02*
X040200D01*
X036450Y017400D02*
X036650Y017200D01*
X035950Y018700D02*
X036000D01*
X034911Y018585D02*
Y018711D01*
X034995Y018500D02*
Y018595D01*
X034911Y018585D02*
X034995Y018500D01*
X039975Y022925D02*
X040125D01*
X040150Y022950*
X034550Y018585D02*
X034911D01*
X034250D02*
X034550D01*
X034600Y018635*
G54D20*
X034450Y021050D03*
X039900D03*
G54D21*
X034450Y022050D03*
X039950Y018700D03*
Y017700D03*
X038950Y018700D03*
Y017700D03*
X037950Y018700D03*
Y017700D03*
X036950Y018700D03*
Y017700D03*
X035950Y018700D03*
X039900Y022050D03*
G54D22*
X035950Y017700D03*
G54D23*
X036750Y019550D03*
X036150Y019700D03*
X035750D03*
X039900Y019950D03*
X039975Y022925D03*
X037750Y019850D03*
X036700Y024800D03*
X035350Y019700D03*
X034600D03*
X035200Y024300D03*
X036700Y023650D03*
G54D24*
X036791Y022409D03*
X037264D03*
X037736D03*
X038209D03*
X036791Y021936D03*
X037264D03*
X037736D03*
X038209D03*
X036791Y021464D03*
X037264D03*
X037736D03*
X038209D03*
X036791Y020991D03*
X037264D03*
X037736D03*
X038209D03*
G54D25*
X037174Y023200D03*
X037726D03*
G54D26*
X039024Y020300D03*
X038276D03*
X035174Y023650D03*
X034426D03*
G54D27*
X037500Y021700D03*
M02*