%FSDAX24Y24*%
%MOIN*%
%SFA1B1*%

%IPPOS*%
%ADD35R,0.067100X0.067100*%
%ADD36C,0.067100*%
%ADD37R,0.055200X0.106400*%
%ADD38O,0.055200X0.106400*%
%ADD39C,0.073000*%
%ADD40C,0.106400*%
%ADD41R,0.071000X0.071000*%
%ADD42C,0.071000*%
%ADD43C,0.067100*%
%ADD44R,0.067100X0.067100*%
%ADD45C,0.071000*%
%ADD46C,0.124100*%
%LNde-130418_soldermask_bot-1*%
%LPD*%
G54D35*
X001800Y005300D03*
G54D36*
X001800Y004300D03*
Y003300D03*
G54D37*
X006000Y007800D03*
X000800D03*
X011200D03*
G54D38*
X007000Y007800D03*
X008000D03*
X006000Y010800D03*
X007000D03*
X008000D03*
X001800Y007800D03*
X002800D03*
X000800Y010800D03*
X001800D03*
X002800D03*
X012200Y007800D03*
X013200D03*
X011200Y010800D03*
X012200D03*
X013200D03*
G54D39*
X012600Y011923D03*
Y016077D03*
X011200Y011923D03*
Y016077D03*
X002200Y011923D03*
Y016077D03*
X000800Y011923D03*
Y016077D03*
X006000Y011923D03*
Y016077D03*
X007400Y011923D03*
Y016077D03*
G54D40*
X011416Y018800D03*
X013384D03*
X006116D03*
X008084D03*
X002116D03*
X004084D03*
G54D41*
X014400Y015060D03*
X009200D03*
X004000D03*
G54D42*
X014400Y014060D03*
Y013060D03*
X009200Y014060D03*
Y013060D03*
X004000Y014060D03*
Y013060D03*
G54D43*
X008850Y005450D03*
X005850D03*
X008350Y004450D03*
X007850Y005450D03*
X006850D03*
X007350Y004450D03*
G54D44*
X005350Y004450D03*
G54D45*
X006350Y004450D03*
G54D46*
X004850Y001950D03*
X009350D03*
M02*