%FSDAX24Y24*%
%MOIN*%
%SFA1B1*%

%IPPOS*%
%ADD10R,0.051200X0.059100*%
%ADD11R,0.059100X0.051200*%
%ADD12R,0.043300X0.039400*%
%ADD13C,0.020000*%
%ADD14C,0.050000*%
%ADD15R,0.059100X0.059100*%
%ADD16C,0.059100*%
%ADD17R,0.047200X0.098400*%
%ADD18O,0.047200X0.098400*%
%ADD19C,0.065000*%
%ADD20C,0.098400*%
%ADD21R,0.063000X0.063000*%
%ADD22C,0.063000*%
%ADD23C,0.059100*%
%ADD24R,0.059100X0.059100*%
%ADD25C,0.063000*%
%ADD26C,0.116100*%
%ADD30C,0.010000*%
%ADD50C,0.005000*%
%ADD51C,0.040000*%
%ADD52C,0.080000*%
%ADD53C,0.160000*%
%ADD54C,0.320000*%
%LNde-130418_copper_signal_top-1*%
%LPD*%
G54D50*
X015975Y000025D02*
X000025D01*
Y009275*
X015975*
Y000025*
G54D30*
X015925Y000075D02*
X000075D01*
Y009225*
X015925*
Y000075*
G54D13*
X015825Y000174D02*
X000174Y000175D01*
X000175Y009125*
X015825*
Y000174*
G54D51*
X015625Y000374D02*
X000374D01*
Y008924*
X015625Y008925*
Y000374*
G54D52*
X015225Y000774D02*
X000774Y000774D01*
X000774Y008524*
X015225*
Y000774*
G54D53*
X014425Y001574D02*
X001574D01*
Y007724*
X014425*
Y001574*
G54D54*
X012825Y003174D02*
X003174D01*
X003174Y006124*
X012825*
Y003174*
%LNde-130418_copper_signal_top-2*%
%LPC*%
G36*
X010545Y009030D02*
X009655D01*
Y008879*
X009232*
X009180Y008930*
X009098Y008985*
X009000Y009005*
X005250*
X005152Y008985*
X005070Y008930*
X004976Y008837*
X004930Y008856*
Y008945*
X003408*
X003348Y008985*
X003250Y009005*
X001100*
X001002Y008985*
X000920Y008930*
X000620Y008630*
X000564Y008548*
X000545Y008450*
Y008442*
X000414*
Y007158*
X001186*
Y008442*
X001204Y008485*
X001213Y008495*
X003144*
X003270Y008370*
X003352Y008315*
X003370Y008311*
Y008055*
X004074*
X004120Y008045*
Y007155*
X005680*
Y007158*
X006386*
Y008442*
X005614*
Y008045*
X004976*
X004930Y008055*
Y008243*
X004998*
X005096Y008263*
X005178Y008318*
X005356Y008495*
X008601*
X008635Y008445*
X008621Y008374*
Y007545*
X008470*
Y006655*
X008499*
Y006003*
X008595*
Y005815*
X008532Y005767*
X008461Y005674*
X008416Y005566*
X008401Y005450*
X008416Y005333*
X008461Y005225*
X008532Y005132*
X008625Y005061*
X008734Y005016*
X008850Y005000*
X008966Y005016*
X009075Y005061*
X009168Y005132*
X009239Y005225*
X009284Y005333*
X009299Y005450*
X009284Y005566*
X009239Y005674*
X009168Y005767*
X009105Y005815*
Y006003*
X009232*
Y006053*
X009485*
Y006350*
Y006647*
X009329*
X009282Y006655*
Y006705*
X009574*
Y007100*
X009624*
Y007150*
X009980*
Y007470*
X010545*
Y007545*
X010814*
Y007158*
X011586*
Y008442*
X010814*
Y008055*
X010545*
Y008218*
Y009030*
G37*
G36*
X013200Y008445D02*
X013099Y008432D01*
X013005Y008393*
X012925Y008331*
X012863Y008251*
X012824Y008157*
X012810Y008056*
Y007544*
X012824Y007443*
X012863Y007349*
X012925Y007269*
X013005Y007207*
X013099Y007168*
X013200Y007155*
X013301Y007168*
X013395Y007207*
X013475Y007269*
X013537Y007349*
X013576Y007443*
X013590Y007544*
Y008056*
X013576Y008157*
X013537Y008251*
X013475Y008331*
X013395Y008393*
X013301Y008432*
X013200Y008445*
G37*
G36*
X008000D02*
X007899Y008432D01*
X007805Y008393*
X007725Y008331*
X007663Y008251*
X007624Y008157*
X007610Y008056*
Y007544*
X007624Y007443*
X007663Y007349*
X007725Y007269*
X007805Y007207*
X007899Y007168*
X008000Y007155*
X008101Y007168*
X008195Y007207*
X008275Y007269*
X008337Y007349*
X008376Y007443*
X008390Y007544*
Y008056*
X008376Y008157*
X008337Y008251*
X008275Y008331*
X008195Y008393*
X008101Y008432*
X008000Y008445*
G37*
G36*
X002800D02*
X002699Y008432D01*
X002605Y008393*
X002525Y008331*
X002463Y008251*
X002424Y008157*
X002410Y008056*
Y007544*
X002424Y007443*
X002463Y007349*
X002525Y007269*
X002605Y007207*
X002699Y007168*
X002800Y007155*
X002901Y007168*
X002995Y007207*
X003075Y007269*
X003137Y007349*
X003176Y007443*
X003190Y007544*
Y008056*
X003176Y008157*
X003137Y008251*
X003075Y008331*
X002995Y008393*
X002901Y008432*
X002800Y008445*
G37*
G36*
X009980Y007050D02*
X009674D01*
Y006705*
X009980*
Y007050*
G37*
G36*
X009851Y006647D02*
X009585D01*
Y006400*
X009851*
Y006647*
G37*
G36*
Y006300D02*
X009585D01*
Y006053*
X009851*
Y006300*
G37*
G36*
X001800Y008445D02*
X001699Y008432D01*
X001605Y008393*
X001525Y008331*
X001463Y008251*
X001424Y008157*
X001410Y008056*
Y007544*
X001424Y007443*
X001463Y007349*
X001525Y007269*
X001545Y007253*
Y007050*
X001565Y006952*
X001620Y006870*
X002370Y006120*
X002452Y006065*
X002550Y006045*
X004894*
X005411Y005528*
X005401Y005450*
X005416Y005333*
X005461Y005225*
X005532Y005132*
X005625Y005061*
X005734Y005016*
X005850Y005000*
X005966Y005016*
X006075Y005061*
X006168Y005132*
X006239Y005225*
X006284Y005333*
X006299Y005450*
X006284Y005566*
X006239Y005674*
X006168Y005767*
X006075Y005839*
X005966Y005883*
X005850Y005899*
X005772Y005888*
X005180Y006480*
X005097Y006535*
X005000Y006555*
X002656*
X002055Y007156*
Y007253*
X002075Y007269*
X002137Y007349*
X002176Y007443*
X002190Y007544*
Y008056*
X002176Y008157*
X002137Y008251*
X002075Y008331*
X001995Y008393*
X001901Y008432*
X001800Y008445*
G37*
G36*
X007000D02*
X006899Y008432D01*
X006805Y008393*
X006725Y008331*
X006663Y008251*
X006624Y008157*
X006610Y008056*
Y007544*
X006624Y007443*
X006663Y007349*
X006725Y007269*
X006745Y007253*
Y006850*
X006765Y006752*
X006820Y006670*
X007595Y005894*
Y005815*
X007532Y005767*
X007461Y005674*
X007416Y005566*
X007401Y005450*
X007416Y005333*
X007461Y005225*
X007532Y005132*
X007625Y005061*
X007734Y005016*
X007850Y005000*
X007966Y005016*
X008075Y005061*
X008168Y005132*
X008239Y005225*
X008284Y005333*
X008299Y005450*
X008284Y005566*
X008239Y005674*
X008168Y005767*
X008105Y005815*
Y006000*
X008085Y006098*
X008030Y006180*
X007255Y006956*
Y007253*
X007275Y007269*
X007337Y007349*
X007376Y007443*
X007390Y007544*
Y008056*
X007376Y008157*
X007337Y008251*
X007275Y008331*
X007195Y008393*
X007101Y008432*
X007000Y008445*
G37*
G36*
X006850Y005899D02*
X006734Y005883D01*
X006625Y005839*
X006532Y005767*
X006461Y005674*
X006416Y005566*
X006401Y005450*
X006416Y005333*
X006461Y005225*
X006532Y005132*
X006625Y005061*
X006734Y005016*
X006850Y005000*
X006966Y005016*
X007075Y005061*
X007168Y005132*
X007239Y005225*
X007284Y005333*
X007299Y005450*
X007284Y005566*
X007239Y005674*
X007168Y005767*
X007075Y005839*
X006966Y005883*
X006850Y005899*
G37*
G36*
X002245Y005745D02*
X001355D01*
Y004855*
X002245*
Y005745*
G37*
G36*
X012200Y008445D02*
X012099Y008432D01*
X012005Y008393*
X011925Y008331*
X011863Y008251*
X011824Y008157*
X011810Y008056*
Y007544*
X011824Y007443*
X011863Y007349*
X011925Y007269*
X011945Y007253*
Y006356*
X010294Y004705*
X008716*
X008668Y004767*
X008575Y004839*
X008466Y004883*
X008350Y004899*
X008234Y004883*
X008125Y004839*
X008032Y004767*
X007961Y004674*
X007916Y004566*
X007901Y004450*
X007916Y004333*
X007961Y004225*
X008032Y004132*
X008125Y004061*
X008234Y004016*
X008350Y004000*
X008466Y004016*
X008575Y004061*
X008668Y004132*
X008716Y004195*
X010400*
X010497Y004214*
X010580Y004269*
X012380Y006070*
X012435Y006152*
X012455Y006250*
Y007253*
X012475Y007269*
X012537Y007349*
X012576Y007443*
X012590Y007544*
Y008056*
X012576Y008157*
X012537Y008251*
X012475Y008331*
X012395Y008393*
X012301Y008432*
X012200Y008445*
G37*
G36*
X005745Y004845D02*
X005400D01*
Y004500*
X005745*
Y004845*
G37*
G36*
X005300D02*
X004955D01*
Y004500*
X005300*
Y004845*
G37*
G36*
X005745Y004400D02*
X005400D01*
Y004054*
X005745*
Y004400*
G37*
G36*
X005300D02*
X004955D01*
Y004054*
X005300*
Y004400*
G37*
G36*
X007350Y004899D02*
X007234Y004883D01*
X007125Y004839*
X007032Y004767*
X006961Y004674*
X006916Y004566*
X006901Y004450*
X006916Y004333*
X006961Y004225*
X007032Y004132*
X007125Y004061*
X007234Y004016*
X007350Y004000*
X007466Y004016*
X007575Y004061*
X007668Y004132*
X007739Y004225*
X007784Y004333*
X007799Y004450*
X007784Y004566*
X007739Y004674*
X007668Y004767*
X007575Y004839*
X007466Y004883*
X007350Y004899*
G37*
G36*
X006350Y004919D02*
X006229Y004903D01*
X006116Y004856*
X006018Y004781*
X005944Y004684*
X005897Y004571*
X005881Y004450*
X005897Y004328*
X005944Y004215*
X006018Y004118*
X006116Y004043*
X006229Y003997*
X006350Y003981*
X006471Y003997*
X006584Y004043*
X006682Y004118*
X006756Y004215*
X006803Y004328*
X006819Y004450*
X006803Y004571*
X006756Y004684*
X006682Y004781*
X006584Y004856*
X006471Y004903*
X006350Y004919*
G37*
G36*
X001800Y004749D02*
X001684Y004734D01*
X001575Y004689*
X001482Y004618*
X001411Y004525*
X001366Y004416*
X001351Y004300*
X001366Y004184*
X001411Y004075*
X001482Y003982*
X001575Y003911*
X001684Y003866*
X001800Y003851*
X001916Y003866*
X002025Y003911*
X002118Y003982*
X002189Y004075*
X002234Y004184*
X002249Y004300*
X002234Y004416*
X002189Y004525*
X002118Y004618*
X002025Y004689*
X001916Y004734*
X001800Y004749*
G37*
G36*
Y003749D02*
X001684Y003734D01*
X001575Y003689*
X001482Y003618*
X001411Y003525*
X001366Y003416*
X001351Y003300*
X001366Y003184*
X001411Y003075*
X001482Y002982*
X001575Y002911*
X001684Y002866*
X001800Y002851*
X001916Y002866*
X002025Y002911*
X002118Y002982*
X002189Y003075*
X002234Y003184*
X002249Y003300*
X002234Y003416*
X002189Y003525*
X002118Y003618*
X002025Y003689*
X001916Y003734*
X001800Y003749*
G37*
G36*
X009350Y002743D02*
X009195Y002728D01*
X009046Y002683*
X008909Y002609*
X008789Y002511*
X008690Y002391*
X008617Y002253*
X008572Y002104*
X008556Y001950*
X008572Y001795*
X008617Y001646*
X008690Y001509*
X008789Y001388*
X008909Y001290*
X009046Y001216*
X009195Y001171*
X009350Y001156*
X009505Y001171*
X009654Y001216*
X009791Y001290*
X009911Y001388*
X010010Y001509*
X010083Y001646*
X010128Y001795*
X010144Y001950*
X010128Y002104*
X010083Y002253*
X010010Y002391*
X009911Y002511*
X009791Y002609*
X009654Y002683*
X009505Y002728*
X009350Y002743*
G37*
G36*
X004850D02*
X004695Y002728D01*
X004546Y002683*
X004409Y002609*
X004289Y002511*
X004190Y002391*
X004117Y002253*
X004072Y002104*
X004056Y001950*
X004072Y001795*
X004117Y001646*
X004190Y001509*
X004289Y001388*
X004409Y001290*
X004546Y001216*
X004695Y001171*
X004850Y001156*
X005005Y001171*
X005154Y001216*
X005291Y001290*
X005411Y001388*
X005510Y001509*
X005583Y001646*
X005628Y001795*
X005644Y001950*
X005628Y002104*
X005583Y002253*
X005510Y002391*
X005411Y002511*
X005291Y002609*
X005154Y002683*
X005005Y002728*
X004850Y002743*
G37*
%LNde-130418_copper_signal_top-3*%
%LPD*%
G54D10*
X005274Y007600D03*
X004526D03*
X003776Y008500D03*
X004524D03*
X008876Y007100D03*
X009624D03*
G54D11*
X010100Y007876D03*
Y008624D03*
G54D12*
X008865Y006350D03*
X009535D03*
G54D13*
X008850Y005450D02*
Y007074D01*
X008876Y008374D02*
X009126Y008624D01*
X008876Y007100D02*
Y008374D01*
X008850Y007074D02*
X008876Y007100D01*
X004526Y008498D02*
X004998D01*
X005250Y008750*
X009000*
X009126Y008624*
X010100*
X003726Y008550D02*
X003776Y008500D01*
X003450Y008550D02*
X003726D01*
X003250Y008750D02*
X003450Y008550D01*
X001100Y008750D02*
X003250D01*
X000800Y008450D02*
X001100Y008750D01*
X000800Y007800D02*
Y008450D01*
X004526Y007600D02*
Y008498D01*
X005274Y007600D02*
X005800D01*
X010100Y007926D02*
X010226Y007800D01*
X011200*
X012200Y006250D02*
Y007800D01*
X010400Y004450D02*
X012200Y006250D01*
X008350Y004450D02*
X010400D01*
X007000Y006850D02*
Y007800D01*
Y006850D02*
X007850Y006000D01*
Y005450D02*
Y006000D01*
X001800Y007050D02*
Y007800D01*
Y007050D02*
X002550Y006300D01*
X005000*
X005850Y005450*
G54D14*
X013384Y017884D02*
Y018800D01*
X012700Y017200D02*
X013384Y017884D01*
X011600Y017200D02*
X012700D01*
X011200Y016077D02*
Y016800D01*
X011600Y017200*
G54D15*
X001800Y005300D03*
G54D16*
X001800Y004300D03*
Y003300D03*
G54D17*
X006000Y007800D03*
X000800D03*
X011200D03*
G54D18*
X007000Y007800D03*
X008000D03*
X006000Y010800D03*
X007000D03*
X008000D03*
X001800Y007800D03*
X002800D03*
X000800Y010800D03*
X001800D03*
X002800D03*
X012200Y007800D03*
X013200D03*
X011200Y010800D03*
X012200D03*
X013200D03*
G54D19*
X012600Y011923D03*
Y016077D03*
X011200Y011923D03*
Y016077D03*
X002200Y011923D03*
Y016077D03*
X000800Y011923D03*
Y016077D03*
X006000Y011923D03*
Y016077D03*
X007400Y011923D03*
Y016077D03*
G54D20*
X011416Y018800D03*
X013384D03*
X006116D03*
X008084D03*
X002116D03*
X004084D03*
G54D21*
X014400Y015060D03*
X009200D03*
X004000D03*
G54D22*
X014400Y014060D03*
Y013060D03*
X009200Y014060D03*
Y013060D03*
X004000Y014060D03*
Y013060D03*
G54D23*
X008850Y005450D03*
X005850D03*
X008350Y004450D03*
X007850Y005450D03*
X006850D03*
X007350Y004450D03*
G54D24*
X005350Y004450D03*
G54D25*
X006350Y004450D03*
G54D26*
X004850Y001950D03*
X009350D03*
M02*