%FSDAX24Y24*%
%MOIN*%
%SFA1B1*%

%IPPOS*%
%ADD28C,0.007900*%
%ADD29C,0.009800*%
%ADD30C,0.010000*%
%ADD31C,0.008000*%
%LNde-130418_legend_top-1*%
%LPD*%
G54D28*
X005500Y009050D02*
D01*
X005517Y009050*
X005534Y009052*
X005551Y009055*
X005568Y009059*
X005585Y009065*
X005601Y009071*
X005617Y009079*
X005632Y009087*
X005646Y009097*
X005660Y009108*
X005673Y009120*
X005685Y009132*
X005697Y009146*
X005707Y009160*
X005716Y009175*
X005724Y009190*
X005731Y009206*
X005737Y009222*
X005742Y009239*
X005746Y009256*
X005748Y009273*
X005749Y009291*
Y009308*
X005748Y009326*
X005746Y009343*
X005742Y009360*
X005737Y009377*
X005731Y009393*
X005724Y009409*
X005716Y009425*
X005707Y009439*
X005697Y009453*
X005685Y009467*
X005673Y009479*
X005660Y009491*
X005646Y009502*
X005632Y009512*
X005617Y009520*
X005601Y009528*
X005585Y009534*
X005568Y009540*
X005551Y009544*
X005534Y009547*
X005517Y009549*
X005500Y009550*
X000300Y009050D02*
D01*
X000317Y009050*
X000334Y009052*
X000351Y009055*
X000368Y009059*
X000385Y009065*
X000401Y009071*
X000417Y009079*
X000432Y009087*
X000446Y009097*
X000460Y009108*
X000473Y009120*
X000485Y009132*
X000497Y009146*
X000507Y009160*
X000516Y009175*
X000524Y009190*
X000531Y009206*
X000537Y009222*
X000542Y009239*
X000546Y009256*
X000548Y009273*
X000549Y009291*
Y009308*
X000548Y009326*
X000546Y009343*
X000542Y009360*
X000537Y009377*
X000531Y009393*
X000524Y009409*
X000516Y009425*
X000507Y009439*
X000497Y009453*
X000485Y009467*
X000473Y009479*
X000460Y009491*
X000446Y009502*
X000432Y009512*
X000417Y009520*
X000401Y009528*
X000385Y009534*
X000368Y009540*
X000351Y009544*
X000334Y009547*
X000317Y009549*
X000300Y009550*
X010700Y009050D02*
D01*
X010717Y009050*
X010734Y009052*
X010751Y009055*
X010768Y009059*
X010785Y009065*
X010801Y009071*
X010817Y009079*
X010832Y009087*
X010846Y009097*
X010860Y009108*
X010873Y009120*
X010885Y009132*
X010897Y009146*
X010907Y009160*
X010916Y009175*
X010924Y009190*
X010931Y009206*
X010937Y009222*
X010942Y009239*
X010946Y009256*
X010948Y009273*
X010949Y009291*
Y009308*
X010948Y009326*
X010946Y009343*
X010942Y009360*
X010937Y009377*
X010931Y009393*
X010924Y009409*
X010916Y009425*
X010907Y009439*
X010897Y009453*
X010885Y009467*
X010873Y009479*
X010860Y009491*
X010846Y009502*
X010832Y009512*
X010817Y009520*
X010801Y009528*
X010785Y009534*
X010768Y009540*
X010751Y009544*
X010734Y009547*
X010717Y009549*
X010700Y009550*
X001300Y005800D02*
Y002800D01*
X002300*
Y005800*
X001300D02*
X002300D01*
X005500Y009050D02*
Y008621D01*
Y009550D02*
Y009979D01*
X008500*
Y008621D02*
Y009979D01*
X005500Y008621D02*
X008500D01*
X000300D02*
Y009050D01*
Y009550D02*
Y009979D01*
X003300*
Y008621D02*
Y009979D01*
X000300Y008621D02*
X003300D01*
X010700Y009050D02*
Y008621D01*
Y009979D02*
Y009550D01*
Y009979D02*
X013700D01*
Y008621D02*
Y009979D01*
X010700Y008621D02*
X013700D01*
X012049Y012622D02*
Y015378D01*
X013151Y012622D02*
Y015378D01*
X012049Y012622D02*
X013151D01*
X012049Y015378D02*
X013151D01*
X010649Y012622D02*
Y015378D01*
X011751Y012622D02*
Y015378D01*
X010649Y012622D02*
X011751D01*
X010649Y015378D02*
X011751D01*
X001649Y012622D02*
Y015378D01*
X002751Y012622D02*
Y015378D01*
X001649Y012622D02*
X002751D01*
X001649Y015378D02*
X002751D01*
X000249Y012622D02*
Y015378D01*
X001351Y012622D02*
Y015378D01*
X000249Y012622D02*
X001351D01*
X000249Y015378D02*
X001351D01*
X013520Y016087D02*
X015449D01*
X013520Y012032D02*
X015449D01*
X013520D02*
Y016087D01*
X015449Y012032D02*
Y016087D01*
X015252Y012032D02*
Y016087D01*
X009998Y006844D02*
Y007356D01*
X009869Y006507D02*
Y006193D01*
X004100Y-002200D02*
X010100D01*
X004100D02*
Y001679D01*
Y002220D02*
Y005902D01*
X010100*
Y002220D02*
Y005902D01*
Y-002200D02*
Y001679D01*
X005449Y012622D02*
Y015378D01*
X006551Y012622D02*
Y015378D01*
X005449Y012622D02*
X006551D01*
X005449Y015378D02*
X006551D01*
X008320Y016087D02*
X010249D01*
X008320Y012032D02*
X010249D01*
X008320Y016087D02*
Y012032D01*
X010249D02*
Y016087D01*
X010052Y012032D02*
Y016087D01*
X006849Y012622D02*
Y015378D01*
X007951Y012622D02*
Y015378D01*
X006849Y012622D02*
X007951D01*
X006849Y015378D02*
X007951D01*
X003120Y016087D02*
X005049D01*
X003120Y012032D02*
X005049D01*
X003120D02*
Y016087D01*
X005049Y012032D02*
Y016087D01*
X004852Y012032D02*
Y016087D01*
G54D29*
X014449Y016343D02*
D01*
X014448Y016346*
X014448Y016349*
X014447Y016353*
X014447Y016356*
X014446Y016359*
X014444Y016362*
X014443Y016366*
X014441Y016368*
X014439Y016371*
X014437Y016374*
X014435Y016377*
X014432Y016379*
X014430Y016381*
X014427Y016383*
X014424Y016385*
X014421Y016387*
X014418Y016388*
X014415Y016389*
X014411Y016390*
X014408Y016391*
X014405Y016391*
X014401Y016391*
X014398*
X014394Y016391*
X014391Y016391*
X014388Y016390*
X014384Y016389*
X014381Y016388*
X014378Y016387*
X014375Y016385*
X014372Y016383*
X014369Y016381*
X014367Y016379*
X014364Y016377*
X014362Y016374*
X014360Y016371*
X014358Y016368*
X014356Y016366*
X014355Y016362*
X014353Y016359*
X014352Y016356*
X014352Y016353*
X014351Y016349*
X014351Y016346*
X014351Y016343*
X014351Y016339*
X014351Y016336*
X014352Y016332*
X014352Y016329*
X014353Y016326*
X014355Y016323*
X014356Y016319*
X014358Y016317*
X014360Y016314*
X014362Y016311*
X014364Y016308*
X014367Y016306*
X014369Y016304*
X014372Y016302*
X014375Y016300*
X014378Y016298*
X014381Y016297*
X014384Y016296*
X014388Y016295*
X014391Y016294*
X014394Y016294*
X014398Y016294*
X014401*
X014405Y016294*
X014408Y016294*
X014411Y016295*
X014415Y016296*
X014418Y016297*
X014421Y016298*
X014424Y016300*
X014427Y016302*
X014430Y016304*
X014432Y016306*
X014435Y016308*
X014437Y016311*
X014439Y016314*
X014441Y016317*
X014443Y016319*
X014444Y016323*
X014446Y016326*
X014447Y016329*
X014447Y016332*
X014448Y016336*
X014448Y016339*
X014449Y016343*
X009249D02*
D01*
X009248Y016346*
X009248Y016349*
X009247Y016353*
X009247Y016356*
X009246Y016359*
X009244Y016362*
X009243Y016366*
X009241Y016368*
X009239Y016371*
X009237Y016374*
X009235Y016377*
X009232Y016379*
X009230Y016381*
X009227Y016383*
X009224Y016385*
X009221Y016387*
X009218Y016388*
X009215Y016389*
X009211Y016390*
X009208Y016391*
X009205Y016391*
X009201Y016391*
X009198*
X009194Y016391*
X009191Y016391*
X009188Y016390*
X009184Y016389*
X009181Y016388*
X009178Y016387*
X009175Y016385*
X009172Y016383*
X009169Y016381*
X009167Y016379*
X009164Y016377*
X009162Y016374*
X009160Y016371*
X009158Y016368*
X009156Y016366*
X009155Y016362*
X009153Y016359*
X009152Y016356*
X009152Y016353*
X009151Y016349*
X009151Y016346*
X009151Y016343*
X009151Y016339*
X009151Y016336*
X009152Y016332*
X009152Y016329*
X009153Y016326*
X009155Y016323*
X009156Y016319*
X009158Y016317*
X009160Y016314*
X009162Y016311*
X009164Y016308*
X009167Y016306*
X009169Y016304*
X009172Y016302*
X009175Y016300*
X009178Y016298*
X009181Y016297*
X009184Y016296*
X009188Y016295*
X009191Y016294*
X009194Y016294*
X009198Y016294*
X009201*
X009205Y016294*
X009208Y016294*
X009211Y016295*
X009215Y016296*
X009218Y016297*
X009221Y016298*
X009224Y016300*
X009227Y016302*
X009230Y016304*
X009232Y016306*
X009235Y016308*
X009237Y016311*
X009239Y016314*
X009241Y016317*
X009243Y016319*
X009244Y016323*
X009246Y016326*
X009247Y016329*
X009247Y016332*
X009248Y016336*
X009248Y016339*
X009249Y016343*
X004049D02*
D01*
X004048Y016346*
X004048Y016349*
X004047Y016353*
X004047Y016356*
X004046Y016359*
X004044Y016362*
X004043Y016366*
X004041Y016368*
X004039Y016371*
X004037Y016374*
X004035Y016377*
X004032Y016379*
X004030Y016381*
X004027Y016383*
X004024Y016385*
X004021Y016387*
X004018Y016388*
X004015Y016389*
X004011Y016390*
X004008Y016391*
X004005Y016391*
X004001Y016391*
X003998*
X003994Y016391*
X003991Y016391*
X003988Y016390*
X003984Y016389*
X003981Y016388*
X003978Y016387*
X003975Y016385*
X003972Y016383*
X003969Y016381*
X003967Y016379*
X003964Y016377*
X003962Y016374*
X003960Y016371*
X003958Y016368*
X003956Y016366*
X003955Y016362*
X003953Y016359*
X003952Y016356*
X003952Y016353*
X003951Y016349*
X003951Y016346*
X003951Y016343*
X003951Y016339*
X003951Y016336*
X003952Y016332*
X003952Y016329*
X003953Y016326*
X003955Y016323*
X003956Y016319*
X003958Y016317*
X003960Y016314*
X003962Y016311*
X003964Y016308*
X003967Y016306*
X003969Y016304*
X003972Y016302*
X003975Y016300*
X003978Y016298*
X003981Y016297*
X003984Y016296*
X003988Y016295*
X003991Y016294*
X003994Y016294*
X003998Y016294*
X004001*
X004005Y016294*
X004008Y016294*
X004011Y016295*
X004015Y016296*
X004018Y016297*
X004021Y016298*
X004024Y016300*
X004027Y016302*
X004030Y016304*
X004032Y016306*
X004035Y016308*
X004037Y016311*
X004039Y016314*
X004041Y016317*
X004043Y016319*
X004044Y016323*
X004046Y016326*
X004047Y016329*
X004047Y016332*
X004048Y016336*
X004048Y016339*
X004049Y016343*
G54D30*
X010431Y017225D02*
X014368D01*
Y020425*
X010431Y017225D02*
Y020425D01*
X014368*
X005131Y017225D02*
X009068D01*
Y020425*
X005131Y017225D02*
Y020425D01*
X009068*
X001132Y017225D02*
X005069D01*
Y020425*
X001132Y017225D02*
Y020425D01*
X005069*
X000000Y000000D02*
Y021200D01*
Y000000D02*
X016000D01*
Y021200*
X000000D02*
X016000D01*
X011900Y002170D02*
X012133D01*
X012017*
Y001820*
X012483Y002170D02*
X012250D01*
Y001820*
X012483*
X012250Y001995D02*
X012367D01*
X012600Y001820D02*
Y002170D01*
X012775*
X012833Y002111*
Y001995*
X012775Y001936*
X012600*
X012716D02*
X012833Y001820D01*
X012950D02*
Y002170D01*
X013066Y002053*
X013183Y002170*
Y001820*
X013474Y002170D02*
X013358D01*
X013300Y002111*
Y001878*
X013358Y001820*
X013474*
X013533Y001878*
Y002111*
X013474Y002170*
X013883Y002111D02*
X013824Y002170D01*
X013708*
X013649Y002111*
Y002053*
X013708Y001995*
X013824*
X013883Y001936*
Y001878*
X013824Y001820*
X013708*
X013649Y001878*
X013999Y002170D02*
X014233D01*
X014116*
Y001820*
X014349D02*
Y002053D01*
X014466Y002170*
X014582Y002053*
Y001820*
Y001995*
X014349*
X014699Y002170D02*
X014932D01*
X014816*
Y001820*
X012512Y001510D02*
X012279D01*
Y001335*
X012396*
X012279*
Y001160*
X012629D02*
Y001393D01*
X012746Y001510*
X012862Y001393*
Y001160*
Y001335*
X012629*
X012979Y001160D02*
Y001510D01*
X013212Y001160*
Y001510*
X013562Y001451D02*
X013504Y001510D01*
X013387*
X013329Y001451*
Y001218*
X013387Y001160*
X013504*
X013562Y001218*
X013854Y001510D02*
X013737D01*
X013679Y001451*
Y001218*
X013737Y001160*
X013854*
X013912Y001218*
Y001451*
X013854Y001510*
X014028D02*
X014145D01*
X014087*
Y001160*
X014028*
X014145*
X014320Y001510D02*
Y001160D01*
X014553*
X011929Y000850D02*
X012046D01*
X011987*
Y000500*
X011929*
X012046*
X012221D02*
Y000850D01*
X012454Y000500*
Y000850*
X012571D02*
X012804D01*
X012687*
Y000500*
X013154Y000850D02*
X012921D01*
Y000500*
X013154*
X012921Y000675D02*
X013037D01*
X013270Y000500D02*
Y000850D01*
X013445*
X013504Y000792*
Y000675*
X013445Y000617*
X013270*
X013387D02*
X013504Y000500D01*
X013854Y000850D02*
X013620D01*
Y000675*
X013737*
X013620*
Y000500*
X013970D02*
Y000733D01*
X014087Y000850*
X014203Y000733*
Y000500*
Y000675*
X013970*
X014553Y000792D02*
X014495Y000850D01*
X014378*
X014320Y000792*
Y000558*
X014378Y000500*
X014495*
X014553Y000558*
X014903Y000850D02*
X014670D01*
Y000500*
X014903*
X014670Y000675D02*
X014787D01*
X000400Y000750D02*
Y000400D01*
X000575*
X000633Y000458*
Y000692*
X000575Y000750*
X000400*
X000983D02*
X000750D01*
Y000400*
X000983*
X000750Y000575D02*
X000867D01*
X001100D02*
X001333D01*
X001450Y000400D02*
X001566D01*
X001508*
Y000750*
X001450Y000692*
X001741D02*
X001800Y000750D01*
X001916*
X001974Y000692*
Y000633*
X001916Y000575*
X001858*
X001916*
X001974Y000517*
Y000458*
X001916Y000400*
X001800*
X001741Y000458*
X002091Y000692D02*
X002149Y000750D01*
X002266*
X002324Y000692*
Y000458*
X002266Y000400*
X002149*
X002091Y000458*
Y000692*
X002616Y000400D02*
Y000750D01*
X002441Y000575*
X002674*
X002791Y000400D02*
X002908D01*
X002849*
Y000750*
X002791Y000692*
X003082D02*
X003141Y000750D01*
X003257*
X003316Y000692*
Y000633*
X003257Y000575*
X003316Y000517*
Y000458*
X003257Y000400*
X003141*
X003082Y000458*
Y000517*
X003141Y000575*
X003082Y000633*
Y000692*
X003141Y000575D02*
X003257D01*
X001360Y006140D02*
Y006740D01*
X001660*
X001760Y006640*
Y006440*
X001660Y006340*
X001360*
X002260Y006140D02*
Y006740D01*
X001960Y006440*
X002360*
X001400Y020600D02*
Y020950D01*
X001633Y020600*
Y020950*
X001750D02*
Y020658D01*
X001808Y020600*
X001925*
X001983Y020658*
Y020950*
X002100D02*
Y020600D01*
X002333*
X002450D02*
Y020833D01*
X002566Y020950*
X002683Y020833*
Y020600*
Y020775*
X002450*
X003499Y020950D02*
Y020600D01*
X003674*
X003733Y020658*
Y020717*
X003674Y020775*
X003499*
X003674*
X003733Y020833*
Y020892*
X003674Y020950*
X003499*
X003849Y020600D02*
Y020950D01*
X004024*
X004082Y020892*
Y020775*
X004024Y020717*
X003849*
X003966D02*
X004082Y020600D01*
X004199Y020950D02*
X004432D01*
Y020892*
X004199Y020658*
Y020600*
X004432*
X004724Y020950D02*
X004607D01*
X004549Y020892*
Y020658*
X004607Y020600*
X004724*
X004782Y020658*
Y020892*
X004724Y020950*
X005482Y020892D02*
X005424Y020950D01*
X005307*
X005249Y020892*
Y020833*
X005307Y020775*
X005424*
X005482Y020717*
Y020658*
X005424Y020600*
X005307*
X005249Y020658*
X005599Y020600D02*
Y020950D01*
X005774*
X005832Y020892*
Y020775*
X005774Y020717*
X005599*
X005715D02*
X005832Y020600D01*
X006182Y020950D02*
X005949D01*
Y020600*
X006182*
X005949Y020775D02*
X006065D01*
X006298Y020950D02*
Y020600D01*
X006473*
X006532Y020658*
Y020892*
X006473Y020950*
X006298*
X006648Y020600D02*
Y020950D01*
X006882Y020600*
Y020950*
X007231D02*
X007115D01*
X007173*
Y020658*
X007115Y020600*
X007057*
X006998Y020658*
X007581Y020950D02*
X007348D01*
Y020600*
X007581*
X007348Y020775D02*
X007465D01*
X008281Y020892D02*
X008223Y020950D01*
X008106*
X008048Y020892*
Y020833*
X008106Y020775*
X008223*
X008281Y020717*
Y020658*
X008223Y020600*
X008106*
X008048Y020658*
X008398Y020600D02*
Y020950D01*
X008573*
X008631Y020892*
Y020775*
X008573Y020717*
X008398*
X008923Y020950D02*
X008806D01*
X008748Y020892*
Y020658*
X008806Y020600*
X008923*
X008981Y020658*
Y020892*
X008923Y020950*
X009098Y020600D02*
Y020950D01*
X009272*
X009331Y020892*
Y020775*
X009272Y020717*
X009098*
X009214D02*
X009331Y020600D01*
X009622Y020950D02*
X009506D01*
X009447Y020892*
Y020658*
X009506Y020600*
X009622*
X009681Y020658*
Y020892*
X009622Y020950*
X010497Y020600D02*
Y020950D01*
X010730Y020600*
Y020950*
X010847D02*
Y020658D01*
X010905Y020600*
X011022*
X011080Y020658*
Y020950*
X011197D02*
Y020600D01*
X011430*
X011547D02*
Y020833D01*
X011663Y020950*
X011780Y020833*
Y020600*
Y020775*
X011547*
X012830Y020950D02*
X012596D01*
Y020775*
X012713*
X012596*
Y020600*
X012946D02*
Y020833D01*
X013063Y020950*
X013180Y020833*
Y020600*
Y020775*
X012946*
X013296Y020950D02*
X013529D01*
Y020892*
X013296Y020658*
Y020600*
X013529*
X013646D02*
Y020833D01*
X013763Y020950*
X013879Y020833*
Y020600*
Y020775*
X013646*
G54D31*
X008700Y010450D02*
Y010200D01*
X008750Y010150*
X008850*
X008900Y010200*
Y010450*
X009200Y010150D02*
X009000D01*
X009200Y010350*
Y010400*
X009150Y010450*
X009050*
X009000Y010400*
X003500D02*
Y010150D01*
X003550Y010100*
X003650*
X003700Y010150*
Y010400*
X003800Y010350D02*
X003850Y010400D01*
X003950*
X004000Y010350*
Y010300*
X003950Y010250*
X003900*
X003950*
X004000Y010200*
Y010150*
X003950Y010100*
X003850*
X003800Y010150*
X004050Y007350D02*
X003750D01*
Y007500*
X003800Y007550*
X003900*
X003950Y007500*
Y007350*
Y007450D02*
X004050Y007550D01*
Y007800D02*
X003750D01*
X003900Y007650*
Y007850*
X013900Y010500D02*
Y010250D01*
X013950Y010200*
X014050*
X014100Y010250*
Y010500*
X014200Y010200D02*
X014300D01*
X014250*
Y010500*
X014200Y010450*
X013000Y016520D02*
Y016820D01*
X013150*
X013200Y016770*
Y016670*
X013150Y016620*
X013000*
X013100D02*
X013200Y016520D01*
X013300Y016770D02*
X013350Y016820D01*
X013450*
X013500Y016770*
Y016720*
X013450Y016670*
X013400*
X013450*
X013500Y016620*
Y016570*
X013450Y016520*
X013350*
X013300Y016570*
X011400Y016520D02*
Y016820D01*
X011550*
X011600Y016770*
Y016670*
X011550Y016620*
X011400*
X011500D02*
X011600Y016520D01*
X011900D02*
X011700D01*
X011900Y016720*
Y016770*
X011850Y016820*
X011750*
X011700Y016770*
X002837Y016520D02*
Y016820D01*
X002987*
X003037Y016770*
Y016670*
X002987Y016620*
X002837*
X002937D02*
X003037Y016520D01*
X003137Y016570D02*
X003187Y016520D01*
X003287*
X003337Y016570*
Y016770*
X003287Y016820*
X003187*
X003137Y016770*
Y016720*
X003187Y016670*
X003337*
X001200Y016520D02*
Y016820D01*
X001350*
X001400Y016770*
Y016670*
X001350Y016620*
X001200*
X001300D02*
X001400Y016520D01*
X001500Y016770D02*
X001550Y016820D01*
X001650*
X001700Y016770*
Y016720*
X001650Y016670*
X001700Y016620*
Y016570*
X001650Y016520*
X001550*
X001500Y016570*
Y016620*
X001550Y016670*
X001500Y016720*
Y016770*
X001550Y016670D02*
X001650D01*
X014600Y020000D02*
Y020300D01*
X014750*
X014800Y020250*
Y020150*
X014750Y020100*
X014600*
X014900Y020000D02*
X015000D01*
X014950*
Y020300*
X014900Y020250*
X009300Y020000D02*
Y020300D01*
X009450*
X009500Y020250*
Y020150*
X009450Y020100*
X009300*
X009800Y020000D02*
X009600D01*
X009800Y020200*
Y020250*
X009750Y020300*
X009650*
X009600Y020250*
X000300Y020000D02*
Y020300D01*
X000450*
X000500Y020250*
Y020150*
X000450Y020100*
X000300*
X000600Y020250D02*
X000650Y020300D01*
X000750*
X000800Y020250*
Y020200*
X000750Y020150*
X000700*
X000750*
X000800Y020100*
Y020050*
X000750Y020000*
X000650*
X000600Y020050*
X005000Y008800D02*
X005300D01*
Y008650*
X005250Y008600*
X005150*
X005100Y008650*
Y008800*
Y008700D02*
X005000Y008600D01*
X005300Y008500D02*
Y008300D01*
X005250*
X005050Y008500*
X005000*
X009840Y009200D02*
Y009500D01*
X009990*
X010040Y009450*
Y009350*
X009990Y009300*
X009840*
X009940D02*
X010040Y009200D01*
X010140D02*
X010240D01*
X010190*
Y009500*
X010140Y009450*
X014300Y016820D02*
Y016520D01*
X014450*
X014500Y016570*
Y016770*
X014450Y016820*
X014300*
X014600Y016520D02*
X014700D01*
X014650*
Y016820*
X014600Y016770*
X008860Y007970D02*
X008810Y008020D01*
X008710*
X008660Y007970*
Y007770*
X008710Y007720*
X008810*
X008860Y007770*
X009160Y007720D02*
X008960D01*
X009160Y007920*
Y007970*
X009110Y008020*
X009010*
X008960Y007970*
X008890Y007120D02*
X008840Y007170D01*
X008740*
X008690Y007120*
Y006920*
X008740Y006870*
X008840*
X008890Y006920*
X008990Y006870D02*
X009090D01*
X009040*
Y007170*
X008990Y007120*
X004340Y006520D02*
X004240D01*
X004290*
Y006270*
X004240Y006220*
X004190*
X004140Y006270*
X004440Y006220D02*
X004540D01*
X004490*
Y006520*
X004440Y006470*
X006112Y016520D02*
Y016820D01*
X006262*
X006312Y016770*
Y016670*
X006262Y016620*
X006112*
X006212D02*
X006312Y016520D01*
X006612Y016820D02*
X006412D01*
Y016670*
X006512Y016720*
X006562*
X006612Y016670*
Y016570*
X006562Y016520*
X006462*
X006412Y016570*
X009388Y016820D02*
Y016520D01*
X009537*
X009587Y016570*
Y016770*
X009537Y016820*
X009388*
X009887Y016520D02*
X009687D01*
X009887Y016720*
Y016770*
X009837Y016820*
X009737*
X009687Y016770*
X007750Y016520D02*
Y016820D01*
X007900*
X007950Y016770*
Y016670*
X007900Y016620*
X007750*
X007850D02*
X007950Y016520D01*
X008250Y016820D02*
X008150Y016770D01*
X008050Y016670*
Y016570*
X008100Y016520*
X008200*
X008250Y016570*
Y016620*
X008200Y016670*
X008050*
X004475Y016820D02*
Y016520D01*
X004625*
X004675Y016570*
Y016770*
X004625Y016820*
X004475*
X004775Y016770D02*
X004825Y016820D01*
X004925*
X004975Y016770*
Y016720*
X004925Y016670*
X004875*
X004925*
X004975Y016620*
Y016570*
X004925Y016520*
X004825*
X004775Y016570*
M02*