%FSDAX24Y24*%
%MOIN*%
%SFA1B1*%

%IPPOS*%
%ADD13C,0.020000*%
%ADD14C,0.050000*%
%ADD15R,0.059100X0.059100*%
%ADD16C,0.059100*%
%ADD17R,0.047200X0.098400*%
%ADD18O,0.047200X0.098400*%
%ADD19C,0.065000*%
%ADD20C,0.098400*%
%ADD21R,0.063000X0.063000*%
%ADD22C,0.063000*%
%ADD23C,0.059100*%
%ADD24R,0.059100X0.059100*%
%ADD25C,0.063000*%
%ADD26C,0.116100*%
%ADD27C,0.030000*%
%ADD30C,0.010000*%
%ADD50C,0.005000*%
%ADD51C,0.040000*%
%ADD52C,0.080000*%
%ADD53C,0.160000*%
%ADD54C,0.320000*%
%LNde-130418_copper_signal_bot-1*%
%LPD*%
G54D50*
X015975Y000025D02*
X000025D01*
Y009275*
X015975*
Y000025*
G54D30*
X015925Y000075D02*
X000075D01*
Y009225*
X015925*
Y000075*
G54D13*
X015825Y000174D02*
X000174Y000175D01*
X000175Y009125*
X015825*
Y000174*
G54D51*
X015625Y000374D02*
X000374D01*
Y008924*
X015625Y008925*
Y000374*
G54D52*
X015225Y000774D02*
X000774Y000774D01*
X000774Y008524*
X015225*
Y000774*
G54D53*
X014425Y001574D02*
X001574D01*
Y007724*
X014425*
Y001574*
G54D54*
X012825Y003174D02*
X003174D01*
X003174Y006124*
X012825*
Y003174*
%LNde-130418_copper_signal_bot-2*%
%LPC*%
G36*
X011586Y008442D02*
X010814D01*
Y007158*
X011586*
Y008442*
G37*
G36*
X006386D02*
X005614D01*
Y007158*
X006386*
Y008442*
G37*
G36*
X001186D02*
X000414D01*
Y007158*
X001186*
Y008442*
G37*
G36*
X013200Y008445D02*
X013099Y008432D01*
X013005Y008393*
X012925Y008331*
X012863Y008251*
X012824Y008157*
X012810Y008056*
Y007544*
X012824Y007443*
X012863Y007349*
X012925Y007269*
X013005Y007207*
X013099Y007168*
X013200Y007155*
X013301Y007168*
X013395Y007207*
X013475Y007269*
X013537Y007349*
X013576Y007443*
X013590Y007544*
Y008056*
X013576Y008157*
X013537Y008251*
X013475Y008331*
X013395Y008393*
X013301Y008432*
X013200Y008445*
G37*
G36*
X012200D02*
X012099Y008432D01*
X012005Y008393*
X011925Y008331*
X011863Y008251*
X011824Y008157*
X011810Y008056*
Y007544*
X011824Y007443*
X011863Y007349*
X011925Y007269*
X012005Y007207*
X012099Y007168*
X012200Y007155*
X012301Y007168*
X012395Y007207*
X012475Y007269*
X012537Y007349*
X012576Y007443*
X012590Y007544*
Y008056*
X012576Y008157*
X012537Y008251*
X012475Y008331*
X012395Y008393*
X012301Y008432*
X012200Y008445*
G37*
G36*
X008000D02*
X007899Y008432D01*
X007805Y008393*
X007725Y008331*
X007663Y008251*
X007624Y008157*
X007610Y008056*
Y007544*
X007624Y007443*
X007663Y007349*
X007725Y007269*
X007805Y007207*
X007899Y007168*
X008000Y007155*
X008101Y007168*
X008195Y007207*
X008275Y007269*
X008337Y007349*
X008376Y007443*
X008390Y007544*
Y008056*
X008376Y008157*
X008337Y008251*
X008275Y008331*
X008195Y008393*
X008101Y008432*
X008000Y008445*
G37*
G36*
X007000D02*
X006899Y008432D01*
X006805Y008393*
X006725Y008331*
X006663Y008251*
X006624Y008157*
X006610Y008056*
Y007544*
X006624Y007443*
X006663Y007349*
X006725Y007269*
X006805Y007207*
X006899Y007168*
X007000Y007155*
X007101Y007168*
X007195Y007207*
X007275Y007269*
X007337Y007349*
X007376Y007443*
X007390Y007544*
Y008056*
X007376Y008157*
X007337Y008251*
X007275Y008331*
X007195Y008393*
X007101Y008432*
X007000Y008445*
G37*
G36*
X002800D02*
X002699Y008432D01*
X002605Y008393*
X002525Y008331*
X002463Y008251*
X002424Y008157*
X002410Y008056*
Y007544*
X002424Y007443*
X002463Y007349*
X002525Y007269*
X002605Y007207*
X002699Y007168*
X002800Y007155*
X002901Y007168*
X002995Y007207*
X003075Y007269*
X003137Y007349*
X003176Y007443*
X003190Y007544*
Y008056*
X003176Y008157*
X003137Y008251*
X003075Y008331*
X002995Y008393*
X002901Y008432*
X002800Y008445*
G37*
G36*
X001800D02*
X001699Y008432D01*
X001605Y008393*
X001525Y008331*
X001463Y008251*
X001424Y008157*
X001410Y008056*
Y007544*
X001424Y007443*
X001463Y007349*
X001525Y007269*
X001605Y007207*
X001699Y007168*
X001800Y007155*
X001901Y007168*
X001995Y007207*
X002075Y007269*
X002137Y007349*
X002176Y007443*
X002190Y007544*
Y008056*
X002176Y008157*
X002137Y008251*
X002075Y008331*
X001995Y008393*
X001901Y008432*
X001800Y008445*
G37*
G36*
X008500Y006803D02*
X003400D01*
X003322Y006792*
X003249Y006762*
X003186Y006714*
X002217Y005745*
X001355*
Y004855*
X002245*
Y005003*
X002278Y005008*
X002351Y005038*
X002414Y005086*
X003525Y006197*
X003872*
X003891Y006151*
X003520Y005780*
X003465Y005698*
X003445Y005600*
Y004806*
X003194Y004555*
X002166*
X002118Y004618*
X002025Y004689*
X001916Y004734*
X001800Y004749*
X001684Y004734*
X001575Y004689*
X001482Y004618*
X001411Y004525*
X001366Y004416*
X001351Y004300*
X001366Y004184*
X001411Y004075*
X001482Y003982*
X001575Y003911*
X001684Y003866*
X001800Y003851*
X001916Y003866*
X002025Y003911*
X002118Y003982*
X002166Y004045*
X003300*
X003398Y004065*
X003480Y004120*
X003880Y004520*
X003936Y004602*
X003955Y004700*
Y005494*
X004306Y005845*
X005552*
X005569Y005795*
X005532Y005767*
X005461Y005674*
X005416Y005566*
X005401Y005450*
X005416Y005333*
X005461Y005225*
X005532Y005132*
X005625Y005061*
X005734Y005016*
X005850Y005000*
X005966Y005016*
X006075Y005061*
X006168Y005132*
X006239Y005225*
X006284Y005333*
X006299Y005450*
X006284Y005566*
X006239Y005674*
X006168Y005767*
X006131Y005795*
X006148Y005845*
X006552*
X006569Y005795*
X006532Y005767*
X006461Y005674*
X006416Y005566*
X006401Y005450*
X006416Y005333*
X006461Y005225*
X006532Y005132*
X006625Y005061*
X006734Y005016*
X006850Y005000*
X006966Y005016*
X007075Y005061*
X007168Y005132*
X007239Y005225*
X007284Y005333*
X007299Y005450*
X007284Y005566*
X007239Y005674*
X007168Y005767*
X007105Y005815*
Y005950*
X007085Y006048*
X007030Y006130*
X007009Y006151*
X007028Y006197*
X008375*
X008547Y006025*
Y005779*
X008532Y005767*
X008461Y005674*
X008416Y005566*
X008401Y005450*
X008416Y005333*
X008461Y005225*
X008532Y005132*
X008625Y005061*
X008734Y005016*
X008850Y005000*
X008966Y005016*
X009075Y005061*
X009168Y005132*
X009239Y005225*
X009284Y005333*
X009299Y005450*
X009284Y005566*
X009239Y005674*
X009168Y005767*
X009153Y005779*
Y006150*
X009142Y006228*
X009112Y006301*
X009064Y006364*
X008714Y006714*
X008651Y006762*
X008578Y006792*
X008500Y006803*
G37*
G36*
X007850Y005899D02*
X007734Y005883D01*
X007625Y005839*
X007532Y005767*
X007461Y005674*
X007416Y005566*
X007401Y005450*
X007416Y005333*
X007461Y005225*
X007532Y005132*
X007625Y005061*
X007734Y005016*
X007850Y005000*
X007966Y005016*
X008075Y005061*
X008168Y005132*
X008239Y005225*
X008284Y005333*
X008299Y005450*
X008284Y005566*
X008239Y005674*
X008168Y005767*
X008075Y005839*
X007966Y005883*
X007850Y005899*
G37*
G36*
X005745Y004845D02*
X005400D01*
Y004500*
X005745*
Y004845*
G37*
G36*
X005300D02*
X004955D01*
Y004500*
X005300*
Y004845*
G37*
G36*
X005745Y004400D02*
X005400D01*
Y004054*
X005745*
Y004400*
G37*
G36*
X005300D02*
X004955D01*
Y004054*
X005300*
Y004400*
G37*
G36*
X008350Y004899D02*
X008234Y004883D01*
X008125Y004839*
X008032Y004767*
X007961Y004674*
X007916Y004566*
X007901Y004450*
X007916Y004333*
X007961Y004225*
X008032Y004132*
X008125Y004061*
X008234Y004016*
X008350Y004000*
X008466Y004016*
X008575Y004061*
X008668Y004132*
X008739Y004225*
X008784Y004333*
X008799Y004450*
X008784Y004566*
X008739Y004674*
X008668Y004767*
X008575Y004839*
X008466Y004883*
X008350Y004899*
G37*
G36*
X007350D02*
X007234Y004883D01*
X007125Y004839*
X007032Y004767*
X006961Y004674*
X006916Y004566*
X006901Y004450*
X006916Y004333*
X006961Y004225*
X007032Y004132*
X007125Y004061*
X007234Y004016*
X007350Y004000*
X007466Y004016*
X007575Y004061*
X007668Y004132*
X007739Y004225*
X007784Y004333*
X007799Y004450*
X007784Y004566*
X007739Y004674*
X007668Y004767*
X007575Y004839*
X007466Y004883*
X007350Y004899*
G37*
G36*
X006350Y004919D02*
X006229Y004903D01*
X006116Y004856*
X006018Y004781*
X005944Y004684*
X005897Y004571*
X005881Y004450*
X005897Y004328*
X005944Y004215*
X006018Y004118*
X006057Y004088*
X006061Y004022*
X005594Y003555*
X002166*
X002118Y003618*
X002025Y003689*
X001916Y003734*
X001800Y003749*
X001684Y003734*
X001575Y003689*
X001482Y003618*
X001411Y003525*
X001366Y003416*
X001351Y003300*
X001366Y003184*
X001411Y003075*
X001482Y002982*
X001575Y002911*
X001684Y002866*
X001800Y002851*
X001916Y002866*
X002025Y002911*
X002118Y002982*
X002166Y003045*
X005700*
X005798Y003065*
X005880Y003120*
X006530Y003770*
X006585Y003852*
X006605Y003950*
Y004059*
X006682Y004118*
X006756Y004215*
X006803Y004328*
X006819Y004450*
X006803Y004571*
X006756Y004684*
X006682Y004781*
X006584Y004856*
X006471Y004903*
X006350Y004919*
G37*
G36*
X009350Y002743D02*
X009195Y002728D01*
X009046Y002683*
X008909Y002609*
X008789Y002511*
X008690Y002391*
X008617Y002253*
X008572Y002104*
X008556Y001950*
X008572Y001795*
X008617Y001646*
X008690Y001509*
X008789Y001388*
X008909Y001290*
X009046Y001216*
X009195Y001171*
X009350Y001156*
X009505Y001171*
X009654Y001216*
X009791Y001290*
X009911Y001388*
X010010Y001509*
X010083Y001646*
X010128Y001795*
X010144Y001950*
X010128Y002104*
X010083Y002253*
X010010Y002391*
X009911Y002511*
X009791Y002609*
X009654Y002683*
X009505Y002728*
X009350Y002743*
G37*
G36*
X004850D02*
X004695Y002728D01*
X004546Y002683*
X004409Y002609*
X004289Y002511*
X004190Y002391*
X004117Y002253*
X004072Y002104*
X004056Y001950*
X004072Y001795*
X004117Y001646*
X004190Y001509*
X004289Y001388*
X004409Y001290*
X004546Y001216*
X004695Y001171*
X004850Y001156*
X005005Y001171*
X005154Y001216*
X005291Y001290*
X005411Y001388*
X005510Y001509*
X005583Y001646*
X005628Y001795*
X005644Y001950*
X005628Y002104*
X005583Y002253*
X005510Y002391*
X005411Y002511*
X005291Y002609*
X005154Y002683*
X005005Y002728*
X004850Y002743*
G37*
%LNde-130418_copper_signal_bot-3*%
%LPD*%
G54D13*
X006700Y006100D02*
X006850Y005950D01*
X004200Y006100D02*
X006700D01*
X003700Y005600D02*
X004200Y006100D01*
X003700Y004700D02*
Y005600D01*
X003300Y004300D02*
X003700Y004700D01*
X001800Y004300D02*
X003300D01*
X001800Y003300D02*
X005700D01*
X006350Y003950*
Y004450*
X006850Y005450D02*
Y005950D01*
G54D14*
X006116Y018084D02*
X007400Y016800D01*
X006116Y018084D02*
Y018800D01*
X007400Y016077D02*
Y016800D01*
X008084Y018800D02*
X009684Y017200D01*
X012100*
X007400Y011923D02*
X008064D01*
X009200Y013060*
X002200Y011923D02*
X002864D01*
X004000Y013060*
X002800Y010800D02*
Y011323D01*
X012600Y011923D02*
X013264D01*
X014400Y013060*
X013200Y010800D02*
Y011323D01*
X012600Y011923D02*
X013200Y011323D01*
X011200Y010800D02*
Y011923D01*
X006000Y010800D02*
Y011923D01*
X008000Y010800D02*
Y011323D01*
X007400Y011923D02*
X008000Y011323D01*
X000800Y010800D02*
Y011923D01*
X002200D02*
X002800Y011323D01*
X001040Y014060D02*
X004000D01*
X000800Y014300D02*
X001040Y014060D01*
X000800Y014300D02*
Y016077D01*
X006000Y014060D02*
X009200D01*
X004000D02*
X006000D01*
Y016077*
X009200Y014060D02*
X014400D01*
X011200Y014160D02*
Y016077D01*
X004000Y016000D02*
Y018616D01*
Y015060D02*
Y016000D01*
X003923Y016077D02*
X004000Y016000D01*
X002200Y016077D02*
X003923D01*
X009200Y015060D02*
Y015600D01*
X008723Y016077D02*
X009200Y015600D01*
X007400Y016077D02*
X008723D01*
X014400Y015060D02*
Y015600D01*
X013923Y016077D02*
X014400Y015600D01*
X012600Y016077D02*
X013923D01*
X012600D02*
Y016700D01*
X012100Y017200D02*
X012600Y016700D01*
X004000Y018616D02*
X004184Y018800D01*
X011416D02*
Y020284D01*
X011100Y020600D02*
X011416Y020284D01*
X002700Y020600D02*
X011100D01*
X002216Y020116D02*
X002700Y020600D01*
X002216Y018800D02*
Y020116D01*
G54D15*
X001800Y005300D03*
G54D16*
X001800Y004300D03*
Y003300D03*
G54D17*
X006000Y007800D03*
X000800D03*
X011200D03*
G54D18*
X007000Y007800D03*
X008000D03*
X006000Y010800D03*
X007000D03*
X008000D03*
X001800Y007800D03*
X002800D03*
X000800Y010800D03*
X001800D03*
X002800D03*
X012200Y007800D03*
X013200D03*
X011200Y010800D03*
X012200D03*
X013200D03*
G54D19*
X012600Y011923D03*
Y016077D03*
X011200Y011923D03*
Y016077D03*
X002200Y011923D03*
Y016077D03*
X000800Y011923D03*
Y016077D03*
X006000Y011923D03*
Y016077D03*
X007400Y011923D03*
Y016077D03*
G54D20*
X011416Y018800D03*
X013384D03*
X006116D03*
X008084D03*
X002116D03*
X004084D03*
G54D21*
X014400Y015060D03*
X009200D03*
X004000D03*
G54D22*
X014400Y014060D03*
Y013060D03*
X009200Y014060D03*
Y013060D03*
X004000Y014060D03*
Y013060D03*
G54D23*
X008850Y005450D03*
X005850D03*
X008350Y004450D03*
X007850Y005450D03*
X006850D03*
X007350Y004450D03*
G54D24*
X005350Y004450D03*
G54D25*
X006350Y004450D03*
G54D26*
X004850Y001950D03*
X009350D03*
G54D27*
X008500Y006500D02*
X008850Y006150D01*
X003400Y006500D02*
X008500D01*
X002200Y005300D02*
X003400Y006500D01*
X008850Y005450D02*
Y006150D01*
X001800Y005300D02*
X002200D01*
M02*