%FSDAX23Y23*%
%MOIN*%
%SFA1B1*%

%IPPOS*%
%ADD28C,0.010000*%
%ADD44C,0.005000*%
%ADD45C,0.008000*%
%ADD72R,0.963000X0.215000*%
%ADD73R,1.182000X0.190000*%
%LNde-060718-1*%
%LPD*%
G54D28*
X02134Y02298D02*
Y02358D01*
X01884D02*
X02134D01*
X01884Y02298D02*
Y02358D01*
Y02298D02*
X02134D01*
G54D44*
X01822Y02886D02*
Y02848D01*
X01803*
X01796Y02854*
Y02861*
Y02867*
X01803Y02873*
X01822*
X01777D02*
X01765D01*
X01758Y02867*
Y02848*
X01777*
X01784Y02854*
X01777Y02861*
X01758*
X01746Y02873D02*
Y02848D01*
Y02861*
X01739Y02867*
X01733Y02873*
X01727*
X01644D02*
X01663D01*
X01670Y02867*
Y02854*
X01663Y02848*
X01644*
X01625D02*
X01613D01*
X01606Y02854*
Y02867*
X01613Y02873*
X01625*
X01632Y02867*
Y02854*
X01625Y02848*
X01568Y02886D02*
Y02848D01*
X01587*
X01594Y02854*
Y02867*
X01587Y02873*
X01568*
X01537Y02848D02*
X01549D01*
X01556Y02854*
Y02867*
X01549Y02873*
X01537*
X01530Y02867*
Y02861*
X01556*
X01480Y02848D02*
X01454Y02873D01*
X01822Y02791D02*
X01803D01*
X01796Y02797*
X01803Y02803*
X01815*
X01822Y02810*
X01815Y02816*
X01796*
X01765Y02791D02*
X01777D01*
X01784Y02797*
Y02810*
X01777Y02816*
X01765*
X01758Y02810*
Y02803*
X01784*
X01746Y02816D02*
Y02791D01*
Y02803*
X01739Y02810*
X01733Y02816*
X01727*
X01708Y02791D02*
X01695D01*
X01701*
Y02816*
X01708*
X01670D02*
X01657D01*
X01651Y02810*
Y02791*
X01670*
X01676Y02797*
X01670Y02803*
X01651*
X01638Y02791D02*
X01625D01*
X01632*
Y02829*
X01638*
X01568Y02791D02*
Y02816D01*
X01549*
X01543Y02810*
Y02791*
X01530Y02816D02*
Y02797D01*
X01524Y02791*
X01505*
Y02816*
X01492Y02791D02*
Y02816D01*
X01486*
X01480Y02810*
Y02791*
Y02810*
X01473Y02816*
X01467Y02810*
Y02791*
X01454Y02829D02*
Y02791D01*
X01435*
X01429Y02797*
Y02803*
Y02810*
X01435Y02816*
X01454*
X01397Y02791D02*
X01410D01*
X01416Y02797*
Y02810*
X01410Y02816*
X01397*
X01391Y02810*
Y02803*
X01416*
X01378Y02816D02*
Y02791D01*
Y02803*
X01372Y02810*
X01366Y02816*
X01359*
X02186Y02313D02*
Y02333D01*
X02176*
X02172Y02329*
Y02323*
X02176Y02319*
X02186*
X02166Y02329D02*
X02162Y02333D01*
X02156*
X02152Y02329*
Y02326*
X02156Y02323*
X02159*
X02156*
X02152Y02319*
Y02316*
X02156Y02313*
X02162*
X02166Y02316*
X04764Y02792D02*
Y02752D01*
X04744*
X04737Y02758*
Y02765*
Y02772*
X04744Y02778*
X04764*
X04717D02*
X04704D01*
X04697Y02772*
Y02752*
X04717*
X04724Y02758*
X04717Y02765*
X04697*
X04684Y02778D02*
Y02752D01*
Y02765*
X04677Y02772*
X04670Y02778*
X04664*
X04577D02*
X04597D01*
X04604Y02772*
Y02758*
X04597Y02752*
X04577*
X04557D02*
X04544D01*
X04537Y02758*
Y02772*
X04544Y02778*
X04557*
X04564Y02772*
Y02758*
X04557Y02752*
X04497Y02792D02*
Y02752D01*
X04517*
X04524Y02758*
Y02772*
X04517Y02778*
X04497*
X04464Y02752D02*
X04477D01*
X04484Y02758*
Y02772*
X04477Y02778*
X04464*
X04457Y02772*
Y02765*
X04484*
X04404Y02752D02*
X04377Y02778D01*
X04324Y02752D02*
X04304D01*
X04297Y02758*
X04304Y02765*
X04317*
X04324Y02772*
X04317Y02778*
X04297*
X04264Y02752D02*
X04277D01*
X04284Y02758*
Y02772*
X04277Y02778*
X04264*
X04257Y02772*
Y02765*
X04284*
X04244Y02778D02*
Y02752D01*
Y02765*
X04237Y02772*
X04230Y02778*
X04224*
X04204Y02752D02*
X04190D01*
X04197*
Y02778*
X04204*
X04164D02*
X04150D01*
X04144Y02772*
Y02752*
X04164*
X04170Y02758*
X04164Y02765*
X04144*
X04130Y02752D02*
X04117D01*
X04124*
Y02792*
X04130*
X04057Y02752D02*
Y02778D01*
X04037*
X04030Y02772*
Y02752*
X04017Y02778D02*
Y02758D01*
X04010Y02752*
X03990*
Y02778*
X03977Y02752D02*
Y02778D01*
X03970*
X03964Y02772*
Y02752*
Y02772*
X03957Y02778*
X03950Y02772*
Y02752*
X03937Y02792D02*
Y02752D01*
X03917*
X03910Y02758*
Y02765*
Y02772*
X03917Y02778*
X03937*
X03877Y02752D02*
X03890D01*
X03897Y02758*
Y02772*
X03890Y02778*
X03877*
X03871Y02772*
Y02765*
X03897*
X03857Y02778D02*
Y02752D01*
Y02765*
X03851Y02772*
X03844Y02778*
X03837*
G54D45*
X02185Y02547D02*
Y02507D01*
X02165*
X02158Y02513*
Y02540*
X02165Y02547*
X02185*
X02138Y02507D02*
X02125D01*
X02118Y02513*
Y02527*
X02125Y02533*
X02138*
X02145Y02527*
Y02513*
X02138Y02507*
X02098D02*
X02085D01*
X02078Y02513*
Y02527*
X02085Y02533*
X02098*
X02105Y02527*
Y02513*
X02098Y02507*
X02065Y02533D02*
Y02507D01*
Y02520*
X02058Y02527*
X02051Y02533*
X02045*
X01985Y02547D02*
Y02507D01*
X01958*
X01938D02*
X01925D01*
X01918Y02513*
Y02527*
X01925Y02533*
X01938*
X01945Y02527*
Y02513*
X01938Y02507*
X01878Y02533D02*
X01898D01*
X01905Y02527*
Y02513*
X01898Y02507*
X01878*
X01865D02*
Y02547D01*
Y02520D02*
X01845Y02533D01*
X01865Y02520D02*
X01845Y02507D01*
X01758Y02540D02*
X01765Y02547D01*
X01778*
X01785Y02540*
Y02513*
X01778Y02507*
X01765*
X01758Y02513*
X01738Y02507D02*
X01725D01*
X01718Y02513*
Y02527*
X01725Y02533*
X01738*
X01745Y02527*
Y02513*
X01738Y02507*
X01705D02*
Y02533D01*
X01685*
X01678Y02527*
Y02507*
X01658Y02540D02*
Y02533D01*
X01665*
X01651*
X01658*
Y02513*
X01651Y02507*
X01631Y02533D02*
Y02507D01*
Y02520*
X01625Y02527*
X01618Y02533*
X01611*
X01585Y02507D02*
X01571D01*
X01565Y02513*
Y02527*
X01571Y02533*
X01585*
X01591Y02527*
Y02513*
X01585Y02507*
X01551D02*
X01538D01*
X01545*
Y02547*
X01551*
X01498Y02507D02*
X01511D01*
X01518Y02513*
Y02527*
X01511Y02533*
X01498*
X01491Y02527*
Y02520*
X01518*
X01478Y02533D02*
Y02507D01*
Y02520*
X01471Y02527*
X01465Y02533*
X01458*
X02235Y02724D02*
X02242Y02731D01*
X02255*
X02262Y02724*
Y02717*
X02255Y02711*
X02242*
X02235Y02704*
Y02697*
X02242Y02691*
X02255*
X02262Y02697*
X02222Y02691D02*
Y02717D01*
X02208Y02731*
X02195Y02717*
Y02691*
Y02711*
X02222*
X02182Y02691D02*
Y02731D01*
X02162*
X02155Y02724*
Y02711*
X02162Y02704*
X02182*
X02142Y02731D02*
Y02691D01*
X02115*
X02102D02*
Y02717D01*
X02088Y02731*
X02075Y02717*
Y02691*
Y02711*
X02102*
X02035Y02724D02*
X02042Y02731D01*
X02055*
X02062Y02724*
Y02717*
X02055Y02711*
X02042*
X02035Y02704*
Y02697*
X02042Y02691*
X02055*
X02062Y02697*
X02022Y02731D02*
X01995D01*
X02008*
Y02691*
X01915Y02731D02*
Y02691D01*
X01935*
X01942Y02697*
Y02711*
X01935Y02717*
X01915*
X01902Y02691D02*
Y02697D01*
X01895*
Y02691*
X01902*
X01862D02*
X01848D01*
X01842Y02697*
Y02711*
X01848Y02717*
X01862*
X01868Y02711*
Y02697*
X01862Y02691*
X01828D02*
Y02697D01*
X01822*
Y02691*
X01828*
X01788D02*
X01775D01*
X01768Y02697*
Y02711*
X01775Y02717*
X01788*
X01795Y02711*
Y02697*
X01788Y02691*
X01755D02*
Y02697D01*
X01748*
Y02691*
X01755*
X01655Y02724D02*
X01662Y02731D01*
X01675*
X01682Y02724*
Y02717*
X01675Y02711*
X01662*
X01655Y02704*
Y02697*
X01662Y02691*
X01675*
X01682Y02697*
X01635Y02717D02*
X01622D01*
X01615Y02711*
Y02691*
X01635*
X01642Y02697*
X01635Y02704*
X01615*
X01602Y02717D02*
Y02691D01*
Y02704*
X01595Y02711*
X01588Y02717*
X01582*
X01555D02*
X01542D01*
X01535Y02711*
Y02691*
X01555*
X01562Y02697*
X01555Y02704*
X01535*
X01522Y02677D02*
X01515D01*
X01508Y02684*
Y02717*
X01462Y02691D02*
X01475D01*
X01482Y02697*
Y02711*
X01475Y02717*
X01462*
X01455Y02711*
Y02704*
X01482*
X01442Y02717D02*
X01428Y02691D01*
X01415Y02717*
X01395Y02691D02*
X01382D01*
X01375Y02697*
Y02711*
X01382Y02717*
X01395*
X01402Y02711*
Y02697*
X01395Y02691*
G54D72*
X04292Y02610D03*
G54D73*
X01821Y03006D03*
M02*