%FSDAX23Y23*%
%MOIN*%
%SFA1B1*%

%IPPOS*%
%ADD77C,0.002000*%
%ADD78C,0.002700*%
%LNde-060718-1*%
%LPD*%
G54D77*
X02451Y02117D02*
Y02133D01*
X02467*
Y02117*
X02451*
Y02155D02*
Y02171D01*
X02467*
Y02155*
X02451*
Y02194D02*
Y02210D01*
X02467*
Y02194*
X02451*
Y02234D02*
Y02250D01*
X02467*
Y02234*
X02451*
Y02272D02*
Y02288D01*
X02467*
Y02272*
X02451*
Y02311D02*
Y02327D01*
X02467*
Y02311*
X02451*
Y02350D02*
Y02366D01*
X02467*
Y02350*
X02451*
Y02389D02*
Y02405D01*
X02467*
Y02389*
X02451*
Y02428D02*
Y02444D01*
X02467*
Y02428*
X02451*
Y02467D02*
Y02483D01*
X02467*
Y02467*
X02451*
Y02506D02*
Y02522D01*
X02467*
Y02506*
X02451*
Y02545D02*
Y02561D01*
X02467*
Y02545*
X02451*
Y02584D02*
Y02600D01*
X02467*
Y02584*
X02451*
Y02623D02*
Y02639D01*
X02467*
Y02623*
X02451*
Y02661D02*
Y02677D01*
X02467*
Y02661*
X02451*
Y02700D02*
Y02716D01*
X02467*
Y02700*
X02451*
Y02739D02*
Y02755D01*
X02467*
Y02739*
X02451*
Y02778D02*
Y02794D01*
X02467*
Y02778*
X02451*
Y02817D02*
Y02833D01*
X02467*
Y02817*
X02451*
Y02856D02*
Y02872D01*
X02467*
Y02856*
X02451*
Y02895D02*
Y02911D01*
X02467*
Y02895*
X02451*
Y02934D02*
Y02950D01*
X02467*
Y02934*
X02451*
Y02973D02*
Y02989D01*
X02467*
Y02973*
X02451*
Y03012D02*
Y03028D01*
X02467*
Y03012*
X02451*
Y03051D02*
Y03067D01*
X02467*
Y03051*
X02451*
Y03090D02*
Y03106D01*
X02467*
Y03090*
X02451*
X02334Y02400D02*
X02326Y02416D01*
X02342*
X02334Y02400*
Y02500D02*
X02326Y02516D01*
X02342*
X02334Y02500*
Y02600D02*
X02326Y02616D01*
X02342*
X02334Y02600*
Y02700D02*
X02326Y02716D01*
X02342*
X02334Y02700*
X02074Y02850D02*
X02078Y02854D01*
X02082*
X02078Y02858*
X02082Y02862*
X02078*
X02074Y02866*
X02070Y02862*
X02066*
X02070Y02858*
X02066Y02854*
X02070*
X02074Y02850*
X02193D02*
X02197Y02854D01*
X02201*
X02197Y02858*
X02201Y02862*
X02197*
X02193Y02866*
X02189Y02862*
X02185*
X02189Y02858*
X02185Y02854*
X02189*
X02193Y02850*
X01993D02*
X01997Y02854D01*
X02001*
X01997Y02858*
X02001Y02862*
X01997*
X01993Y02866*
X01989Y02862*
X01985*
X01989Y02858*
X01985Y02854*
X01989*
X01993Y02850*
X01874D02*
X01878Y02854D01*
X01882*
X01878Y02858*
X01882Y02862*
X01878*
X01874Y02866*
X01870Y02862*
X01866*
X01870Y02858*
X01866Y02854*
X01870*
X01874Y02850*
X02576Y02675D02*
X02568Y02691D01*
X02584*
X02576Y02675*
Y02575D02*
X02568Y02591D01*
X02584*
X02576Y02575*
Y02475D02*
X02568Y02491D01*
X02584*
X02576Y02475*
Y02375D02*
X02568Y02391D01*
X02584*
X02576Y02375*
X01294Y02455D02*
X01286Y02471D01*
X01302*
X01294Y02455*
Y02555D02*
X01286Y02571D01*
X01302*
X01294Y02555*
Y02655D02*
X01286Y02671D01*
X01302*
X01294Y02655*
Y02755D02*
X01286Y02771D01*
X01302*
X01294Y02755*
Y02855D02*
X01286Y02871D01*
X01302*
X01294Y02855*
X02970Y02621D02*
X02974Y02629D01*
X02970Y02637*
X02978Y02633*
X02986Y02637*
X02982Y02629*
X02986Y02621*
X02978Y02625*
X02970Y02621*
Y02549D02*
X02974Y02557D01*
X02970Y02565*
X02978Y02561*
X02986Y02565*
X02982Y02557*
X02986Y02549*
X02978Y02553*
X02970Y02549*
Y02586D02*
X02974Y02594D01*
X02970Y02602*
X02978Y02598*
X02986Y02602*
X02982Y02594*
X02986Y02586*
X02978Y02590*
X02970Y02586*
X03009Y02621D02*
X03013Y02629D01*
X03009Y02637*
X03017Y02633*
X03025Y02637*
X03021Y02629*
X03025Y02621*
X03017Y02625*
X03009Y02621*
Y02549D02*
X03013Y02557D01*
X03009Y02565*
X03017Y02561*
X03025Y02565*
X03021Y02557*
X03025Y02549*
X03017Y02553*
X03009Y02549*
X02931Y02621D02*
X02935Y02629D01*
X02931Y02637*
X02939Y02633*
X02947Y02637*
X02943Y02629*
X02947Y02621*
X02939Y02625*
X02931Y02621*
Y02549D02*
X02935Y02557D01*
X02931Y02565*
X02939Y02561*
X02947Y02565*
X02943Y02557*
X02947Y02549*
X02939Y02553*
X02931Y02549*
X03009Y02586D02*
X03013Y02594D01*
X03009Y02602*
X03017Y02598*
X03025Y02602*
X03021Y02594*
X03025Y02586*
X03017Y02590*
X03009Y02586*
X02931Y02585D02*
X02935Y02593D01*
X02931Y02601*
X02939Y02597*
X02947Y02601*
X02943Y02593*
X02947Y02585*
X02939Y02589*
X02931Y02585*
X03145Y02575D02*
X03149Y02583D01*
X03145Y02591*
X03153Y02587*
X03161Y02591*
X03157Y02583*
X03161Y02575*
X03153Y02579*
X03145Y02575*
X03123Y02656D02*
X03127Y02664D01*
X03123Y02672*
X03131Y02668*
X03139Y02672*
X03135Y02664*
X03139Y02656*
X03131Y02660*
X03123Y02656*
X03319Y02857D02*
X03323Y02865D01*
X03319Y02873*
X03327Y02869*
X03335Y02873*
X03331Y02865*
X03335Y02857*
X03327Y02861*
X03319Y02857*
X02921Y02443D02*
X02925Y02451D01*
X02921Y02459*
X02929Y02455*
X02937Y02459*
X02933Y02451*
X02937Y02443*
X02929Y02447*
X02921Y02443*
X03602Y02664D02*
X03606Y02672D01*
X03602Y02680*
X03610Y02676*
X03618Y02680*
X03614Y02672*
X03618Y02664*
X03610Y02668*
X03602Y02664*
X03601Y02560D02*
X03605Y02568D01*
X03601Y02576*
X03609Y02572*
X03617Y02576*
X03613Y02568*
X03617Y02560*
X03609Y02564*
X03601Y02560*
X03522Y02607D02*
X03526Y02615D01*
X03522Y02623*
X03530Y02619*
X03538Y02623*
X03534Y02615*
X03538Y02607*
X03530Y02611*
X03522Y02607*
X04936Y02544D02*
X04940Y02552D01*
X04936Y02560*
X04944Y02556*
X04952Y02560*
X04948Y02552*
X04952Y02544*
X04944Y02548*
X04936Y02544*
X05056Y02664D02*
X05060Y02672D01*
X05056Y02680*
X05064Y02676*
X05072Y02680*
X05068Y02672*
X05072Y02664*
X05064Y02668*
X05056Y02664*
X02021Y02385D02*
X02025Y02393D01*
X02021Y02401*
X02029Y02397*
X02037Y02401*
X02033Y02393*
X02037Y02385*
X02029Y02389*
X02021Y02385*
X02066D02*
X02070Y02393D01*
X02066Y02401*
X02074Y02397*
X02082Y02401*
X02078Y02393*
X02082Y02385*
X02074Y02389*
X02066Y02385*
X01871D02*
X01875Y02393D01*
X01871Y02401*
X01879Y02397*
X01887Y02401*
X01883Y02393*
X01887Y02385*
X01879Y02389*
X01871Y02385*
X01821D02*
X01825Y02393D01*
X01821Y02401*
X01829Y02397*
X01837Y02401*
X01833Y02393*
X01837Y02385*
X01829Y02389*
X01821Y02385*
X01871Y02620D02*
X01875Y02628D01*
X01871Y02636*
X01879Y02632*
X01887Y02636*
X01883Y02628*
X01887Y02620*
X01879Y02624*
X01871Y02620*
X01856Y02770D02*
X01860Y02778D01*
X01856Y02786*
X01864Y02782*
X01872Y02786*
X01868Y02778*
X01872Y02770*
X01864Y02774*
X01856Y02770*
X02101Y02240D02*
X02105Y02248D01*
X02101Y02256*
X02109Y02252*
X02117Y02256*
X02113Y02248*
X02117Y02240*
X02109Y02244*
X02101Y02240*
X01921Y02385D02*
X01925Y02393D01*
X01921Y02401*
X01929Y02397*
X01937Y02401*
X01933Y02393*
X01937Y02385*
X01929Y02389*
X01921Y02385*
X02171D02*
X02175Y02393D01*
X02171Y02401*
X02179Y02397*
X02187Y02401*
X02183Y02393*
X02187Y02385*
X02179Y02389*
X02171Y02385*
X02101Y02190D02*
X02105Y02198D01*
X02101Y02206*
X02109Y02202*
X02117Y02206*
X02113Y02198*
X02117Y02190*
X02109Y02194*
X02101Y02190*
X02783Y02629D02*
X02787Y02637D01*
X02783Y02645*
X02791Y02641*
X02799Y02645*
X02795Y02637*
X02799Y02629*
X02791Y02633*
X02783Y02629*
X03123Y02486D02*
X03127Y02494D01*
X03123Y02502*
X03131Y02498*
X03139Y02502*
X03135Y02494*
X03139Y02486*
X03131Y02490*
X03123Y02486*
X03432Y02856D02*
X03436Y02864D01*
X03432Y02872*
X03440Y02868*
X03448Y02872*
X03444Y02864*
X03448Y02856*
X03440Y02860*
X03432Y02856*
X03020Y02748D02*
X03024Y02756D01*
X03020Y02764*
X03028Y02760*
X03036Y02764*
X03032Y02756*
X03036Y02748*
X03028Y02752*
X03020Y02748*
X03232Y02606D02*
X03236Y02614D01*
X03232Y02622*
X03240Y02618*
X03248Y02622*
X03244Y02614*
X03248Y02606*
X03240Y02610*
X03232Y02606*
X03280Y02564D02*
X03284Y02572D01*
X03280Y02580*
X03288Y02576*
X03296Y02580*
X03292Y02572*
X03296Y02564*
X03288Y02568*
X03280Y02564*
G54D78*
X03734Y02608D02*
D01*
X03733Y02608*
X03733Y02609*
X03733Y02609*
X03733Y02610*
X03733Y02610*
X03733Y02611*
X03733Y02611*
X03732Y02612*
X03732Y02612*
X03732Y02613*
X03731Y02613*
X03731Y02613*
X03730Y02614*
X03730Y02614*
X03730Y02614*
X03729Y02615*
X03728Y02615*
X03728Y02615*
X03727Y02615*
X03727Y02615*
X03726Y02615*
X03726Y02615*
X03725*
X03725Y02615*
X03724Y02615*
X03724Y02615*
X03723Y02615*
X03723Y02615*
X03722Y02615*
X03722Y02614*
X03721Y02614*
X03721Y02614*
X03720Y02613*
X03720Y02613*
X03719Y02613*
X03719Y02612*
X03719Y02612*
X03718Y02611*
X03718Y02611*
X03718Y02610*
X03718Y02610*
X03718Y02609*
X03718Y02609*
X03718Y02608*
X03718Y02608*
X03718Y02607*
X03718Y02606*
X03718Y02606*
X03718Y02605*
X03718Y02605*
X03718Y02604*
X03718Y02604*
X03719Y02603*
X03719Y02603*
X03719Y02602*
X03720Y02602*
X03720Y02602*
X03721Y02601*
X03721Y02601*
X03722Y02601*
X03722Y02600*
X03723Y02600*
X03723Y02600*
X03724Y02600*
X03724Y02600*
X03725Y02600*
X03725Y02600*
X03726*
X03726Y02600*
X03727Y02600*
X03727Y02600*
X03728Y02600*
X03728Y02600*
X03729Y02600*
X03730Y02601*
X03730Y02601*
X03730Y02601*
X03731Y02602*
X03731Y02602*
X03732Y02602*
X03732Y02603*
X03732Y02603*
X03733Y02604*
X03733Y02604*
X03733Y02605*
X03733Y02605*
X03733Y02606*
X03733Y02606*
X03733Y02607*
X03734Y02608*
X04857Y02613D02*
D01*
X04856Y02613*
X04856Y02614*
X04856Y02614*
X04856Y02615*
X04856Y02615*
X04856Y02616*
X04856Y02616*
X04855Y02617*
X04855Y02617*
X04855Y02618*
X04854Y02618*
X04854Y02618*
X04853Y02619*
X04853Y02619*
X04853Y02619*
X04852Y02620*
X04851Y02620*
X04851Y02620*
X04850Y02620*
X04850Y02620*
X04849Y02620*
X04849Y02620*
X04848*
X04848Y02620*
X04847Y02620*
X04847Y02620*
X04846Y02620*
X04846Y02620*
X04845Y02620*
X04845Y02619*
X04844Y02619*
X04844Y02619*
X04843Y02618*
X04843Y02618*
X04842Y02618*
X04842Y02617*
X04842Y02617*
X04841Y02616*
X04841Y02616*
X04841Y02615*
X04841Y02615*
X04841Y02614*
X04841Y02614*
X04841Y02613*
X04841Y02613*
X04841Y02612*
X04841Y02611*
X04841Y02611*
X04841Y02610*
X04841Y02610*
X04841Y02609*
X04841Y02609*
X04842Y02608*
X04842Y02608*
X04842Y02607*
X04843Y02607*
X04843Y02607*
X04844Y02606*
X04844Y02606*
X04845Y02606*
X04845Y02605*
X04846Y02605*
X04846Y02605*
X04847Y02605*
X04847Y02605*
X04848Y02605*
X04848Y02605*
X04849*
X04849Y02605*
X04850Y02605*
X04850Y02605*
X04851Y02605*
X04851Y02605*
X04852Y02605*
X04853Y02606*
X04853Y02606*
X04853Y02606*
X04854Y02607*
X04854Y02607*
X04855Y02607*
X04855Y02608*
X04855Y02608*
X04856Y02609*
X04856Y02609*
X04856Y02610*
X04856Y02610*
X04856Y02611*
X04856Y02611*
X04856Y02612*
X04857Y02613*
X03075Y03043D02*
D01*
X03074Y03043*
X03074Y03044*
X03074Y03044*
X03074Y03045*
X03074Y03045*
X03074Y03046*
X03074Y03046*
X03073Y03047*
X03073Y03047*
X03073Y03048*
X03072Y03048*
X03072Y03048*
X03071Y03049*
X03071Y03049*
X03071Y03049*
X03070Y03050*
X03069Y03050*
X03069Y03050*
X03068Y03050*
X03068Y03050*
X03067Y03050*
X03067Y03050*
X03066*
X03066Y03050*
X03065Y03050*
X03065Y03050*
X03064Y03050*
X03064Y03050*
X03063Y03050*
X03063Y03049*
X03062Y03049*
X03062Y03049*
X03061Y03048*
X03061Y03048*
X03060Y03048*
X03060Y03047*
X03060Y03047*
X03059Y03046*
X03059Y03046*
X03059Y03045*
X03059Y03045*
X03059Y03044*
X03059Y03044*
X03059Y03043*
X03059Y03043*
X03059Y03042*
X03059Y03041*
X03059Y03041*
X03059Y03040*
X03059Y03040*
X03059Y03039*
X03059Y03039*
X03060Y03038*
X03060Y03038*
X03060Y03037*
X03061Y03037*
X03061Y03037*
X03062Y03036*
X03062Y03036*
X03063Y03036*
X03063Y03035*
X03064Y03035*
X03064Y03035*
X03065Y03035*
X03065Y03035*
X03066Y03035*
X03066Y03035*
X03067*
X03067Y03035*
X03068Y03035*
X03068Y03035*
X03069Y03035*
X03069Y03035*
X03070Y03035*
X03071Y03036*
X03071Y03036*
X03071Y03036*
X03072Y03037*
X03072Y03037*
X03073Y03037*
X03073Y03038*
X03073Y03038*
X03074Y03039*
X03074Y03039*
X03074Y03040*
X03074Y03040*
X03074Y03041*
X03074Y03041*
X03074Y03042*
X03075Y03043*
X02568D02*
D01*
X02567Y03043*
X02567Y03044*
X02567Y03044*
X02567Y03045*
X02567Y03045*
X02567Y03046*
X02567Y03046*
X02566Y03047*
X02566Y03047*
X02566Y03048*
X02565Y03048*
X02565Y03048*
X02564Y03049*
X02564Y03049*
X02564Y03049*
X02563Y03050*
X02562Y03050*
X02562Y03050*
X02561Y03050*
X02561Y03050*
X02560Y03050*
X02560Y03050*
X02559*
X02559Y03050*
X02558Y03050*
X02558Y03050*
X02557Y03050*
X02557Y03050*
X02556Y03050*
X02556Y03049*
X02555Y03049*
X02555Y03049*
X02554Y03048*
X02554Y03048*
X02553Y03048*
X02553Y03047*
X02553Y03047*
X02552Y03046*
X02552Y03046*
X02552Y03045*
X02552Y03045*
X02552Y03044*
X02552Y03044*
X02552Y03043*
X02552Y03043*
X02552Y03042*
X02552Y03041*
X02552Y03041*
X02552Y03040*
X02552Y03040*
X02552Y03039*
X02552Y03039*
X02553Y03038*
X02553Y03038*
X02553Y03037*
X02554Y03037*
X02554Y03037*
X02555Y03036*
X02555Y03036*
X02556Y03036*
X02556Y03035*
X02557Y03035*
X02557Y03035*
X02558Y03035*
X02558Y03035*
X02559Y03035*
X02559Y03035*
X02560*
X02560Y03035*
X02561Y03035*
X02561Y03035*
X02562Y03035*
X02562Y03035*
X02563Y03035*
X02564Y03036*
X02564Y03036*
X02564Y03036*
X02565Y03037*
X02565Y03037*
X02566Y03037*
X02566Y03038*
X02566Y03038*
X02567Y03039*
X02567Y03039*
X02567Y03040*
X02567Y03040*
X02567Y03041*
X02567Y03041*
X02567Y03042*
X02568Y03043*
X03075Y02190D02*
D01*
X03074Y02190*
X03074Y02191*
X03074Y02191*
X03074Y02192*
X03074Y02192*
X03074Y02193*
X03074Y02193*
X03073Y02194*
X03073Y02194*
X03073Y02195*
X03072Y02195*
X03072Y02195*
X03071Y02196*
X03071Y02196*
X03071Y02196*
X03070Y02197*
X03069Y02197*
X03069Y02197*
X03068Y02197*
X03068Y02197*
X03067Y02197*
X03067Y02197*
X03066*
X03066Y02197*
X03065Y02197*
X03065Y02197*
X03064Y02197*
X03064Y02197*
X03063Y02197*
X03063Y02196*
X03062Y02196*
X03062Y02196*
X03061Y02195*
X03061Y02195*
X03060Y02195*
X03060Y02194*
X03060Y02194*
X03059Y02193*
X03059Y02193*
X03059Y02192*
X03059Y02192*
X03059Y02191*
X03059Y02191*
X03059Y02190*
X03059Y02190*
X03059Y02189*
X03059Y02188*
X03059Y02188*
X03059Y02187*
X03059Y02187*
X03059Y02186*
X03059Y02186*
X03060Y02185*
X03060Y02185*
X03060Y02184*
X03061Y02184*
X03061Y02184*
X03062Y02183*
X03062Y02183*
X03063Y02183*
X03063Y02182*
X03064Y02182*
X03064Y02182*
X03065Y02182*
X03065Y02182*
X03066Y02182*
X03066Y02182*
X03067*
X03067Y02182*
X03068Y02182*
X03068Y02182*
X03069Y02182*
X03069Y02182*
X03070Y02182*
X03071Y02183*
X03071Y02183*
X03071Y02183*
X03072Y02184*
X03072Y02184*
X03073Y02184*
X03073Y02185*
X03073Y02185*
X03074Y02186*
X03074Y02186*
X03074Y02187*
X03074Y02187*
X03074Y02188*
X03074Y02188*
X03074Y02189*
X03075Y02190*
X02568Y02192D02*
D01*
X02567Y02192*
X02567Y02193*
X02567Y02193*
X02567Y02194*
X02567Y02194*
X02567Y02195*
X02567Y02195*
X02566Y02196*
X02566Y02196*
X02566Y02197*
X02565Y02197*
X02565Y02197*
X02564Y02198*
X02564Y02198*
X02564Y02198*
X02563Y02199*
X02562Y02199*
X02562Y02199*
X02561Y02199*
X02561Y02199*
X02560Y02199*
X02560Y02199*
X02559*
X02559Y02199*
X02558Y02199*
X02558Y02199*
X02557Y02199*
X02557Y02199*
X02556Y02199*
X02556Y02198*
X02555Y02198*
X02555Y02198*
X02554Y02197*
X02554Y02197*
X02553Y02197*
X02553Y02196*
X02553Y02196*
X02552Y02195*
X02552Y02195*
X02552Y02194*
X02552Y02194*
X02552Y02193*
X02552Y02193*
X02552Y02192*
X02552Y02192*
X02552Y02191*
X02552Y02190*
X02552Y02190*
X02552Y02189*
X02552Y02189*
X02552Y02188*
X02552Y02188*
X02553Y02187*
X02553Y02187*
X02553Y02186*
X02554Y02186*
X02554Y02186*
X02555Y02185*
X02555Y02185*
X02556Y02185*
X02556Y02184*
X02557Y02184*
X02557Y02184*
X02558Y02184*
X02558Y02184*
X02559Y02184*
X02559Y02184*
X02560*
X02560Y02184*
X02561Y02184*
X02561Y02184*
X02562Y02184*
X02562Y02184*
X02563Y02184*
X02564Y02185*
X02564Y02185*
X02564Y02185*
X02565Y02186*
X02565Y02186*
X02566Y02186*
X02566Y02187*
X02566Y02187*
X02567Y02188*
X02567Y02188*
X02567Y02189*
X02567Y02189*
X02567Y02190*
X02567Y02190*
X02567Y02191*
X02568Y02192*
M02*