%FSDAX23Y23*%
%MOIN*%
%SFA1B1*%

%IPPOS*%
%ADD28C,0.010000*%
%ADD74C,0.006000*%
%LNde-060718-1*%
%LPD*%
G54D28*
X05092Y02098D02*
Y03129D01*
X01186D02*
X05092D01*
X01186Y02098D02*
Y03129D01*
Y02098D02*
X05092D01*
X02459D02*
Y03127D01*
X02458Y02080D02*
X02487Y02051D01*
X02429Y02052D02*
X02458Y02081D01*
Y01944D02*
Y02081D01*
Y01944D02*
X02586Y01816D01*
X04012*
X01060Y02098D02*
X01171D01*
X01060Y03129D02*
X01171D01*
X01070Y02098D02*
Y02446D01*
Y02748D02*
Y03129D01*
Y02098D02*
X01090Y02158D01*
X01050D02*
X01070Y02098D01*
X01050Y03069D02*
X01070Y03129D01*
X01090Y03069*
X02446Y03140D02*
Y03409D01*
X01186Y03144D02*
Y03409D01*
X01956Y03399D02*
X02446D01*
X01186D02*
X01644D01*
X02386Y03419D02*
X02446Y03399D01*
X02386Y03379D02*
X02446Y03399D01*
X01186D02*
X01246Y03379D01*
X01186Y03399D02*
X01246Y03419D01*
X05092Y03144D02*
Y03412D01*
X02474Y03141D02*
Y03412D01*
X03923Y03402D02*
X05092D01*
X02474D02*
X03611D01*
X05032Y03422D02*
X05092Y03402D01*
X05032Y03382D02*
X05092Y03402D01*
X02474D02*
X02534Y03382D01*
X02474Y03402D02*
X02534Y03422D01*
X05084Y02124D02*
X05615D01*
X05084Y03108D02*
X05615D01*
X05605Y02124D02*
Y02444D01*
Y02756D02*
Y03108D01*
Y02124D02*
X05625Y02184D01*
X05585D02*
X05605Y02124D01*
X05585Y03048D02*
X05605Y03108D01*
X05625Y03048*
X05064Y03128D02*
Y03276D01*
X03490Y03128D02*
Y03276D01*
X04417Y03266D02*
X05064D01*
X03490D02*
X04105D01*
X05004Y03286D02*
X05064Y03266D01*
X05004Y03246D02*
X05064Y03266D01*
X03490D02*
X03550Y03246D01*
X03490Y03266D02*
X03550Y03286D01*
X02732Y01921D02*
Y01841D01*
Y01881*
X02785*
Y01921*
Y01841*
X02852Y01921D02*
X02825D01*
X02812Y01907*
Y01854*
X02825Y01841*
X02852*
X02865Y01854*
Y01907*
X02852Y01921*
X02891D02*
Y01841D01*
X02945*
X03025Y01921D02*
X02971D01*
Y01841*
X03025*
X02971Y01881D02*
X02998D01*
X03105Y01907D02*
X03091Y01921D01*
X03065*
X03051Y01907*
Y01894*
X03065Y01881*
X03091*
X03105Y01867*
Y01854*
X03091Y01841*
X03065*
X03051Y01854*
X03251Y01921D02*
X03225D01*
X03211Y01907*
Y01854*
X03225Y01841*
X03251*
X03265Y01854*
Y01907*
X03251Y01921*
X03291Y01841D02*
Y01921D01*
X03331*
X03345Y01907*
Y01881*
X03331Y01867*
X03291*
X03318D02*
X03345Y01841D01*
X03451Y01921D02*
Y01867D01*
X03478Y01841*
X03505Y01867*
Y01921*
X03531Y01881D02*
X03585D01*
X03665Y01907D02*
X03651Y01921D01*
X03625*
X03611Y01907*
Y01894*
X03625Y01881*
X03651*
X03665Y01867*
Y01854*
X03651Y01841*
X03625*
X03611Y01854*
X03691Y01921D02*
Y01841D01*
Y01881*
X03745*
Y01921*
Y01841*
X03771D02*
Y01894D01*
X03798Y01921*
X03825Y01894*
Y01841*
Y01881*
X03771*
X03851Y01841D02*
Y01921D01*
X03891*
X03905Y01907*
Y01881*
X03891Y01867*
X03851*
X03984Y01921D02*
X03931D01*
Y01841*
X03984*
X03931Y01881D02*
X03958D01*
G54D74*
X01116Y02502D02*
Y02462D01*
X01076Y02502*
X01066*
X01056Y02492*
Y02472*
X01066Y02462*
X01056Y02562D02*
X01066Y02542D01*
X01086Y02522*
X01106*
X01116Y02532*
Y02552*
X01106Y02562*
X01096*
X01086Y02552*
Y02522*
X01126Y02592D02*
X01116Y02602D01*
X01106*
Y02592*
X01116*
Y02602*
X01126Y02592*
X01136Y02582*
X01116Y02642D02*
Y02662D01*
Y02652*
X01056*
X01066Y02642*
X01106Y02692D02*
X01116Y02702D01*
Y02722*
X01106Y02732*
X01066*
X01056Y02722*
Y02702*
X01066Y02692*
X01076*
X01086Y02702*
Y02732*
X01660Y03403D02*
X01670Y03413D01*
X01690*
X01700Y03403*
Y03393*
X01690Y03383*
X01680*
X01690*
X01700Y03373*
Y03363*
X01690Y03353*
X01670*
X01660Y03363*
X01760Y03353D02*
X01720D01*
X01760Y03393*
Y03403*
X01750Y03413*
X01730*
X01720Y03403*
X01790Y03343D02*
X01800Y03353D01*
Y03363*
X01790*
Y03353*
X01800*
X01790Y03343*
X01780Y03333*
X01840Y03403D02*
X01850Y03413D01*
X01870*
X01880Y03403*
Y03363*
X01870Y03353*
X01850*
X01840Y03363*
Y03403*
X01900D02*
X01910Y03413D01*
X01930*
X01940Y03403*
Y03363*
X01930Y03353*
X01910*
X01900Y03363*
Y03403*
X03667Y03416D02*
X03647Y03406D01*
X03627Y03386*
Y03366*
X03637Y03356*
X03657*
X03667Y03366*
Y03376*
X03657Y03386*
X03627*
X03727Y03416D02*
X03707Y03406D01*
X03687Y03386*
Y03366*
X03697Y03356*
X03717*
X03727Y03366*
Y03376*
X03717Y03386*
X03687*
X03757Y03346D02*
X03767Y03356D01*
Y03366*
X03757*
Y03356*
X03767*
X03757Y03346*
X03747Y03336*
X03847Y03416D02*
X03807D01*
Y03386*
X03827Y03396*
X03837*
X03847Y03386*
Y03366*
X03837Y03356*
X03817*
X03807Y03366*
X03867Y03406D02*
X03877Y03416D01*
X03897*
X03907Y03406*
Y03366*
X03897Y03356*
X03877*
X03867Y03366*
Y03406*
X05651Y02500D02*
Y02460D01*
X05611Y02500*
X05601*
X05591Y02490*
Y02470*
X05601Y02460*
X05591Y02560D02*
Y02520D01*
X05621*
X05611Y02540*
Y02550*
X05621Y02560*
X05641*
X05651Y02550*
Y02530*
X05641Y02520*
X05661Y02590D02*
X05651Y02600D01*
X05641*
Y02590*
X05651*
Y02600*
X05661Y02590*
X05671Y02580*
X05601Y02640D02*
X05591Y02650D01*
Y02670*
X05601Y02680*
X05641*
X05651Y02670*
Y02650*
X05641Y02640*
X05601*
Y02700D02*
X05591Y02710D01*
Y02730*
X05601Y02740*
X05641*
X05651Y02730*
Y02710*
X05641Y02700*
X05601*
X04151Y03220D02*
Y03280D01*
X04121Y03250*
X04161*
X04181Y03270D02*
X04191Y03280D01*
X04211*
X04221Y03270*
Y03230*
X04211Y03220*
X04191*
X04181Y03230*
Y03270*
X04251Y03210D02*
X04261Y03220D01*
Y03230*
X04251*
Y03220*
X04261*
X04251Y03210*
X04241Y03200*
X04301Y03270D02*
X04311Y03280D01*
X04331*
X04341Y03270*
Y03230*
X04331Y03220*
X04311*
X04301Y03230*
Y03270*
X04361D02*
X04371Y03280D01*
X04391*
X04401Y03270*
Y03230*
X04391Y03220*
X04371*
X04361Y03230*
Y03270*
M02*