%FSDAX23Y23*%
%MOIN*%
%SFA1B1*%

%IPPOS*%
%ADD65C,0.008000*%
%ADD66R,0.067100X0.067100*%
%ADD67C,0.067100*%
%ADD68C,0.068000*%
%ADD69C,0.039500*%
%ADD70R,0.047400X0.047400*%
%ADD71C,0.047400*%
%LNde-060718-1*%
%LPD*%
G54D65*
X02459Y02125D03*
Y02163D03*
Y02202D03*
Y02242D03*
Y02280D03*
Y02319D03*
Y02358D03*
Y02397D03*
Y02436D03*
Y02475D03*
Y02514D03*
Y02553D03*
Y02592D03*
Y02631D03*
Y02669D03*
Y02708D03*
Y02747D03*
Y02786D03*
Y02825D03*
Y02864D03*
Y02903D03*
Y02942D03*
Y02981D03*
Y03020D03*
Y03059D03*
Y03098D03*
X03726Y02608D03*
X04849Y02613D03*
X03067Y03043D03*
X02560D03*
X03067Y02190D03*
X02560Y02192D03*
G54D66*
X02334Y02408D03*
X02576Y02683D03*
X01294Y02463D03*
G54D67*
X02334Y02508D03*
Y02608D03*
Y02708D03*
X02576Y02583D03*
Y02483D03*
Y02383D03*
X01294Y02563D03*
Y02663D03*
Y02763D03*
Y02863D03*
G54D68*
X02074Y02858D03*
X02193D03*
X01993D03*
X01874D03*
G54D69*
X02978Y02629D03*
Y02557D03*
Y02594D03*
X03017Y02629D03*
Y02557D03*
X02939Y02629D03*
Y02557D03*
X03017Y02594D03*
X02939Y02593D03*
X03153Y02583D03*
X03131Y02664D03*
X03327Y02865D03*
X02929Y02451D03*
X03610Y02672D03*
X03609Y02568D03*
X03530Y02615D03*
X04944Y02552D03*
X05064Y02672D03*
X02029Y02393D03*
X02074D03*
X01879D03*
X01829D03*
X01879Y02628D03*
X01864Y02778D03*
X02109Y02248D03*
X01929Y02393D03*
X02179D03*
X02109Y02198D03*
X02791Y02637D03*
X03131Y02494D03*
X03440Y02864D03*
X03028Y02756D03*
X03240Y02614D03*
X03288Y02572D03*
G54D70*
X02084Y02328D03*
G54D71*
X02014Y02328D03*
X01934D03*
M02*