%FSDAX23Y23*%
%MOIN*%
%SFA1B1*%

%IPPOS*%
%ADD77C,0.002000*%
%LNde-060718-1*%
%LPD*%
G54D77*
X02443Y02125D02*
X02474D01*
X02459Y02109D02*
Y02140D01*
X02443Y02163D02*
X02474D01*
X02459Y02148D02*
Y02179D01*
X02443Y02202D02*
X02474D01*
X02459Y02187D02*
Y02218D01*
X02443Y02242D02*
X02474D01*
X02459Y02226D02*
Y02257D01*
X02443Y02280D02*
X02474D01*
X02459Y02264D02*
Y02296D01*
X02443Y02319D02*
X02474D01*
X02459Y02303D02*
Y02335D01*
X02443Y02358D02*
X02474D01*
X02459Y02342D02*
Y02374D01*
X02443Y02397D02*
X02474D01*
X02459Y02381D02*
Y02413D01*
X02443Y02436D02*
X02474D01*
X02459Y02420D02*
Y02452D01*
X02443Y02475D02*
X02474D01*
X02459Y02459D02*
Y02491D01*
X02443Y02514D02*
X02474D01*
X02459Y02498D02*
Y02529D01*
X02443Y02553D02*
X02474D01*
X02459Y02537D02*
Y02568D01*
X02443Y02592D02*
X02474D01*
X02459Y02576D02*
Y02607D01*
X02443Y02631D02*
X02474D01*
X02459Y02615D02*
Y02646D01*
X02443Y02669D02*
X02474D01*
X02459Y02654D02*
Y02685D01*
X02443Y02708D02*
X02474D01*
X02459Y02693D02*
Y02724D01*
X02443Y02747D02*
X02474D01*
X02459Y02732D02*
Y02763D01*
X02443Y02786D02*
X02474D01*
X02459Y02770D02*
Y02802D01*
X02443Y02825D02*
X02474D01*
X02459Y02809D02*
Y02841D01*
X02443Y02864D02*
X02474D01*
X02459Y02848D02*
Y02880D01*
X02443Y02903D02*
X02474D01*
X02459Y02887D02*
Y02919D01*
X02443Y02942D02*
X02474D01*
X02459Y02926D02*
Y02958D01*
X02443Y02981D02*
X02474D01*
X02459Y02965D02*
Y02997D01*
X02443Y03020D02*
X02474D01*
X02459Y03004D02*
Y03035D01*
X02443Y03059D02*
X02474D01*
X02459Y03043D02*
Y03074D01*
X02443Y03098D02*
X02474D01*
X02459Y03082D02*
Y03113D01*
X03686Y02608D02*
X03765D01*
X03726Y02568D02*
Y02647D01*
X04809Y02613D02*
X04888D01*
X04849Y02573D02*
Y02652D01*
X03027Y03043D02*
X03106D01*
X03067Y03003D02*
Y03082D01*
X02520Y03043D02*
X02599D01*
X02560Y03003D02*
Y03082D01*
X03027Y02190D02*
X03106D01*
X03067Y02150D02*
Y02229D01*
X02520Y02192D02*
X02599D01*
X02560Y02152D02*
Y02231D01*
X02316Y02408D02*
X02351D01*
X02334Y02390D02*
Y02425D01*
X02316Y02508D02*
X02351D01*
X02334Y02490D02*
Y02525D01*
X02316Y02608D02*
X02351D01*
X02334Y02590D02*
Y02625D01*
X02316Y02708D02*
X02351D01*
X02334Y02690D02*
Y02725D01*
X02059Y02858D02*
X02089D01*
X02074Y02843D02*
Y02873D01*
X02178Y02858D02*
X02208D01*
X02193Y02843D02*
Y02873D01*
X01978Y02858D02*
X02008D01*
X01993Y02843D02*
Y02873D01*
X01859Y02858D02*
X01889D01*
X01874Y02843D02*
Y02873D01*
X02558Y02683D02*
X02593D01*
X02576Y02665D02*
Y02700D01*
X02558Y02583D02*
X02593D01*
X02576Y02565D02*
Y02600D01*
X02558Y02483D02*
X02593D01*
X02576Y02465D02*
Y02500D01*
X02558Y02383D02*
X02593D01*
X02576Y02365D02*
Y02400D01*
X01276Y02463D02*
X01311D01*
X01294Y02445D02*
Y02480D01*
X01276Y02563D02*
X01311D01*
X01294Y02545D02*
Y02580D01*
X01276Y02663D02*
X01311D01*
X01294Y02645D02*
Y02680D01*
X01276Y02763D02*
X01311D01*
X01294Y02745D02*
Y02780D01*
X01276Y02863D02*
X01311D01*
X01294Y02845D02*
Y02880D01*
X02970Y02629D02*
X02985D01*
X02978Y02621D02*
Y02636D01*
X02970Y02557D02*
X02985D01*
X02978Y02549D02*
Y02564D01*
X02970Y02594D02*
X02985D01*
X02978Y02586D02*
Y02601D01*
X03009Y02629D02*
X03024D01*
X03017Y02621D02*
Y02636D01*
X03009Y02557D02*
X03024D01*
X03017Y02549D02*
Y02564D01*
X02931Y02629D02*
X02946D01*
X02939Y02621D02*
Y02636D01*
X02931Y02557D02*
X02946D01*
X02939Y02549D02*
Y02564D01*
X03009Y02594D02*
X03024D01*
X03017Y02586D02*
Y02601D01*
X02931Y02593D02*
X02946D01*
X02939Y02585D02*
Y02600D01*
X03145Y02583D02*
X03161D01*
X03153Y02575D02*
Y02591D01*
X03123Y02664D02*
X03138D01*
X03131Y02656D02*
Y02671D01*
X03319Y02865D02*
X03335D01*
X03327Y02857D02*
Y02872D01*
X02921Y02451D02*
X02937D01*
X02929Y02443D02*
Y02459D01*
X03602Y02672D02*
X03617D01*
X03610Y02664D02*
Y02679D01*
X03601Y02568D02*
X03616D01*
X03609Y02560D02*
Y02575D01*
X03522Y02615D02*
X03537D01*
X03530Y02607D02*
Y02622D01*
X04936Y02552D02*
X04951D01*
X04944Y02544D02*
Y02559D01*
X05056Y02672D02*
X05071D01*
X05064Y02664D02*
Y02679D01*
X02021Y02393D02*
X02036D01*
X02029Y02385D02*
Y02400D01*
X02066Y02393D02*
X02081D01*
X02074Y02385D02*
Y02400D01*
X01871Y02393D02*
X01886D01*
X01879Y02385D02*
Y02400D01*
X01821Y02393D02*
X01836D01*
X01829Y02385D02*
Y02400D01*
X01871Y02628D02*
X01886D01*
X01879Y02620D02*
Y02635D01*
X01856Y02778D02*
X01871D01*
X01864Y02770D02*
Y02785D01*
X02101Y02248D02*
X02116D01*
X02109Y02240D02*
Y02255D01*
X01921Y02393D02*
X01936D01*
X01929Y02385D02*
Y02400D01*
X02171Y02393D02*
X02186D01*
X02179Y02385D02*
Y02400D01*
X02101Y02198D02*
X02116D01*
X02109Y02190D02*
Y02205D01*
X02783Y02637D02*
X02798D01*
X02791Y02629D02*
Y02644D01*
X03123Y02494D02*
X03138D01*
X03131Y02486D02*
Y02501D01*
X03432Y02864D02*
X03448D01*
X03440Y02856D02*
Y02872D01*
X03020Y02756D02*
X03035D01*
X03028Y02748D02*
Y02763D01*
X03232Y02614D02*
X03247D01*
X03240Y02606D02*
Y02621D01*
X03280Y02572D02*
X03295D01*
X03288Y02564D02*
Y02579D01*
M02*