%FSDAX23Y23*%
%MOIN*%
%SFA1B1*%

%IPPOS*%
%ADD75C,0.003900*%
%LNde-060718-1*%
%LPD*%
G54D75*
X02043Y02636D02*
D01*
X02043Y02637*
X02043Y02638*
X02042Y02640*
X02042Y02641*
X02042Y02642*
X02041Y02644*
X02040Y02645*
X02040Y02646*
X02039Y02647*
X02038Y02648*
X02037Y02649*
X02036Y02650*
X02035Y02651*
X02034Y02652*
X02033Y02653*
X02032Y02653*
X02030Y02654*
X02029Y02654*
X02028Y02655*
X02026Y02655*
X02025Y02655*
X02024Y02655*
X02022*
X02021Y02655*
X02020Y02655*
X02018Y02655*
X02017Y02654*
X02016Y02654*
X02014Y02653*
X02013Y02653*
X02012Y02652*
X02011Y02651*
X02010Y02650*
X02009Y02649*
X02008Y02648*
X02007Y02647*
X02006Y02646*
X02006Y02645*
X02005Y02644*
X02004Y02642*
X02004Y02641*
X02004Y02640*
X02003Y02638*
X02003Y02637*
X02003Y02636*
X02003Y02634*
X02003Y02633*
X02004Y02632*
X02004Y02630*
X02004Y02629*
X02005Y02628*
X02006Y02626*
X02006Y02625*
X02007Y02624*
X02008Y02623*
X02009Y02622*
X02010Y02621*
X02011Y02620*
X02012Y02619*
X02013Y02619*
X02014Y02618*
X02016Y02617*
X02017Y02617*
X02018Y02616*
X02020Y02616*
X02021Y02616*
X02022Y02616*
X02024*
X02025Y02616*
X02026Y02616*
X02028Y02616*
X02029Y02617*
X02030Y02617*
X02032Y02618*
X02033Y02619*
X02034Y02619*
X02035Y02620*
X02036Y02621*
X02037Y02622*
X02038Y02623*
X02039Y02624*
X02040Y02625*
X02040Y02626*
X02041Y02628*
X02042Y02629*
X02042Y02630*
X02042Y02632*
X02043Y02633*
X02043Y02634*
X02043Y02636*
X02933Y02528D02*
D01*
X02933Y02529*
X02933Y02530*
X02933Y02532*
X02932Y02533*
X02932Y02534*
X02931Y02536*
X02931Y02537*
X02930Y02538*
X02929Y02539*
X02929Y02540*
X02928Y02541*
X02927Y02542*
X02926Y02543*
X02925Y02544*
X02923Y02545*
X02922Y02545*
X02921Y02546*
X02920Y02546*
X02918Y02547*
X02917Y02547*
X02916Y02547*
X02914Y02547*
X02913*
X02911Y02547*
X02910Y02547*
X02909Y02547*
X02907Y02546*
X02906Y02546*
X02905Y02545*
X02904Y02545*
X02902Y02544*
X02901Y02543*
X02900Y02542*
X02899Y02541*
X02898Y02540*
X02898Y02539*
X02897Y02538*
X02896Y02537*
X02896Y02536*
X02895Y02534*
X02895Y02533*
X02894Y02532*
X02894Y02530*
X02894Y02529*
X02894Y02528*
X02894Y02526*
X02894Y02525*
X02894Y02523*
X02895Y02522*
X02895Y02521*
X02896Y02519*
X02896Y02518*
X02897Y02517*
X02898Y02516*
X02898Y02515*
X02899Y02514*
X02900Y02513*
X02901Y02512*
X02902Y02511*
X02904Y02510*
X02905Y02510*
X02906Y02509*
X02907Y02509*
X02909Y02508*
X02910Y02508*
X02911Y02508*
X02913Y02508*
X02914*
X02916Y02508*
X02917Y02508*
X02918Y02508*
X02920Y02509*
X02921Y02509*
X02922Y02510*
X02923Y02510*
X02925Y02511*
X02926Y02512*
X02927Y02513*
X02928Y02514*
X02929Y02515*
X02929Y02516*
X02930Y02517*
X02931Y02518*
X02931Y02519*
X02932Y02521*
X02932Y02522*
X02933Y02523*
X02933Y02525*
X02933Y02526*
X02933Y02528*
X01949Y02215D02*
X02068D01*
X01949Y02270D02*
X02068D01*
X01949Y02215D02*
Y02270D01*
X02068Y02215D02*
Y02270D01*
X01249Y02300D02*
X01368D01*
X01249Y02245D02*
X01368D01*
Y02300*
X01249Y02245D02*
Y02300D01*
X01799Y02671D02*
X02058D01*
X01799Y02494D02*
X02058D01*
Y02671*
X01799Y02494D02*
Y02671D01*
X01461Y02824D02*
X01567D01*
Y02761D02*
Y02824D01*
X01461Y02761D02*
Y02824D01*
Y02761D02*
X01567D01*
X01477Y02736D02*
X01622D01*
X01477Y02473D02*
X01622D01*
X01477D02*
Y02736D01*
X01622Y02473D02*
Y02736D01*
X03164Y02438D02*
Y02525D01*
X03219Y02438D02*
Y02525D01*
X03164Y02438D02*
X03219D01*
X03164Y02525D02*
X03219D01*
X03218Y02691D02*
Y02778D01*
X03163Y02691D02*
Y02778D01*
X03218*
X03163Y02691D02*
X03218D01*
X02670Y02500D02*
X02757D01*
X02670Y02555D02*
X02757D01*
Y02500D02*
Y02555D01*
X02670Y02500D02*
Y02555D01*
X03079Y02492D02*
Y02693D01*
X02878Y02492D02*
Y02693D01*
X03079*
X02878Y02492D02*
X03079D01*
M02*