%FSDAX23Y23*%
%MOIN*%
%SFA1B1*%

%IPPOS*%
%AMD18*
4,1,8,-0.016700,-0.033400,0.016700,-0.033400,0.033400,-0.016700,0.033400,0.016700,0.016700,0.033400,-0.016700,0.033400,-0.033400,0.016700,-0.033400,-0.016700,-0.016700,-0.033400,0.0*
1,1,0.033400,-0.016700,-0.016700*
1,1,0.033400,0.016700,-0.016700*
1,1,0.033400,0.016700,0.016700*
1,1,0.033400,-0.016700,0.016700*
%
%ADD10R,0.039400X0.043300*%
%ADD11R,0.023600X0.051200*%
%ADD12R,0.051200X0.059100*%
%ADD13O,0.013800X0.070900*%
%ADD14R,0.059100X0.051200*%
%ADD15R,0.035800X0.048000*%
%ADD16R,0.094500X0.129900*%
%ADD17R,0.094500X0.039400*%
G04~CAMADD=18~8~0.0~0.0~669.0~669.0~167.0~0.0~15~0.0~0.0~0.0~0.0~0~0.0~0.0~0.0~0.0~0~0.0~0.0~0.0~180.0~668.0~668.0*
%ADD18D18*%
%ADD19R,0.066900X0.066900*%
%ADD20R,0.043300X0.039400*%
%ADD21R,0.039400X0.045300*%
%ADD22R,0.057100X0.021700*%
%ADD23R,0.216500X0.078700*%
%ADD24R,0.045300X0.039400*%
%ADD25R,0.122000X0.122000*%
%ADD26O,0.033500X0.009800*%
%ADD27O,0.009800X0.033500*%
%LNde-060718-1*%
%LPD*%
G54D10*
X02224Y02649D03*
Y02716D03*
X02164Y02649D03*
Y02716D03*
X02104Y02649D03*
Y02716D03*
X01904Y02204D03*
Y02271D03*
X01785Y02806D03*
Y02873D03*
X01394Y02799D03*
Y02866D03*
X02179Y02526D03*
Y02459D03*
X02234Y02526D03*
Y02459D03*
X03329Y02798D03*
Y02731D03*
X03272Y02730D03*
Y02663D03*
X03399Y02797D03*
Y02730D03*
X03269Y02439D03*
Y02506D03*
X03329D03*
Y02439D03*
X03401Y02505D03*
Y02438D03*
X02659D03*
Y02371D03*
X03190Y02906D03*
Y02973D03*
X03399Y02938D03*
Y02871D03*
G54D11*
X01971Y02201D03*
X02046D03*
X02009Y02284D03*
X01346Y02314D03*
X01271D03*
X01309Y02231D03*
G54D12*
X01626Y02418D03*
X01701D03*
X01486Y02873D03*
X01561D03*
X02661Y02683D03*
X02736D03*
G54D13*
X02044Y02695D03*
X02018D03*
X01993D03*
X01967D03*
X01941D03*
X01916D03*
X01890D03*
X01865D03*
X01839D03*
X01813D03*
X02044Y02470D03*
X02018D03*
X01993D03*
X01967D03*
X01941D03*
X01916D03*
X01890D03*
X01865D03*
X01839D03*
X01813D03*
G54D14*
X01754Y02595D03*
Y02520D03*
X01649Y02800D03*
Y02875D03*
X01725Y02801D03*
Y02876D03*
X02114Y02465D03*
Y02540D03*
X02809Y02450D03*
Y02375D03*
X02729Y02450D03*
Y02375D03*
G54D15*
X01449Y02793D03*
X01578D03*
G54D16*
X01435Y02605D03*
G54D17*
X01664Y02695D03*
Y02605D03*
Y02514D03*
G54D18*
X01424Y02318D03*
Y02218D03*
X01829Y02318D03*
G54D19*
X01829Y02218D03*
G54D20*
X01495Y02408D03*
X01562D03*
X02347Y02838D03*
X02280D03*
X03190Y02378D03*
X03257D03*
Y02846D03*
X03190D03*
X02347Y02898D03*
X02280D03*
X03026Y02361D03*
X03093D03*
X02660Y02608D03*
X02727D03*
X02963Y02361D03*
X02896D03*
X03402Y02565D03*
X03335D03*
X03399Y02663D03*
X03332D03*
X03260Y02914D03*
X03327D03*
X03326Y02973D03*
X03259D03*
X02695Y02988D03*
X02762D03*
X02917D03*
X02850D03*
G54D21*
X03192Y02435D03*
Y02528D03*
X03191Y02781D03*
Y02688D03*
G54D22*
X03112Y02427D03*
X03019D03*
G54D23*
X02987Y02848D03*
X02613D03*
G54D24*
X02760Y02528D03*
X02667D03*
G54D25*
X02979Y02593D03*
G54D26*
X02881Y02524D03*
Y02543D03*
Y02563D03*
Y02583D03*
Y02602D03*
Y02622D03*
Y02642D03*
Y02661D03*
X03076D03*
Y02642D03*
Y02622D03*
Y02602D03*
Y02583D03*
Y02563D03*
Y02543D03*
Y02524D03*
G54D27*
X02910Y02690D03*
X02929D03*
X02949D03*
X02969D03*
X02988D03*
X03008D03*
X03028D03*
X03047D03*
Y02495D03*
X03028D03*
X03008D03*
X02988D03*
X02969D03*
X02949D03*
X02929D03*
X02910D03*
M02*