%FSDAX23Y23*%
%MOIN*%
%SFA1B1*%

%IPPOS*%
%ADD9500C,0.015700*%
%ADD9501C,0.030000*%
%ADD9502C,0.031500*%
%ADD9503C,0.035400*%
%ADD9504C,0.078700*%
%LNde-060718-1*%
%LPD*%
G54D9500*
X04944Y02552D03*
X05064Y02672D03*
X03610D03*
X03609Y02568D03*
X03530Y02615D03*
X03288Y02572D03*
X03240Y02614D03*
X03153Y02583D03*
X03131Y02664D03*
Y02494D03*
X03327Y02865D03*
X03440Y02864D03*
X03028Y02756D03*
X03017Y02629D03*
Y02594D03*
Y02557D03*
X02978D03*
Y02594D03*
Y02629D03*
X02939D03*
Y02593D03*
Y02557D03*
X02929Y02451D03*
X02791Y02637D03*
X02179Y02393D03*
X02074D03*
X02029D03*
X01929D03*
X01879D03*
X01829D03*
X01879Y02628D03*
X01864Y02778D03*
X02109Y02248D03*
Y02198D03*
G54D9501*
X01874Y02858D03*
X01993D03*
X02074D03*
X02193D03*
G54D9502*
X02459Y02125D03*
Y02163D03*
Y02202D03*
Y02242D03*
Y02280D03*
Y02319D03*
Y02358D03*
Y02397D03*
Y02436D03*
Y02475D03*
Y02514D03*
Y02553D03*
Y02592D03*
Y02631D03*
Y02669D03*
Y02708D03*
Y02747D03*
Y02786D03*
Y02825D03*
Y02864D03*
Y02903D03*
Y02942D03*
Y02981D03*
Y03020D03*
Y03059D03*
Y03098D03*
G54D9503*
X02334Y02408D03*
Y02508D03*
Y02608D03*
Y02708D03*
X02576Y02683D03*
Y02583D03*
Y02483D03*
Y02383D03*
X01294Y02463D03*
Y02563D03*
Y02663D03*
Y02763D03*
Y02863D03*
G54D9504*
X04849Y02613D03*
X03726Y02608D03*
X03067Y02190D03*
X02560Y02192D03*
Y03043D03*
X03067D03*
M02*