%FSDAX24Y24*%
%MOIN*%
%SFA1B1*%

%IPPOS*%
%ADD44C,0.010000*%
%ADD79C,0.003900*%
%ADD124C,0.006000*%
%LNde-290817-1*%
%LPD*%
G54D44*
X041009Y013150D02*
X044850D01*
X041009Y064331D02*
X044850D01*
X044750Y013150D02*
Y036771D01*
Y040390D02*
Y064331D01*
Y013150D02*
X044950Y013750D01*
X044550D02*
X044750Y013150D01*
X044550Y063731D02*
X044750Y064331D01*
X044950Y063731*
X040859Y064400D02*
Y066650D01*
X013300Y064400D02*
Y066650D01*
X028479Y066550D02*
X040859D01*
X013300D02*
X025360D01*
X040259Y066750D02*
X040859Y066550D01*
X040259Y066350D02*
X040859Y066550D01*
X013300D02*
X013900Y066350D01*
X013300Y066550D02*
X013900Y066750D01*
G54D79*
X027080Y023504D02*
Y023662D01*
X027001Y023583D02*
X027158D01*
X015859Y040827D02*
Y040985D01*
X015780Y040906D02*
X015938D01*
X024771Y040900D02*
X024929D01*
X024850Y040821D02*
Y040979D01*
X038250Y040827D02*
Y040985D01*
X038171Y040906D02*
X038329D01*
G54D124*
X045210Y036931D02*
Y037131D01*
Y037031*
X044610*
X044710Y036931*
Y037431D02*
X044610Y037531D01*
Y037731*
X044710Y037831*
X044810*
X044910Y037731*
Y037631*
Y037731*
X045010Y037831*
X045110*
X045210Y037731*
Y037531*
X045110Y037431*
X044710Y038031D02*
X044610Y038131D01*
Y038331*
X044710Y038431*
X045110*
X045210Y038331*
Y038131*
X045110Y038031*
X044710*
X045310Y038730D02*
X045210Y038830D01*
X045110*
Y038730*
X045210*
Y038830*
X045310Y038730*
X045410Y038631*
X044710Y039230D02*
X044610Y039330D01*
Y039530*
X044710Y039630*
X045110*
X045210Y039530*
Y039330*
X045110Y039230*
X044710*
Y039830D02*
X044610Y039930D01*
Y040130*
X044710Y040230*
X045110*
X045210Y040130*
Y039930*
X045110Y039830*
X044710*
X025520Y066690D02*
X025920D01*
Y066590*
X025520Y066190*
Y066090*
X026120Y066590D02*
X026220Y066690D01*
X026420*
X026520Y066590*
Y066190*
X026420Y066090*
X026220*
X026120Y066190*
Y066590*
X026820Y065990D02*
X026920Y066090D01*
Y066190*
X026820*
Y066090*
X026920*
X026820Y065990*
X026720Y065890*
X027319Y066590D02*
X027419Y066690D01*
X027619*
X027719Y066590*
Y066190*
X027619Y066090*
X027419*
X027319Y066190*
Y066590*
X027919D02*
X028019Y066690D01*
X028219*
X028319Y066590*
Y066190*
X028219Y066090*
X028019*
X027919Y066190*
Y066590*
M02*