%FSDAX24Y24*%
%MOIN*%
%SFA1B1*%

%IPPOS*%
%ADD10C,0.005000*%
%ADD44C,0.010000*%
%ADD49C,0.019700*%
%ADD76C,0.009800*%
%ADD77C,0.023600*%
%ADD78C,0.007900*%
%ADD79C,0.003900*%
%ADD80C,0.004000*%
%LNde-290817-1*%
%LPD*%
G54D10*
X018250Y049850D02*
X018450D01*
X018350Y049950D02*
Y049750D01*
X018550Y049700D02*
Y050000D01*
X018700*
X018750Y049950*
Y049850*
X018700Y049800*
X018550*
X018850Y050000D02*
Y049700D01*
X018950Y049800*
X019050Y049700*
Y050000*
X019150Y049700D02*
Y050000D01*
X019300*
X019350Y049950*
Y049850*
X019300Y049800*
X019150*
X019250D02*
X019350Y049700D01*
X019750Y049850D02*
X019949D01*
X019849Y049950D02*
Y049750D01*
X020249Y050000D02*
X020049D01*
Y049850*
X020149Y049900*
X020199*
X020249Y049850*
Y049750*
X020199Y049700*
X020099*
X020049Y049750*
X020349Y050000D02*
Y049800D01*
X020449Y049700*
X020549Y049800*
Y050000*
X020949Y049700D02*
Y049900D01*
X021049Y050000*
X021149Y049900*
Y049700*
Y049850*
X020949*
X021849Y050000D02*
Y049700D01*
X021999*
X022049Y049750*
Y049800*
X021999Y049850*
X021849*
X021999*
X022049Y049900*
Y049950*
X021999Y050000*
X021849*
X022898D02*
X022799D01*
X022749Y049950*
Y049750*
X022799Y049700*
X022898*
X022948Y049750*
Y049950*
X022898Y050000*
X023048D02*
Y049700D01*
X023148Y049800*
X023248Y049700*
Y050000*
X024148Y049950D02*
X024098Y050000D01*
X023998*
X023948Y049950*
Y049750*
X023998Y049700*
X024098*
X024148Y049750*
Y049850*
X024048*
X024248Y049700D02*
Y050000D01*
X024448Y049700*
Y050000*
X024548D02*
Y049700D01*
X024698*
X024748Y049750*
Y049950*
X024698Y050000*
X024548*
X018250Y045050D02*
X018450D01*
X018350Y045150D02*
Y044950D01*
X018550Y044900D02*
Y045200D01*
X018700*
X018750Y045150*
Y045050*
X018700Y045000*
X018550*
X018850Y045200D02*
Y044900D01*
X018950Y045000*
X019050Y044900*
Y045200*
X019150Y044900D02*
Y045200D01*
X019300*
X019350Y045150*
Y045050*
X019300Y045000*
X019150*
X019250D02*
X019350Y044900D01*
X019750Y045050D02*
X019949D01*
X019849Y045150D02*
Y044950D01*
X020249Y045200D02*
X020049D01*
Y045050*
X020149Y045100*
X020199*
X020249Y045050*
Y044950*
X020199Y044900*
X020099*
X020049Y044950*
X020349Y045200D02*
Y045000D01*
X020449Y044900*
X020549Y045000*
Y045200*
X020949Y044900D02*
Y045100D01*
X021049Y045200*
X021149Y045100*
Y044900*
Y045050*
X020949*
X021849Y045200D02*
Y044900D01*
X021999*
X022049Y044950*
Y045000*
X021999Y045050*
X021849*
X021999*
X022049Y045100*
Y045150*
X021999Y045200*
X021849*
X022898D02*
X022799D01*
X022749Y045150*
Y044950*
X022799Y044900*
X022898*
X022948Y044950*
Y045150*
X022898Y045200*
X023048D02*
Y044900D01*
X023148Y045000*
X023248Y044900*
Y045200*
X024148Y045150D02*
X024098Y045200D01*
X023998*
X023948Y045150*
Y044950*
X023998Y044900*
X024098*
X024148Y044950*
Y045050*
X024048*
X024248Y044900D02*
Y045200D01*
X024448Y044900*
Y045200*
X024548D02*
Y044900D01*
X024698*
X024748Y044950*
Y045150*
X024698Y045200*
X024548*
X036100Y014380D02*
X036050Y014430D01*
X035950*
X035900Y014380*
Y014330*
X035950Y014280*
X036050*
X036100Y014230*
Y014180*
X036050Y014130*
X035950*
X035900Y014180*
X036400Y014430D02*
X036200D01*
Y014130*
X036400*
X036200Y014280D02*
X036300D01*
X036500Y014130D02*
Y014430D01*
X036650*
X036700Y014380*
Y014280*
X036650Y014230*
X036500*
X036800Y014430D02*
X037000D01*
X036900*
Y014130*
X037300Y014430D02*
X037100D01*
Y014130*
X037300*
X037100Y014280D02*
X037200D01*
X037400Y014130D02*
Y014430D01*
X037499Y014330*
X037599Y014430*
Y014130*
X037699Y014430D02*
Y014130D01*
X037849*
X037899Y014180*
Y014230*
X037849Y014280*
X037699*
X037849*
X037899Y014330*
Y014380*
X037849Y014430*
X037699*
X038199D02*
X037999D01*
Y014130*
X038199*
X037999Y014280D02*
X038099D01*
X038299Y014130D02*
Y014430D01*
X038449*
X038499Y014380*
Y014280*
X038449Y014230*
X038299*
X038399D02*
X038499Y014130D01*
X036100Y013650D02*
X035900D01*
X036100Y013850*
Y013900*
X036050Y013950*
X035950*
X035900Y013900*
X036200D02*
X036250Y013950D01*
X036350*
X036400Y013900*
Y013700*
X036350Y013650*
X036250*
X036200Y013700*
Y013900*
X036500Y013650D02*
X036600D01*
X036550*
Y013950*
X036500Y013900*
X036750Y013950D02*
X036950D01*
Y013900*
X036750Y013700*
Y013650*
X037050D02*
Y013700D01*
X037100*
Y013650*
X037050*
X016300Y014480D02*
Y014180D01*
Y014330*
X016500*
Y014480*
Y014180*
X016600Y014480D02*
Y014180D01*
X016700Y014280*
X016800Y014180*
Y014480*
X016900Y014380D02*
X016950D01*
Y014330*
X016900*
Y014380*
Y014230D02*
X016950D01*
Y014180*
X016900*
Y014230*
X017450Y014430D02*
X017500Y014480D01*
X017600*
X017650Y014430*
Y014380*
X017600Y014330*
X017550*
X017600*
X017650Y014280*
Y014230*
X017600Y014180*
X017500*
X017450Y014230*
X017750Y014130D02*
X017949D01*
X018049Y014180D02*
X018149D01*
X018099*
Y014480*
X018049Y014430*
X018299D02*
X018349Y014480D01*
X018449*
X018499Y014430*
Y014380*
X018449Y014330*
X018499Y014280*
Y014230*
X018449Y014180*
X018349*
X018299Y014230*
Y014280*
X018349Y014330*
X018299Y014380*
Y014430*
X018349Y014330D02*
X018449D01*
X016300Y013650D02*
Y013950D01*
X016450*
X016500Y013900*
Y013800*
X016450Y013750*
X016300*
X016600Y013650D02*
Y013950D01*
X016750*
X016800Y013900*
Y013800*
X016750Y013750*
X016600*
X016700D02*
X016800Y013650D01*
X016900Y013850D02*
X016950D01*
Y013800*
X016900*
Y013850*
Y013700D02*
X016950D01*
Y013650*
X016900*
Y013700*
X017450Y013950D02*
Y013650D01*
X017600*
X017650Y013700*
Y013900*
X017600Y013950*
X017450*
X017949D02*
X017750D01*
Y013650*
X017949*
X017750Y013800D02*
X017850D01*
X018049D02*
X018249D01*
X018549Y013650D02*
X018349D01*
X018549Y013850*
Y013900*
X018499Y013950*
X018399*
X018349Y013900*
X018649Y013700D02*
X018699Y013650D01*
X018799*
X018849Y013700*
Y013900*
X018799Y013950*
X018699*
X018649Y013900*
Y013850*
X018699Y013800*
X018849*
X018949Y013900D02*
X018999Y013950D01*
X019099*
X019149Y013900*
Y013700*
X019099Y013650*
X018999*
X018949Y013700*
Y013900*
X019249D02*
X019299Y013950D01*
X019399*
X019449Y013900*
Y013850*
X019399Y013800*
X019449Y013750*
Y013700*
X019399Y013650*
X019299*
X019249Y013700*
Y013750*
X019299Y013800*
X019249Y013850*
Y013900*
X019299Y013800D02*
X019399D01*
X019549Y013650D02*
X019649D01*
X019599*
Y013950*
X019549Y013900*
X019999Y013950D02*
X019799D01*
Y013800*
X019899Y013850*
X019949*
X019999Y013800*
Y013700*
X019949Y013650*
X019849*
X019799Y013700*
G54D44*
X029441Y019300D02*
D01*
X029439Y019337*
X029435Y019375*
X029429Y019412*
X029420Y019449*
X029408Y019485*
X029394Y019520*
X029377Y019553*
X029358Y019586*
X029337Y019617*
X029314Y019647*
X029289Y019675*
X029261Y019702*
X029233Y019726*
X029202Y019748*
X029170Y019768*
X029137Y019786*
X029102Y019801*
X029067Y019814*
X029030Y019824*
X028993Y019832*
X028956Y019838*
X028918Y019840*
X028881*
X028843Y019838*
X028806Y019832*
X028769Y019824*
X028732Y019814*
X028697Y019801*
X028662Y019786*
X028629Y019768*
X028597Y019748*
X028566Y019726*
X028538Y019702*
X028510Y019675*
X028485Y019647*
X028462Y019617*
X028441Y019586*
X028422Y019553*
X028405Y019520*
X028391Y019485*
X028379Y019449*
X028370Y019412*
X028364Y019375*
X028360Y019337*
X028359Y019300*
X028360Y019262*
X028364Y019224*
X028370Y019187*
X028379Y019150*
X028391Y019114*
X028405Y019079*
X028422Y019046*
X028441Y019013*
X028462Y018982*
X028485Y018952*
X028510Y018924*
X028538Y018897*
X028566Y018873*
X028597Y018851*
X028629Y018831*
X028662Y018813*
X028697Y018798*
X028732Y018785*
X028769Y018775*
X028806Y018767*
X028843Y018761*
X028881Y018759*
X028918*
X028956Y018761*
X028993Y018767*
X029030Y018775*
X029067Y018785*
X029102Y018798*
X029137Y018813*
X029170Y018831*
X029202Y018851*
X029233Y018873*
X029261Y018897*
X029289Y018924*
X029314Y018952*
X029337Y018982*
X029358Y019013*
X029377Y019046*
X029394Y019079*
X029408Y019114*
X029420Y019150*
X029429Y019187*
X029435Y019224*
X029439Y019262*
X029441Y019300*
X038182Y062600D02*
D01*
X038180Y062637*
X038176Y062674*
X038170Y062710*
X038161Y062746*
X038149Y062781*
X038136Y062816*
X038119Y062849*
X038101Y062881*
X038080Y062912*
X038057Y062941*
X038032Y062969*
X038005Y062995*
X037977Y063019*
X037947Y063041*
X037916Y063060*
X037883Y063078*
X037849Y063093*
X037814Y063105*
X037778Y063116*
X037742Y063123*
X037705Y063129*
X037668Y063131*
X037631*
X037594Y063129*
X037557Y063123*
X037521Y063116*
X037485Y063105*
X037450Y063093*
X037416Y063078*
X037384Y063060*
X037352Y063041*
X037322Y063019*
X037294Y062995*
X037267Y062969*
X037242Y062941*
X037219Y062912*
X037198Y062881*
X037180Y062849*
X037163Y062816*
X037150Y062781*
X037138Y062746*
X037129Y062710*
X037123Y062674*
X037119Y062637*
X037118Y062600*
X037119Y062562*
X037123Y062525*
X037129Y062489*
X037138Y062453*
X037150Y062418*
X037163Y062383*
X037180Y062350*
X037198Y062318*
X037219Y062287*
X037242Y062258*
X037267Y062230*
X037294Y062204*
X037322Y062180*
X037352Y062158*
X037384Y062139*
X037416Y062121*
X037450Y062106*
X037485Y062094*
X037521Y062083*
X037557Y062076*
X037594Y062070*
X037631Y062068*
X037668*
X037705Y062070*
X037742Y062076*
X037778Y062083*
X037814Y062094*
X037849Y062106*
X037883Y062121*
X037916Y062139*
X037947Y062158*
X037977Y062180*
X038005Y062204*
X038032Y062230*
X038057Y062258*
X038080Y062287*
X038101Y062318*
X038119Y062350*
X038136Y062383*
X038149Y062418*
X038161Y062453*
X038170Y062489*
X038176Y062525*
X038180Y062562*
X038182Y062600*
X031576Y063200D02*
D01*
X031575Y063208*
X031574Y063217*
X031573Y063226*
X031571Y063234*
X031568Y063243*
X031565Y063251*
X031561Y063259*
X031556Y063266*
X031551Y063274*
X031546Y063280*
X031540Y063287*
X031534Y063293*
X031527Y063299*
X031520Y063304*
X031513Y063309*
X031505Y063313*
X031497Y063316*
X031488Y063319*
X031480Y063322*
X031471Y063324*
X031463Y063325*
X031454Y063325*
X031445*
X031436Y063325*
X031428Y063324*
X031419Y063322*
X031411Y063319*
X031402Y063316*
X031394Y063313*
X031387Y063309*
X031379Y063304*
X031372Y063299*
X031365Y063293*
X031359Y063287*
X031353Y063280*
X031348Y063274*
X031343Y063266*
X031338Y063259*
X031334Y063251*
X031331Y063243*
X031328Y063234*
X031326Y063226*
X031325Y063217*
X031324Y063208*
X031324Y063200*
X031324Y063191*
X031325Y063182*
X031326Y063173*
X031328Y063165*
X031331Y063156*
X031334Y063148*
X031338Y063140*
X031343Y063133*
X031348Y063125*
X031353Y063119*
X031359Y063112*
X031365Y063106*
X031372Y063100*
X031379Y063095*
X031387Y063090*
X031394Y063086*
X031402Y063083*
X031411Y063080*
X031419Y063077*
X031428Y063075*
X031436Y063074*
X031445Y063074*
X031454*
X031463Y063074*
X031471Y063075*
X031480Y063077*
X031488Y063080*
X031497Y063083*
X031505Y063086*
X031513Y063090*
X031520Y063095*
X031527Y063100*
X031534Y063106*
X031540Y063112*
X031546Y063119*
X031551Y063125*
X031556Y063133*
X031561Y063140*
X031565Y063148*
X031568Y063156*
X031571Y063165*
X031573Y063173*
X031574Y063182*
X031575Y063191*
X031576Y063200*
X028576Y062200D02*
D01*
X028575Y062208*
X028574Y062217*
X028573Y062226*
X028571Y062234*
X028568Y062243*
X028565Y062251*
X028561Y062259*
X028556Y062266*
X028551Y062274*
X028546Y062280*
X028540Y062287*
X028534Y062293*
X028527Y062299*
X028520Y062304*
X028513Y062309*
X028505Y062313*
X028497Y062316*
X028488Y062319*
X028480Y062322*
X028471Y062324*
X028463Y062325*
X028454Y062325*
X028445*
X028436Y062325*
X028428Y062324*
X028419Y062322*
X028411Y062319*
X028402Y062316*
X028394Y062313*
X028387Y062309*
X028379Y062304*
X028372Y062299*
X028365Y062293*
X028359Y062287*
X028353Y062280*
X028348Y062274*
X028343Y062266*
X028338Y062259*
X028334Y062251*
X028331Y062243*
X028328Y062234*
X028326Y062226*
X028325Y062217*
X028324Y062208*
X028324Y062200*
X028324Y062191*
X028325Y062182*
X028326Y062173*
X028328Y062165*
X028331Y062156*
X028334Y062148*
X028338Y062140*
X028343Y062133*
X028348Y062125*
X028353Y062119*
X028359Y062112*
X028365Y062106*
X028372Y062100*
X028379Y062095*
X028387Y062090*
X028394Y062086*
X028402Y062083*
X028411Y062080*
X028419Y062077*
X028428Y062075*
X028436Y062074*
X028445Y062074*
X028454*
X028463Y062074*
X028471Y062075*
X028480Y062077*
X028488Y062080*
X028497Y062083*
X028505Y062086*
X028513Y062090*
X028520Y062095*
X028527Y062100*
X028534Y062106*
X028540Y062112*
X028546Y062119*
X028551Y062125*
X028556Y062133*
X028561Y062140*
X028565Y062148*
X028568Y062156*
X028571Y062165*
X028573Y062173*
X028574Y062182*
X028575Y062191*
X028576Y062200*
X029576D02*
D01*
X029575Y062208*
X029574Y062217*
X029573Y062226*
X029571Y062234*
X029568Y062243*
X029565Y062251*
X029561Y062259*
X029556Y062266*
X029551Y062274*
X029546Y062280*
X029540Y062287*
X029534Y062293*
X029527Y062299*
X029520Y062304*
X029513Y062309*
X029505Y062313*
X029497Y062316*
X029488Y062319*
X029480Y062322*
X029471Y062324*
X029463Y062325*
X029454Y062325*
X029445*
X029436Y062325*
X029428Y062324*
X029419Y062322*
X029411Y062319*
X029402Y062316*
X029394Y062313*
X029387Y062309*
X029379Y062304*
X029372Y062299*
X029365Y062293*
X029359Y062287*
X029353Y062280*
X029348Y062274*
X029343Y062266*
X029338Y062259*
X029334Y062251*
X029331Y062243*
X029328Y062234*
X029326Y062226*
X029325Y062217*
X029324Y062208*
X029324Y062200*
X029324Y062191*
X029325Y062182*
X029326Y062173*
X029328Y062165*
X029331Y062156*
X029334Y062148*
X029338Y062140*
X029343Y062133*
X029348Y062125*
X029353Y062119*
X029359Y062112*
X029365Y062106*
X029372Y062100*
X029379Y062095*
X029387Y062090*
X029394Y062086*
X029402Y062083*
X029411Y062080*
X029419Y062077*
X029428Y062075*
X029436Y062074*
X029445Y062074*
X029454*
X029463Y062074*
X029471Y062075*
X029480Y062077*
X029488Y062080*
X029497Y062083*
X029505Y062086*
X029513Y062090*
X029520Y062095*
X029527Y062100*
X029534Y062106*
X029540Y062112*
X029546Y062119*
X029551Y062125*
X029556Y062133*
X029561Y062140*
X029565Y062148*
X029568Y062156*
X029571Y062165*
X029573Y062173*
X029574Y062182*
X029575Y062191*
X029576Y062200*
X030576Y063200D02*
D01*
X030575Y063208*
X030574Y063217*
X030573Y063226*
X030571Y063234*
X030568Y063243*
X030565Y063251*
X030561Y063259*
X030556Y063266*
X030551Y063274*
X030546Y063280*
X030540Y063287*
X030534Y063293*
X030527Y063299*
X030520Y063304*
X030513Y063309*
X030505Y063313*
X030497Y063316*
X030488Y063319*
X030480Y063322*
X030471Y063324*
X030463Y063325*
X030454Y063325*
X030445*
X030436Y063325*
X030428Y063324*
X030419Y063322*
X030411Y063319*
X030402Y063316*
X030394Y063313*
X030387Y063309*
X030379Y063304*
X030372Y063299*
X030365Y063293*
X030359Y063287*
X030353Y063280*
X030348Y063274*
X030343Y063266*
X030338Y063259*
X030334Y063251*
X030331Y063243*
X030328Y063234*
X030326Y063226*
X030325Y063217*
X030324Y063208*
X030324Y063200*
X030324Y063191*
X030325Y063182*
X030326Y063173*
X030328Y063165*
X030331Y063156*
X030334Y063148*
X030338Y063140*
X030343Y063133*
X030348Y063125*
X030353Y063119*
X030359Y063112*
X030365Y063106*
X030372Y063100*
X030379Y063095*
X030387Y063090*
X030394Y063086*
X030402Y063083*
X030411Y063080*
X030419Y063077*
X030428Y063075*
X030436Y063074*
X030445Y063074*
X030454*
X030463Y063074*
X030471Y063075*
X030480Y063077*
X030488Y063080*
X030497Y063083*
X030505Y063086*
X030513Y063090*
X030520Y063095*
X030527Y063100*
X030534Y063106*
X030540Y063112*
X030546Y063119*
X030551Y063125*
X030556Y063133*
X030561Y063140*
X030565Y063148*
X030568Y063156*
X030571Y063165*
X030573Y063173*
X030574Y063182*
X030575Y063191*
X030576Y063200*
Y062200D02*
D01*
X030575Y062208*
X030574Y062217*
X030573Y062226*
X030571Y062234*
X030568Y062243*
X030565Y062251*
X030561Y062259*
X030556Y062266*
X030551Y062274*
X030546Y062280*
X030540Y062287*
X030534Y062293*
X030527Y062299*
X030520Y062304*
X030513Y062309*
X030505Y062313*
X030497Y062316*
X030488Y062319*
X030480Y062322*
X030471Y062324*
X030463Y062325*
X030454Y062325*
X030445*
X030436Y062325*
X030428Y062324*
X030419Y062322*
X030411Y062319*
X030402Y062316*
X030394Y062313*
X030387Y062309*
X030379Y062304*
X030372Y062299*
X030365Y062293*
X030359Y062287*
X030353Y062280*
X030348Y062274*
X030343Y062266*
X030338Y062259*
X030334Y062251*
X030331Y062243*
X030328Y062234*
X030326Y062226*
X030325Y062217*
X030324Y062208*
X030324Y062200*
X030324Y062191*
X030325Y062182*
X030326Y062173*
X030328Y062165*
X030331Y062156*
X030334Y062148*
X030338Y062140*
X030343Y062133*
X030348Y062125*
X030353Y062119*
X030359Y062112*
X030365Y062106*
X030372Y062100*
X030379Y062095*
X030387Y062090*
X030394Y062086*
X030402Y062083*
X030411Y062080*
X030419Y062077*
X030428Y062075*
X030436Y062074*
X030445Y062074*
X030454*
X030463Y062074*
X030471Y062075*
X030480Y062077*
X030488Y062080*
X030497Y062083*
X030505Y062086*
X030513Y062090*
X030520Y062095*
X030527Y062100*
X030534Y062106*
X030540Y062112*
X030546Y062119*
X030551Y062125*
X030556Y062133*
X030561Y062140*
X030565Y062148*
X030568Y062156*
X030571Y062165*
X030573Y062173*
X030574Y062182*
X030575Y062191*
X030576Y062200*
X029588Y063200D02*
D01*
X029587Y063208*
X029586Y063217*
X029585Y063226*
X029583Y063234*
X029580Y063243*
X029577Y063251*
X029573Y063259*
X029568Y063266*
X029563Y063274*
X029558Y063280*
X029552Y063287*
X029546Y063293*
X029539Y063299*
X029532Y063304*
X029525Y063309*
X029517Y063313*
X029509Y063316*
X029500Y063319*
X029492Y063322*
X029483Y063324*
X029475Y063325*
X029466Y063325*
X029457*
X029448Y063325*
X029440Y063324*
X029431Y063322*
X029423Y063319*
X029414Y063316*
X029406Y063313*
X029399Y063309*
X029391Y063304*
X029384Y063299*
X029377Y063293*
X029371Y063287*
X029365Y063280*
X029360Y063274*
X029355Y063266*
X029350Y063259*
X029346Y063251*
X029343Y063243*
X029340Y063234*
X029338Y063226*
X029337Y063217*
X029336Y063208*
X029336Y063200*
X029336Y063191*
X029337Y063182*
X029338Y063173*
X029340Y063165*
X029343Y063156*
X029346Y063148*
X029350Y063140*
X029355Y063133*
X029360Y063125*
X029365Y063119*
X029371Y063112*
X029377Y063106*
X029384Y063100*
X029391Y063095*
X029399Y063090*
X029406Y063086*
X029414Y063083*
X029423Y063080*
X029431Y063077*
X029440Y063075*
X029448Y063074*
X029457Y063074*
X029466*
X029475Y063074*
X029483Y063075*
X029492Y063077*
X029500Y063080*
X029509Y063083*
X029517Y063086*
X029525Y063090*
X029532Y063095*
X029539Y063100*
X029546Y063106*
X029552Y063112*
X029558Y063119*
X029563Y063125*
X029568Y063133*
X029573Y063140*
X029577Y063148*
X029580Y063156*
X029583Y063165*
X029585Y063173*
X029586Y063182*
X029587Y063191*
X029588Y063200*
X031576Y062200D02*
D01*
X031575Y062208*
X031574Y062217*
X031573Y062226*
X031571Y062234*
X031568Y062243*
X031565Y062251*
X031561Y062259*
X031556Y062266*
X031551Y062274*
X031546Y062280*
X031540Y062287*
X031534Y062293*
X031527Y062299*
X031520Y062304*
X031513Y062309*
X031505Y062313*
X031497Y062316*
X031488Y062319*
X031480Y062322*
X031471Y062324*
X031463Y062325*
X031454Y062325*
X031445*
X031436Y062325*
X031428Y062324*
X031419Y062322*
X031411Y062319*
X031402Y062316*
X031394Y062313*
X031387Y062309*
X031379Y062304*
X031372Y062299*
X031365Y062293*
X031359Y062287*
X031353Y062280*
X031348Y062274*
X031343Y062266*
X031338Y062259*
X031334Y062251*
X031331Y062243*
X031328Y062234*
X031326Y062226*
X031325Y062217*
X031324Y062208*
X031324Y062200*
X031324Y062191*
X031325Y062182*
X031326Y062173*
X031328Y062165*
X031331Y062156*
X031334Y062148*
X031338Y062140*
X031343Y062133*
X031348Y062125*
X031353Y062119*
X031359Y062112*
X031365Y062106*
X031372Y062100*
X031379Y062095*
X031387Y062090*
X031394Y062086*
X031402Y062083*
X031411Y062080*
X031419Y062077*
X031428Y062075*
X031436Y062074*
X031445Y062074*
X031454*
X031463Y062074*
X031471Y062075*
X031480Y062077*
X031488Y062080*
X031497Y062083*
X031505Y062086*
X031513Y062090*
X031520Y062095*
X031527Y062100*
X031534Y062106*
X031540Y062112*
X031546Y062119*
X031551Y062125*
X031556Y062133*
X031561Y062140*
X031565Y062148*
X031568Y062156*
X031571Y062165*
X031573Y062173*
X031574Y062182*
X031575Y062191*
X031576Y062200*
X028576Y063200D02*
D01*
X028575Y063208*
X028574Y063217*
X028573Y063226*
X028571Y063234*
X028568Y063243*
X028565Y063251*
X028561Y063259*
X028556Y063266*
X028551Y063274*
X028546Y063280*
X028540Y063287*
X028534Y063293*
X028527Y063299*
X028520Y063304*
X028513Y063309*
X028505Y063313*
X028497Y063316*
X028488Y063319*
X028480Y063322*
X028471Y063324*
X028463Y063325*
X028454Y063325*
X028445*
X028436Y063325*
X028428Y063324*
X028419Y063322*
X028411Y063319*
X028402Y063316*
X028394Y063313*
X028387Y063309*
X028379Y063304*
X028372Y063299*
X028365Y063293*
X028359Y063287*
X028353Y063280*
X028348Y063274*
X028343Y063266*
X028338Y063259*
X028334Y063251*
X028331Y063243*
X028328Y063234*
X028326Y063226*
X028325Y063217*
X028324Y063208*
X028324Y063200*
X028324Y063191*
X028325Y063182*
X028326Y063173*
X028328Y063165*
X028331Y063156*
X028334Y063148*
X028338Y063140*
X028343Y063133*
X028348Y063125*
X028353Y063119*
X028359Y063112*
X028365Y063106*
X028372Y063100*
X028379Y063095*
X028387Y063090*
X028394Y063086*
X028402Y063083*
X028411Y063080*
X028419Y063077*
X028428Y063075*
X028436Y063074*
X028445Y063074*
X028454*
X028463Y063074*
X028471Y063075*
X028480Y063077*
X028488Y063080*
X028497Y063083*
X028505Y063086*
X028513Y063090*
X028520Y063095*
X028527Y063100*
X028534Y063106*
X028540Y063112*
X028546Y063119*
X028551Y063125*
X028556Y063133*
X028561Y063140*
X028565Y063148*
X028568Y063156*
X028571Y063165*
X028573Y063173*
X028574Y063182*
X028575Y063191*
X028576Y063200*
X030112Y048800D02*
D01*
X030106Y048964*
X030089Y049128*
X030060Y049291*
X030020Y049451*
X029969Y049607*
X029907Y049760*
X029835Y049908*
X029753Y050051*
X029660Y050188*
X029559Y050318*
X029449Y050440*
X029330Y050555*
X029204Y050661*
X029070Y050758*
X028931Y050845*
X028785Y050922*
X028634Y050990*
X028479Y051046*
X028321Y051091*
X028160Y051126*
X027996Y051149*
X027832Y051160*
X027667*
X027503Y051149*
X027339Y051126*
X027178Y051091*
X027020Y051046*
X026865Y050990*
X026714Y050922*
X026568Y050845*
X026429Y050758*
X026295Y050661*
X026169Y050555*
X026050Y050440*
X025940Y050318*
X025839Y050188*
X025746Y050051*
X025664Y049908*
X025592Y049760*
X025530Y049607*
X025479Y049451*
X025439Y049291*
X025410Y049128*
X025393Y048964*
X025388Y048800*
X025393Y048635*
X025410Y048471*
X025439Y048308*
X025479Y048148*
X025530Y047992*
X025592Y047839*
X025664Y047691*
X025746Y047548*
X025839Y047411*
X025940Y047281*
X026050Y047159*
X026169Y047044*
X026295Y046938*
X026429Y046841*
X026569Y046754*
X026714Y046677*
X026865Y046609*
X027020Y046553*
X027178Y046508*
X027339Y046473*
X027503Y046450*
X027667Y046439*
X027832*
X027996Y046450*
X028160Y046473*
X028321Y046508*
X028479Y046553*
X028634Y046609*
X028785Y046677*
X028931Y046754*
X029070Y046841*
X029204Y046938*
X029330Y047044*
X029449Y047159*
X029559Y047281*
X029660Y047411*
X029753Y047548*
X029835Y047691*
X029907Y047839*
X029969Y047992*
X030020Y048148*
X030060Y048308*
X030089Y048471*
X030106Y048635*
X030112Y048800*
X018800Y048750D02*
X019400D01*
X018800Y048950D02*
X019400D01*
X018600Y045391D02*
Y049484D01*
X018800Y049350D02*
X019400D01*
X018800Y048450D02*
Y049350D01*
Y048450D02*
X019400D01*
Y049350*
X018824Y047450D02*
X019424D01*
X018824Y046550D02*
Y047450D01*
Y046550D02*
X019424D01*
Y047450*
X018800Y049150D02*
X019400D01*
X019800Y048750D02*
X020400D01*
X019800Y048950D02*
X020400D01*
X019600Y045391D02*
Y049484D01*
X019800Y049350D02*
X020400D01*
X019800Y048450D02*
Y049350D01*
Y048450D02*
X020400D01*
Y049350*
X019824Y047450D02*
X020424D01*
X019824Y046550D02*
Y047450D01*
Y046550D02*
X020424D01*
Y047450*
X019800Y049150D02*
X020400D01*
X023800D02*
X024400D01*
X022800D02*
X023400D01*
X021800D02*
X022400D01*
X020800D02*
X021400D01*
Y046550D02*
Y047450D01*
X020800Y046550D02*
X021400D01*
X020800D02*
Y047450D01*
X021400*
X022400Y046550D02*
Y047450D01*
X021800Y046550D02*
X022400D01*
X021800D02*
Y047450D01*
X022400*
X023400Y046550D02*
Y047450D01*
X022800Y046550D02*
X023400D01*
X022800D02*
Y047450D01*
X023400*
X024400Y046550D02*
Y047450D01*
X023800Y046550D02*
X024400D01*
X023800D02*
Y047450D01*
X024400*
X021400Y048450D02*
Y049350D01*
X020800Y048450D02*
X021400D01*
X020800D02*
Y049350D01*
X021400*
X022400Y048450D02*
Y049350D01*
X021800Y048450D02*
X022400D01*
X021800D02*
Y049350D01*
X022400*
X023400Y048450D02*
Y049350D01*
X022800Y048450D02*
X023400D01*
X022800D02*
Y049350D01*
X023400*
X021600Y045391D02*
Y049525D01*
X022600Y045391D02*
Y049525D01*
X023600Y045450D02*
Y049525D01*
X024700Y045391D02*
Y049525D01*
X023800Y049350D02*
X024400D01*
X023800Y048450D02*
Y049350D01*
Y048450D02*
X024400D01*
Y049350*
X020576Y045391D02*
Y049525D01*
X025104Y045391D02*
Y049525D01*
X023800Y048950D02*
X024400D01*
X022800D02*
X023400D01*
X023800Y048750D02*
X024400D01*
X022800D02*
X023400D01*
X021800D02*
X022400D01*
X021800Y048950D02*
X022400D01*
X020800D02*
X021400D01*
X020800Y048750D02*
X021400D01*
X018641Y045391D02*
X020576D01*
X018600Y049525D02*
X020576D01*
X026900Y055700D02*
Y058200D01*
X026300D02*
X026900D01*
X026300Y055700D02*
Y058200D01*
Y055700D02*
X026900D01*
X036550Y061500D02*
Y063650D01*
Y061500D02*
X038800D01*
Y063650*
X036550D02*
X038800D01*
X032237Y052381D02*
Y063798D01*
X026332Y052381D02*
Y063798D01*
X032237*
X026332Y052381D02*
X032237D01*
X028700Y019000D02*
Y019600D01*
X028900Y019400*
X029100Y019600*
Y019000*
X015450Y022110D02*
X015650D01*
X015550*
Y021510*
X015450*
X015650*
X015950Y021810D02*
X016350D01*
X016550Y021510D02*
Y022110D01*
X016750Y021910*
X016950Y022110*
Y021510*
X017549Y022110D02*
X017149D01*
Y021510*
X017549*
X017149Y021810D02*
X017349D01*
X017749Y022110D02*
Y021510D01*
X018049*
X018149Y021610*
Y022010*
X018049Y022110*
X017749*
X018349D02*
X018549D01*
X018449*
Y021510*
X018349*
X018549*
X018849D02*
Y021910D01*
X019049Y022110*
X019249Y021910*
Y021510*
Y021810*
X018849*
X020448Y022010D02*
X020348Y022110D01*
X020148*
X020049Y022010*
Y021610*
X020148Y021510*
X020348*
X020448Y021610*
Y021810*
X020248*
X020648Y021510D02*
Y022110D01*
X020948*
X021048Y022010*
Y021810*
X020948Y021710*
X020648*
X020848D02*
X021048Y021510D01*
X021548Y022110D02*
X021348D01*
X021248Y022010*
Y021610*
X021348Y021510*
X021548*
X021648Y021610*
Y022010*
X021548Y022110*
X021848D02*
Y021610D01*
X021948Y021510*
X022148*
X022248Y021610*
Y022110*
X022448Y021510D02*
Y022110D01*
X022748*
X022848Y022010*
Y021810*
X022748Y021710*
X022448*
X024047Y022110D02*
Y021510D01*
X023747*
X023647Y021610*
Y021810*
X023747Y021910*
X024047*
X024247Y021510D02*
Y021610D01*
X024347*
Y021510*
X024247*
X024847D02*
X025047D01*
X025147Y021610*
Y021810*
X025047Y021910*
X024847*
X024747Y021810*
Y021610*
X024847Y021510*
X025347D02*
Y021610D01*
X025447*
Y021510*
X025347*
X025947D02*
X026147D01*
X026247Y021610*
Y021810*
X026147Y021910*
X025947*
X025847Y021810*
Y021610*
X025947Y021510*
X026446D02*
Y021610D01*
X026546*
Y021510*
X026446*
X027946Y022010D02*
X027846Y022110D01*
X027646*
X027546Y022010*
Y021910*
X027646Y021810*
X027846*
X027946Y021710*
Y021610*
X027846Y021510*
X027646*
X027546Y021610*
X028246Y021910D02*
X028446D01*
X028546Y021810*
Y021510*
X028246*
X028146Y021610*
X028246Y021710*
X028546*
X028746Y021910D02*
Y021510D01*
Y021710*
X028846Y021810*
X028946Y021910*
X029046*
X029445D02*
X029645D01*
X029745Y021810*
Y021510*
X029445*
X029346Y021610*
X029445Y021710*
X029745*
X029945Y021310D02*
X030045D01*
X030145Y021410*
Y021910*
X030845Y021510D02*
X030645D01*
X030545Y021610*
Y021810*
X030645Y021910*
X030845*
X030945Y021810*
Y021710*
X030545*
X031145Y021910D02*
X031345Y021510D01*
X031545Y021910*
X031845Y021510D02*
X032045D01*
X032145Y021610*
Y021810*
X032045Y021910*
X031845*
X031745Y021810*
Y021610*
X031845Y021510*
X032445Y021410D02*
X032544Y021510D01*
Y021610*
X032445*
Y021510*
X032544*
X032445Y021410*
X032345Y021310*
X033944Y022110D02*
X033544D01*
Y021810*
X033744*
X033544*
Y021510*
X034144Y022110D02*
Y021510D01*
X034444*
X034544Y021610*
Y021710*
X034444Y021810*
X034144*
X034444*
X034544Y021910*
Y022010*
X034444Y022110*
X034144*
X034744Y021510D02*
X034944D01*
X034844*
Y021910*
X034744*
X035244Y022110D02*
Y021510D01*
Y021810*
X035643*
Y022110*
Y021510*
X035943Y021410D02*
X036043Y021510D01*
Y021610*
X035943*
Y021510*
X036043*
X035943Y021410*
X035843Y021310*
X037043Y022110D02*
Y021510D01*
X037343*
X037443Y021610*
Y021710*
X037343Y021810*
X037043*
X037343*
X037443Y021910*
Y022010*
X037343Y022110*
X037043*
X037643Y021510D02*
X037843D01*
X037743*
Y021910*
X037643*
X038143Y022110D02*
Y021510D01*
Y021810*
X038543*
Y022110*
Y021510*
X015450Y020750D02*
Y020450D01*
X015550Y020350*
X015650Y020450*
X015750Y020350*
X015850Y020450*
Y020750*
X016050D02*
Y020450D01*
X016150Y020350*
X016250Y020450*
X016350Y020350*
X016450Y020450*
Y020750*
X016650D02*
Y020450D01*
X016750Y020350*
X016850Y020450*
X016950Y020350*
X017049Y020450*
Y020750*
X017249Y020350D02*
Y020450D01*
X017349*
Y020350*
X017249*
X017749D02*
X017949D01*
X017849*
Y020750*
X017749*
X018249Y020350D02*
Y020750D01*
X018349*
X018449Y020650*
Y020350*
Y020650*
X018549Y020750*
X018649Y020650*
Y020350*
X019149D02*
X018949D01*
X018849Y020450*
Y020650*
X018949Y020750*
X019149*
X019249Y020650*
Y020550*
X018849*
X019849Y020950D02*
Y020350D01*
X019549*
X019449Y020450*
Y020650*
X019549Y020750*
X019849*
X020049Y020350D02*
X020248D01*
X020148*
Y020750*
X020049*
X020648D02*
X020848D01*
X020948Y020650*
Y020350*
X020648*
X020548Y020450*
X020648Y020550*
X020948*
X021148Y020350D02*
Y020450D01*
X021248*
Y020350*
X021148*
X021648Y020950D02*
Y020350D01*
X021948*
X022048Y020450*
Y020550*
Y020650*
X021948Y020750*
X021648*
X022348D02*
X022548D01*
X022648Y020650*
Y020350*
X022348*
X022248Y020450*
X022348Y020550*
X022648*
X031245Y020350D02*
X031445D01*
X031345*
Y020750*
X031245*
X031745Y020350D02*
Y020750D01*
X032045*
X032145Y020650*
Y020350*
X032445D02*
Y020850D01*
Y020650*
X032345*
X032544*
X032445*
Y020850*
X032544Y020950*
X032944Y020350D02*
X033144D01*
X033244Y020450*
Y020650*
X033144Y020750*
X032944*
X032844Y020650*
Y020450*
X032944Y020350*
X033744Y020550D02*
Y020650D01*
X033644*
Y020550*
X033744*
X033844Y020650*
Y020850*
X033744Y020950*
X033544*
X033444Y020850*
Y020450*
X033544Y020350*
X033844*
X034044D02*
X034244D01*
X034144*
Y020750*
X034044*
X034544Y020350D02*
Y020750D01*
X034644*
X034744Y020650*
Y020350*
Y020650*
X034844Y020750*
X034944Y020650*
Y020350*
X035444D02*
X035244D01*
X035144Y020450*
Y020650*
X035244Y020750*
X035444*
X035543Y020650*
Y020550*
X035144*
X036143Y020950D02*
Y020350D01*
X035843*
X035743Y020450*
Y020650*
X035843Y020750*
X036143*
X036343Y020350D02*
X036543D01*
X036443*
Y020750*
X036343*
X036943D02*
X037143D01*
X037243Y020650*
Y020350*
X036943*
X036843Y020450*
X036943Y020550*
X037243*
X037443Y020350D02*
Y020450D01*
X037543*
Y020350*
X037443*
X037943Y020950D02*
Y020350D01*
X038243*
X038343Y020450*
Y020550*
Y020650*
X038243Y020750*
X037943*
X038642D02*
X038842D01*
X038942Y020650*
Y020350*
X038642*
X038543Y020450*
X038642Y020550*
X038942*
X018250Y017350D02*
Y016750D01*
Y017050*
X018650*
Y017350*
Y016750*
X018950D02*
X019150D01*
X019250Y016850*
Y017050*
X019150Y017150*
X018950*
X018850Y017050*
Y016850*
X018950Y016750*
X019550Y017250D02*
Y017150D01*
X019450*
X019650*
X019550*
Y016850*
X019650Y016750*
X020249D02*
X020049D01*
X019949Y016850*
Y017050*
X020049Y017150*
X020249*
X020349Y017050*
Y016950*
X019949*
X020549Y016750D02*
X020749D01*
X020649*
Y017350*
X020549*
X021649Y016750D02*
Y017350D01*
X021949*
X022049Y017250*
Y017050*
X021949Y016950*
X021649*
X021849D02*
X022049Y016750D01*
X022349D02*
X022549D01*
X022649Y016850*
Y017050*
X022549Y017150*
X022349*
X022249Y017050*
Y016850*
X022349Y016750*
X022948D02*
X023148D01*
X023248Y016850*
Y017050*
X023148Y017150*
X022948*
X022849Y017050*
Y016850*
X022948Y016750*
X023448D02*
Y017150D01*
X023548*
X023648Y017050*
Y016750*
Y017050*
X023748Y017150*
X023848Y017050*
Y016750*
X024648D02*
Y017150D01*
X024848Y017350*
X025048Y017150*
Y016750*
Y017050*
X024648*
X025648Y017150D02*
X025348D01*
X025248Y017050*
Y016850*
X025348Y016750*
X025648*
X026247Y017150D02*
X025948D01*
X025848Y017050*
Y016850*
X025948Y016750*
X026247*
X026747D02*
X026547D01*
X026447Y016850*
Y017050*
X026547Y017150*
X026747*
X026847Y017050*
Y016950*
X026447*
X027047Y016750D02*
X027347D01*
X027447Y016850*
X027347Y016950*
X027147*
X027047Y017050*
X027147Y017150*
X027447*
X027647Y016750D02*
X027947D01*
X028047Y016850*
X027947Y016950*
X027747*
X027647Y017050*
X027747Y017150*
X028047*
X029246Y017250D02*
X029146Y017350D01*
X028947*
X028847Y017250*
Y016850*
X028947Y016750*
X029146*
X029246Y016850*
X029546Y016750D02*
X029746D01*
X029846Y016850*
Y017050*
X029746Y017150*
X029546*
X029446Y017050*
Y016850*
X029546Y016750*
X030046D02*
Y017150D01*
X030346*
X030446Y017050*
Y016750*
X030746Y017250D02*
Y017150D01*
X030646*
X030846*
X030746*
Y016850*
X030846Y016750*
X031146Y017150D02*
Y016750D01*
Y016950*
X031246Y017050*
X031346Y017150*
X031446*
X031846Y016750D02*
X032046D01*
X032146Y016850*
Y017050*
X032046Y017150*
X031846*
X031746Y017050*
Y016850*
X031846Y016750*
X032345D02*
X032545D01*
X032445*
Y017350*
X032345*
X032845Y016750D02*
X033045D01*
X032945*
Y017350*
X032845*
X033945D02*
Y016850D01*
X034045Y016750*
X034245*
X034345Y016850*
Y017350*
X034545Y016750D02*
Y017150D01*
X034845*
X034945Y017050*
Y016750*
X035145D02*
X035344D01*
X035245*
Y017150*
X035145*
X035744Y017250D02*
Y017150D01*
X035644*
X035844*
X035744*
Y016850*
X035844Y016750*
G54D49*
X024750Y019531D02*
Y018350D01*
X025537*
X025931Y019531D02*
Y018547D01*
X026128Y018350*
X026521*
X026718Y018547*
Y019531*
X027111D02*
X027899Y018350D01*
Y019531D02*
X027111Y018350D01*
G54D76*
X019809Y057511D02*
D01*
X019808Y057514*
X019808Y057517*
X019807Y057521*
X019807Y057524*
X019806Y057527*
X019804Y057530*
X019803Y057534*
X019801Y057536*
X019799Y057539*
X019797Y057542*
X019795Y057545*
X019792Y057547*
X019790Y057549*
X019787Y057551*
X019784Y057553*
X019781Y057555*
X019778Y057556*
X019775Y057557*
X019771Y057558*
X019768Y057559*
X019765Y057559*
X019761Y057559*
X019758*
X019754Y057559*
X019751Y057559*
X019748Y057558*
X019744Y057557*
X019741Y057556*
X019738Y057555*
X019735Y057553*
X019732Y057551*
X019729Y057549*
X019727Y057547*
X019724Y057545*
X019722Y057542*
X019720Y057539*
X019718Y057536*
X019716Y057534*
X019715Y057530*
X019713Y057527*
X019712Y057524*
X019712Y057521*
X019711Y057517*
X019711Y057514*
X019711Y057511*
X019711Y057507*
X019711Y057504*
X019712Y057500*
X019712Y057497*
X019713Y057494*
X019715Y057491*
X019716Y057487*
X019718Y057485*
X019720Y057482*
X019722Y057479*
X019724Y057476*
X019727Y057474*
X019729Y057472*
X019732Y057470*
X019735Y057468*
X019738Y057466*
X019741Y057465*
X019744Y057464*
X019748Y057463*
X019751Y057462*
X019754Y057462*
X019758Y057462*
X019761*
X019765Y057462*
X019768Y057462*
X019771Y057463*
X019775Y057464*
X019778Y057465*
X019781Y057466*
X019784Y057468*
X019787Y057470*
X019790Y057472*
X019792Y057474*
X019795Y057476*
X019797Y057479*
X019799Y057482*
X019801Y057485*
X019803Y057487*
X019804Y057491*
X019806Y057494*
X019807Y057497*
X019807Y057500*
X019808Y057504*
X019808Y057507*
X019809Y057511*
X031429Y029830D02*
D01*
X031428Y029833*
X031428Y029836*
X031427Y029840*
X031427Y029843*
X031426Y029846*
X031424Y029849*
X031423Y029853*
X031421Y029855*
X031419Y029858*
X031417Y029861*
X031415Y029864*
X031412Y029866*
X031410Y029868*
X031407Y029870*
X031404Y029872*
X031401Y029874*
X031398Y029875*
X031395Y029876*
X031391Y029877*
X031388Y029878*
X031385Y029878*
X031381Y029878*
X031378*
X031374Y029878*
X031371Y029878*
X031368Y029877*
X031364Y029876*
X031361Y029875*
X031358Y029874*
X031355Y029872*
X031352Y029870*
X031349Y029868*
X031347Y029866*
X031344Y029864*
X031342Y029861*
X031340Y029858*
X031338Y029855*
X031336Y029853*
X031335Y029849*
X031333Y029846*
X031332Y029843*
X031332Y029840*
X031331Y029836*
X031331Y029833*
X031331Y029830*
X031331Y029826*
X031331Y029823*
X031332Y029819*
X031332Y029816*
X031333Y029813*
X031335Y029810*
X031336Y029806*
X031338Y029804*
X031340Y029801*
X031342Y029798*
X031344Y029795*
X031347Y029793*
X031349Y029791*
X031352Y029789*
X031355Y029787*
X031358Y029785*
X031361Y029784*
X031364Y029783*
X031368Y029782*
X031371Y029781*
X031374Y029781*
X031378Y029781*
X031381*
X031385Y029781*
X031388Y029781*
X031391Y029782*
X031395Y029783*
X031398Y029784*
X031401Y029785*
X031404Y029787*
X031407Y029789*
X031410Y029791*
X031412Y029793*
X031415Y029795*
X031417Y029798*
X031419Y029801*
X031421Y029804*
X031423Y029806*
X031424Y029810*
X031426Y029813*
X031427Y029816*
X031427Y029819*
X031428Y029823*
X031428Y029826*
X031429Y029830*
X021494Y050750D02*
D01*
X021493Y050753*
X021493Y050756*
X021492Y050760*
X021492Y050763*
X021491Y050766*
X021489Y050769*
X021488Y050773*
X021486Y050775*
X021484Y050778*
X021482Y050781*
X021480Y050784*
X021477Y050786*
X021475Y050788*
X021472Y050790*
X021469Y050792*
X021466Y050794*
X021463Y050795*
X021460Y050796*
X021456Y050797*
X021453Y050798*
X021450Y050798*
X021446Y050798*
X021443*
X021439Y050798*
X021436Y050798*
X021433Y050797*
X021429Y050796*
X021426Y050795*
X021423Y050794*
X021420Y050792*
X021417Y050790*
X021414Y050788*
X021412Y050786*
X021409Y050784*
X021407Y050781*
X021405Y050778*
X021403Y050775*
X021401Y050773*
X021400Y050769*
X021398Y050766*
X021397Y050763*
X021397Y050760*
X021396Y050756*
X021396Y050753*
X021396Y050750*
X021396Y050746*
X021396Y050743*
X021397Y050739*
X021397Y050736*
X021398Y050733*
X021400Y050730*
X021401Y050726*
X021403Y050724*
X021405Y050721*
X021407Y050718*
X021409Y050715*
X021412Y050713*
X021414Y050711*
X021417Y050709*
X021420Y050707*
X021423Y050705*
X021426Y050704*
X021429Y050703*
X021433Y050702*
X021436Y050701*
X021439Y050701*
X021443Y050701*
X021446*
X021450Y050701*
X021453Y050701*
X021456Y050702*
X021460Y050703*
X021463Y050704*
X021466Y050705*
X021469Y050707*
X021472Y050709*
X021475Y050711*
X021477Y050713*
X021480Y050715*
X021482Y050718*
X021484Y050721*
X021486Y050724*
X021488Y050726*
X021489Y050730*
X021491Y050733*
X021492Y050736*
X021492Y050739*
X021493Y050743*
X021493Y050746*
X021494Y050750*
X018911Y058338D02*
D01*
X018910Y058341*
X018910Y058344*
X018909Y058348*
X018909Y058351*
X018908Y058354*
X018906Y058357*
X018905Y058361*
X018903Y058363*
X018901Y058366*
X018899Y058369*
X018897Y058372*
X018894Y058374*
X018892Y058376*
X018889Y058378*
X018886Y058380*
X018883Y058382*
X018880Y058383*
X018877Y058384*
X018873Y058385*
X018870Y058386*
X018867Y058386*
X018863Y058386*
X018860*
X018856Y058386*
X018853Y058386*
X018850Y058385*
X018846Y058384*
X018843Y058383*
X018840Y058382*
X018837Y058380*
X018834Y058378*
X018831Y058376*
X018829Y058374*
X018826Y058372*
X018824Y058369*
X018822Y058366*
X018820Y058363*
X018818Y058361*
X018817Y058357*
X018815Y058354*
X018814Y058351*
X018814Y058348*
X018813Y058344*
X018813Y058341*
X018813Y058338*
X018813Y058334*
X018813Y058331*
X018814Y058327*
X018814Y058324*
X018815Y058321*
X018817Y058318*
X018818Y058314*
X018820Y058312*
X018822Y058309*
X018824Y058306*
X018826Y058303*
X018829Y058301*
X018831Y058299*
X018834Y058297*
X018837Y058295*
X018840Y058293*
X018843Y058292*
X018846Y058291*
X018850Y058290*
X018853Y058289*
X018856Y058289*
X018860Y058289*
X018863*
X018867Y058289*
X018870Y058289*
X018873Y058290*
X018877Y058291*
X018880Y058292*
X018883Y058293*
X018886Y058295*
X018889Y058297*
X018892Y058299*
X018894Y058301*
X018897Y058303*
X018899Y058306*
X018901Y058309*
X018903Y058312*
X018905Y058314*
X018906Y058318*
X018908Y058321*
X018909Y058324*
X018909Y058327*
X018910Y058331*
X018910Y058334*
X018911Y058338*
X030836Y049659D02*
D01*
X030835Y049662*
X030835Y049665*
X030834Y049669*
X030834Y049672*
X030833Y049675*
X030831Y049678*
X030830Y049682*
X030828Y049684*
X030826Y049687*
X030824Y049690*
X030822Y049693*
X030819Y049695*
X030817Y049697*
X030814Y049699*
X030811Y049701*
X030808Y049703*
X030805Y049704*
X030802Y049705*
X030798Y049706*
X030795Y049707*
X030792Y049707*
X030788Y049707*
X030785*
X030781Y049707*
X030778Y049707*
X030775Y049706*
X030771Y049705*
X030768Y049704*
X030765Y049703*
X030762Y049701*
X030759Y049699*
X030756Y049697*
X030754Y049695*
X030751Y049693*
X030749Y049690*
X030747Y049687*
X030745Y049684*
X030743Y049682*
X030742Y049678*
X030740Y049675*
X030739Y049672*
X030739Y049669*
X030738Y049665*
X030738Y049662*
X030738Y049659*
X030738Y049655*
X030738Y049652*
X030739Y049648*
X030739Y049645*
X030740Y049642*
X030742Y049639*
X030743Y049635*
X030745Y049633*
X030747Y049630*
X030749Y049627*
X030751Y049624*
X030754Y049622*
X030756Y049620*
X030759Y049618*
X030762Y049616*
X030765Y049614*
X030768Y049613*
X030771Y049612*
X030775Y049611*
X030778Y049610*
X030781Y049610*
X030785Y049610*
X030788*
X030792Y049610*
X030795Y049610*
X030798Y049611*
X030802Y049612*
X030805Y049613*
X030808Y049614*
X030811Y049616*
X030814Y049618*
X030817Y049620*
X030819Y049622*
X030822Y049624*
X030824Y049627*
X030826Y049630*
X030828Y049633*
X030830Y049635*
X030831Y049639*
X030833Y049642*
X030834Y049645*
X030834Y049648*
X030835Y049652*
X030835Y049655*
X030836Y049659*
X015266Y048359D02*
D01*
X015265Y048362*
X015265Y048365*
X015264Y048369*
X015264Y048372*
X015263Y048375*
X015261Y048378*
X015260Y048382*
X015258Y048384*
X015256Y048387*
X015254Y048390*
X015252Y048393*
X015249Y048395*
X015247Y048397*
X015244Y048399*
X015241Y048401*
X015238Y048403*
X015235Y048404*
X015232Y048405*
X015228Y048406*
X015225Y048407*
X015222Y048407*
X015218Y048407*
X015215*
X015211Y048407*
X015208Y048407*
X015205Y048406*
X015201Y048405*
X015198Y048404*
X015195Y048403*
X015192Y048401*
X015189Y048399*
X015186Y048397*
X015184Y048395*
X015181Y048393*
X015179Y048390*
X015177Y048387*
X015175Y048384*
X015173Y048382*
X015172Y048378*
X015170Y048375*
X015169Y048372*
X015169Y048369*
X015168Y048365*
X015168Y048362*
X015168Y048359*
X015168Y048355*
X015168Y048352*
X015169Y048348*
X015169Y048345*
X015170Y048342*
X015172Y048339*
X015173Y048335*
X015175Y048333*
X015177Y048330*
X015179Y048327*
X015181Y048324*
X015184Y048322*
X015186Y048320*
X015189Y048318*
X015192Y048316*
X015195Y048314*
X015198Y048313*
X015201Y048312*
X015205Y048311*
X015208Y048310*
X015211Y048310*
X015215Y048310*
X015218*
X015222Y048310*
X015225Y048310*
X015228Y048311*
X015232Y048312*
X015235Y048313*
X015238Y048314*
X015241Y048316*
X015244Y048318*
X015247Y048320*
X015249Y048322*
X015252Y048324*
X015254Y048327*
X015256Y048330*
X015258Y048333*
X015260Y048335*
X015261Y048339*
X015263Y048342*
X015264Y048345*
X015264Y048348*
X015265Y048352*
X015265Y048355*
X015266Y048359*
Y046809D02*
D01*
X015265Y046812*
X015265Y046815*
X015264Y046819*
X015264Y046822*
X015263Y046825*
X015261Y046828*
X015260Y046832*
X015258Y046834*
X015256Y046837*
X015254Y046840*
X015252Y046843*
X015249Y046845*
X015247Y046847*
X015244Y046849*
X015241Y046851*
X015238Y046853*
X015235Y046854*
X015232Y046855*
X015228Y046856*
X015225Y046857*
X015222Y046857*
X015218Y046857*
X015215*
X015211Y046857*
X015208Y046857*
X015205Y046856*
X015201Y046855*
X015198Y046854*
X015195Y046853*
X015192Y046851*
X015189Y046849*
X015186Y046847*
X015184Y046845*
X015181Y046843*
X015179Y046840*
X015177Y046837*
X015175Y046834*
X015173Y046832*
X015172Y046828*
X015170Y046825*
X015169Y046822*
X015169Y046819*
X015168Y046815*
X015168Y046812*
X015168Y046809*
X015168Y046805*
X015168Y046802*
X015169Y046798*
X015169Y046795*
X015170Y046792*
X015172Y046789*
X015173Y046785*
X015175Y046783*
X015177Y046780*
X015179Y046777*
X015181Y046774*
X015184Y046772*
X015186Y046770*
X015189Y046768*
X015192Y046766*
X015195Y046764*
X015198Y046763*
X015201Y046762*
X015205Y046761*
X015208Y046760*
X015211Y046760*
X015215Y046760*
X015218*
X015222Y046760*
X015225Y046760*
X015228Y046761*
X015232Y046762*
X015235Y046763*
X015238Y046764*
X015241Y046766*
X015244Y046768*
X015247Y046770*
X015249Y046772*
X015252Y046774*
X015254Y046777*
X015256Y046780*
X015258Y046783*
X015260Y046785*
X015261Y046789*
X015263Y046792*
X015264Y046795*
X015264Y046798*
X015265Y046802*
X015265Y046805*
X015266Y046809*
Y049909D02*
D01*
X015265Y049912*
X015265Y049915*
X015264Y049919*
X015264Y049922*
X015263Y049925*
X015261Y049928*
X015260Y049932*
X015258Y049934*
X015256Y049937*
X015254Y049940*
X015252Y049943*
X015249Y049945*
X015247Y049947*
X015244Y049949*
X015241Y049951*
X015238Y049953*
X015235Y049954*
X015232Y049955*
X015228Y049956*
X015225Y049957*
X015222Y049957*
X015218Y049957*
X015215*
X015211Y049957*
X015208Y049957*
X015205Y049956*
X015201Y049955*
X015198Y049954*
X015195Y049953*
X015192Y049951*
X015189Y049949*
X015186Y049947*
X015184Y049945*
X015181Y049943*
X015179Y049940*
X015177Y049937*
X015175Y049934*
X015173Y049932*
X015172Y049928*
X015170Y049925*
X015169Y049922*
X015169Y049919*
X015168Y049915*
X015168Y049912*
X015168Y049909*
X015168Y049905*
X015168Y049902*
X015169Y049898*
X015169Y049895*
X015170Y049892*
X015172Y049889*
X015173Y049885*
X015175Y049883*
X015177Y049880*
X015179Y049877*
X015181Y049874*
X015184Y049872*
X015186Y049870*
X015189Y049868*
X015192Y049866*
X015195Y049864*
X015198Y049863*
X015201Y049862*
X015205Y049861*
X015208Y049860*
X015211Y049860*
X015215Y049860*
X015218*
X015222Y049860*
X015225Y049860*
X015228Y049861*
X015232Y049862*
X015235Y049863*
X015238Y049864*
X015241Y049866*
X015244Y049868*
X015247Y049870*
X015249Y049872*
X015252Y049874*
X015254Y049877*
X015256Y049880*
X015258Y049883*
X015260Y049885*
X015261Y049889*
X015263Y049892*
X015264Y049895*
X015264Y049898*
X015265Y049902*
X015265Y049905*
X015266Y049909*
Y045259D02*
D01*
X015265Y045262*
X015265Y045265*
X015264Y045269*
X015264Y045272*
X015263Y045275*
X015261Y045278*
X015260Y045282*
X015258Y045284*
X015256Y045287*
X015254Y045290*
X015252Y045293*
X015249Y045295*
X015247Y045297*
X015244Y045299*
X015241Y045301*
X015238Y045303*
X015235Y045304*
X015232Y045305*
X015228Y045306*
X015225Y045307*
X015222Y045307*
X015218Y045307*
X015215*
X015211Y045307*
X015208Y045307*
X015205Y045306*
X015201Y045305*
X015198Y045304*
X015195Y045303*
X015192Y045301*
X015189Y045299*
X015186Y045297*
X015184Y045295*
X015181Y045293*
X015179Y045290*
X015177Y045287*
X015175Y045284*
X015173Y045282*
X015172Y045278*
X015170Y045275*
X015169Y045272*
X015169Y045269*
X015168Y045265*
X015168Y045262*
X015168Y045259*
X015168Y045255*
X015168Y045252*
X015169Y045248*
X015169Y045245*
X015170Y045242*
X015172Y045239*
X015173Y045235*
X015175Y045233*
X015177Y045230*
X015179Y045227*
X015181Y045224*
X015184Y045222*
X015186Y045220*
X015189Y045218*
X015192Y045216*
X015195Y045214*
X015198Y045213*
X015201Y045212*
X015205Y045211*
X015208Y045210*
X015211Y045210*
X015215Y045210*
X015218*
X015222Y045210*
X015225Y045210*
X015228Y045211*
X015232Y045212*
X015235Y045213*
X015238Y045214*
X015241Y045216*
X015244Y045218*
X015247Y045220*
X015249Y045222*
X015252Y045224*
X015254Y045227*
X015256Y045230*
X015258Y045233*
X015260Y045235*
X015261Y045239*
X015263Y045242*
X015264Y045245*
X015264Y045248*
X015265Y045252*
X015265Y045255*
X015266Y045259*
X037554Y046865D02*
D01*
X037553Y046868*
X037553Y046871*
X037552Y046875*
X037552Y046878*
X037551Y046881*
X037549Y046884*
X037548Y046888*
X037546Y046890*
X037544Y046893*
X037542Y046896*
X037540Y046899*
X037537Y046901*
X037535Y046903*
X037532Y046905*
X037529Y046907*
X037526Y046909*
X037523Y046910*
X037520Y046911*
X037516Y046912*
X037513Y046913*
X037510Y046913*
X037506Y046913*
X037503*
X037499Y046913*
X037496Y046913*
X037493Y046912*
X037489Y046911*
X037486Y046910*
X037483Y046909*
X037480Y046907*
X037477Y046905*
X037474Y046903*
X037472Y046901*
X037469Y046899*
X037467Y046896*
X037465Y046893*
X037463Y046890*
X037461Y046888*
X037460Y046884*
X037458Y046881*
X037457Y046878*
X037457Y046875*
X037456Y046871*
X037456Y046868*
X037456Y046865*
X037456Y046861*
X037456Y046858*
X037457Y046854*
X037457Y046851*
X037458Y046848*
X037460Y046845*
X037461Y046841*
X037463Y046839*
X037465Y046836*
X037467Y046833*
X037469Y046830*
X037472Y046828*
X037474Y046826*
X037477Y046824*
X037480Y046822*
X037483Y046820*
X037486Y046819*
X037489Y046818*
X037493Y046817*
X037496Y046816*
X037499Y046816*
X037503Y046816*
X037506*
X037510Y046816*
X037513Y046816*
X037516Y046817*
X037520Y046818*
X037523Y046819*
X037526Y046820*
X037529Y046822*
X037532Y046824*
X037535Y046826*
X037537Y046828*
X037540Y046830*
X037542Y046833*
X037544Y046836*
X037546Y046839*
X037548Y046841*
X037549Y046845*
X037551Y046848*
X037552Y046851*
X037552Y046854*
X037553Y046858*
X037553Y046861*
X037554Y046865*
X023258Y038013D02*
D01*
X023257Y038016*
X023257Y038019*
X023256Y038023*
X023256Y038026*
X023255Y038029*
X023253Y038032*
X023252Y038036*
X023250Y038038*
X023248Y038041*
X023246Y038044*
X023244Y038047*
X023241Y038049*
X023239Y038051*
X023236Y038053*
X023233Y038055*
X023230Y038057*
X023227Y038058*
X023224Y038059*
X023220Y038060*
X023217Y038061*
X023214Y038061*
X023210Y038061*
X023207*
X023203Y038061*
X023200Y038061*
X023197Y038060*
X023193Y038059*
X023190Y038058*
X023187Y038057*
X023184Y038055*
X023181Y038053*
X023178Y038051*
X023176Y038049*
X023173Y038047*
X023171Y038044*
X023169Y038041*
X023167Y038038*
X023165Y038036*
X023164Y038032*
X023162Y038029*
X023161Y038026*
X023161Y038023*
X023160Y038019*
X023160Y038016*
X023160Y038013*
X023160Y038009*
X023160Y038006*
X023161Y038002*
X023161Y037999*
X023162Y037996*
X023164Y037993*
X023165Y037989*
X023167Y037987*
X023169Y037984*
X023171Y037981*
X023173Y037978*
X023176Y037976*
X023178Y037974*
X023181Y037972*
X023184Y037970*
X023187Y037968*
X023190Y037967*
X023193Y037966*
X023197Y037965*
X023200Y037964*
X023203Y037964*
X023207Y037964*
X023210*
X023214Y037964*
X023217Y037964*
X023220Y037965*
X023224Y037966*
X023227Y037967*
X023230Y037968*
X023233Y037970*
X023236Y037972*
X023239Y037974*
X023241Y037976*
X023244Y037978*
X023246Y037981*
X023248Y037984*
X023250Y037987*
X023252Y037989*
X023253Y037993*
X023255Y037996*
X023256Y037999*
X023256Y038002*
X023257Y038006*
X023257Y038009*
X023258Y038013*
X030741Y037087D02*
D01*
X030740Y037090*
X030740Y037093*
X030739Y037097*
X030739Y037100*
X030738Y037103*
X030736Y037106*
X030735Y037110*
X030733Y037112*
X030731Y037115*
X030729Y037118*
X030727Y037121*
X030724Y037123*
X030722Y037125*
X030719Y037127*
X030716Y037129*
X030713Y037131*
X030710Y037132*
X030707Y037133*
X030703Y037134*
X030700Y037135*
X030697Y037135*
X030693Y037135*
X030690*
X030686Y037135*
X030683Y037135*
X030680Y037134*
X030676Y037133*
X030673Y037132*
X030670Y037131*
X030667Y037129*
X030664Y037127*
X030661Y037125*
X030659Y037123*
X030656Y037121*
X030654Y037118*
X030652Y037115*
X030650Y037112*
X030648Y037110*
X030647Y037106*
X030645Y037103*
X030644Y037100*
X030644Y037097*
X030643Y037093*
X030643Y037090*
X030643Y037087*
X030643Y037083*
X030643Y037080*
X030644Y037076*
X030644Y037073*
X030645Y037070*
X030647Y037067*
X030648Y037063*
X030650Y037061*
X030652Y037058*
X030654Y037055*
X030656Y037052*
X030659Y037050*
X030661Y037048*
X030664Y037046*
X030667Y037044*
X030670Y037042*
X030673Y037041*
X030676Y037040*
X030680Y037039*
X030683Y037038*
X030686Y037038*
X030690Y037038*
X030693*
X030697Y037038*
X030700Y037038*
X030703Y037039*
X030707Y037040*
X030710Y037041*
X030713Y037042*
X030716Y037044*
X030719Y037046*
X030722Y037048*
X030724Y037050*
X030727Y037052*
X030729Y037055*
X030731Y037058*
X030733Y037061*
X030735Y037063*
X030736Y037067*
X030738Y037070*
X030739Y037073*
X030739Y037076*
X030740Y037080*
X030740Y037083*
X030741Y037087*
Y038587D02*
D01*
X030740Y038590*
X030740Y038593*
X030739Y038597*
X030739Y038600*
X030738Y038603*
X030736Y038606*
X030735Y038610*
X030733Y038612*
X030731Y038615*
X030729Y038618*
X030727Y038621*
X030724Y038623*
X030722Y038625*
X030719Y038627*
X030716Y038629*
X030713Y038631*
X030710Y038632*
X030707Y038633*
X030703Y038634*
X030700Y038635*
X030697Y038635*
X030693Y038635*
X030690*
X030686Y038635*
X030683Y038635*
X030680Y038634*
X030676Y038633*
X030673Y038632*
X030670Y038631*
X030667Y038629*
X030664Y038627*
X030661Y038625*
X030659Y038623*
X030656Y038621*
X030654Y038618*
X030652Y038615*
X030650Y038612*
X030648Y038610*
X030647Y038606*
X030645Y038603*
X030644Y038600*
X030644Y038597*
X030643Y038593*
X030643Y038590*
X030643Y038587*
X030643Y038583*
X030643Y038580*
X030644Y038576*
X030644Y038573*
X030645Y038570*
X030647Y038567*
X030648Y038563*
X030650Y038561*
X030652Y038558*
X030654Y038555*
X030656Y038552*
X030659Y038550*
X030661Y038548*
X030664Y038546*
X030667Y038544*
X030670Y038542*
X030673Y038541*
X030676Y038540*
X030680Y038539*
X030683Y038538*
X030686Y038538*
X030690Y038538*
X030693*
X030697Y038538*
X030700Y038538*
X030703Y038539*
X030707Y038540*
X030710Y038541*
X030713Y038542*
X030716Y038544*
X030719Y038546*
X030722Y038548*
X030724Y038550*
X030727Y038552*
X030729Y038555*
X030731Y038558*
X030733Y038561*
X030735Y038563*
X030736Y038567*
X030738Y038570*
X030739Y038573*
X030739Y038576*
X030740Y038580*
X030740Y038583*
X030741Y038587*
X023258Y039663D02*
D01*
X023257Y039666*
X023257Y039669*
X023256Y039673*
X023256Y039676*
X023255Y039679*
X023253Y039682*
X023252Y039686*
X023250Y039688*
X023248Y039691*
X023246Y039694*
X023244Y039697*
X023241Y039699*
X023239Y039701*
X023236Y039703*
X023233Y039705*
X023230Y039707*
X023227Y039708*
X023224Y039709*
X023220Y039710*
X023217Y039711*
X023214Y039711*
X023210Y039711*
X023207*
X023203Y039711*
X023200Y039711*
X023197Y039710*
X023193Y039709*
X023190Y039708*
X023187Y039707*
X023184Y039705*
X023181Y039703*
X023178Y039701*
X023176Y039699*
X023173Y039697*
X023171Y039694*
X023169Y039691*
X023167Y039688*
X023165Y039686*
X023164Y039682*
X023162Y039679*
X023161Y039676*
X023161Y039673*
X023160Y039669*
X023160Y039666*
X023160Y039663*
X023160Y039659*
X023160Y039656*
X023161Y039652*
X023161Y039649*
X023162Y039646*
X023164Y039643*
X023165Y039639*
X023167Y039637*
X023169Y039634*
X023171Y039631*
X023173Y039628*
X023176Y039626*
X023178Y039624*
X023181Y039622*
X023184Y039620*
X023187Y039618*
X023190Y039617*
X023193Y039616*
X023197Y039615*
X023200Y039614*
X023203Y039614*
X023207Y039614*
X023210*
X023214Y039614*
X023217Y039614*
X023220Y039615*
X023224Y039616*
X023227Y039617*
X023230Y039618*
X023233Y039620*
X023236Y039622*
X023239Y039624*
X023241Y039626*
X023244Y039628*
X023246Y039631*
X023248Y039634*
X023250Y039637*
X023252Y039639*
X023253Y039643*
X023255Y039646*
X023256Y039649*
X023256Y039652*
X023257Y039656*
X023257Y039659*
X023258Y039663*
X038544Y049065D02*
D01*
X038543Y049068*
X038543Y049071*
X038542Y049075*
X038542Y049078*
X038541Y049081*
X038539Y049084*
X038538Y049088*
X038536Y049090*
X038534Y049093*
X038532Y049096*
X038530Y049099*
X038527Y049101*
X038525Y049103*
X038522Y049105*
X038519Y049107*
X038516Y049109*
X038513Y049110*
X038510Y049111*
X038506Y049112*
X038503Y049113*
X038500Y049113*
X038496Y049113*
X038493*
X038489Y049113*
X038486Y049113*
X038483Y049112*
X038479Y049111*
X038476Y049110*
X038473Y049109*
X038470Y049107*
X038467Y049105*
X038464Y049103*
X038462Y049101*
X038459Y049099*
X038457Y049096*
X038455Y049093*
X038453Y049090*
X038451Y049088*
X038450Y049084*
X038448Y049081*
X038447Y049078*
X038447Y049075*
X038446Y049071*
X038446Y049068*
X038446Y049065*
X038446Y049061*
X038446Y049058*
X038447Y049054*
X038447Y049051*
X038448Y049048*
X038450Y049045*
X038451Y049041*
X038453Y049039*
X038455Y049036*
X038457Y049033*
X038459Y049030*
X038462Y049028*
X038464Y049026*
X038467Y049024*
X038470Y049022*
X038473Y049020*
X038476Y049019*
X038479Y049018*
X038483Y049017*
X038486Y049016*
X038489Y049016*
X038493Y049016*
X038496*
X038500Y049016*
X038503Y049016*
X038506Y049017*
X038510Y049018*
X038513Y049019*
X038516Y049020*
X038519Y049022*
X038522Y049024*
X038525Y049026*
X038527Y049028*
X038530Y049030*
X038532Y049033*
X038534Y049036*
X038536Y049039*
X038538Y049041*
X038539Y049045*
X038541Y049048*
X038542Y049051*
X038542Y049054*
X038543Y049058*
X038543Y049061*
X038544Y049065*
X031794Y056492D02*
D01*
X031793Y056495*
X031793Y056498*
X031792Y056502*
X031792Y056505*
X031791Y056508*
X031789Y056511*
X031788Y056515*
X031786Y056517*
X031784Y056520*
X031782Y056523*
X031780Y056526*
X031777Y056528*
X031775Y056530*
X031772Y056532*
X031769Y056534*
X031766Y056536*
X031763Y056537*
X031760Y056538*
X031756Y056539*
X031753Y056540*
X031750Y056540*
X031746Y056540*
X031743*
X031739Y056540*
X031736Y056540*
X031733Y056539*
X031729Y056538*
X031726Y056537*
X031723Y056536*
X031720Y056534*
X031717Y056532*
X031714Y056530*
X031712Y056528*
X031709Y056526*
X031707Y056523*
X031705Y056520*
X031703Y056517*
X031701Y056515*
X031700Y056511*
X031698Y056508*
X031697Y056505*
X031697Y056502*
X031696Y056498*
X031696Y056495*
X031696Y056492*
X031696Y056488*
X031696Y056485*
X031697Y056481*
X031697Y056478*
X031698Y056475*
X031700Y056472*
X031701Y056468*
X031703Y056466*
X031705Y056463*
X031707Y056460*
X031709Y056457*
X031712Y056455*
X031714Y056453*
X031717Y056451*
X031720Y056449*
X031723Y056447*
X031726Y056446*
X031729Y056445*
X031733Y056444*
X031736Y056443*
X031739Y056443*
X031743Y056443*
X031746*
X031750Y056443*
X031753Y056443*
X031756Y056444*
X031760Y056445*
X031763Y056446*
X031766Y056447*
X031769Y056449*
X031772Y056451*
X031775Y056453*
X031777Y056455*
X031780Y056457*
X031782Y056460*
X031784Y056463*
X031786Y056466*
X031788Y056468*
X031789Y056472*
X031791Y056475*
X031792Y056478*
X031792Y056481*
X031793Y056485*
X031793Y056488*
X031794Y056492*
X035706Y063200D02*
D01*
X035705Y063203*
X035705Y063206*
X035704Y063210*
X035704Y063213*
X035703Y063216*
X035701Y063219*
X035700Y063223*
X035698Y063225*
X035696Y063228*
X035694Y063231*
X035692Y063234*
X035689Y063236*
X035687Y063238*
X035684Y063240*
X035681Y063242*
X035678Y063244*
X035675Y063245*
X035672Y063246*
X035668Y063247*
X035665Y063248*
X035662Y063248*
X035658Y063248*
X035655*
X035651Y063248*
X035648Y063248*
X035645Y063247*
X035641Y063246*
X035638Y063245*
X035635Y063244*
X035632Y063242*
X035629Y063240*
X035626Y063238*
X035624Y063236*
X035621Y063234*
X035619Y063231*
X035617Y063228*
X035615Y063225*
X035613Y063223*
X035612Y063219*
X035610Y063216*
X035609Y063213*
X035609Y063210*
X035608Y063206*
X035608Y063203*
X035608Y063200*
X035608Y063196*
X035608Y063193*
X035609Y063189*
X035609Y063186*
X035610Y063183*
X035612Y063180*
X035613Y063176*
X035615Y063174*
X035617Y063171*
X035619Y063168*
X035621Y063165*
X035624Y063163*
X035626Y063161*
X035629Y063159*
X035632Y063157*
X035635Y063155*
X035638Y063154*
X035641Y063153*
X035645Y063152*
X035648Y063151*
X035651Y063151*
X035655Y063151*
X035658*
X035662Y063151*
X035665Y063151*
X035668Y063152*
X035672Y063153*
X035675Y063154*
X035678Y063155*
X035681Y063157*
X035684Y063159*
X035687Y063161*
X035689Y063163*
X035692Y063165*
X035694Y063168*
X035696Y063171*
X035698Y063174*
X035700Y063176*
X035701Y063180*
X035703Y063183*
X035704Y063186*
X035704Y063189*
X035705Y063193*
X035705Y063196*
X035706Y063200*
X025830Y034454D02*
D01*
X025829Y034457*
X025829Y034460*
X025828Y034464*
X025828Y034467*
X025827Y034470*
X025825Y034473*
X025824Y034477*
X025822Y034479*
X025820Y034482*
X025818Y034485*
X025816Y034488*
X025813Y034490*
X025811Y034492*
X025808Y034494*
X025805Y034496*
X025802Y034498*
X025799Y034499*
X025796Y034500*
X025792Y034501*
X025789Y034502*
X025786Y034502*
X025782Y034502*
X025779*
X025775Y034502*
X025772Y034502*
X025769Y034501*
X025765Y034500*
X025762Y034499*
X025759Y034498*
X025756Y034496*
X025753Y034494*
X025750Y034492*
X025748Y034490*
X025745Y034488*
X025743Y034485*
X025741Y034482*
X025739Y034479*
X025737Y034477*
X025736Y034473*
X025734Y034470*
X025733Y034467*
X025733Y034464*
X025732Y034460*
X025732Y034457*
X025732Y034454*
X025732Y034450*
X025732Y034447*
X025733Y034443*
X025733Y034440*
X025734Y034437*
X025736Y034434*
X025737Y034430*
X025739Y034428*
X025741Y034425*
X025743Y034422*
X025745Y034419*
X025748Y034417*
X025750Y034415*
X025753Y034413*
X025756Y034411*
X025759Y034409*
X025762Y034408*
X025765Y034407*
X025769Y034406*
X025772Y034405*
X025775Y034405*
X025779Y034405*
X025782*
X025786Y034405*
X025789Y034405*
X025792Y034406*
X025796Y034407*
X025799Y034408*
X025802Y034409*
X025805Y034411*
X025808Y034413*
X025811Y034415*
X025813Y034417*
X025816Y034419*
X025818Y034422*
X025820Y034425*
X025822Y034428*
X025824Y034430*
X025825Y034434*
X025827Y034437*
X025828Y034440*
X025828Y034443*
X025829Y034447*
X025829Y034450*
X025830Y034454*
X015086Y043709D02*
D01*
X015085Y043712*
X015085Y043715*
X015084Y043719*
X015084Y043722*
X015083Y043725*
X015081Y043728*
X015080Y043732*
X015078Y043734*
X015076Y043737*
X015074Y043740*
X015072Y043743*
X015069Y043745*
X015067Y043747*
X015064Y043749*
X015061Y043751*
X015058Y043753*
X015055Y043754*
X015052Y043755*
X015048Y043756*
X015045Y043757*
X015042Y043757*
X015038Y043757*
X015035*
X015031Y043757*
X015028Y043757*
X015025Y043756*
X015021Y043755*
X015018Y043754*
X015015Y043753*
X015012Y043751*
X015009Y043749*
X015006Y043747*
X015004Y043745*
X015001Y043743*
X014999Y043740*
X014997Y043737*
X014995Y043734*
X014993Y043732*
X014992Y043728*
X014990Y043725*
X014989Y043722*
X014989Y043719*
X014988Y043715*
X014988Y043712*
X014988Y043709*
X014988Y043705*
X014988Y043702*
X014989Y043698*
X014989Y043695*
X014990Y043692*
X014992Y043689*
X014993Y043685*
X014995Y043683*
X014997Y043680*
X014999Y043677*
X015001Y043674*
X015004Y043672*
X015006Y043670*
X015009Y043668*
X015012Y043666*
X015015Y043664*
X015018Y043663*
X015021Y043662*
X015025Y043661*
X015028Y043660*
X015031Y043660*
X015035Y043660*
X015038*
X015042Y043660*
X015045Y043660*
X015048Y043661*
X015052Y043662*
X015055Y043663*
X015058Y043664*
X015061Y043666*
X015064Y043668*
X015067Y043670*
X015069Y043672*
X015072Y043674*
X015074Y043677*
X015076Y043680*
X015078Y043683*
X015080Y043685*
X015081Y043689*
X015083Y043692*
X015084Y043695*
X015084Y043698*
X015085Y043702*
X015085Y043705*
X015086Y043709*
X040384Y060089D02*
D01*
X040383Y060092*
X040383Y060095*
X040382Y060099*
X040382Y060102*
X040381Y060105*
X040379Y060108*
X040378Y060112*
X040376Y060114*
X040374Y060117*
X040372Y060120*
X040370Y060123*
X040367Y060125*
X040365Y060127*
X040362Y060129*
X040359Y060131*
X040356Y060133*
X040353Y060134*
X040350Y060135*
X040346Y060136*
X040343Y060137*
X040340Y060137*
X040336Y060137*
X040333*
X040329Y060137*
X040326Y060137*
X040323Y060136*
X040319Y060135*
X040316Y060134*
X040313Y060133*
X040310Y060131*
X040307Y060129*
X040304Y060127*
X040302Y060125*
X040299Y060123*
X040297Y060120*
X040295Y060117*
X040293Y060114*
X040291Y060112*
X040290Y060108*
X040288Y060105*
X040287Y060102*
X040287Y060099*
X040286Y060095*
X040286Y060092*
X040286Y060089*
X040286Y060085*
X040286Y060082*
X040287Y060078*
X040287Y060075*
X040288Y060072*
X040290Y060069*
X040291Y060065*
X040293Y060063*
X040295Y060060*
X040297Y060057*
X040299Y060054*
X040302Y060052*
X040304Y060050*
X040307Y060048*
X040310Y060046*
X040313Y060044*
X040316Y060043*
X040319Y060042*
X040323Y060041*
X040326Y060040*
X040329Y060040*
X040333Y060040*
X040336*
X040340Y060040*
X040343Y060040*
X040346Y060041*
X040350Y060042*
X040353Y060043*
X040356Y060044*
X040359Y060046*
X040362Y060048*
X040365Y060050*
X040367Y060052*
X040370Y060054*
X040372Y060057*
X040374Y060060*
X040376Y060063*
X040378Y060065*
X040379Y060069*
X040381Y060072*
X040382Y060075*
X040382Y060078*
X040383Y060082*
X040383Y060085*
X040384Y060089*
X034569Y059620D02*
D01*
X034568Y059623*
X034568Y059626*
X034567Y059630*
X034567Y059633*
X034566Y059636*
X034564Y059639*
X034563Y059643*
X034561Y059645*
X034559Y059648*
X034557Y059651*
X034555Y059654*
X034552Y059656*
X034550Y059658*
X034547Y059660*
X034544Y059662*
X034541Y059664*
X034538Y059665*
X034535Y059666*
X034531Y059667*
X034528Y059668*
X034525Y059668*
X034521Y059668*
X034518*
X034514Y059668*
X034511Y059668*
X034508Y059667*
X034504Y059666*
X034501Y059665*
X034498Y059664*
X034495Y059662*
X034492Y059660*
X034489Y059658*
X034487Y059656*
X034484Y059654*
X034482Y059651*
X034480Y059648*
X034478Y059645*
X034476Y059643*
X034475Y059639*
X034473Y059636*
X034472Y059633*
X034472Y059630*
X034471Y059626*
X034471Y059623*
X034471Y059620*
X034471Y059616*
X034471Y059613*
X034472Y059609*
X034472Y059606*
X034473Y059603*
X034475Y059600*
X034476Y059596*
X034478Y059594*
X034480Y059591*
X034482Y059588*
X034484Y059585*
X034487Y059583*
X034489Y059581*
X034492Y059579*
X034495Y059577*
X034498Y059575*
X034501Y059574*
X034504Y059573*
X034508Y059572*
X034511Y059571*
X034514Y059571*
X034518Y059571*
X034521*
X034525Y059571*
X034528Y059571*
X034531Y059572*
X034535Y059573*
X034538Y059574*
X034541Y059575*
X034544Y059577*
X034547Y059579*
X034550Y059581*
X034552Y059583*
X034555Y059585*
X034557Y059588*
X034559Y059591*
X034561Y059594*
X034563Y059596*
X034564Y059600*
X034566Y059603*
X034567Y059606*
X034567Y059609*
X034568Y059613*
X034568Y059616*
X034569Y059620*
X027415Y052805D02*
D01*
X027414Y052808*
X027414Y052811*
X027413Y052815*
X027413Y052818*
X027412Y052821*
X027410Y052824*
X027409Y052828*
X027407Y052830*
X027405Y052833*
X027403Y052836*
X027401Y052839*
X027398Y052841*
X027396Y052843*
X027393Y052845*
X027390Y052847*
X027387Y052849*
X027384Y052850*
X027381Y052851*
X027377Y052852*
X027374Y052853*
X027371Y052853*
X027367Y052853*
X027364*
X027360Y052853*
X027357Y052853*
X027354Y052852*
X027350Y052851*
X027347Y052850*
X027344Y052849*
X027341Y052847*
X027338Y052845*
X027335Y052843*
X027333Y052841*
X027330Y052839*
X027328Y052836*
X027326Y052833*
X027324Y052830*
X027322Y052828*
X027321Y052824*
X027319Y052821*
X027318Y052818*
X027318Y052815*
X027317Y052811*
X027317Y052808*
X027317Y052805*
X027317Y052801*
X027317Y052798*
X027318Y052794*
X027318Y052791*
X027319Y052788*
X027321Y052785*
X027322Y052781*
X027324Y052779*
X027326Y052776*
X027328Y052773*
X027330Y052770*
X027333Y052768*
X027335Y052766*
X027338Y052764*
X027341Y052762*
X027344Y052760*
X027347Y052759*
X027350Y052758*
X027354Y052757*
X027357Y052756*
X027360Y052756*
X027364Y052756*
X027367*
X027371Y052756*
X027374Y052756*
X027377Y052757*
X027381Y052758*
X027384Y052759*
X027387Y052760*
X027390Y052762*
X027393Y052764*
X027396Y052766*
X027398Y052768*
X027401Y052770*
X027403Y052773*
X027405Y052776*
X027407Y052779*
X027409Y052781*
X027410Y052785*
X027412Y052788*
X027413Y052791*
X027413Y052794*
X027414Y052798*
X027414Y052801*
X027415Y052805*
X014470Y052285D02*
D01*
X014469Y052288*
X014469Y052291*
X014468Y052295*
X014468Y052298*
X014467Y052301*
X014465Y052304*
X014464Y052308*
X014462Y052310*
X014460Y052313*
X014458Y052316*
X014456Y052319*
X014453Y052321*
X014451Y052323*
X014448Y052325*
X014445Y052327*
X014442Y052329*
X014439Y052330*
X014436Y052331*
X014432Y052332*
X014429Y052333*
X014426Y052333*
X014422Y052333*
X014419*
X014415Y052333*
X014412Y052333*
X014409Y052332*
X014405Y052331*
X014402Y052330*
X014399Y052329*
X014396Y052327*
X014393Y052325*
X014390Y052323*
X014388Y052321*
X014385Y052319*
X014383Y052316*
X014381Y052313*
X014379Y052310*
X014377Y052308*
X014376Y052304*
X014374Y052301*
X014373Y052298*
X014373Y052295*
X014372Y052291*
X014372Y052288*
X014372Y052285*
X014372Y052281*
X014372Y052278*
X014373Y052274*
X014373Y052271*
X014374Y052268*
X014376Y052265*
X014377Y052261*
X014379Y052259*
X014381Y052256*
X014383Y052253*
X014385Y052250*
X014388Y052248*
X014390Y052246*
X014393Y052244*
X014396Y052242*
X014399Y052240*
X014402Y052239*
X014405Y052238*
X014409Y052237*
X014412Y052236*
X014415Y052236*
X014419Y052236*
X014422*
X014426Y052236*
X014429Y052236*
X014432Y052237*
X014436Y052238*
X014439Y052239*
X014442Y052240*
X014445Y052242*
X014448Y052244*
X014451Y052246*
X014453Y052248*
X014456Y052250*
X014458Y052253*
X014460Y052256*
X014462Y052259*
X014464Y052261*
X014465Y052265*
X014467Y052268*
X014468Y052271*
X014468Y052274*
X014469Y052278*
X014469Y052281*
X014470Y052285*
X039958Y055663D02*
D01*
X039957Y055666*
X039957Y055669*
X039956Y055673*
X039956Y055676*
X039955Y055679*
X039953Y055682*
X039952Y055686*
X039950Y055688*
X039948Y055691*
X039946Y055694*
X039944Y055697*
X039941Y055699*
X039939Y055701*
X039936Y055703*
X039933Y055705*
X039930Y055707*
X039927Y055708*
X039924Y055709*
X039920Y055710*
X039917Y055711*
X039914Y055711*
X039910Y055711*
X039907*
X039903Y055711*
X039900Y055711*
X039897Y055710*
X039893Y055709*
X039890Y055708*
X039887Y055707*
X039884Y055705*
X039881Y055703*
X039878Y055701*
X039876Y055699*
X039873Y055697*
X039871Y055694*
X039869Y055691*
X039867Y055688*
X039865Y055686*
X039864Y055682*
X039862Y055679*
X039861Y055676*
X039861Y055673*
X039860Y055669*
X039860Y055666*
X039860Y055663*
X039860Y055659*
X039860Y055656*
X039861Y055652*
X039861Y055649*
X039862Y055646*
X039864Y055643*
X039865Y055639*
X039867Y055637*
X039869Y055634*
X039871Y055631*
X039873Y055628*
X039876Y055626*
X039878Y055624*
X039881Y055622*
X039884Y055620*
X039887Y055618*
X039890Y055617*
X039893Y055616*
X039897Y055615*
X039900Y055614*
X039903Y055614*
X039907Y055614*
X039910*
X039914Y055614*
X039917Y055614*
X039920Y055615*
X039924Y055616*
X039927Y055617*
X039930Y055618*
X039933Y055620*
X039936Y055622*
X039939Y055624*
X039941Y055626*
X039944Y055628*
X039946Y055631*
X039948Y055634*
X039950Y055637*
X039952Y055639*
X039953Y055643*
X039955Y055646*
X039956Y055649*
X039956Y055652*
X039957Y055656*
X039957Y055659*
X039958Y055663*
G54D77*
X030957Y057161D02*
D01*
X030956Y057169*
X030955Y057177*
X030954Y057185*
X030952Y057193*
X030949Y057201*
X030946Y057208*
X030943Y057216*
X030939Y057223*
X030934Y057230*
X030929Y057236*
X030923Y057242*
X030917Y057248*
X030911Y057253*
X030904Y057258*
X030898Y057263*
X030890Y057267*
X030883Y057270*
X030875Y057273*
X030867Y057275*
X030859Y057277*
X030851Y057278*
X030843Y057278*
X030834*
X030826Y057278*
X030818Y057277*
X030810Y057275*
X030802Y057273*
X030794Y057270*
X030787Y057267*
X030780Y057263*
X030773Y057258*
X030766Y057253*
X030760Y057248*
X030754Y057242*
X030748Y057236*
X030743Y057230*
X030738Y057223*
X030734Y057216*
X030731Y057208*
X030728Y057201*
X030725Y057193*
X030723Y057185*
X030722Y057177*
X030721Y057169*
X030721Y057161*
X030721Y057152*
X030722Y057144*
X030723Y057136*
X030725Y057128*
X030728Y057120*
X030731Y057113*
X030734Y057105*
X030738Y057098*
X030743Y057091*
X030748Y057085*
X030754Y057079*
X030760Y057073*
X030766Y057068*
X030773Y057063*
X030780Y057058*
X030787Y057054*
X030794Y057051*
X030802Y057048*
X030810Y057046*
X030818Y057044*
X030826Y057043*
X030834Y057043*
X030843*
X030851Y057043*
X030859Y057044*
X030867Y057046*
X030875Y057048*
X030883Y057051*
X030890Y057054*
X030898Y057058*
X030904Y057063*
X030911Y057068*
X030917Y057073*
X030923Y057079*
X030929Y057085*
X030934Y057091*
X030939Y057098*
X030943Y057105*
X030946Y057113*
X030949Y057120*
X030952Y057128*
X030954Y057136*
X030955Y057144*
X030956Y057152*
X030957Y057161*
X040018Y059104D02*
D01*
X040017Y059112*
X040016Y059120*
X040015Y059128*
X040013Y059136*
X040010Y059144*
X040007Y059151*
X040004Y059159*
X040000Y059166*
X039995Y059173*
X039990Y059179*
X039984Y059185*
X039978Y059191*
X039972Y059196*
X039965Y059201*
X039959Y059206*
X039951Y059210*
X039944Y059213*
X039936Y059216*
X039928Y059218*
X039920Y059220*
X039912Y059221*
X039904Y059221*
X039895*
X039887Y059221*
X039879Y059220*
X039871Y059218*
X039863Y059216*
X039855Y059213*
X039848Y059210*
X039841Y059206*
X039834Y059201*
X039827Y059196*
X039821Y059191*
X039815Y059185*
X039809Y059179*
X039804Y059173*
X039799Y059166*
X039795Y059159*
X039792Y059151*
X039789Y059144*
X039786Y059136*
X039784Y059128*
X039783Y059120*
X039782Y059112*
X039782Y059104*
X039782Y059095*
X039783Y059087*
X039784Y059079*
X039786Y059071*
X039789Y059063*
X039792Y059056*
X039795Y059048*
X039799Y059041*
X039804Y059034*
X039809Y059028*
X039815Y059022*
X039821Y059016*
X039827Y059011*
X039834Y059006*
X039841Y059001*
X039848Y058997*
X039855Y058994*
X039863Y058991*
X039871Y058989*
X039879Y058987*
X039887Y058986*
X039895Y058986*
X039904*
X039912Y058986*
X039920Y058987*
X039928Y058989*
X039936Y058991*
X039944Y058994*
X039951Y058997*
X039959Y059001*
X039965Y059006*
X039972Y059011*
X039978Y059016*
X039984Y059022*
X039990Y059028*
X039995Y059034*
X040000Y059041*
X040004Y059048*
X040007Y059056*
X040010Y059063*
X040013Y059071*
X040015Y059079*
X040016Y059087*
X040017Y059095*
X040018Y059104*
X015392Y051791D02*
D01*
X015391Y051799*
X015390Y051807*
X015389Y051815*
X015387Y051823*
X015384Y051831*
X015381Y051838*
X015378Y051846*
X015374Y051853*
X015369Y051860*
X015364Y051866*
X015358Y051872*
X015352Y051878*
X015346Y051883*
X015339Y051888*
X015333Y051893*
X015325Y051897*
X015318Y051900*
X015310Y051903*
X015302Y051905*
X015294Y051907*
X015286Y051908*
X015278Y051908*
X015269*
X015261Y051908*
X015253Y051907*
X015245Y051905*
X015237Y051903*
X015229Y051900*
X015222Y051897*
X015215Y051893*
X015208Y051888*
X015201Y051883*
X015195Y051878*
X015189Y051872*
X015183Y051866*
X015178Y051860*
X015173Y051853*
X015169Y051846*
X015166Y051838*
X015163Y051831*
X015160Y051823*
X015158Y051815*
X015157Y051807*
X015156Y051799*
X015156Y051791*
X015156Y051782*
X015157Y051774*
X015158Y051766*
X015160Y051758*
X015163Y051750*
X015166Y051743*
X015169Y051735*
X015173Y051728*
X015178Y051721*
X015183Y051715*
X015189Y051709*
X015195Y051703*
X015201Y051698*
X015208Y051693*
X015215Y051688*
X015222Y051684*
X015229Y051681*
X015237Y051678*
X015245Y051676*
X015253Y051674*
X015261Y051673*
X015269Y051673*
X015278*
X015286Y051673*
X015294Y051674*
X015302Y051676*
X015310Y051678*
X015318Y051681*
X015325Y051684*
X015333Y051688*
X015339Y051693*
X015346Y051698*
X015352Y051703*
X015358Y051709*
X015364Y051715*
X015369Y051721*
X015374Y051728*
X015378Y051735*
X015381Y051743*
X015384Y051750*
X015387Y051758*
X015389Y051766*
X015390Y051774*
X015391Y051782*
X015392Y051791*
G54D78*
X028000Y037892D02*
D01*
X027991Y037891*
X027982Y037890*
X027974Y037889*
X027965Y037887*
X027957Y037884*
X027949Y037881*
X027941Y037877*
X027933Y037873*
X027926Y037868*
X027919Y037862*
X027913Y037856*
X027907Y037850*
X027901Y037843*
X027896Y037836*
X027891Y037829*
X027887Y037821*
X027884Y037813*
X027881Y037805*
X027878Y037797*
X027876Y037788*
X027875Y037780*
X027875Y037771*
Y037762*
X027875Y037753*
X027876Y037745*
X027878Y037736*
X027881Y037728*
X027884Y037720*
X027887Y037712*
X027891Y037704*
X027896Y037697*
X027901Y037690*
X027907Y037683*
X027913Y037677*
X027919Y037671*
X027926Y037665*
X027933Y037660*
X027941Y037656*
X027949Y037652*
X027957Y037649*
X027965Y037646*
X027974Y037644*
X027982Y037643*
X027991Y037642*
X028000Y037642*
X037082Y058738D02*
D01*
X037069Y058711*
X037059Y058684*
X037050Y058657*
X037044Y058629*
X037039Y058600*
X037037Y058572*
X037036Y058543*
X037038Y058514*
X037041Y058485*
X037047Y058457*
X037054Y058429*
X037064Y058402*
X037075Y058375*
X037088Y058350*
X037092Y058343*
X037808D02*
D01*
X037821Y058368*
X037833Y058394*
X037843Y058421*
X037851Y058449*
X037857Y058477*
X037861Y058506*
X037863Y058535*
X037863Y058564*
X037861Y058592*
X037857Y058621*
X037851Y058649*
X037843Y058677*
X037833Y058704*
X037821Y058731*
X037818Y058738*
X020576Y049525D02*
X025104D01*
X020576Y045391D02*
X025104D01*
X018565Y055444D02*
Y057256D01*
X019735Y055444D02*
Y057256D01*
X019701D02*
X019735D01*
X018565Y055444D02*
X018599D01*
X018565Y057256D02*
X018599D01*
X019701Y055444D02*
X019735D01*
X029785Y029456D02*
X030081D01*
X031419Y033944D02*
X031715D01*
Y029456D02*
Y033944D01*
X031419Y029456D02*
X031715D01*
X029785Y033944D02*
X030081D01*
X029785Y029456D02*
Y033944D01*
X029355Y046976D02*
X029433D01*
X029355Y047724D02*
X029433D01*
X029867Y046976D02*
X029945D01*
X029867Y047724D02*
X029945D01*
X029355Y046976D02*
Y047724D01*
X029945Y046976D02*
Y047724D01*
X029867Y046976D02*
Y047133D01*
X029945*
X029355D02*
X029433D01*
Y046976D02*
Y047133D01*
X028793Y047819D02*
X029107D01*
X027955Y046976D02*
X028033D01*
X027955Y047724D02*
X028033D01*
X028467Y046976D02*
X028545D01*
X028467Y047724D02*
X028545D01*
X027955Y046976D02*
Y047724D01*
X028545Y046976D02*
Y047724D01*
X028467Y046976D02*
Y047133D01*
X028545*
X027955D02*
X028033D01*
Y046976D02*
Y047133D01*
X027393Y047819D02*
X027707D01*
X026555Y046976D02*
X026633D01*
X026555Y047724D02*
X026633D01*
X027067Y046976D02*
X027145D01*
X027067Y047724D02*
X027145D01*
X026555Y046976D02*
Y047724D01*
X027145Y046976D02*
Y047724D01*
X027067Y046976D02*
Y047133D01*
X027145*
X026555D02*
X026633D01*
Y046976D02*
Y047133D01*
X033593Y047819D02*
X033907D01*
X032755Y046976D02*
X032833D01*
X032755Y047724D02*
X032833D01*
X033267Y046976D02*
X033345D01*
X033267Y047724D02*
X033345D01*
X032755Y046976D02*
Y047724D01*
X033345Y046976D02*
Y047724D01*
X033267Y046976D02*
Y047133D01*
X033345*
X032755D02*
X032833D01*
Y046976D02*
Y047133D01*
X032193Y047819D02*
X032507D01*
X031355Y046976D02*
X031433D01*
X031355Y047724D02*
X031433D01*
X031867Y046976D02*
X031945D01*
X031867Y047724D02*
X031945D01*
X031355Y046976D02*
Y047724D01*
X031945Y046976D02*
Y047724D01*
X031867Y046976D02*
Y047133D01*
X031945*
X031355D02*
X031433D01*
Y046976D02*
Y047133D01*
X030793Y047819D02*
X031107D01*
X030193D02*
X030507D01*
X026993Y044531D02*
X027307D01*
X028067Y045424D02*
X028145D01*
X028067Y044676D02*
X028145D01*
X027555Y045424D02*
X027633D01*
X027555Y044676D02*
X027633D01*
X028145D02*
Y045424D01*
X027555Y044676D02*
Y045424D01*
X027633Y045267D02*
Y045424D01*
X027555Y045267D02*
X027633D01*
X028067D02*
X028145D01*
X028067D02*
Y045424D01*
X033667D02*
X033745D01*
X033667Y044676D02*
X033745D01*
X033155Y045424D02*
X033233D01*
X033155Y044676D02*
X033233D01*
X033745D02*
Y045424D01*
X033155Y044676D02*
Y045424D01*
X033233Y045267D02*
Y045424D01*
X033155Y045267D02*
X033233D01*
X033667D02*
X033745D01*
X033667D02*
Y045424D01*
X033993Y044531D02*
X034307D01*
X026981Y051376D02*
X028319D01*
X026981Y052124D02*
X028319D01*
Y051376D02*
Y052124D01*
X026981Y051376D02*
Y052124D01*
X027950Y063700D02*
X031950D01*
X027950Y061700D02*
X031950D01*
Y063700*
X027950Y061700D02*
Y063700D01*
X039319Y060843D02*
Y061157D01*
X019302Y052794D02*
Y053306D01*
Y051894D02*
Y052406D01*
X019381Y051143D02*
Y051457D01*
X021031Y053328D02*
X023669D01*
Y051872D02*
Y053328D01*
X021031Y051872D02*
X023669D01*
X021031D02*
Y053328D01*
X025543Y063819D02*
X025857D01*
X016933Y058053D02*
X017543D01*
X016933Y062147D02*
X017543D01*
Y058053D02*
Y062147D01*
X021219Y060543D02*
Y060857D01*
X027181Y048593D02*
Y048907D01*
X027426Y049767D02*
Y049845D01*
X028174Y049767D02*
Y049845D01*
X027426Y049255D02*
Y049333D01*
X028174Y049255D02*
Y049333D01*
X027426Y049845D02*
X028174D01*
X027426Y049255D02*
X028174D01*
X027426Y049333D02*
X027583D01*
Y049255D02*
Y049333D01*
Y049767D02*
Y049845D01*
X027426Y049767D02*
X027583D01*
X031200Y049541D02*
X031476D01*
Y049226D02*
Y049541D01*
X031200Y048359D02*
X031476D01*
Y048674*
X015630Y048241D02*
X015906D01*
Y047926D02*
Y048241D01*
X015630Y047059D02*
X015906D01*
Y047374*
X015630Y046691D02*
X015906D01*
Y046376D02*
Y046691D01*
X015630Y045509D02*
X015906D01*
Y045824*
X015630Y049791D02*
X015906D01*
Y049476D02*
Y049791D01*
X015630Y048609D02*
X015906D01*
Y048924*
X015630Y045141D02*
X015906D01*
Y044826D02*
Y045141D01*
X015630Y043959D02*
X015906D01*
Y044274*
X037843Y045869D02*
X038157D01*
X035416Y045585D02*
Y046215D01*
X037384Y045585D02*
Y046215D01*
X035416Y045585D02*
X037384D01*
X035416Y046215D02*
X037384D01*
X023091Y037324D02*
Y037600D01*
X022776Y037324D02*
X023091D01*
X021909D02*
Y037600D01*
Y037324D02*
X022224D01*
X030809Y037500D02*
Y037776D01*
X031124*
X031991Y037500D02*
Y037776D01*
X031676D02*
X031991D01*
X030809Y039000D02*
Y039276D01*
X031124*
X031991Y039000D02*
Y039276D01*
X031676D02*
X031991D01*
X023091Y038974D02*
Y039250D01*
X022776Y038974D02*
X023091D01*
X021909D02*
Y039250D01*
Y038974D02*
X022224D01*
X039955Y051526D02*
X040033D01*
X039955Y052274D02*
X040033D01*
X040467Y051526D02*
X040545D01*
X040467Y052274D02*
X040545D01*
X039955Y051526D02*
Y052274D01*
X040545Y051526D02*
Y052274D01*
X040467Y051526D02*
Y051683D01*
X040545*
X039955D02*
X040033D01*
Y051526D02*
Y051683D01*
X039667Y052274D02*
X039745D01*
X039667Y051526D02*
X039745D01*
X039155Y052274D02*
X039233D01*
X039155Y051526D02*
X039233D01*
X039745D02*
Y052274D01*
X039155Y051526D02*
Y052274D01*
X039233Y052117D02*
Y052274D01*
X039155Y052117D02*
X039233D01*
X039667D02*
X039745D01*
X039667D02*
Y052274D01*
X037904Y049181D02*
Y053119D01*
X037196Y049181D02*
Y053119D01*
Y049181D02*
X037904D01*
X037196Y053119D02*
X037904D01*
X039069Y053393D02*
Y053707D01*
X035543Y049081D02*
X035857D01*
X036476Y048867D02*
Y048945D01*
X037224Y048867D02*
Y048945D01*
X036476Y048355D02*
Y048433D01*
X037224Y048355D02*
Y048433D01*
X036476Y048945D02*
X037224D01*
X036476Y048355D02*
X037224D01*
X036476Y048433D02*
X036633D01*
Y048355D02*
Y048433D01*
Y048867D02*
Y048945D01*
X036476Y048867D02*
X036633D01*
X033969Y058843D02*
Y059157D01*
Y059443D02*
Y059757D01*
X030852Y054544D02*
Y055056D01*
X030931Y055343D02*
Y055657D01*
X032750Y053300D02*
Y054300D01*
X030750Y053300D02*
X032750D01*
X030750D02*
Y054300D01*
X032750*
X029319Y060093D02*
Y060407D01*
X029067Y058933D02*
X031233D01*
X029067Y056767D02*
X031233D01*
X029067D02*
Y058933D01*
X031233Y056767D02*
Y058933D01*
X025693Y055319D02*
X026007D01*
X027593Y057069D02*
X027907D01*
X033493Y059981D02*
X033807D01*
X032631Y057943D02*
Y058257D01*
X037293Y059481D02*
X037607D01*
X037293Y057669D02*
X037607D01*
X035943Y063769D02*
X036257D01*
X034299Y061649D02*
Y063751D01*
X035401Y061649D02*
Y063751D01*
X034299Y061649D02*
X035401D01*
X034299Y063751D02*
X035401D01*
X035580Y042100D02*
Y044100D01*
X018580Y042100D02*
Y044100D01*
X035580*
X018580Y042100D02*
X035580D01*
X027019Y028147D02*
Y028462D01*
X028449Y028147D02*
Y028462D01*
X027019Y028943D02*
Y029257D01*
X028449Y028943D02*
Y029257D01*
X025143Y028831D02*
X025457D01*
X028693D02*
X029007D01*
X027019Y029743D02*
Y030057D01*
X028449Y029743D02*
Y030057D01*
X024094Y032952D02*
X024606D01*
X024943Y033131D02*
X025257D01*
X026037Y032387D02*
X026204D01*
X026037D02*
Y032554D01*
X027996Y032387D02*
X028163D01*
Y032554*
Y034346D02*
Y034513D01*
X027996D02*
X028163D01*
X026037D02*
X026204D01*
X026037Y034346D02*
Y034513D01*
X023443Y033081D02*
X023757D01*
X024619Y028143D02*
Y028457D01*
X023443Y032519D02*
X023757D01*
X031993Y031569D02*
X032307D01*
X031993Y031781D02*
X032307D01*
X021330Y063100D02*
X022099Y063868D01*
X021330Y060720D02*
X022118Y059932D01*
X025264D02*
Y061900D01*
X022118Y059932D02*
X025268D01*
X021332Y060719D02*
Y063081D01*
X022099Y063868D02*
X025268D01*
X025264Y061900D02*
Y063868D01*
X025319Y051143D02*
Y051457D01*
X025398Y051894D02*
Y052406D01*
Y052794D02*
Y053306D01*
Y053694D02*
Y054206D01*
X013780Y056950D02*
X014548Y057719D01*
X013780Y054570D02*
X014569Y053781D01*
X017714D02*
Y055750D01*
X014569Y053781D02*
X017718D01*
X013781Y054569D02*
Y056931D01*
X014548Y057719D02*
X017718D01*
X017714Y055750D02*
Y057719D01*
X015450Y043591D02*
X015726D01*
Y043276D02*
Y043591D01*
X015450Y042409D02*
X015726D01*
Y042724*
X024644Y037052D02*
X025156D01*
X025443Y038469D02*
X025757D01*
X028000Y037892D02*
Y038222D01*
Y037313D02*
Y037642D01*
X026000Y037313D02*
X028000D01*
X026000D02*
Y038222D01*
X028000*
X025361Y054539D02*
Y055780D01*
X020439Y054539D02*
Y055780D01*
X025361Y058220D02*
Y059461D01*
X020439Y058220D02*
Y059461D01*
Y054539D02*
X025361D01*
X020439Y059461D02*
X025361D01*
X033524Y062232D02*
X034036D01*
X032793Y062231D02*
X033107D01*
X036393Y056331D02*
X036707D01*
X036393Y059169D02*
X036707D01*
X038207Y058002D02*
Y059498D01*
X040293Y058002D02*
Y059498D01*
X038207Y058002D02*
X040293D01*
X038207Y059498D02*
X040293D01*
X036115Y055506D02*
Y059994D01*
X035819Y055506D02*
X036115D01*
X034185Y059994D02*
X034481D01*
X034185Y055506D02*
Y059994D01*
Y055506D02*
X034481D01*
X035819Y059994D02*
X036115D01*
X036743Y054681D02*
X037057D01*
X037394Y056098D02*
X037906D01*
X027466Y053396D02*
X029434D01*
X027466Y054104D02*
X029434D01*
X027466Y053396D02*
Y054104D01*
X029434Y053396D02*
Y054104D01*
X014878Y050235D02*
X016122D01*
X014878Y052165D02*
X016122D01*
Y050235D02*
Y052165D01*
X014878Y050235D02*
Y052165D01*
X034155Y046976D02*
X034233D01*
X034155Y047724D02*
X034233D01*
X034667Y046976D02*
X034745D01*
X034667Y047724D02*
X034745D01*
X034155Y046976D02*
Y047724D01*
X034745Y046976D02*
Y047724D01*
X034667Y046976D02*
Y047133D01*
X034745*
X034155D02*
X034233D01*
Y046976D02*
Y047133D01*
X039791Y054974D02*
Y055250D01*
X039476Y054974D02*
X039791D01*
X038609D02*
Y055250D01*
Y054974D02*
X038924D01*
G54D79*
X035800Y061200D02*
X035603D01*
Y061298*
X035636Y061331*
X035702*
X035734Y061298*
Y061200*
Y061266D02*
X035800Y061331D01*
Y061397D02*
Y061462D01*
Y061430*
X035603*
X035636Y061397*
Y061561D02*
X035603Y061594D01*
Y061659*
X035636Y061692*
X035767*
X035800Y061659*
Y061594*
X035767Y061561*
X035636*
X035800Y061758D02*
Y061823D01*
Y061790*
X035603*
X035636Y061758*
X034500Y064047D02*
Y063850D01*
X034598*
X034631Y063883*
Y064014*
X034598Y064047*
X034500*
X034697Y063850D02*
X034762D01*
X034730*
Y064047*
X034697Y064014*
X034861D02*
X034894Y064047D01*
X034959*
X034992Y064014*
Y063883*
X034959Y063850*
X034894*
X034861Y063883*
Y064014*
X035058Y063850D02*
X035123D01*
X035090*
Y064047*
X035058Y064014*
X035619Y062505D02*
X035586Y062472D01*
Y062406*
X035619Y062373*
X035750*
X035783Y062406*
Y062472*
X035750Y062505*
X035783Y062570D02*
Y062636D01*
Y062603*
X035586*
X035619Y062570*
Y062734D02*
X035586Y062767D01*
Y062832*
X035619Y062865*
X035750*
X035783Y062832*
Y062767*
X035750Y062734*
X035619*
X035783Y063062D02*
Y062931D01*
X035652Y063062*
X035619*
X035586Y063029*
Y062964*
X035619Y062931*
X025431Y037064D02*
X025398Y037097D01*
X025333*
X025300Y037064*
Y036933*
X025333Y036900*
X025398*
X025431Y036933*
X025497Y036900D02*
X025562D01*
X025530*
Y037097*
X025497Y037064*
X025661D02*
X025694Y037097D01*
X025759*
X025792Y037064*
Y036933*
X025759Y036900*
X025694*
X025661Y036933*
Y037064*
X025989Y037097D02*
X025858D01*
Y036998*
X025923Y037031*
X025956*
X025989Y036998*
Y036933*
X025956Y036900*
X025890*
X025858Y036933*
X028850Y033897D02*
Y033864D01*
X028916Y033798*
X028981Y033864*
Y033897*
X028916Y033798D02*
Y033700D01*
X029047Y033864D02*
X029080Y033897D01*
X029145*
X029178Y033864*
Y033831*
X029145Y033798*
X029112*
X029145*
X029178Y033766*
Y033733*
X029145Y033700*
X029080*
X029047Y033733*
X029244Y033864D02*
X029276Y033897D01*
X029342*
X029375Y033864*
Y033733*
X029342Y033700*
X029276*
X029244Y033733*
Y033864*
X029440D02*
X029473Y033897D01*
X029539*
X029572Y033864*
Y033733*
X029539Y033700*
X029473*
X029440Y033733*
Y033864*
X036853Y057600D02*
X036886D01*
X036952Y057666*
X036886Y057731*
X036853*
X036952Y057666D02*
X037050D01*
Y057797D02*
Y057862D01*
Y057830*
X036853*
X036886Y057797*
Y057961D02*
X036853Y057994D01*
Y058059*
X036886Y058092*
X037017*
X037050Y058059*
Y057994*
X037017Y057961*
X036886*
X037050Y058158D02*
Y058223D01*
Y058190*
X036853*
X036886Y058158*
X036250Y060897D02*
Y060864D01*
X036316Y060798*
X036381Y060864*
Y060897*
X036316Y060798D02*
Y060700D01*
X036447D02*
X036512D01*
X036480*
Y060897*
X036447Y060864*
X036611D02*
X036644Y060897D01*
X036709*
X036742Y060864*
Y060733*
X036709Y060700*
X036644*
X036611Y060733*
Y060864*
X036808D02*
X036840Y060897D01*
X036906*
X036939Y060864*
Y060733*
X036906Y060700*
X036840*
X036808Y060733*
Y060864*
X022200Y050747D02*
Y050583D01*
X022233Y050550*
X022298*
X022331Y050583*
Y050747*
X022528Y050550D02*
X022397D01*
X022528Y050681*
Y050714*
X022495Y050747*
X022430*
X022397Y050714*
X022594D02*
X022626Y050747D01*
X022692*
X022725Y050714*
Y050583*
X022692Y050550*
X022626*
X022594Y050583*
Y050714*
X022922Y050550D02*
X022790D01*
X022922Y050681*
Y050714*
X022889Y050747*
X022823*
X022790Y050714*
X013600Y062847D02*
Y062683D01*
X013633Y062650*
X013698*
X013731Y062683*
Y062847*
X013928Y062650D02*
X013797D01*
X013928Y062781*
Y062814*
X013895Y062847*
X013830*
X013797Y062814*
X013994D02*
X014026Y062847D01*
X014092*
X014125Y062814*
Y062683*
X014092Y062650*
X014026*
X013994Y062683*
Y062814*
X014190Y062650D02*
X014256D01*
X014223*
Y062847*
X014190Y062814*
X037469Y045535D02*
X037633D01*
X037665Y045567*
Y045633*
X037633Y045666*
X037469*
X037665Y045863D02*
Y045731D01*
X037534Y045863*
X037501*
X037469Y045830*
Y045764*
X037501Y045731*
Y045928D02*
X037469Y045961D01*
Y046027*
X037501Y046059*
X037633*
X037665Y046027*
Y045961*
X037633Y045928*
X037501*
Y046125D02*
X037469Y046158D01*
Y046223*
X037501Y046256*
X037633*
X037665Y046223*
Y046158*
X037633Y046125*
X037501*
X040453Y058350D02*
X040617D01*
X040650Y058383*
Y058448*
X040617Y058481*
X040453*
X040650Y058547D02*
Y058612D01*
Y058580*
X040453*
X040486Y058547*
Y058711D02*
X040453Y058744D01*
Y058809*
X040486Y058842*
X040617*
X040650Y058809*
Y058744*
X040617Y058711*
X040486*
X040650Y059006D02*
X040453D01*
X040552Y058908*
Y059039*
X029658Y053400D02*
X029822D01*
X029855Y053433*
Y053498*
X029822Y053531*
X029658*
X029855Y053597D02*
Y053662D01*
Y053630*
X029658*
X029691Y053597*
Y053761D02*
X029658Y053794D01*
Y053859*
X029691Y053892*
X029822*
X029855Y053859*
Y053794*
X029822Y053761*
X029691*
Y053958D02*
X029658Y053990D01*
Y054056*
X029691Y054089*
X029724*
X029756Y054056*
Y054023*
Y054056*
X029789Y054089*
X029822*
X029855Y054056*
Y053990*
X029822Y053958*
X028050Y059647D02*
Y059483D01*
X028083Y059450*
X028148*
X028181Y059483*
Y059647*
X028247Y059450D02*
X028312D01*
X028280*
Y059647*
X028247Y059614*
X028411D02*
X028444Y059647D01*
X028509*
X028542Y059614*
Y059483*
X028509Y059450*
X028444*
X028411Y059483*
Y059614*
X028739Y059450D02*
X028608D01*
X028739Y059581*
Y059614*
X028706Y059647*
X028640*
X028608Y059614*
X037750Y048997D02*
Y048833D01*
X037783Y048800*
X037848*
X037881Y048833*
Y048997*
X037947Y048800D02*
X038012D01*
X037980*
Y048997*
X037947Y048964*
X038111D02*
X038144Y048997D01*
X038209*
X038242Y048964*
Y048833*
X038209Y048800*
X038144*
X038111Y048833*
Y048964*
X038308Y048800D02*
X038373D01*
X038340*
Y048997*
X038308Y048964*
X028100Y036897D02*
Y036733D01*
X028133Y036700*
X028198*
X028231Y036733*
Y036897*
X028297Y036700D02*
X028362D01*
X028330*
Y036897*
X028297Y036864*
X028461D02*
X028494Y036897D01*
X028559*
X028592Y036864*
Y036733*
X028559Y036700*
X028494*
X028461Y036733*
Y036864*
X028658D02*
X028690Y036897D01*
X028756*
X028789Y036864*
Y036733*
X028756Y036700*
X028690*
X028658Y036733*
Y036864*
X029350Y027400D02*
X029153D01*
Y027498*
X029186Y027531*
X029252*
X029284Y027498*
Y027400*
Y027466D02*
X029350Y027531D01*
X029186Y027597D02*
X029153Y027630D01*
Y027695*
X029186Y027728*
X029219*
X029252Y027695*
Y027662*
Y027695*
X029284Y027728*
X029317*
X029350Y027695*
Y027630*
X029317Y027597*
X029186Y027794D02*
X029153Y027826D01*
Y027892*
X029186Y027925*
X029317*
X029350Y027892*
Y027826*
X029317Y027794*
X029186*
X029350Y028089D02*
X029153D01*
X029252Y027990*
Y028122*
X025000Y027400D02*
X024803D01*
Y027498*
X024836Y027531*
X024902*
X024934Y027498*
Y027400*
Y027466D02*
X025000Y027531D01*
X024836Y027597D02*
X024803Y027630D01*
Y027695*
X024836Y027728*
X024869*
X024902Y027695*
Y027662*
Y027695*
X024934Y027728*
X024967*
X025000Y027695*
Y027630*
X024967Y027597*
X024836Y027794D02*
X024803Y027826D01*
Y027892*
X024836Y027925*
X024967*
X025000Y027892*
Y027826*
X024967Y027794*
X024836*
Y027990D02*
X024803Y028023D01*
Y028089*
X024836Y028122*
X024869*
X024902Y028089*
Y028056*
Y028089*
X024934Y028122*
X024967*
X025000Y028089*
Y028023*
X024967Y027990*
X023250Y028700D02*
X023053D01*
Y028798*
X023086Y028831*
X023152*
X023184Y028798*
Y028700*
Y028766D02*
X023250Y028831D01*
X023086Y028897D02*
X023053Y028930D01*
Y028995*
X023086Y029028*
X023119*
X023152Y028995*
Y028962*
Y028995*
X023184Y029028*
X023217*
X023250Y028995*
Y028930*
X023217Y028897*
X023086Y029094D02*
X023053Y029126D01*
Y029192*
X023086Y029225*
X023217*
X023250Y029192*
Y029126*
X023217Y029094*
X023086*
X023250Y029422D02*
Y029290D01*
X023119Y029422*
X023086*
X023053Y029389*
Y029323*
X023086Y029290*
X023250Y030050D02*
X023053D01*
Y030148*
X023086Y030181*
X023152*
X023184Y030148*
Y030050*
Y030116D02*
X023250Y030181D01*
X023086Y030247D02*
X023053Y030280D01*
Y030345*
X023086Y030378*
X023119*
X023152Y030345*
Y030312*
Y030345*
X023184Y030378*
X023217*
X023250Y030345*
Y030280*
X023217Y030247*
X023086Y030444D02*
X023053Y030476D01*
Y030542*
X023086Y030575*
X023217*
X023250Y030542*
Y030476*
X023217Y030444*
X023086*
Y030640D02*
X023053Y030673D01*
Y030739*
X023086Y030772*
X023217*
X023250Y030739*
Y030673*
X023217Y030640*
X023086*
X020000Y059600D02*
Y059797D01*
X020098*
X020131Y059764*
Y059698*
X020098Y059666*
X020000*
X020066D02*
X020131Y059600D01*
X020328D02*
X020197D01*
X020328Y059731*
Y059764*
X020295Y059797*
X020230*
X020197Y059764*
X020394D02*
X020426Y059797D01*
X020492*
X020525Y059764*
Y059731*
X020492Y059698*
X020459*
X020492*
X020525Y059666*
Y059633*
X020492Y059600*
X020426*
X020394Y059633*
X020722Y059797D02*
X020590D01*
Y059698*
X020656Y059731*
X020689*
X020722Y059698*
Y059633*
X020689Y059600*
X020623*
X020590Y059633*
X020050Y062350D02*
Y062547D01*
X020148*
X020181Y062514*
Y062448*
X020148Y062416*
X020050*
X020116D02*
X020181Y062350D01*
X020378D02*
X020247D01*
X020378Y062481*
Y062514*
X020345Y062547*
X020280*
X020247Y062514*
X020444D02*
X020476Y062547D01*
X020542*
X020575Y062514*
Y062481*
X020542Y062448*
X020509*
X020542*
X020575Y062416*
Y062383*
X020542Y062350*
X020476*
X020444Y062383*
X020739Y062350D02*
Y062547D01*
X020640Y062448*
X020772*
X013887Y042700D02*
X013690D01*
Y042798*
X013723Y042831*
X013788*
X013821Y042798*
Y042700*
Y042766D02*
X013887Y042831D01*
Y043028D02*
Y042897D01*
X013756Y043028*
X013723*
X013690Y042995*
Y042930*
X013723Y042897*
Y043094D02*
X013690Y043126D01*
Y043192*
X013723Y043225*
X013756*
X013788Y043192*
Y043159*
Y043192*
X013821Y043225*
X013854*
X013887Y043192*
Y043126*
X013854Y043094*
X013723Y043290D02*
X013690Y043323D01*
Y043389*
X013723Y043422*
X013756*
X013788Y043389*
Y043356*
Y043389*
X013821Y043422*
X013854*
X013887Y043389*
Y043323*
X013854Y043290*
X038350Y047250D02*
X038547D01*
Y047152*
X038514Y047119*
X038448*
X038416Y047152*
Y047250*
Y047184D02*
X038350Y047119D01*
Y046922D02*
Y047053D01*
X038481Y046922*
X038514*
X038547Y046955*
Y047020*
X038514Y047053*
X038350Y046725D02*
Y046856D01*
X038481Y046725*
X038514*
X038547Y046758*
Y046824*
X038514Y046856*
Y046660D02*
X038547Y046627D01*
Y046561*
X038514Y046528*
X038481*
X038448Y046561*
X038416Y046528*
X038383*
X038350Y046561*
Y046627*
X038383Y046660*
X038416*
X038448Y046627*
X038481Y046660*
X038514*
X038448Y046627D02*
Y046561D01*
X029950Y038800D02*
X029753D01*
Y038898*
X029786Y038931*
X029852*
X029884Y038898*
Y038800*
Y038866D02*
X029950Y038931D01*
Y039128D02*
Y038997D01*
X029819Y039128*
X029786*
X029753Y039095*
Y039030*
X029786Y038997*
Y039194D02*
X029753Y039226D01*
Y039292*
X029786Y039325*
X029819*
X029852Y039292*
Y039259*
Y039292*
X029884Y039325*
X029917*
X029950Y039292*
Y039226*
X029917Y039194*
X029950Y039390D02*
Y039456D01*
Y039423*
X029753*
X029786Y039390*
X038350Y047700D02*
Y047897D01*
X038448*
X038481Y047864*
Y047798*
X038448Y047766*
X038350*
X038416D02*
X038481Y047700D01*
X038678D02*
X038547D01*
X038678Y047831*
Y047864*
X038645Y047897*
X038580*
X038547Y047864*
X038875Y047700D02*
X038744D01*
X038875Y047831*
Y047864*
X038842Y047897*
X038776*
X038744Y047864*
X038940Y047897D02*
X039072D01*
Y047864*
X038940Y047733*
Y047700*
X029800Y037200D02*
Y037397D01*
X029898*
X029931Y037364*
Y037298*
X029898Y037266*
X029800*
X029866D02*
X029931Y037200D01*
X030128D02*
X029997D01*
X030128Y037331*
Y037364*
X030095Y037397*
X030030*
X029997Y037364*
X030194D02*
X030226Y037397D01*
X030292*
X030325Y037364*
Y037331*
X030292Y037298*
X030259*
X030292*
X030325Y037266*
Y037233*
X030292Y037200*
X030226*
X030194Y037233*
X030390Y037364D02*
X030423Y037397D01*
X030489*
X030522Y037364*
Y037233*
X030489Y037200*
X030423*
X030390Y037233*
Y037364*
X024100Y038250D02*
X023903D01*
Y038348*
X023936Y038381*
X024002*
X024034Y038348*
Y038250*
Y038316D02*
X024100Y038381D01*
Y038578D02*
Y038447D01*
X023969Y038578*
X023936*
X023903Y038545*
Y038480*
X023936Y038447*
X024100Y038775D02*
Y038644D01*
X023969Y038775*
X023936*
X023903Y038742*
Y038676*
X023936Y038644*
X023903Y038972D02*
Y038840D01*
X024002*
X023969Y038906*
Y038939*
X024002Y038972*
X024067*
X024100Y038939*
Y038873*
X024067Y038840*
X013887Y044250D02*
X013690D01*
Y044348*
X013723Y044381*
X013788*
X013821Y044348*
Y044250*
Y044316D02*
X013887Y044381D01*
Y044578D02*
Y044447D01*
X013756Y044578*
X013723*
X013690Y044545*
Y044480*
X013723Y044447*
Y044644D02*
X013690Y044676D01*
Y044742*
X013723Y044775*
X013756*
X013788Y044742*
Y044709*
Y044742*
X013821Y044775*
X013854*
X013887Y044742*
Y044676*
X013854Y044644*
X013887Y044972D02*
Y044840D01*
X013756Y044972*
X013723*
X013690Y044939*
Y044873*
X013723Y044840*
X024100Y036800D02*
X023903D01*
Y036898*
X023936Y036931*
X024002*
X024034Y036898*
Y036800*
Y036866D02*
X024100Y036931D01*
Y037128D02*
Y036997D01*
X023969Y037128*
X023936*
X023903Y037095*
Y037030*
X023936Y036997*
X024100Y037325D02*
Y037194D01*
X023969Y037325*
X023936*
X023903Y037292*
Y037226*
X023936Y037194*
X024100Y037489D02*
X023903D01*
X024002Y037390*
Y037522*
X013887Y045700D02*
X013690D01*
Y045798*
X013723Y045831*
X013788*
X013821Y045798*
Y045700*
Y045766D02*
X013887Y045831D01*
Y046028D02*
Y045897D01*
X013756Y046028*
X013723*
X013690Y045995*
Y045930*
X013723Y045897*
X013887Y046225D02*
Y046094D01*
X013756Y046225*
X013723*
X013690Y046192*
Y046126*
X013723Y046094*
X013854Y046290D02*
X013887Y046323D01*
Y046389*
X013854Y046422*
X013723*
X013690Y046389*
Y046323*
X013723Y046290*
X013756*
X013788Y046323*
Y046422*
X013889Y047233D02*
X013692D01*
Y047331*
X013725Y047364*
X013791*
X013824Y047331*
Y047233*
Y047298D02*
X013889Y047364D01*
Y047561D02*
Y047430D01*
X013758Y047561*
X013725*
X013692Y047528*
Y047462*
X013725Y047430*
X013889Y047758D02*
Y047626D01*
X013758Y047758*
X013725*
X013692Y047725*
Y047659*
X013725Y047626*
Y047823D02*
X013692Y047856D01*
Y047922*
X013725Y047954*
X013758*
X013791Y047922*
Y047889*
Y047922*
X013824Y047954*
X013856*
X013889Y047922*
Y047856*
X013856Y047823*
X013887Y048810D02*
X013690D01*
Y048908*
X013723Y048941*
X013788*
X013821Y048908*
Y048810*
Y048876D02*
X013887Y048941D01*
Y049138D02*
Y049007D01*
X013756Y049138*
X013723*
X013690Y049105*
Y049040*
X013723Y049007*
X013887Y049335D02*
Y049204D01*
X013756Y049335*
X013723*
X013690Y049302*
Y049236*
X013723Y049204*
X013887Y049532D02*
Y049400D01*
X013756Y049532*
X013723*
X013690Y049499*
Y049433*
X013723Y049400*
X015400Y052850D02*
Y053047D01*
X015498*
X015531Y053014*
Y052948*
X015498Y052916*
X015400*
X015466D02*
X015531Y052850D01*
X015728D02*
X015597D01*
X015728Y052981*
Y053014*
X015695Y053047*
X015630*
X015597Y053014*
X015925Y052850D02*
X015794D01*
X015925Y052981*
Y053014*
X015892Y053047*
X015826*
X015794Y053014*
X015990D02*
X016023Y053047D01*
X016089*
X016122Y053014*
Y052883*
X016089Y052850*
X016023*
X015990Y052883*
Y053014*
X030850Y041900D02*
Y042050D01*
X030925*
X030950Y042025*
Y041975*
X030925Y041950*
X030850*
X030900D02*
X030950Y041900D01*
X031100D02*
X031000D01*
X031100Y042000*
Y042025*
X031075Y042050*
X031025*
X031000Y042025*
X031150Y041900D02*
X031200D01*
X031175*
Y042050*
X031150Y042025*
X031275Y041925D02*
X031300Y041900D01*
X031350*
X031375Y041925*
Y042025*
X031350Y042050*
X031300*
X031275Y042025*
Y042000*
X031300Y041975*
X031375*
X031500Y040400D02*
Y040597D01*
X031598*
X031631Y040564*
Y040498*
X031598Y040466*
X031500*
X031566D02*
X031631Y040400D01*
X031828D02*
X031697D01*
X031828Y040531*
Y040564*
X031795Y040597*
X031730*
X031697Y040564*
X031894Y040400D02*
X031959D01*
X031926*
Y040597*
X031894Y040564*
X032058D02*
X032090Y040597D01*
X032156*
X032189Y040564*
Y040531*
X032156Y040498*
X032189Y040466*
Y040433*
X032156Y040400*
X032090*
X032058Y040433*
Y040466*
X032090Y040498*
X032058Y040531*
Y040564*
X032090Y040498D02*
X032156D01*
X032100Y041900D02*
Y042050D01*
X032175*
X032200Y042025*
Y041975*
X032175Y041950*
X032100*
X032150D02*
X032200Y041900D01*
X032350D02*
X032250D01*
X032350Y042000*
Y042025*
X032325Y042050*
X032275*
X032250Y042025*
X032400Y041900D02*
X032450D01*
X032425*
Y042050*
X032400Y042025*
X032525Y042050D02*
X032625D01*
Y042025*
X032525Y041925*
Y041900*
X032650Y040400D02*
Y040597D01*
X032748*
X032781Y040564*
Y040498*
X032748Y040466*
X032650*
X032716D02*
X032781Y040400D01*
X032978D02*
X032847D01*
X032978Y040531*
Y040564*
X032945Y040597*
X032880*
X032847Y040564*
X033044Y040400D02*
X033109D01*
X033076*
Y040597*
X033044Y040564*
X033339Y040597D02*
X033273Y040564D01*
X033208Y040498*
Y040433*
X033240Y040400*
X033306*
X033339Y040433*
Y040466*
X033306Y040498*
X033208*
X032350Y044250D02*
Y044447D01*
X032448*
X032481Y044414*
Y044348*
X032448Y044316*
X032350*
X032416D02*
X032481Y044250D01*
X032678D02*
X032547D01*
X032678Y044381*
Y044414*
X032645Y044447*
X032580*
X032547Y044414*
X032744Y044250D02*
X032809D01*
X032776*
Y044447*
X032744Y044414*
X033039Y044447D02*
X032908D01*
Y044348*
X032973Y044381*
X033006*
X033039Y044348*
Y044283*
X033006Y044250*
X032940*
X032908Y044283*
X031700Y045850D02*
Y046047D01*
X031798*
X031831Y046014*
Y045948*
X031798Y045916*
X031700*
X031766D02*
X031831Y045850D01*
X032028D02*
X031897D01*
X032028Y045981*
Y046014*
X031995Y046047*
X031930*
X031897Y046014*
X032094Y045850D02*
X032159D01*
X032126*
Y046047*
X032094Y046014*
X032356Y045850D02*
Y046047D01*
X032258Y045948*
X032389*
X031400Y044250D02*
Y044447D01*
X031498*
X031531Y044414*
Y044348*
X031498Y044316*
X031400*
X031466D02*
X031531Y044250D01*
X031728D02*
X031597D01*
X031728Y044381*
Y044414*
X031695Y044447*
X031630*
X031597Y044414*
X031794Y044250D02*
X031859D01*
X031826*
Y044447*
X031794Y044414*
X031958D02*
X031990Y044447D01*
X032056*
X032089Y044414*
Y044381*
X032056Y044348*
X032023*
X032056*
X032089Y044316*
Y044283*
X032056Y044250*
X031990*
X031958Y044283*
X030550Y044250D02*
Y044447D01*
X030648*
X030681Y044414*
Y044348*
X030648Y044316*
X030550*
X030616D02*
X030681Y044250D01*
X030878D02*
X030747D01*
X030878Y044381*
Y044414*
X030845Y044447*
X030780*
X030747Y044414*
X030944Y044250D02*
X031009D01*
X030976*
Y044447*
X030944Y044414*
X031239Y044250D02*
X031108D01*
X031239Y044381*
Y044414*
X031206Y044447*
X031140*
X031108Y044414*
X032717Y049360D02*
Y049557D01*
X032815*
X032848Y049524*
Y049458*
X032815Y049426*
X032717*
X032782D02*
X032848Y049360D01*
X033045D02*
X032914D01*
X033045Y049491*
Y049524*
X033012Y049557*
X032946*
X032914Y049524*
X033110Y049360D02*
X033176D01*
X033143*
Y049557*
X033110Y049524*
X033274Y049360D02*
X033340D01*
X033307*
Y049557*
X033274Y049524*
X029750Y044250D02*
Y044447D01*
X029848*
X029881Y044414*
Y044348*
X029848Y044316*
X029750*
X029816D02*
X029881Y044250D01*
X030078D02*
X029947D01*
X030078Y044381*
Y044414*
X030045Y044447*
X029980*
X029947Y044414*
X030144Y044250D02*
X030209D01*
X030176*
Y044447*
X030144Y044414*
X030308D02*
X030340Y044447D01*
X030406*
X030439Y044414*
Y044283*
X030406Y044250*
X030340*
X030308Y044283*
Y044414*
X029450Y045900D02*
Y046097D01*
X029548*
X029581Y046064*
Y045998*
X029548Y045966*
X029450*
X029516D02*
X029581Y045900D01*
X029778D02*
X029647D01*
X029778Y046031*
Y046064*
X029745Y046097*
X029680*
X029647Y046064*
X029844D02*
X029876Y046097D01*
X029942*
X029975Y046064*
Y045933*
X029942Y045900*
X029876*
X029844Y045933*
Y046064*
X030040Y045933D02*
X030073Y045900D01*
X030139*
X030172Y045933*
Y046064*
X030139Y046097*
X030073*
X030040Y046064*
Y046031*
X030073Y045998*
X030172*
X028800Y044250D02*
Y044447D01*
X028898*
X028931Y044414*
Y044348*
X028898Y044316*
X028800*
X028866D02*
X028931Y044250D01*
X029128D02*
X028997D01*
X029128Y044381*
Y044414*
X029095Y044447*
X029030*
X028997Y044414*
X029194D02*
X029226Y044447D01*
X029292*
X029325Y044414*
Y044283*
X029292Y044250*
X029226*
X029194Y044283*
Y044414*
X029390D02*
X029423Y044447D01*
X029489*
X029522Y044414*
Y044381*
X029489Y044348*
X029522Y044316*
Y044283*
X029489Y044250*
X029423*
X029390Y044283*
Y044316*
X029423Y044348*
X029390Y044381*
Y044414*
X029423Y044348D02*
X029489D01*
X028350Y045900D02*
Y046097D01*
X028448*
X028481Y046064*
Y045998*
X028448Y045966*
X028350*
X028416D02*
X028481Y045900D01*
X028678D02*
X028547D01*
X028678Y046031*
Y046064*
X028645Y046097*
X028580*
X028547Y046064*
X028744D02*
X028776Y046097D01*
X028842*
X028875Y046064*
Y045933*
X028842Y045900*
X028776*
X028744Y045933*
Y046064*
X028940Y046097D02*
X029072D01*
Y046064*
X028940Y045933*
Y045900*
X028500Y041900D02*
Y042050D01*
X028575*
X028600Y042025*
Y041975*
X028575Y041950*
X028500*
X028550D02*
X028600Y041900D01*
X028750D02*
X028650D01*
X028750Y042000*
Y042025*
X028725Y042050*
X028675*
X028650Y042025*
X028800D02*
X028825Y042050D01*
X028875*
X028900Y042025*
Y041925*
X028875Y041900*
X028825*
X028800Y041925*
Y042025*
X029050Y042050D02*
X029000Y042025D01*
X028950Y041975*
Y041925*
X028975Y041900*
X029025*
X029050Y041925*
Y041950*
X029025Y041975*
X028950*
X028800Y049850D02*
Y050047D01*
X028898*
X028931Y050014*
Y049948*
X028898Y049916*
X028800*
X028866D02*
X028931Y049850D01*
X029128D02*
X028997D01*
X029128Y049981*
Y050014*
X029095Y050047*
X029030*
X028997Y050014*
X029194D02*
X029226Y050047D01*
X029292*
X029325Y050014*
Y049883*
X029292Y049850*
X029226*
X029194Y049883*
Y050014*
X029522Y050047D02*
X029390D01*
Y049948*
X029456Y049981*
X029489*
X029522Y049948*
Y049883*
X029489Y049850*
X029423*
X029390Y049883*
X029050Y040400D02*
Y040597D01*
X029148*
X029181Y040564*
Y040498*
X029148Y040466*
X029050*
X029116D02*
X029181Y040400D01*
X029378D02*
X029247D01*
X029378Y040531*
Y040564*
X029345Y040597*
X029280*
X029247Y040564*
X029444D02*
X029476Y040597D01*
X029542*
X029575Y040564*
Y040433*
X029542Y040400*
X029476*
X029444Y040433*
Y040564*
X029739Y040400D02*
Y040597D01*
X029640Y040498*
X029772*
X029700Y041900D02*
Y042050D01*
X029775*
X029800Y042025*
Y041975*
X029775Y041950*
X029700*
X029750D02*
X029800Y041900D01*
X029950D02*
X029850D01*
X029950Y042000*
Y042025*
X029925Y042050*
X029875*
X029850Y042025*
X030000D02*
X030025Y042050D01*
X030075*
X030100Y042025*
Y041925*
X030075Y041900*
X030025*
X030000Y041925*
Y042025*
X030150D02*
X030175Y042050D01*
X030225*
X030250Y042025*
Y042000*
X030225Y041975*
X030200*
X030225*
X030250Y041950*
Y041925*
X030225Y041900*
X030175*
X030150Y041925*
X027150Y051650D02*
Y051847D01*
X027248*
X027281Y051814*
Y051748*
X027248Y051716*
X027150*
X027216D02*
X027281Y051650D01*
X027478D02*
X027347D01*
X027478Y051781*
Y051814*
X027445Y051847*
X027380*
X027347Y051814*
X027544D02*
X027576Y051847D01*
X027642*
X027675Y051814*
Y051683*
X027642Y051650*
X027576*
X027544Y051683*
Y051814*
X027872Y051650D02*
X027740D01*
X027872Y051781*
Y051814*
X027839Y051847*
X027773*
X027740Y051814*
X030200Y040400D02*
Y040597D01*
X030298*
X030331Y040564*
Y040498*
X030298Y040466*
X030200*
X030266D02*
X030331Y040400D01*
X030528D02*
X030397D01*
X030528Y040531*
Y040564*
X030495Y040597*
X030430*
X030397Y040564*
X030594D02*
X030626Y040597D01*
X030692*
X030725Y040564*
Y040433*
X030692Y040400*
X030626*
X030594Y040433*
Y040564*
X030790Y040400D02*
X030856D01*
X030823*
Y040597*
X030790Y040564*
X025950Y049850D02*
X025753D01*
Y049948*
X025786Y049981*
X025852*
X025884Y049948*
Y049850*
Y049916D02*
X025950Y049981D01*
Y050178D02*
Y050047D01*
X025819Y050178*
X025786*
X025753Y050145*
Y050080*
X025786Y050047*
Y050244D02*
X025753Y050276D01*
Y050342*
X025786Y050375*
X025917*
X025950Y050342*
Y050276*
X025917Y050244*
X025786*
Y050440D02*
X025753Y050473D01*
Y050539*
X025786Y050572*
X025917*
X025950Y050539*
Y050473*
X025917Y050440*
X025786*
X034630Y045871D02*
Y046068D01*
X034728*
X034761Y046035*
Y045970*
X034728Y045937*
X034630*
X034695D02*
X034761Y045871D01*
X034827D02*
X034892D01*
X034859*
Y046068*
X034827Y046035*
X034991Y045871D02*
X035056D01*
X035023*
Y046068*
X034991Y046035*
X035155Y046068D02*
X035286D01*
Y046035*
X035155Y045904*
Y045871*
X039950Y054200D02*
Y054397D01*
X040048*
X040081Y054364*
Y054298*
X040048Y054266*
X039950*
X040016D02*
X040081Y054200D01*
X040147D02*
X040212D01*
X040180*
Y054397*
X040147Y054364*
X040311Y054200D02*
X040376D01*
X040344*
Y054397*
X040311Y054364*
X040606Y054397D02*
X040540Y054364D01*
X040475Y054298*
Y054233*
X040508Y054200*
X040573*
X040606Y054233*
Y054266*
X040573Y054298*
X040475*
X033100Y055300D02*
X032903D01*
Y055398*
X032936Y055431*
X033002*
X033034Y055398*
Y055300*
Y055366D02*
X033100Y055431D01*
Y055497D02*
Y055562D01*
Y055530*
X032903*
X032936Y055497*
X033100Y055661D02*
Y055726D01*
Y055694*
X032903*
X032936Y055661*
X032903Y055956D02*
Y055825D01*
X033002*
X032969Y055890*
Y055923*
X033002Y055956*
X033067*
X033100Y055923*
Y055858*
X033067Y055825*
X026950Y062750D02*
X026753D01*
Y062848*
X026786Y062881*
X026852*
X026884Y062848*
Y062750*
Y062816D02*
X026950Y062881D01*
Y062947D02*
Y063012D01*
Y062980*
X026753*
X026786Y062947*
X026950Y063111D02*
Y063176D01*
Y063144*
X026753*
X026786Y063111*
X026950Y063373D02*
X026753D01*
X026852Y063275*
Y063406*
X028300Y039150D02*
Y039347D01*
X028398*
X028431Y039314*
Y039248*
X028398Y039216*
X028300*
X028366D02*
X028431Y039150D01*
X028497D02*
X028562D01*
X028530*
Y039347*
X028497Y039314*
X028661Y039150D02*
X028726D01*
X028694*
Y039347*
X028661Y039314*
X028825D02*
X028858Y039347D01*
X028923*
X028956Y039314*
Y039281*
X028923Y039248*
X028890*
X028923*
X028956Y039216*
Y039183*
X028923Y039150*
X028858*
X028825Y039183*
X026900Y055300D02*
Y055497D01*
X026998*
X027031Y055464*
Y055398*
X026998Y055366*
X026900*
X026966D02*
X027031Y055300D01*
X027097D02*
X027162D01*
X027130*
Y055497*
X027097Y055464*
X027261Y055300D02*
X027326D01*
X027294*
Y055497*
X027261Y055464*
X027556Y055300D02*
X027425D01*
X027556Y055431*
Y055464*
X027523Y055497*
X027458*
X027425Y055464*
X026650Y052950D02*
X026453D01*
Y053048*
X026486Y053081*
X026552*
X026584Y053048*
Y052950*
Y053016D02*
X026650Y053081D01*
Y053147D02*
Y053212D01*
Y053180*
X026453*
X026486Y053147*
X026650Y053311D02*
Y053376D01*
Y053344*
X026453*
X026486Y053311*
X026650Y053475D02*
Y053540D01*
Y053508*
X026453*
X026486Y053475*
X027000Y061450D02*
X026803D01*
Y061548*
X026836Y061581*
X026902*
X026934Y061548*
Y061450*
Y061516D02*
X027000Y061581D01*
Y061647D02*
Y061712D01*
Y061680*
X026803*
X026836Y061647*
X027000Y061811D02*
Y061876D01*
Y061844*
X026803*
X026836Y061811*
Y061975D02*
X026803Y062008D01*
Y062073*
X026836Y062106*
X026967*
X027000Y062073*
Y062008*
X026967Y061975*
X026836*
X028250Y037750D02*
Y037947D01*
X028348*
X028381Y037914*
Y037848*
X028348Y037816*
X028250*
X028316D02*
X028381Y037750D01*
X028447D02*
X028512D01*
X028480*
Y037947*
X028447Y037914*
X028611D02*
X028644Y037947D01*
X028709*
X028742Y037914*
Y037783*
X028709Y037750*
X028644*
X028611Y037783*
Y037914*
X028808Y037783D02*
X028840Y037750D01*
X028906*
X028939Y037783*
Y037914*
X028906Y037947*
X028840*
X028808Y037914*
Y037881*
X028840Y037848*
X028939*
X039900Y056300D02*
Y056497D01*
X039998*
X040031Y056464*
Y056398*
X039998Y056366*
X039900*
X039966D02*
X040031Y056300D01*
X040097D02*
X040162D01*
X040130*
Y056497*
X040097Y056464*
X040261D02*
X040294Y056497D01*
X040359*
X040392Y056464*
Y056333*
X040359Y056300*
X040294*
X040261Y056333*
Y056464*
X040458D02*
X040490Y056497D01*
X040556*
X040589Y056464*
Y056431*
X040556Y056398*
X040589Y056366*
Y056333*
X040556Y056300*
X040490*
X040458Y056333*
Y056366*
X040490Y056398*
X040458Y056431*
Y056464*
X040490Y056398D02*
X040556D01*
X037921Y054250D02*
Y054447D01*
X038020*
X038052Y054414*
Y054348*
X038020Y054316*
X037921*
X037987D02*
X038052Y054250D01*
X038118D02*
X038184D01*
X038151*
Y054447*
X038118Y054414*
X038282D02*
X038315Y054447D01*
X038380*
X038413Y054414*
Y054283*
X038380Y054250*
X038315*
X038282Y054283*
Y054414*
X038479Y054447D02*
X038610D01*
Y054414*
X038479Y054283*
Y054250*
X038950Y042300D02*
Y042497D01*
X039048*
X039081Y042464*
Y042398*
X039048Y042366*
X038950*
X039016D02*
X039081Y042300D01*
X039147D02*
X039212D01*
X039180*
Y042497*
X039147Y042464*
X039311D02*
X039344Y042497D01*
X039409*
X039442Y042464*
Y042333*
X039409Y042300*
X039344*
X039311Y042333*
Y042464*
X039639Y042497D02*
X039573Y042464D01*
X039508Y042398*
Y042333*
X039540Y042300*
X039606*
X039639Y042333*
Y042366*
X039606Y042398*
X039508*
X034800Y050460D02*
Y050657D01*
X034898*
X034931Y050624*
Y050558*
X034898Y050526*
X034800*
X034866D02*
X034931Y050460D01*
X034997D02*
X035062D01*
X035030*
Y050657*
X034997Y050624*
X035161D02*
X035194Y050657D01*
X035259*
X035292Y050624*
Y050493*
X035259Y050460*
X035194*
X035161Y050493*
Y050624*
X035456Y050460D02*
Y050657D01*
X035358Y050558*
X035489*
X038950Y044100D02*
Y044297D01*
X039048*
X039081Y044264*
Y044198*
X039048Y044166*
X038950*
X039016D02*
X039081Y044100D01*
X039147D02*
X039212D01*
X039180*
Y044297*
X039147Y044264*
X039311D02*
X039344Y044297D01*
X039409*
X039442Y044264*
Y044133*
X039409Y044100*
X039344*
X039311Y044133*
Y044264*
X039508D02*
X039540Y044297D01*
X039606*
X039639Y044264*
Y044231*
X039606Y044198*
X039573*
X039606*
X039639Y044166*
Y044133*
X039606Y044100*
X039540*
X039508Y044133*
X038950Y043500D02*
Y043697D01*
X039048*
X039081Y043664*
Y043598*
X039048Y043566*
X038950*
X039016D02*
X039081Y043500D01*
X039147D02*
X039212D01*
X039180*
Y043697*
X039147Y043664*
X039311D02*
X039344Y043697D01*
X039409*
X039442Y043664*
Y043533*
X039409Y043500*
X039344*
X039311Y043533*
Y043664*
X039639Y043500D02*
X039508D01*
X039639Y043631*
Y043664*
X039606Y043697*
X039540*
X039508Y043664*
X024600Y039400D02*
Y039597D01*
X024698*
X024731Y039564*
Y039498*
X024698Y039466*
X024600*
X024666D02*
X024731Y039400D01*
X024797D02*
X024862D01*
X024830*
Y039597*
X024797Y039564*
X024961D02*
X024994Y039597D01*
X025059*
X025092Y039564*
Y039433*
X025059Y039400*
X024994*
X024961Y039433*
Y039564*
X025289Y039597D02*
X025158D01*
Y039498*
X025223Y039531*
X025256*
X025289Y039498*
Y039433*
X025256Y039400*
X025190*
X025158Y039433*
X038950Y042850D02*
Y043047D01*
X039048*
X039081Y043014*
Y042948*
X039048Y042916*
X038950*
X039016D02*
X039081Y042850D01*
X039147D02*
X039212D01*
X039180*
Y043047*
X039147Y043014*
X039311D02*
X039344Y043047D01*
X039409*
X039442Y043014*
Y042883*
X039409Y042850*
X039344*
X039311Y042883*
Y043014*
X039508D02*
X039540Y043047D01*
X039606*
X039639Y043014*
Y042883*
X039606Y042850*
X039540*
X039508Y042883*
Y043014*
X031781Y039483D02*
Y039614D01*
X031748Y039647*
X031683*
X031650Y039614*
Y039483*
X031683Y039450*
X031748*
X031716Y039516D02*
X031781Y039450D01*
X031748D02*
X031781Y039483D01*
X031978Y039450D02*
X031847D01*
X031978Y039581*
Y039614*
X031945Y039647*
X031880*
X031847Y039614*
X032044D02*
X032076Y039647D01*
X032142*
X032175Y039614*
Y039483*
X032142Y039450*
X032076*
X032044Y039483*
Y039614*
X032240D02*
X032273Y039647D01*
X032339*
X032372Y039614*
Y039581*
X032339Y039548*
X032372Y039516*
Y039483*
X032339Y039450*
X032273*
X032240Y039483*
Y039516*
X032273Y039548*
X032240Y039581*
Y039614*
X032273Y039548D02*
X032339D01*
X021631Y038683D02*
Y038814D01*
X021598Y038847*
X021533*
X021500Y038814*
Y038683*
X021533Y038650*
X021598*
X021566Y038716D02*
X021631Y038650D01*
X021598D02*
X021631Y038683D01*
X021828Y038650D02*
X021697D01*
X021828Y038781*
Y038814*
X021795Y038847*
X021730*
X021697Y038814*
X021894D02*
X021926Y038847D01*
X021992*
X022025Y038814*
Y038683*
X021992Y038650*
X021926*
X021894Y038683*
Y038814*
X022090Y038847D02*
X022222D01*
Y038814*
X022090Y038683*
Y038650*
X015981Y043383D02*
Y043514D01*
X015948Y043547*
X015883*
X015850Y043514*
Y043383*
X015883Y043350*
X015948*
X015916Y043416D02*
X015981Y043350D01*
X015948D02*
X015981Y043383D01*
X016178Y043350D02*
X016047D01*
X016178Y043481*
Y043514*
X016145Y043547*
X016080*
X016047Y043514*
X016244Y043350D02*
X016309D01*
X016276*
Y043547*
X016244Y043514*
X016408D02*
X016440Y043547D01*
X016506*
X016539Y043514*
Y043383*
X016506Y043350*
X016440*
X016408Y043383*
Y043514*
X021631Y036983D02*
Y037114D01*
X021598Y037147*
X021533*
X021500Y037114*
Y036983*
X021533Y036950*
X021598*
X021566Y037016D02*
X021631Y036950D01*
X021598D02*
X021631Y036983D01*
X021828Y036950D02*
X021697D01*
X021828Y037081*
Y037114*
X021795Y037147*
X021730*
X021697Y037114*
X021894D02*
X021926Y037147D01*
X021992*
X022025Y037114*
Y036983*
X021992Y036950*
X021926*
X021894Y036983*
Y037114*
X022222Y037147D02*
X022156Y037114D01*
X022090Y037048*
Y036983*
X022123Y036950*
X022189*
X022222Y036983*
Y037016*
X022189Y037048*
X022090*
X031831Y037933D02*
Y038064D01*
X031798Y038097*
X031733*
X031700Y038064*
Y037933*
X031733Y037900*
X031798*
X031766Y037966D02*
X031831Y037900D01*
X031798D02*
X031831Y037933D01*
X032028Y037900D02*
X031897D01*
X032028Y038031*
Y038064*
X031995Y038097*
X031930*
X031897Y038064*
X032094D02*
X032126Y038097D01*
X032192*
X032225Y038064*
Y037933*
X032192Y037900*
X032126*
X032094Y037933*
Y038064*
X032389Y037900D02*
Y038097D01*
X032290Y037998*
X032422*
X016161Y044933D02*
Y045064D01*
X016128Y045097*
X016063*
X016030Y045064*
Y044933*
X016063Y044900*
X016128*
X016096Y044966D02*
X016161Y044900D01*
X016128D02*
X016161Y044933D01*
X016358Y044900D02*
X016227D01*
X016358Y045031*
Y045064*
X016325Y045097*
X016260*
X016227Y045064*
X016424D02*
X016456Y045097D01*
X016522*
X016555Y045064*
Y044933*
X016522Y044900*
X016456*
X016424Y044933*
Y045064*
X016620Y044933D02*
X016653Y044900D01*
X016719*
X016752Y044933*
Y045064*
X016719Y045097*
X016653*
X016620Y045064*
Y045031*
X016653Y044998*
X016752*
X016161Y046483D02*
Y046614D01*
X016128Y046647*
X016063*
X016030Y046614*
Y046483*
X016063Y046450*
X016128*
X016096Y046516D02*
X016161Y046450D01*
X016128D02*
X016161Y046483D01*
X016358Y046450D02*
X016227D01*
X016358Y046581*
Y046614*
X016325Y046647*
X016260*
X016227Y046614*
X016424D02*
X016456Y046647D01*
X016522*
X016555Y046614*
Y046483*
X016522Y046450*
X016456*
X016424Y046483*
Y046614*
X016752Y046647D02*
X016620D01*
Y046548*
X016686Y046581*
X016719*
X016752Y046548*
Y046483*
X016719Y046450*
X016653*
X016620Y046483*
X016161Y048083D02*
Y048214D01*
X016128Y048247*
X016063*
X016030Y048214*
Y048083*
X016063Y048050*
X016128*
X016096Y048116D02*
X016161Y048050D01*
X016128D02*
X016161Y048083D01*
X016358Y048050D02*
X016227D01*
X016358Y048181*
Y048214*
X016325Y048247*
X016260*
X016227Y048214*
X016424D02*
X016456Y048247D01*
X016522*
X016555Y048214*
Y048083*
X016522Y048050*
X016456*
X016424Y048083*
Y048214*
X016620D02*
X016653Y048247D01*
X016719*
X016752Y048214*
Y048181*
X016719Y048148*
X016686*
X016719*
X016752Y048116*
Y048083*
X016719Y048050*
X016653*
X016620Y048083*
X016161Y049583D02*
Y049714D01*
X016128Y049747*
X016063*
X016030Y049714*
Y049583*
X016063Y049550*
X016128*
X016096Y049616D02*
X016161Y049550D01*
X016128D02*
X016161Y049583D01*
X016358Y049550D02*
X016227D01*
X016358Y049681*
Y049714*
X016325Y049747*
X016260*
X016227Y049714*
X016424D02*
X016456Y049747D01*
X016522*
X016555Y049714*
Y049583*
X016522Y049550*
X016456*
X016424Y049583*
Y049714*
X016752Y049550D02*
X016620D01*
X016752Y049681*
Y049714*
X016719Y049747*
X016653*
X016620Y049714*
X015331Y049983D02*
Y050114D01*
X015298Y050147*
X015233*
X015200Y050114*
Y049983*
X015233Y049950*
X015298*
X015266Y050016D02*
X015331Y049950D01*
X015298D02*
X015331Y049983D01*
X015528Y049950D02*
X015397D01*
X015528Y050081*
Y050114*
X015495Y050147*
X015430*
X015397Y050114*
X015594D02*
X015626Y050147D01*
X015692*
X015725Y050114*
Y049983*
X015692Y049950*
X015626*
X015594Y049983*
Y050114*
X015790Y049950D02*
X015856D01*
X015823*
Y050147*
X015790Y050114*
X031681Y049633D02*
Y049764D01*
X031648Y049797*
X031583*
X031550Y049764*
Y049633*
X031583Y049600*
X031648*
X031616Y049666D02*
X031681Y049600D01*
X031648D02*
X031681Y049633D01*
X031878Y049600D02*
X031747D01*
X031878Y049731*
Y049764*
X031845Y049797*
X031780*
X031747Y049764*
X031944D02*
X031976Y049797D01*
X032042*
X032075Y049764*
Y049633*
X032042Y049600*
X031976*
X031944Y049633*
Y049764*
X032140D02*
X032173Y049797D01*
X032239*
X032272Y049764*
Y049633*
X032239Y049600*
X032173*
X032140Y049633*
Y049764*
X040081Y055183D02*
Y055314D01*
X040048Y055347*
X039983*
X039950Y055314*
Y055183*
X039983Y055150*
X040048*
X040016Y055216D02*
X040081Y055150D01*
X040048D02*
X040081Y055183D01*
X040147Y055150D02*
X040212D01*
X040180*
Y055347*
X040147Y055314*
X040311D02*
X040344Y055347D01*
X040409*
X040442Y055314*
Y055183*
X040409Y055150*
X040344*
X040311Y055183*
Y055314*
X040508D02*
X040540Y055347D01*
X040606*
X040639Y055314*
Y055183*
X040606Y055150*
X040540*
X040508Y055183*
Y055314*
X017700Y045400D02*
Y045597D01*
X017798*
X017831Y045564*
Y045498*
X017798Y045466*
X017700*
X018028Y045400D02*
X017897D01*
X018028Y045531*
Y045564*
X017995Y045597*
X017930*
X017897Y045564*
X018094D02*
X018126Y045597D01*
X018192*
X018225Y045564*
Y045433*
X018192Y045400*
X018126*
X018094Y045433*
Y045564*
X018290Y045400D02*
X018356D01*
X018323*
Y045597*
X018290Y045564*
X018580Y044300D02*
Y044497D01*
X018678*
X018711Y044464*
Y044398*
X018678Y044366*
X018580*
X018908Y044300D02*
X018776D01*
X018908Y044431*
Y044464*
X018875Y044497*
X018809*
X018776Y044464*
X018973D02*
X019006Y044497D01*
X019071*
X019104Y044464*
Y044333*
X019071Y044300*
X019006*
X018973Y044333*
Y044464*
X019170D02*
X019203Y044497D01*
X019268*
X019301Y044464*
Y044333*
X019268Y044300*
X019203*
X019170Y044333*
Y044464*
X030750Y052900D02*
Y053097D01*
X030848*
X030881Y053064*
Y052998*
X030848Y052966*
X030750*
X030947Y052900D02*
X031012D01*
X030980*
Y053097*
X030947Y053064*
X031111D02*
X031144Y053097D01*
X031209*
X031242Y053064*
Y052933*
X031209Y052900*
X031144*
X031111Y052933*
Y053064*
X031308D02*
X031340Y053097D01*
X031406*
X031439Y053064*
Y053031*
X031406Y052998*
X031373*
X031406*
X031439Y052966*
Y052933*
X031406Y052900*
X031340*
X031308Y052933*
X027200Y056700D02*
X027003D01*
Y056798*
X027036Y056831*
X027102*
X027134Y056798*
Y056700*
X027200Y056897D02*
Y056962D01*
Y056930*
X027003*
X027036Y056897*
Y057061D02*
X027003Y057094D01*
Y057159*
X027036Y057192*
X027167*
X027200Y057159*
Y057094*
X027167Y057061*
X027036*
X027200Y057389D02*
Y057258D01*
X027069Y057389*
X027036*
X027003Y057356*
Y057290*
X027036Y057258*
X027950Y061350D02*
Y061547D01*
X028048*
X028081Y061514*
Y061448*
X028048Y061416*
X027950*
X028147Y061350D02*
X028212D01*
X028180*
Y061547*
X028147Y061514*
X028311D02*
X028344Y061547D01*
X028409*
X028442Y061514*
Y061383*
X028409Y061350*
X028344*
X028311Y061383*
Y061514*
X028508D02*
X028540Y061547D01*
X028606*
X028639Y061514*
Y061383*
X028606Y061350*
X028540*
X028508Y061383*
Y061514*
X027900Y031347D02*
Y031150D01*
X028031*
X028097Y031314D02*
X028130Y031347D01*
X028195*
X028228Y031314*
Y031281*
X028195Y031248*
X028162*
X028195*
X028228Y031216*
Y031183*
X028195Y031150*
X028130*
X028097Y031183*
X028294Y031314D02*
X028326Y031347D01*
X028392*
X028425Y031314*
Y031183*
X028392Y031150*
X028326*
X028294Y031183*
Y031314*
X028622Y031150D02*
X028490D01*
X028622Y031281*
Y031314*
X028589Y031347*
X028523*
X028490Y031314*
X025450Y031297D02*
Y031100D01*
X025581*
X025647Y031264D02*
X025680Y031297D01*
X025745*
X025778Y031264*
Y031231*
X025745Y031198*
X025712*
X025745*
X025778Y031166*
Y031133*
X025745Y031100*
X025680*
X025647Y031133*
X025844Y031264D02*
X025876Y031297D01*
X025942*
X025975Y031264*
Y031133*
X025942Y031100*
X025876*
X025844Y031133*
Y031264*
X026040Y031100D02*
X026106D01*
X026073*
Y031297*
X026040Y031264*
X023350Y035347D02*
Y035150D01*
X023481*
X023547Y035314D02*
X023580Y035347D01*
X023645*
X023678Y035314*
Y035281*
X023645Y035248*
X023612*
X023645*
X023678Y035216*
Y035183*
X023645Y035150*
X023580*
X023547Y035183*
X023744Y035314D02*
X023776Y035347D01*
X023842*
X023875Y035314*
Y035183*
X023842Y035150*
X023776*
X023744Y035183*
Y035314*
X023940D02*
X023973Y035347D01*
X024039*
X024072Y035314*
Y035183*
X024039Y035150*
X023973*
X023940Y035183*
Y035314*
X025500Y059447D02*
Y059250D01*
X025631*
X025828D02*
X025697D01*
X025828Y059381*
Y059414*
X025795Y059447*
X025730*
X025697Y059414*
X025894D02*
X025926Y059447D01*
X025992*
X026025Y059414*
Y059283*
X025992Y059250*
X025926*
X025894Y059283*
Y059414*
X026090D02*
X026123Y059447D01*
X026189*
X026222Y059414*
Y059283*
X026189Y059250*
X026123*
X026090Y059283*
Y059414*
X032453Y060300D02*
X032650D01*
Y060431*
Y060497D02*
Y060562D01*
Y060530*
X032453*
X032486Y060497*
Y060661D02*
X032453Y060694D01*
Y060759*
X032486Y060792*
X032617*
X032650Y060759*
Y060694*
X032617Y060661*
X032486*
Y060858D02*
X032453Y060890D01*
Y060956*
X032486Y060989*
X032617*
X032650Y060956*
Y060890*
X032617Y060858*
X032486*
X039431Y064147D02*
X039300D01*
Y064048*
X039366*
X039300*
Y063950*
X039497Y064147D02*
Y063950D01*
X039595*
X039628Y063983*
Y064114*
X039595Y064147*
X039497*
X039825Y063950D02*
X039694D01*
X039825Y064081*
Y064114*
X039792Y064147*
X039726*
X039694Y064114*
X039890D02*
X039923Y064147D01*
X039989*
X040022Y064114*
Y063983*
X039989Y063950*
X039923*
X039890Y063983*
Y064114*
X040087Y063950D02*
X040153D01*
X040120*
Y064147*
X040087Y064114*
X014081Y013547D02*
X013950D01*
Y013448*
X014016*
X013950*
Y013350*
X014147Y013547D02*
Y013350D01*
X014245*
X014278Y013383*
Y013514*
X014245Y013547*
X014147*
X014475Y013350D02*
X014344D01*
X014475Y013481*
Y013514*
X014442Y013547*
X014376*
X014344Y013514*
X014540D02*
X014573Y013547D01*
X014639*
X014672Y013514*
Y013383*
X014639Y013350*
X014573*
X014540Y013383*
Y013514*
X014737D02*
X014770Y013547D01*
X014836*
X014868Y013514*
Y013383*
X014836Y013350*
X014770*
X014737Y013383*
Y013514*
X025481Y060247D02*
X025350D01*
Y060148*
X025416*
X025350*
Y060050*
X025547Y060247D02*
Y060050D01*
X025645*
X025678Y060083*
Y060214*
X025645Y060247*
X025547*
X025744Y060050D02*
X025809D01*
X025776*
Y060247*
X025744Y060214*
X025908D02*
X025940Y060247D01*
X026006*
X026039Y060214*
Y060083*
X026006Y060050*
X025940*
X025908Y060083*
Y060214*
X026104D02*
X026137Y060247D01*
X026203*
X026236Y060214*
Y060083*
X026203Y060050*
X026137*
X026104Y060083*
Y060214*
X018700Y057897D02*
Y057700D01*
X018798*
X018831Y057733*
Y057864*
X018798Y057897*
X018700*
X019028Y057700D02*
X018897D01*
X019028Y057831*
Y057864*
X018995Y057897*
X018930*
X018897Y057864*
X019094D02*
X019126Y057897D01*
X019192*
X019225Y057864*
Y057733*
X019192Y057700*
X019126*
X019094Y057733*
Y057864*
X019290Y057733D02*
X019323Y057700D01*
X019389*
X019422Y057733*
Y057864*
X019389Y057897*
X019323*
X019290Y057864*
Y057831*
X019323Y057798*
X019422*
X031850Y048147D02*
Y047950D01*
X031948*
X031981Y047983*
Y048114*
X031948Y048147*
X031850*
X032178Y047950D02*
X032047D01*
X032178Y048081*
Y048114*
X032145Y048147*
X032080*
X032047Y048114*
X032244D02*
X032276Y048147D01*
X032342*
X032375Y048114*
Y047983*
X032342Y047950*
X032276*
X032244Y047983*
Y048114*
X032440D02*
X032473Y048147D01*
X032539*
X032572Y048114*
Y048081*
X032539Y048048*
X032572Y048016*
Y047983*
X032539Y047950*
X032473*
X032440Y047983*
Y048016*
X032473Y048048*
X032440Y048081*
Y048114*
X032473Y048048D02*
X032539D01*
X032750Y046497D02*
Y046300D01*
X032848*
X032881Y046333*
Y046464*
X032848Y046497*
X032750*
X033078Y046300D02*
X032947D01*
X033078Y046431*
Y046464*
X033045Y046497*
X032980*
X032947Y046464*
X033144D02*
X033176Y046497D01*
X033242*
X033275Y046464*
Y046333*
X033242Y046300*
X033176*
X033144Y046333*
Y046464*
X033340Y046497D02*
X033472D01*
Y046464*
X033340Y046333*
Y046300*
X034100Y046447D02*
Y046250D01*
X034198*
X034231Y046283*
Y046414*
X034198Y046447*
X034100*
X034428Y046250D02*
X034297D01*
X034428Y046381*
Y046414*
X034395Y046447*
X034330*
X034297Y046414*
X034494D02*
X034526Y046447D01*
X034592*
X034625Y046414*
Y046283*
X034592Y046250*
X034526*
X034494Y046283*
Y046414*
X034822Y046447D02*
X034756Y046414D01*
X034690Y046348*
Y046283*
X034723Y046250*
X034789*
X034822Y046283*
Y046316*
X034789Y046348*
X034690*
X033300Y046147D02*
Y045950D01*
X033398*
X033431Y045983*
Y046114*
X033398Y046147*
X033300*
X033628Y045950D02*
X033497D01*
X033628Y046081*
Y046114*
X033595Y046147*
X033530*
X033497Y046114*
X033694D02*
X033726Y046147D01*
X033792*
X033825Y046114*
Y045983*
X033792Y045950*
X033726*
X033694Y045983*
Y046114*
X034022Y046147D02*
X033890D01*
Y046048*
X033956Y046081*
X033989*
X034022Y046048*
Y045983*
X033989Y045950*
X033923*
X033890Y045983*
X026650Y049197D02*
Y049000D01*
X026748*
X026781Y049033*
Y049164*
X026748Y049197*
X026650*
X026978Y049000D02*
X026847D01*
X026978Y049131*
Y049164*
X026945Y049197*
X026880*
X026847Y049164*
X027044D02*
X027076Y049197D01*
X027142*
X027175Y049164*
Y049033*
X027142Y049000*
X027076*
X027044Y049033*
Y049164*
X027339Y049000D02*
Y049197D01*
X027240Y049098*
X027372*
X029250Y048397D02*
Y048200D01*
X029348*
X029381Y048233*
Y048364*
X029348Y048397*
X029250*
X029578Y048200D02*
X029447D01*
X029578Y048331*
Y048364*
X029545Y048397*
X029480*
X029447Y048364*
X029644D02*
X029676Y048397D01*
X029742*
X029775Y048364*
Y048233*
X029742Y048200*
X029676*
X029644Y048233*
Y048364*
X029840D02*
X029873Y048397D01*
X029939*
X029972Y048364*
Y048331*
X029939Y048298*
X029906*
X029939*
X029972Y048266*
Y048233*
X029939Y048200*
X029873*
X029840Y048233*
X027950Y048397D02*
Y048200D01*
X028048*
X028081Y048233*
Y048364*
X028048Y048397*
X027950*
X028278Y048200D02*
X028147D01*
X028278Y048331*
Y048364*
X028245Y048397*
X028180*
X028147Y048364*
X028344D02*
X028376Y048397D01*
X028442*
X028475Y048364*
Y048233*
X028442Y048200*
X028376*
X028344Y048233*
Y048364*
X028672Y048200D02*
X028540D01*
X028672Y048331*
Y048364*
X028639Y048397*
X028573*
X028540Y048364*
X025950Y048097D02*
Y047900D01*
X026048*
X026081Y047933*
Y048064*
X026048Y048097*
X025950*
X026278Y047900D02*
X026147D01*
X026278Y048031*
Y048064*
X026245Y048097*
X026180*
X026147Y048064*
X026344D02*
X026376Y048097D01*
X026442*
X026475Y048064*
Y047933*
X026442Y047900*
X026376*
X026344Y047933*
Y048064*
X026540Y047900D02*
X026606D01*
X026573*
Y048097*
X026540Y048064*
X026900Y044397D02*
Y044200D01*
X026998*
X027031Y044233*
Y044364*
X026998Y044397*
X026900*
X027228Y044200D02*
X027097D01*
X027228Y044331*
Y044364*
X027195Y044397*
X027130*
X027097Y044364*
X027294D02*
X027326Y044397D01*
X027392*
X027425Y044364*
Y044233*
X027392Y044200*
X027326*
X027294Y044233*
Y044364*
X027490D02*
X027523Y044397D01*
X027589*
X027622Y044364*
Y044233*
X027589Y044200*
X027523*
X027490Y044233*
Y044364*
X039150Y052997D02*
Y052800D01*
X039248*
X039281Y052833*
Y052964*
X039248Y052997*
X039150*
X039347Y052800D02*
X039412D01*
X039380*
Y052997*
X039347Y052964*
X039511D02*
X039544Y052997D01*
X039609*
X039642Y052964*
Y052833*
X039609Y052800*
X039544*
X039511Y052833*
Y052964*
X039708Y052997D02*
X039839D01*
Y052964*
X039708Y052833*
Y052800*
X040050Y050997D02*
Y050800D01*
X040148*
X040181Y050833*
Y050964*
X040148Y050997*
X040050*
X040247Y050800D02*
X040312D01*
X040280*
Y050997*
X040247Y050964*
X040411D02*
X040444Y050997D01*
X040509*
X040542Y050964*
Y050833*
X040509Y050800*
X040444*
X040411Y050833*
Y050964*
X040739Y050997D02*
X040673Y050964D01*
X040608Y050898*
Y050833*
X040640Y050800*
X040706*
X040739Y050833*
Y050866*
X040706Y050898*
X040608*
X035700Y048347D02*
Y048150D01*
X035798*
X035831Y048183*
Y048314*
X035798Y048347*
X035700*
X035897Y048150D02*
X035962D01*
X035930*
Y048347*
X035897Y048314*
X036061D02*
X036094Y048347D01*
X036159*
X036192Y048314*
Y048183*
X036159Y048150*
X036094*
X036061Y048183*
Y048314*
X036258D02*
X036290Y048347D01*
X036356*
X036389Y048314*
Y048281*
X036356Y048248*
X036323*
X036356*
X036389Y048216*
Y048183*
X036356Y048150*
X036290*
X036258Y048183*
X032536Y031981D02*
X032503Y031948D01*
Y031883*
X032536Y031850*
X032667*
X032700Y031883*
Y031948*
X032667Y031981*
X032536Y032047D02*
X032503Y032080D01*
Y032145*
X032536Y032178*
X032569*
X032602Y032145*
Y032112*
Y032145*
X032634Y032178*
X032667*
X032700Y032145*
Y032080*
X032667Y032047*
X032700Y032244D02*
Y032309D01*
Y032276*
X032503*
X032536Y032244*
X032700Y032506D02*
X032503D01*
X032602Y032408*
Y032539*
X032536Y030581D02*
X032503Y030548D01*
Y030483*
X032536Y030450*
X032667*
X032700Y030483*
Y030548*
X032667Y030581*
X032536Y030647D02*
X032503Y030680D01*
Y030745*
X032536Y030778*
X032569*
X032602Y030745*
Y030712*
Y030745*
X032634Y030778*
X032667*
X032700Y030745*
Y030680*
X032667Y030647*
X032700Y030844D02*
Y030909D01*
Y030876*
X032503*
X032536Y030844*
Y031008D02*
X032503Y031040D01*
Y031106*
X032536Y031139*
X032569*
X032602Y031106*
Y031073*
Y031106*
X032634Y031139*
X032667*
X032700Y031106*
Y031040*
X032667Y031008*
X029186Y029081D02*
X029153Y029048D01*
Y028983*
X029186Y028950*
X029317*
X029350Y028983*
Y029048*
X029317Y029081*
X029186Y029147D02*
X029153Y029180D01*
Y029245*
X029186Y029278*
X029219*
X029252Y029245*
Y029212*
Y029245*
X029284Y029278*
X029317*
X029350Y029245*
Y029180*
X029317Y029147*
X029350Y029344D02*
Y029409D01*
Y029376*
X029153*
X029186Y029344*
X029350Y029639D02*
Y029508D01*
X029219Y029639*
X029186*
X029153Y029606*
Y029540*
X029186Y029508*
X027361Y027914D02*
X027328Y027947D01*
X027263*
X027230Y027914*
Y027783*
X027263Y027750*
X027328*
X027361Y027783*
X027427Y027914D02*
X027460Y027947D01*
X027525*
X027558Y027914*
Y027881*
X027525Y027848*
X027492*
X027525*
X027558Y027816*
Y027783*
X027525Y027750*
X027460*
X027427Y027783*
X027624Y027750D02*
X027689D01*
X027656*
Y027947*
X027624Y027914*
X027788Y027750D02*
X027853D01*
X027820*
Y027947*
X027788Y027914*
X027361Y028764D02*
X027328Y028797D01*
X027263*
X027230Y028764*
Y028633*
X027263Y028600*
X027328*
X027361Y028633*
X027427Y028764D02*
X027460Y028797D01*
X027525*
X027558Y028764*
Y028731*
X027525Y028698*
X027492*
X027525*
X027558Y028666*
Y028633*
X027525Y028600*
X027460*
X027427Y028633*
X027624Y028764D02*
X027656Y028797D01*
X027722*
X027755Y028764*
Y028633*
X027722Y028600*
X027656*
X027624Y028633*
Y028764*
X027820Y028633D02*
X027853Y028600D01*
X027919*
X027952Y028633*
Y028764*
X027919Y028797*
X027853*
X027820Y028764*
Y028731*
X027853Y028698*
X027952*
X027361Y029564D02*
X027328Y029597D01*
X027263*
X027230Y029564*
Y029433*
X027263Y029400*
X027328*
X027361Y029433*
X027427Y029564D02*
X027460Y029597D01*
X027525*
X027558Y029564*
Y029531*
X027525Y029498*
X027492*
X027525*
X027558Y029466*
Y029433*
X027525Y029400*
X027460*
X027427Y029433*
X027624Y029400D02*
X027689D01*
X027656*
Y029597*
X027624Y029564*
X027788D02*
X027820Y029597D01*
X027886*
X027919Y029564*
Y029433*
X027886Y029400*
X027820*
X027788Y029433*
Y029564*
X025881Y027914D02*
X025848Y027947D01*
X025783*
X025750Y027914*
Y027783*
X025783Y027750*
X025848*
X025881Y027783*
X025947Y027914D02*
X025980Y027947D01*
X026045*
X026078Y027914*
Y027881*
X026045Y027848*
X026012*
X026045*
X026078Y027816*
Y027783*
X026045Y027750*
X025980*
X025947Y027783*
X026144Y027914D02*
X026176Y027947D01*
X026242*
X026275Y027914*
Y027783*
X026242Y027750*
X026176*
X026144Y027783*
Y027914*
X026340D02*
X026373Y027947D01*
X026439*
X026472Y027914*
Y027881*
X026439Y027848*
X026472Y027816*
Y027783*
X026439Y027750*
X026373*
X026340Y027783*
Y027816*
X026373Y027848*
X026340Y027881*
Y027914*
X026373Y027848D02*
X026439D01*
X025931Y028764D02*
X025898Y028797D01*
X025833*
X025800Y028764*
Y028633*
X025833Y028600*
X025898*
X025931Y028633*
X025997Y028764D02*
X026030Y028797D01*
X026095*
X026128Y028764*
Y028731*
X026095Y028698*
X026062*
X026095*
X026128Y028666*
Y028633*
X026095Y028600*
X026030*
X025997Y028633*
X026194Y028764D02*
X026226Y028797D01*
X026292*
X026325Y028764*
Y028633*
X026292Y028600*
X026226*
X026194Y028633*
Y028764*
X026522Y028797D02*
X026456Y028764D01*
X026390Y028698*
Y028633*
X026423Y028600*
X026489*
X026522Y028633*
Y028666*
X026489Y028698*
X026390*
X025931Y029564D02*
X025898Y029597D01*
X025833*
X025800Y029564*
Y029433*
X025833Y029400*
X025898*
X025931Y029433*
X025997Y029564D02*
X026030Y029597D01*
X026095*
X026128Y029564*
Y029531*
X026095Y029498*
X026062*
X026095*
X026128Y029466*
Y029433*
X026095Y029400*
X026030*
X025997Y029433*
X026194Y029564D02*
X026226Y029597D01*
X026292*
X026325Y029564*
Y029433*
X026292Y029400*
X026226*
X026194Y029433*
Y029564*
X026390Y029597D02*
X026522D01*
Y029564*
X026390Y029433*
Y029400*
X024836Y029031D02*
X024803Y028998D01*
Y028933*
X024836Y028900*
X024967*
X025000Y028933*
Y028998*
X024967Y029031*
X024836Y029097D02*
X024803Y029130D01*
Y029195*
X024836Y029228*
X024869*
X024902Y029195*
Y029162*
Y029195*
X024934Y029228*
X024967*
X025000Y029195*
Y029130*
X024967Y029097*
X024836Y029294D02*
X024803Y029326D01*
Y029392*
X024836Y029425*
X024967*
X025000Y029392*
Y029326*
X024967Y029294*
X024836*
X024803Y029622D02*
Y029490D01*
X024902*
X024869Y029556*
Y029589*
X024902Y029622*
X024967*
X025000Y029589*
Y029523*
X024967Y029490*
X023531Y027964D02*
X023498Y027997D01*
X023433*
X023400Y027964*
Y027833*
X023433Y027800*
X023498*
X023531Y027833*
X023597Y027964D02*
X023630Y027997D01*
X023695*
X023728Y027964*
Y027931*
X023695Y027898*
X023662*
X023695*
X023728Y027866*
Y027833*
X023695Y027800*
X023630*
X023597Y027833*
X023794Y027964D02*
X023826Y027997D01*
X023892*
X023925Y027964*
Y027833*
X023892Y027800*
X023826*
X023794Y027833*
Y027964*
X024089Y027800D02*
Y027997D01*
X023990Y027898*
X024122*
X023086Y031381D02*
X023053Y031348D01*
Y031283*
X023086Y031250*
X023217*
X023250Y031283*
Y031348*
X023217Y031381*
X023086Y031447D02*
X023053Y031480D01*
Y031545*
X023086Y031578*
X023119*
X023152Y031545*
Y031512*
Y031545*
X023184Y031578*
X023217*
X023250Y031545*
Y031480*
X023217Y031447*
X023086Y031644D02*
X023053Y031676D01*
Y031742*
X023086Y031775*
X023217*
X023250Y031742*
Y031676*
X023217Y031644*
X023086*
Y031840D02*
X023053Y031873D01*
Y031939*
X023086Y031972*
X023119*
X023152Y031939*
Y031906*
Y031939*
X023184Y031972*
X023217*
X023250Y031939*
Y031873*
X023217Y031840*
X024981Y034664D02*
X024948Y034697D01*
X024883*
X024850Y034664*
Y034533*
X024883Y034500*
X024948*
X024981Y034533*
X025047Y034664D02*
X025080Y034697D01*
X025145*
X025178Y034664*
Y034631*
X025145Y034598*
X025112*
X025145*
X025178Y034566*
Y034533*
X025145Y034500*
X025080*
X025047Y034533*
X025244Y034664D02*
X025276Y034697D01*
X025342*
X025375Y034664*
Y034533*
X025342Y034500*
X025276*
X025244Y034533*
Y034664*
X025572Y034500D02*
X025440D01*
X025572Y034631*
Y034664*
X025539Y034697*
X025473*
X025440Y034664*
X023881Y032814D02*
X023848Y032847D01*
X023783*
X023750Y032814*
Y032683*
X023783Y032650*
X023848*
X023881Y032683*
X023947Y032814D02*
X023980Y032847D01*
X024045*
X024078Y032814*
Y032781*
X024045Y032748*
X024012*
X024045*
X024078Y032716*
Y032683*
X024045Y032650*
X023980*
X023947Y032683*
X024144Y032814D02*
X024176Y032847D01*
X024242*
X024275Y032814*
Y032683*
X024242Y032650*
X024176*
X024144Y032683*
Y032814*
X024340Y032650D02*
X024406D01*
X024373*
Y032847*
X024340Y032814*
X023086Y033281D02*
X023053Y033248D01*
Y033183*
X023086Y033150*
X023217*
X023250Y033183*
Y033248*
X023217Y033281*
X023086Y033347D02*
X023053Y033380D01*
Y033445*
X023086Y033478*
X023119*
X023152Y033445*
Y033412*
Y033445*
X023184Y033478*
X023217*
X023250Y033445*
Y033380*
X023217Y033347*
X023086Y033544D02*
X023053Y033576D01*
Y033642*
X023086Y033675*
X023217*
X023250Y033642*
Y033576*
X023217Y033544*
X023086*
Y033740D02*
X023053Y033773D01*
Y033839*
X023086Y033872*
X023217*
X023250Y033839*
Y033773*
X023217Y033740*
X023086*
X018531Y052214D02*
X018498Y052247D01*
X018433*
X018400Y052214*
Y052083*
X018433Y052050*
X018498*
X018531Y052083*
X018728Y052050D02*
X018597D01*
X018728Y052181*
Y052214*
X018695Y052247*
X018630*
X018597Y052214*
X018925Y052050D02*
X018794D01*
X018925Y052181*
Y052214*
X018892Y052247*
X018826*
X018794Y052214*
X018990Y052050D02*
X019056D01*
X019023*
Y052247*
X018990Y052214*
X018531Y053064D02*
X018498Y053097D01*
X018433*
X018400Y053064*
Y052933*
X018433Y052900*
X018498*
X018531Y052933*
X018728Y052900D02*
X018597D01*
X018728Y053031*
Y053064*
X018695Y053097*
X018630*
X018597Y053064*
X018925Y052900D02*
X018794D01*
X018925Y053031*
Y053064*
X018892Y053097*
X018826*
X018794Y053064*
X018990D02*
X019023Y053097D01*
X019089*
X019122Y053064*
Y052933*
X019089Y052900*
X019023*
X018990Y052933*
Y053064*
X018531Y051364D02*
X018498Y051397D01*
X018433*
X018400Y051364*
Y051233*
X018433Y051200*
X018498*
X018531Y051233*
X018728Y051200D02*
X018597D01*
X018728Y051331*
Y051364*
X018695Y051397*
X018630*
X018597Y051364*
X018794Y051200D02*
X018859D01*
X018826*
Y051397*
X018794Y051364*
X018958Y051233D02*
X018990Y051200D01*
X019056*
X019089Y051233*
Y051364*
X019056Y051397*
X018990*
X018958Y051364*
Y051331*
X018990Y051298*
X019089*
X024231Y050914D02*
X024198Y050947D01*
X024133*
X024100Y050914*
Y050783*
X024133Y050750*
X024198*
X024231Y050783*
X024428Y050750D02*
X024297D01*
X024428Y050881*
Y050914*
X024395Y050947*
X024330*
X024297Y050914*
X024494Y050750D02*
X024559D01*
X024526*
Y050947*
X024494Y050914*
X024658D02*
X024690Y050947D01*
X024756*
X024789Y050914*
Y050881*
X024756Y050848*
X024789Y050816*
Y050783*
X024756Y050750*
X024690*
X024658Y050783*
Y050816*
X024690Y050848*
X024658Y050881*
Y050914*
X024690Y050848D02*
X024756D01*
X023331Y053864D02*
X023298Y053897D01*
X023233*
X023200Y053864*
Y053733*
X023233Y053700*
X023298*
X023331Y053733*
X023528Y053700D02*
X023397D01*
X023528Y053831*
Y053864*
X023495Y053897*
X023430*
X023397Y053864*
X023594Y053700D02*
X023659D01*
X023626*
Y053897*
X023594Y053864*
X023758Y053897D02*
X023889D01*
Y053864*
X023758Y053733*
Y053700*
X025586Y051881D02*
X025553Y051848D01*
Y051783*
X025586Y051750*
X025717*
X025750Y051783*
Y051848*
X025717Y051881*
X025750Y052078D02*
Y051947D01*
X025619Y052078*
X025586*
X025553Y052045*
Y051980*
X025586Y051947*
X025750Y052144D02*
Y052209D01*
Y052176*
X025553*
X025586Y052144*
X025553Y052439D02*
X025586Y052373D01*
X025652Y052308*
X025717*
X025750Y052340*
Y052406*
X025717Y052439*
X025684*
X025652Y052406*
Y052308*
X025586Y052831D02*
X025553Y052798D01*
Y052733*
X025586Y052700*
X025717*
X025750Y052733*
Y052798*
X025717Y052831*
X025750Y053028D02*
Y052897D01*
X025619Y053028*
X025586*
X025553Y052995*
Y052930*
X025586Y052897*
X025750Y053094D02*
Y053159D01*
Y053126*
X025553*
X025586Y053094*
X025553Y053389D02*
Y053258D01*
X025652*
X025619Y053323*
Y053356*
X025652Y053389*
X025717*
X025750Y053356*
Y053290*
X025717Y053258*
X026036Y062781D02*
X026003Y062748D01*
Y062683*
X026036Y062650*
X026167*
X026200Y062683*
Y062748*
X026167Y062781*
X026200Y062978D02*
Y062847D01*
X026069Y062978*
X026036*
X026003Y062945*
Y062880*
X026036Y062847*
X026200Y063044D02*
Y063109D01*
Y063076*
X026003*
X026036Y063044*
X026200Y063306D02*
X026003D01*
X026102Y063208*
Y063339*
X021031Y063714D02*
X020998Y063747D01*
X020933*
X020900Y063714*
Y063583*
X020933Y063550*
X020998*
X021031Y063583*
X021228Y063550D02*
X021097D01*
X021228Y063681*
Y063714*
X021195Y063747*
X021130*
X021097Y063714*
X021294Y063550D02*
X021359D01*
X021326*
Y063747*
X021294Y063714*
X021458D02*
X021490Y063747D01*
X021556*
X021589Y063714*
Y063681*
X021556Y063648*
X021523*
X021556*
X021589Y063616*
Y063583*
X021556Y063550*
X021490*
X021458Y063583*
X017131Y053564D02*
X017098Y053597D01*
X017033*
X017000Y053564*
Y053433*
X017033Y053400*
X017098*
X017131Y053433*
X017328Y053400D02*
X017197D01*
X017328Y053531*
Y053564*
X017295Y053597*
X017230*
X017197Y053564*
X017394Y053400D02*
X017459D01*
X017426*
Y053597*
X017394Y053564*
X017689Y053400D02*
X017558D01*
X017689Y053531*
Y053564*
X017656Y053597*
X017590*
X017558Y053564*
X020750Y061175D02*
X020725Y061200D01*
X020675*
X020650Y061175*
Y061075*
X020675Y061050*
X020725*
X020750Y061075*
X020900Y061050D02*
X020800D01*
X020900Y061150*
Y061175*
X020875Y061200*
X020825*
X020800Y061175*
X020950Y061050D02*
X021000D01*
X020975*
Y061200*
X020950Y061175*
X021075Y061050D02*
X021125D01*
X021100*
Y061200*
X021075Y061175*
X038428Y045649D02*
X038395Y045681D01*
X038330*
X038297Y045649*
Y045517*
X038330Y045485*
X038395*
X038428Y045517*
X038625Y045485D02*
X038494D01*
X038625Y045616*
Y045649*
X038592Y045681*
X038526*
X038494Y045649*
X038690D02*
X038723Y045681D01*
X038789*
X038822Y045649*
Y045517*
X038789Y045485*
X038723*
X038690Y045517*
Y045649*
X038887Y045517D02*
X038920Y045485D01*
X038986*
X039018Y045517*
Y045649*
X038986Y045681*
X038920*
X038887Y045649*
Y045616*
X038920Y045583*
X039018*
X030881Y046464D02*
X030848Y046497D01*
X030783*
X030750Y046464*
Y046333*
X030783Y046300*
X030848*
X030881Y046333*
X031078Y046300D02*
X030947D01*
X031078Y046431*
Y046464*
X031045Y046497*
X030980*
X030947Y046464*
X031144D02*
X031176Y046497D01*
X031242*
X031275Y046464*
Y046333*
X031242Y046300*
X031176*
X031144Y046333*
Y046464*
X031340D02*
X031373Y046497D01*
X031439*
X031472Y046464*
Y046431*
X031439Y046398*
X031472Y046366*
Y046333*
X031439Y046300*
X031373*
X031340Y046333*
Y046366*
X031373Y046398*
X031340Y046431*
Y046464*
X031373Y046398D02*
X031439D01*
X031831Y046464D02*
X031798Y046497D01*
X031733*
X031700Y046464*
Y046333*
X031733Y046300*
X031798*
X031831Y046333*
X032028Y046300D02*
X031897D01*
X032028Y046431*
Y046464*
X031995Y046497*
X031930*
X031897Y046464*
X032094D02*
X032126Y046497D01*
X032192*
X032225Y046464*
Y046333*
X032192Y046300*
X032126*
X032094Y046333*
Y046464*
X032290Y046497D02*
X032422D01*
Y046464*
X032290Y046333*
Y046300*
X033581Y048114D02*
X033548Y048147D01*
X033483*
X033450Y048114*
Y047983*
X033483Y047950*
X033548*
X033581Y047983*
X033778Y047950D02*
X033647D01*
X033778Y048081*
Y048114*
X033745Y048147*
X033680*
X033647Y048114*
X033844D02*
X033876Y048147D01*
X033942*
X033975Y048114*
Y047983*
X033942Y047950*
X033876*
X033844Y047983*
Y048114*
X034172Y048147D02*
X034106Y048114D01*
X034040Y048048*
Y047983*
X034073Y047950*
X034139*
X034172Y047983*
Y048016*
X034139Y048048*
X034040*
X033981Y044364D02*
X033948Y044397D01*
X033883*
X033850Y044364*
Y044233*
X033883Y044200*
X033948*
X033981Y044233*
X034178Y044200D02*
X034047D01*
X034178Y044331*
Y044364*
X034145Y044397*
X034080*
X034047Y044364*
X034244D02*
X034276Y044397D01*
X034342*
X034375Y044364*
Y044233*
X034342Y044200*
X034276*
X034244Y044233*
Y044364*
X034572Y044397D02*
X034440D01*
Y044298*
X034506Y044331*
X034539*
X034572Y044298*
Y044233*
X034539Y044200*
X034473*
X034440Y044233*
X029531Y046464D02*
X029498Y046497D01*
X029433*
X029400Y046464*
Y046333*
X029433Y046300*
X029498*
X029531Y046333*
X029728Y046300D02*
X029597D01*
X029728Y046431*
Y046464*
X029695Y046497*
X029630*
X029597Y046464*
X029794D02*
X029826Y046497D01*
X029892*
X029925Y046464*
Y046333*
X029892Y046300*
X029826*
X029794Y046333*
Y046464*
X030089Y046300D02*
Y046497D01*
X029990Y046398*
X030122*
X028781Y048114D02*
X028748Y048147D01*
X028683*
X028650Y048114*
Y047983*
X028683Y047950*
X028748*
X028781Y047983*
X028978Y047950D02*
X028847D01*
X028978Y048081*
Y048114*
X028945Y048147*
X028880*
X028847Y048114*
X029044D02*
X029076Y048147D01*
X029142*
X029175Y048114*
Y047983*
X029142Y047950*
X029076*
X029044Y047983*
Y048114*
X029240D02*
X029273Y048147D01*
X029339*
X029372Y048114*
Y048081*
X029339Y048048*
X029306*
X029339*
X029372Y048016*
Y047983*
X029339Y047950*
X029273*
X029240Y047983*
X027281Y048264D02*
X027248Y048297D01*
X027183*
X027150Y048264*
Y048133*
X027183Y048100*
X027248*
X027281Y048133*
X027478Y048100D02*
X027347D01*
X027478Y048231*
Y048264*
X027445Y048297*
X027380*
X027347Y048264*
X027544D02*
X027576Y048297D01*
X027642*
X027675Y048264*
Y048133*
X027642Y048100*
X027576*
X027544Y048133*
Y048264*
X027872Y048100D02*
X027740D01*
X027872Y048231*
Y048264*
X027839Y048297*
X027773*
X027740Y048264*
X026686Y044781D02*
X026653Y044748D01*
Y044683*
X026686Y044650*
X026817*
X026850Y044683*
Y044748*
X026817Y044781*
X026850Y044978D02*
Y044847D01*
X026719Y044978*
X026686*
X026653Y044945*
Y044880*
X026686Y044847*
Y045044D02*
X026653Y045076D01*
Y045142*
X026686Y045175*
X026817*
X026850Y045142*
Y045076*
X026817Y045044*
X026686*
X026850Y045240D02*
Y045306D01*
Y045273*
X026653*
X026686Y045240*
X028586Y048681D02*
X028553Y048648D01*
Y048583*
X028586Y048550*
X028717*
X028750Y048583*
Y048648*
X028717Y048681*
X028750Y048878D02*
Y048747D01*
X028619Y048878*
X028586*
X028553Y048845*
Y048780*
X028586Y048747*
Y048944D02*
X028553Y048976D01*
Y049042*
X028586Y049075*
X028717*
X028750Y049042*
Y048976*
X028717Y048944*
X028586*
Y049140D02*
X028553Y049173D01*
Y049239*
X028586Y049272*
X028717*
X028750Y049239*
Y049173*
X028717Y049140*
X028586*
X032881Y058664D02*
X032848Y058697D01*
X032783*
X032750Y058664*
Y058533*
X032783Y058500*
X032848*
X032881Y058533*
X032947Y058500D02*
X033012D01*
X032980*
Y058697*
X032947Y058664*
X033242Y058500D02*
X033111D01*
X033242Y058631*
Y058664*
X033209Y058697*
X033144*
X033111Y058664*
X033439Y058500D02*
X033308D01*
X033439Y058631*
Y058664*
X033406Y058697*
X033340*
X033308Y058664*
X032486Y059081D02*
X032453Y059048D01*
Y058983*
X032486Y058950*
X032617*
X032650Y058983*
Y059048*
X032617Y059081*
X032650Y059147D02*
Y059212D01*
Y059180*
X032453*
X032486Y059147*
X032650Y059442D02*
Y059311D01*
X032519Y059442*
X032486*
X032453Y059409*
Y059344*
X032486Y059311*
X032650Y059508D02*
Y059573D01*
Y059540*
X032453*
X032486Y059508*
X032481Y054714D02*
X032448Y054747D01*
X032383*
X032350Y054714*
Y054583*
X032383Y054550*
X032448*
X032481Y054583*
X032547Y054550D02*
X032612D01*
X032580*
Y054747*
X032547Y054714*
X032842Y054550D02*
X032711D01*
X032842Y054681*
Y054714*
X032809Y054747*
X032744*
X032711Y054714*
X032908D02*
X032940Y054747D01*
X033006*
X033039Y054714*
Y054583*
X033006Y054550*
X032940*
X032908Y054583*
Y054714*
X031631Y055964D02*
X031598Y055997D01*
X031533*
X031500Y055964*
Y055833*
X031533Y055800*
X031598*
X031631Y055833*
X031697Y055800D02*
X031762D01*
X031730*
Y055997*
X031697Y055964*
X031861Y055800D02*
X031926D01*
X031894*
Y055997*
X031861Y055964*
X032025Y055833D02*
X032058Y055800D01*
X032123*
X032156Y055833*
Y055964*
X032123Y055997*
X032058*
X032025Y055964*
Y055931*
X032058Y055898*
X032156*
X028136Y055931D02*
X028103Y055898D01*
Y055833*
X028136Y055800*
X028267*
X028300Y055833*
Y055898*
X028267Y055931*
X028300Y055997D02*
Y056062D01*
Y056030*
X028103*
X028136Y055997*
X028300Y056161D02*
Y056226D01*
Y056194*
X028103*
X028136Y056161*
Y056325D02*
X028103Y056358D01*
Y056423*
X028136Y056456*
X028169*
X028202Y056423*
X028234Y056456*
X028267*
X028300Y056423*
Y056358*
X028267Y056325*
X028234*
X028202Y056358*
X028169Y056325*
X028136*
X028202Y056358D02*
Y056423D01*
X027431Y060314D02*
X027398Y060347D01*
X027333*
X027300Y060314*
Y060183*
X027333Y060150*
X027398*
X027431Y060183*
X027497Y060150D02*
X027562D01*
X027530*
Y060347*
X027497Y060314*
X027661Y060150D02*
X027726D01*
X027694*
Y060347*
X027661Y060314*
X027825Y060347D02*
X027956D01*
Y060314*
X027825Y060183*
Y060150*
X034081Y061164D02*
X034048Y061197D01*
X033983*
X033950Y061164*
Y061033*
X033983Y061000*
X034048*
X034081Y061033*
X034147Y061000D02*
X034212D01*
X034180*
Y061197*
X034147Y061164*
X034311Y061000D02*
X034376D01*
X034344*
Y061197*
X034311Y061164*
X034606Y061197D02*
X034540Y061164D01*
X034475Y061098*
Y061033*
X034508Y061000*
X034573*
X034606Y061033*
Y061066*
X034573Y061098*
X034475*
X025886Y053481D02*
X025853Y053448D01*
Y053383*
X025886Y053350*
X026017*
X026050Y053383*
Y053448*
X026017Y053481*
X026050Y053547D02*
Y053612D01*
Y053580*
X025853*
X025886Y053547*
X026050Y053711D02*
Y053776D01*
Y053744*
X025853*
X025886Y053711*
X025853Y054006D02*
Y053875D01*
X025952*
X025919Y053940*
Y053973*
X025952Y054006*
X026017*
X026050Y053973*
Y053908*
X026017Y053875*
X039631Y061064D02*
X039598Y061097D01*
X039533*
X039500Y061064*
Y060933*
X039533Y060900*
X039598*
X039631Y060933*
X039697Y060900D02*
X039762D01*
X039730*
Y061097*
X039697Y061064*
X039861Y060900D02*
X039926D01*
X039894*
Y061097*
X039861Y061064*
X040123Y060900D02*
Y061097D01*
X040025Y060998*
X040156*
X032831Y057764D02*
X032798Y057797D01*
X032733*
X032700Y057764*
Y057633*
X032733Y057600*
X032798*
X032831Y057633*
X032897Y057600D02*
X032962D01*
X032930*
Y057797*
X032897Y057764*
X033061Y057600D02*
X033126D01*
X033094*
Y057797*
X033061Y057764*
X033225D02*
X033258Y057797D01*
X033323*
X033356Y057764*
Y057731*
X033323Y057698*
X033290*
X033323*
X033356Y057666*
Y057633*
X033323Y057600*
X033258*
X033225Y057633*
X037331Y060964D02*
X037298Y060997D01*
X037233*
X037200Y060964*
Y060833*
X037233Y060800*
X037298*
X037331Y060833*
X037397Y060800D02*
X037462D01*
X037430*
Y060997*
X037397Y060964*
X037561Y060800D02*
X037626D01*
X037594*
Y060997*
X037561Y060964*
X037856Y060800D02*
X037725D01*
X037856Y060931*
Y060964*
X037823Y060997*
X037758*
X037725Y060964*
X036681Y056164D02*
X036648Y056197D01*
X036583*
X036550Y056164*
Y056033*
X036583Y056000*
X036648*
X036681Y056033*
X036747Y056000D02*
X036812D01*
X036780*
Y056197*
X036747Y056164*
X036911Y056000D02*
X036976D01*
X036944*
Y056197*
X036911Y056164*
X037075Y056000D02*
X037140D01*
X037108*
Y056197*
X037075Y056164*
X038064Y055702D02*
X038031Y055669D01*
Y055603*
X038064Y055570*
X038195*
X038228Y055603*
Y055669*
X038195Y055702*
X038228Y055767D02*
Y055833D01*
Y055800*
X038031*
X038064Y055767*
X038228Y055931D02*
Y055997D01*
Y055964*
X038031*
X038064Y055931*
Y056095D02*
X038031Y056128D01*
Y056193*
X038064Y056226*
X038195*
X038228Y056193*
Y056128*
X038195Y056095*
X038064*
X037786Y056631D02*
X037753Y056598D01*
Y056533*
X037786Y056500*
X037917*
X037950Y056533*
Y056598*
X037917Y056631*
X037950Y056697D02*
Y056762D01*
Y056730*
X037753*
X037786Y056697*
Y056861D02*
X037753Y056894D01*
Y056959*
X037786Y056992*
X037917*
X037950Y056959*
Y056894*
X037917Y056861*
X037786*
X037917Y057058D02*
X037950Y057090D01*
Y057156*
X037917Y057189*
X037786*
X037753Y057156*
Y057090*
X037786Y057058*
X037819*
X037852Y057090*
Y057189*
X036381Y059464D02*
X036348Y059497D01*
X036283*
X036250Y059464*
Y059333*
X036283Y059300*
X036348*
X036381Y059333*
X036447Y059300D02*
X036512D01*
X036480*
Y059497*
X036447Y059464*
X036611D02*
X036644Y059497D01*
X036709*
X036742Y059464*
Y059333*
X036709Y059300*
X036644*
X036611Y059333*
Y059464*
X036808D02*
X036840Y059497D01*
X036906*
X036939Y059464*
Y059431*
X036906Y059398*
X036939Y059366*
Y059333*
X036906Y059300*
X036840*
X036808Y059333*
Y059366*
X036840Y059398*
X036808Y059431*
Y059464*
X036840Y059398D02*
X036906D01*
X036886Y056581D02*
X036853Y056548D01*
Y056483*
X036886Y056450*
X037017*
X037050Y056483*
Y056548*
X037017Y056581*
X037050Y056647D02*
Y056712D01*
Y056680*
X036853*
X036886Y056647*
Y056811D02*
X036853Y056844D01*
Y056909*
X036886Y056942*
X037017*
X037050Y056909*
Y056844*
X037017Y056811*
X036886*
X036853Y057008D02*
Y057139D01*
X036886*
X037017Y057008*
X037050*
X039281Y053614D02*
X039248Y053647D01*
X039183*
X039150Y053614*
Y053483*
X039183Y053450*
X039248*
X039281Y053483*
X039347Y053450D02*
X039412D01*
X039380*
Y053647*
X039347Y053614*
X039511D02*
X039544Y053647D01*
X039609*
X039642Y053614*
Y053483*
X039609Y053450*
X039544*
X039511Y053483*
Y053614*
X039806Y053450D02*
Y053647D01*
X039708Y053548*
X039839*
X024681Y036914D02*
X024648Y036947D01*
X024583*
X024550Y036914*
Y036783*
X024583Y036750*
X024648*
X024681Y036783*
X024747Y036750D02*
X024812D01*
X024780*
Y036947*
X024747Y036914*
X024911D02*
X024944Y036947D01*
X025009*
X025042Y036914*
Y036783*
X025009Y036750*
X024944*
X024911Y036783*
Y036914*
X025239Y036947D02*
X025173Y036914D01*
X025108Y036848*
Y036783*
X025140Y036750*
X025206*
X025239Y036783*
Y036816*
X025206Y036848*
X025108*
X033661Y063894D02*
X033628Y063927D01*
X033563*
X033530Y063894*
Y063763*
X033563Y063730*
X033628*
X033661Y063763*
X033727Y063730D02*
X033792D01*
X033760*
Y063927*
X033727Y063894*
X033891D02*
X033924Y063927D01*
X033989*
X034022Y063894*
Y063763*
X033989Y063730*
X033924*
X033891Y063763*
Y063894*
X034088D02*
X034120Y063927D01*
X034186*
X034219Y063894*
Y063763*
X034186Y063730*
X034120*
X034088Y063763*
Y063894*
X035331Y048864D02*
X035298Y048897D01*
X035233*
X035200Y048864*
Y048733*
X035233Y048700*
X035298*
X035331Y048733*
X035397Y048700D02*
X035462D01*
X035430*
Y048897*
X035397Y048864*
X035561D02*
X035594Y048897D01*
X035659*
X035692Y048864*
Y048733*
X035659Y048700*
X035594*
X035561Y048733*
Y048864*
X035758D02*
X035790Y048897D01*
X035856*
X035889Y048864*
Y048831*
X035856Y048798*
X035823*
X035856*
X035889Y048766*
Y048733*
X035856Y048700*
X035790*
X035758Y048733*
X026000Y032097D02*
Y031933D01*
X026033Y031900*
X026098*
X026131Y031933*
Y032097*
X026197Y032064D02*
X026230Y032097D01*
X026295*
X026328Y032064*
Y032031*
X026295Y031998*
X026262*
X026295*
X026328Y031966*
Y031933*
X026295Y031900*
X026230*
X026197Y031933*
X026394Y032064D02*
X026426Y032097D01*
X026492*
X026525Y032064*
Y031933*
X026492Y031900*
X026426*
X026394Y031933*
Y032064*
X026590D02*
X026623Y032097D01*
X026689*
X026722Y032064*
Y031933*
X026689Y031900*
X026623*
X026590Y031933*
Y032064*
X024700Y031500D02*
Y031697D01*
X024798*
X024831Y031664*
Y031598*
X024798Y031566*
X024700*
X024766D02*
X024831Y031500D01*
X024897Y031664D02*
X024930Y031697D01*
X024995*
X025028Y031664*
Y031631*
X024995Y031598*
X024962*
X024995*
X025028Y031566*
Y031533*
X024995Y031500*
X024930*
X024897Y031533*
X025094Y031664D02*
X025126Y031697D01*
X025192*
X025225Y031664*
Y031533*
X025192Y031500*
X025126*
X025094Y031533*
Y031664*
X025290Y031500D02*
X025356D01*
X025323*
Y031697*
X025290Y031664*
X014100Y052900D02*
Y053097D01*
X014198*
X014231Y053064*
Y052998*
X014198Y052966*
X014100*
X014166D02*
X014231Y052900D01*
X014428D02*
X014297D01*
X014428Y053031*
Y053064*
X014395Y053097*
X014330*
X014297Y053064*
X014625Y052900D02*
X014494D01*
X014625Y053031*
Y053064*
X014592Y053097*
X014526*
X014494Y053064*
X014690Y052900D02*
X014756D01*
X014723*
Y053097*
X014690Y053064*
X032181Y062000D02*
X032050D01*
X032181Y062131*
Y062164*
X032148Y062197*
X032083*
X032050Y062164*
X032100Y063250D02*
X032166D01*
X032133*
Y063447*
X032100Y063414*
X027700Y063397D02*
X027831D01*
Y063364*
X027700Y063233*
Y063200*
Y062314D02*
X027733Y062347D01*
X027798*
X027831Y062314*
Y062281*
X027798Y062248*
X027831Y062216*
Y062183*
X027798Y062150*
X027733*
X027700Y062183*
Y062216*
X027733Y062248*
X027700Y062281*
Y062314*
X027733Y062248D02*
X027798D01*
X018461Y043500D02*
X018330D01*
X018461Y043631*
Y043664*
X018428Y043697*
X018362*
X018330Y043664*
X018380Y042500D02*
X018445D01*
X018412*
Y042697*
X018380Y042664*
X035680Y042564D02*
X035712Y042597D01*
X035778*
X035811Y042564*
Y042531*
X035778Y042498*
X035745*
X035778*
X035811Y042466*
Y042433*
X035778Y042400*
X035712*
X035680Y042433*
X035876Y042564D02*
X035909Y042597D01*
X035975*
X036008Y042564*
Y042531*
X035975Y042498*
X035942*
X035975*
X036008Y042466*
Y042433*
X035975Y042400*
X035909*
X035876Y042433*
X035680Y043564D02*
X035712Y043597D01*
X035778*
X035811Y043564*
Y043531*
X035778Y043498*
X035745*
X035778*
X035811Y043466*
Y043433*
X035778Y043400*
X035712*
X035680Y043433*
X035975Y043400D02*
Y043597D01*
X035876Y043498*
X036008*
G54D80*
X039133Y061667D02*
X039100Y061700D01*
X039033*
X039000Y061667*
Y061633*
X039033Y061600*
X039100*
X039133Y061567*
Y061533*
X039100Y061500*
X039033*
X039000Y061533*
X039200Y061500D02*
X039267D01*
X039233*
Y061700*
X039200Y061667*
X039367D02*
X039400Y061700D01*
X039467*
X039500Y061667*
Y061533*
X039467Y061500*
X039400*
X039367Y061533*
Y061667*
X039566D02*
X039600Y061700D01*
X039666*
X039700Y061667*
Y061533*
X039666Y061500*
X039600*
X039566Y061533*
Y061667*
X032683Y063767D02*
X032650Y063800D01*
X032583*
X032550Y063767*
Y063633*
X032583Y063600*
X032650*
X032683Y063633*
X032750Y063600D02*
X032817D01*
X032783*
Y063800*
X032750Y063767*
X032917D02*
X032950Y063800D01*
X033017*
X033050Y063767*
Y063633*
X033017Y063600*
X032950*
X032917Y063633*
Y063767*
X033116Y063600D02*
X033183D01*
X033150*
Y063800*
X033116Y063767*
X025600Y046850D02*
Y046650D01*
X025733*
X025933Y046817D02*
X025900Y046850D01*
X025833*
X025800Y046817*
Y046783*
X025833Y046750*
X025900*
X025933Y046717*
Y046683*
X025900Y046650*
X025833*
X025800Y046683*
X026133Y046650D02*
X026000D01*
X026133Y046783*
Y046817*
X026100Y046850*
X026033*
X026000Y046817*
X026200D02*
X026233Y046850D01*
X026300*
X026333Y046817*
Y046683*
X026300Y046650*
X026233*
X026200Y046683*
Y046817*
X026400D02*
X026433Y046850D01*
X026500*
X026533Y046817*
Y046683*
X026500Y046650*
X026433*
X026400Y046683*
Y046817*
X033010Y062320D02*
Y062520D01*
X033110*
X033143Y062487*
Y062420*
X033110Y062387*
X033010*
X033077D02*
X033143Y062320D01*
X033343D02*
X033210D01*
X033343Y062453*
Y062487*
X033310Y062520*
X033243*
X033210Y062487*
X033543Y062320D02*
X033410D01*
X033543Y062453*
Y062487*
X033510Y062520*
X033443*
X033410Y062487*
X033743Y062520D02*
X033676Y062487D01*
X033610Y062420*
Y062353*
X033643Y062320*
X033710*
X033743Y062353*
Y062387*
X033710Y062420*
X033610*
M02*