%FSDAX24Y24*%
%MOIN*%
%SFA1B1*%

%IPPOS*%
%ADD127C,0.002000*%
%ADD128C,0.002700*%
%LNde-290817-1*%
%LPD*%
G54D127*
X019020Y047870D02*
Y048030D01*
X019180*
Y047870*
X019020*
Y045901D02*
Y046062D01*
X019180*
Y045901*
X019020*
X020020Y047870D02*
Y048030D01*
X020180*
Y047870*
X020020*
Y045901D02*
Y046062D01*
X020180*
Y045901*
X020020*
X021067D02*
Y046062D01*
X021227*
Y045901*
X021067*
X022051D02*
Y046062D01*
X022211*
Y045901*
X022051*
X023036D02*
Y046062D01*
X023196*
Y045901*
X023036*
X024020D02*
Y046062D01*
X024180*
Y045901*
X024020*
X021067Y047870D02*
Y048030D01*
X021227*
Y047870*
X021067*
X022051D02*
Y048030D01*
X022211*
Y047870*
X022051*
X023036D02*
Y048030D01*
X023196*
Y047870*
X023036*
X024020D02*
Y048030D01*
X024180*
Y047870*
X024020*
X028450Y062120D02*
X028370Y062280D01*
X028530*
X028450Y062120*
Y063120D02*
X028370Y063280D01*
X028530*
X028450Y063120*
X029450Y062120D02*
X029370Y062280D01*
X029530*
X029450Y062120*
Y063120D02*
X029370Y063280D01*
X029530*
X029450Y063120*
X030450Y062120D02*
X030370Y062280D01*
X030530*
X030450Y062120*
Y063120D02*
X030370Y063280D01*
X030530*
X030450Y063120*
X031450Y062120D02*
X031370Y062280D01*
X031530*
X031450Y062120*
Y063120D02*
X031370Y063280D01*
X031530*
X031450Y063120*
X031250Y053720D02*
X031170Y053880D01*
X031330*
X031250Y053720*
X032250D02*
X032170Y053880D01*
X032330*
X032250Y053720*
X034850Y063120D02*
X034770Y063280D01*
X034930*
X034850Y063120*
Y062120D02*
X034770Y062280D01*
X034930*
X034850Y062120*
X038536Y061634D02*
X038576Y061674D01*
X038616*
X038576Y061714*
X038616Y061754*
X038576*
X038536Y061794*
X038496Y061754*
X038456*
X038496Y061714*
X038456Y061674*
X038496*
X038536Y061634*
X036764D02*
X036804Y061674D01*
X036844*
X036804Y061714*
X036844Y061754*
X036804*
X036764Y061794*
X036724Y061754*
X036684*
X036724Y061714*
X036684Y061674*
X036724*
X036764Y061634*
X038536Y063406D02*
X038576Y063446D01*
X038616*
X038576Y063486*
X038616Y063526*
X038576*
X038536Y063566*
X038496Y063526*
X038456*
X038496Y063486*
X038456Y063446*
X038496*
X038536Y063406*
X036764D02*
X036804Y063446D01*
X036844*
X036804Y063486*
X036844Y063526*
X036804*
X036764Y063566*
X036724Y063526*
X036684*
X036724Y063486*
X036684Y063446*
X036724*
X036764Y063406*
X019080Y042520D02*
X019000Y042680D01*
X019160*
X019080Y042520*
Y043520D02*
X019000Y043680D01*
X019160*
X019080Y043520*
X020080Y042520D02*
X020000Y042680D01*
X020160*
X020080Y042520*
Y043520D02*
X020000Y043680D01*
X020160*
X020080Y043520*
X021080Y042520D02*
X021000Y042680D01*
X021160*
X021080Y042520*
Y043520D02*
X021000Y043680D01*
X021160*
X021080Y043520*
X022080Y042520D02*
X022000Y042680D01*
X022160*
X022080Y042520*
Y043520D02*
X022000Y043680D01*
X022160*
X022080Y043520*
X023080Y042520D02*
X023000Y042680D01*
X023160*
X023080Y042520*
Y043520D02*
X023000Y043680D01*
X023160*
X023080Y043520*
X024080Y042520D02*
X024000Y042680D01*
X024160*
X024080Y042520*
Y043520D02*
X024000Y043680D01*
X024160*
X024080Y043520*
X025080Y042520D02*
X025000Y042680D01*
X025160*
X025080Y042520*
Y043520D02*
X025000Y043680D01*
X025160*
X025080Y043520*
X026080Y042520D02*
X026000Y042680D01*
X026160*
X026080Y042520*
Y043520D02*
X026000Y043680D01*
X026160*
X026080Y043520*
X027080Y042520D02*
X027000Y042680D01*
X027160*
X027080Y042520*
Y043520D02*
X027000Y043680D01*
X027160*
X027080Y043520*
X028080Y042520D02*
X028000Y042680D01*
X028160*
X028080Y042520*
Y043520D02*
X028000Y043680D01*
X028160*
X028080Y043520*
X029080Y042520D02*
X029000Y042680D01*
X029160*
X029080Y042520*
Y043520D02*
X029000Y043680D01*
X029160*
X029080Y043520*
X030080Y042520D02*
X030000Y042680D01*
X030160*
X030080Y042520*
Y043520D02*
X030000Y043680D01*
X030160*
X030080Y043520*
X031080Y042520D02*
X031000Y042680D01*
X031160*
X031080Y042520*
Y043520D02*
X031000Y043680D01*
X031160*
X031080Y043520*
X032080Y042520D02*
X032000Y042680D01*
X032160*
X032080Y042520*
Y043520D02*
X032000Y043680D01*
X032160*
X032080Y043520*
X033080Y042520D02*
X033000Y042680D01*
X033160*
X033080Y042520*
Y043520D02*
X033000Y043680D01*
X033160*
X033080Y043520*
X034080Y042520D02*
X034000Y042680D01*
X034160*
X034080Y042520*
Y043520D02*
X034000Y043680D01*
X034160*
X034080Y043520*
X035080Y042520D02*
X035000Y042680D01*
X035160*
X035080Y042520*
Y043520D02*
X035000Y043680D01*
X035160*
X035080Y043520*
X029325Y048720D02*
X029365Y048760D01*
X029405*
X029365Y048800*
X029405Y048840*
X029365*
X029325Y048880*
X029285Y048840*
X029245*
X029285Y048800*
X029245Y048760*
X029285*
X029325Y048720*
X026175D02*
X026215Y048760D01*
X026255*
X026215Y048800*
X026255Y048840*
X026215*
X026175Y048880*
X026135Y048840*
X026095*
X026135Y048800*
X026095Y048760*
X026135*
X026175Y048720*
X037370Y058057D02*
X037410Y058137D01*
X037370Y058217*
X037450Y058177*
X037530Y058217*
X037490Y058137*
X037530Y058057*
X037450Y058097*
X037370Y058057*
Y058883D02*
X037410Y058963D01*
X037370Y059043*
X037450Y059003*
X037530Y059043*
X037490Y058963*
X037530Y058883*
X037450Y058923*
X037370Y058883*
X028935Y060575D02*
Y060535D01*
X029015*
Y060575*
X029055*
Y060655*
X029015*
Y060695*
X028935*
Y060655*
X028895*
Y060575*
X028935*
X028210Y025710D02*
Y025670D01*
X028290*
Y025710*
X028330*
Y025790*
X028290*
Y025830*
X028210*
Y025790*
X028170*
Y025710*
X028210*
X025858D02*
Y025670D01*
X025938*
Y025710*
X025978*
Y025790*
X025938*
Y025830*
X025858*
Y025790*
X025818*
Y025710*
X025858*
X026780Y016260D02*
Y016220D01*
X026860*
Y016260*
X026900*
Y016340*
X026860*
Y016380*
X026780*
Y016340*
X026740*
Y016260*
X026780*
X027952Y015079D02*
Y015038D01*
X028031*
Y015079*
X028071*
Y015158*
X028031*
Y015199*
X027952*
Y015158*
X027912*
Y015079*
X027952*
X027040Y026496D02*
Y026456D01*
X027120*
Y026496*
X027160*
Y026576*
X027120*
Y026616*
X027040*
Y026576*
X027000*
Y026496*
X027040*
X019310Y050560D02*
Y050520D01*
X019390*
Y050560*
X019430*
Y050640*
X019390*
Y050680*
X019310*
Y050640*
X019270*
Y050560*
X019310*
X023510Y049310D02*
Y049270D01*
X023590*
Y049310*
X023630*
Y049390*
X023590*
Y049430*
X023510*
Y049390*
X023470*
Y049310*
X023510*
X022860Y058960D02*
Y058920D01*
X022940*
Y058960*
X022980*
Y059040*
X022940*
Y059080*
X022860*
Y059040*
X022820*
Y058960*
X022860*
X016060Y053260D02*
Y053220D01*
X016140*
Y053260*
X016180*
Y053340*
X016140*
Y053380*
X016060*
Y053340*
X016020*
Y053260*
X016060*
X015360D02*
Y053220D01*
X015440*
Y053260*
X015480*
Y053340*
X015440*
Y053380*
X015360*
Y053340*
X015320*
Y053260*
X015360*
X014710D02*
Y053220D01*
X014790*
Y053260*
X014830*
Y053340*
X014790*
Y053380*
X014710*
Y053340*
X014670*
Y053260*
X014710*
X014060D02*
Y053220D01*
X014140*
Y053260*
X014180*
Y053340*
X014140*
Y053380*
X014060*
Y053340*
X014020*
Y053260*
X014060*
X036310Y055660D02*
Y055620D01*
X036390*
Y055660*
X036430*
Y055740*
X036390*
Y055780*
X036310*
Y055740*
X036270*
Y055660*
X036310*
X035860Y057310D02*
Y057270D01*
X035940*
Y057310*
X035980*
Y057390*
X035940*
Y057430*
X035860*
Y057390*
X035820*
Y057310*
X035860*
X017260Y060793D02*
Y060753D01*
X017340*
Y060793*
X017380*
Y060873*
X017340*
Y060913*
X017260*
Y060873*
X017220*
Y060793*
X017260*
Y062280D02*
Y062240D01*
X017340*
Y062280*
X017380*
Y062360*
X017340*
Y062400*
X017260*
Y062360*
X017220*
Y062280*
X017260*
Y061771D02*
Y061731D01*
X017340*
Y061771*
X017380*
Y061851*
X017340*
Y061891*
X017260*
Y061851*
X017220*
Y061771*
X017260*
Y061282D02*
Y061242D01*
X017340*
Y061282*
X017380*
Y061362*
X017340*
Y061402*
X017260*
Y061362*
X017220*
Y061282*
X017260*
Y060304D02*
Y060264D01*
X017340*
Y060304*
X017380*
Y060384*
X017340*
Y060424*
X017260*
Y060384*
X017220*
Y060304*
X017260*
Y059816D02*
Y059776D01*
X017340*
Y059816*
X017380*
Y059896*
X017340*
Y059936*
X017260*
Y059896*
X017220*
Y059816*
X017260*
Y059327D02*
Y059287D01*
X017340*
Y059327*
X017380*
Y059407*
X017340*
Y059447*
X017260*
Y059407*
X017220*
Y059327*
X017260*
Y058838D02*
Y058798D01*
X017340*
Y058838*
X017380*
Y058918*
X017340*
Y058958*
X017260*
Y058918*
X017220*
Y058838*
X017260*
Y058349D02*
Y058309D01*
X017340*
Y058349*
X017380*
Y058429*
X017340*
Y058469*
X017260*
Y058429*
X017220*
Y058349*
X017260*
Y057860D02*
Y057820D01*
X017340*
Y057860*
X017380*
Y057940*
X017340*
Y057980*
X017260*
Y057940*
X017220*
Y057860*
X017260*
X019910Y054710D02*
Y054670D01*
X019990*
Y054710*
X020030*
Y054790*
X019990*
Y054830*
X019910*
Y054790*
X019870*
Y054710*
X019910*
X018460D02*
Y054670D01*
X018540*
Y054710*
X018580*
Y054790*
X018540*
Y054830*
X018460*
Y054790*
X018420*
Y054710*
X018460*
X019910Y055110D02*
Y055070D01*
X019990*
Y055110*
X020030*
Y055190*
X019990*
Y055230*
X019910*
Y055190*
X019870*
Y055110*
X019910*
Y055710D02*
Y055670D01*
X019990*
Y055710*
X020030*
Y055790*
X019990*
Y055830*
X019910*
Y055790*
X019870*
Y055710*
X019910*
Y056210D02*
Y056170D01*
X019990*
Y056210*
X020030*
Y056290*
X019990*
Y056330*
X019910*
Y056290*
X019870*
Y056210*
X019910*
X018822Y054710D02*
Y054670D01*
X018902*
Y054710*
X018943*
Y054790*
X018902*
Y054830*
X018822*
Y054790*
X018783*
Y054710*
X018822*
X019547D02*
Y054670D01*
X019627*
Y054710*
X019668*
Y054790*
X019627*
Y054830*
X019547*
Y054790*
X019507*
Y054710*
X019547*
X019185D02*
Y054670D01*
X019265*
Y054710*
X019305*
Y054790*
X019265*
Y054830*
X019185*
Y054790*
X019145*
Y054710*
X019185*
X029160Y057810D02*
Y057770D01*
X029240*
Y057810*
X029280*
Y057890*
X029240*
Y057930*
X029160*
Y057890*
X029120*
Y057810*
X029160*
X021810Y050510D02*
Y050470D01*
X021890*
Y050510*
X021930*
Y050590*
X021890*
Y050630*
X021810*
Y050590*
X021770*
Y050510*
X021810*
X031360Y036510D02*
Y036470D01*
X031440*
Y036510*
X031480*
Y036590*
X031440*
Y036630*
X031360*
Y036590*
X031320*
Y036510*
X031360*
X017460Y051860D02*
Y051820D01*
X017540*
Y051860*
X017580*
Y051940*
X017540*
Y051980*
X017460*
Y051940*
X017420*
Y051860*
X017460*
Y050660D02*
Y050620D01*
X017540*
Y050660*
X017580*
Y050740*
X017540*
Y050780*
X017460*
Y050740*
X017420*
Y050660*
X017460*
X018110Y043410D02*
Y043370D01*
X018190*
Y043410*
X018230*
Y043490*
X018190*
Y043530*
X018110*
Y043490*
X018070*
Y043410*
X018110*
Y044060D02*
Y044020D01*
X018190*
Y044060*
X018230*
Y044140*
X018190*
Y044180*
X018110*
Y044140*
X018070*
Y044060*
X018110*
X030260Y057360D02*
Y057320D01*
X030340*
Y057360*
X030380*
Y057440*
X030340*
Y057480*
X030260*
Y057440*
X030220*
Y057360*
X030260*
X036410Y060360D02*
Y060320D01*
X036490*
Y060360*
X036530*
Y060440*
X036490*
Y060480*
X036410*
Y060440*
X036370*
Y060360*
X036410*
X033610Y058510D02*
Y058470D01*
X033690*
Y058510*
X033730*
Y058590*
X033690*
Y058630*
X033610*
Y058590*
X033570*
Y058510*
X033610*
X027160Y047810D02*
Y047770D01*
X027240*
Y047810*
X027280*
Y047890*
X027240*
Y047930*
X027160*
Y047890*
X027120*
Y047810*
X027160*
X025710Y055560D02*
Y055520D01*
X025790*
Y055560*
X025830*
Y055640*
X025790*
Y055680*
X025710*
Y055640*
X025670*
Y055560*
X025710*
X026110Y052810D02*
Y052770D01*
X026190*
Y052810*
X026230*
Y052890*
X026190*
Y052930*
X026110*
Y052890*
X026070*
Y052810*
X026110*
X031410Y050010D02*
Y049970D01*
X031490*
Y050010*
X031530*
Y050090*
X031490*
Y050130*
X031410*
Y050090*
X031370*
Y050010*
X031410*
X030760Y048010D02*
Y047970D01*
X030840*
Y048010*
X030880*
Y048090*
X030840*
Y048130*
X030760*
Y048090*
X030720*
Y048010*
X030760*
X035060Y061510D02*
Y061470D01*
X035140*
Y061510*
X035180*
Y061590*
X035140*
Y061630*
X035060*
Y061590*
X035020*
Y061510*
X035060*
X040310Y044810D02*
Y044770D01*
X040390*
Y044810*
X040430*
Y044890*
X040390*
Y044930*
X040310*
Y044890*
X040270*
Y044810*
X040310*
Y041260D02*
Y041220D01*
X040390*
Y041260*
X040430*
Y041340*
X040390*
Y041380*
X040310*
Y041340*
X040270*
Y041260*
X040310*
Y048360D02*
Y048320D01*
X040390*
Y048360*
X040430*
Y048440*
X040390*
Y048480*
X040310*
Y048440*
X040270*
Y048360*
X040310*
X025610Y041560D02*
Y041520D01*
X025690*
Y041560*
X025730*
Y041640*
X025690*
Y041680*
X025610*
Y041640*
X025570*
Y041560*
X025610*
X026160Y037410D02*
Y037370D01*
X026240*
Y037410*
X026280*
Y037490*
X026240*
Y037530*
X026160*
Y037490*
X026120*
Y037410*
X026160*
X028160D02*
Y037370D01*
X028240*
Y037410*
X028280*
Y037490*
X028240*
Y037530*
X028160*
Y037490*
X028120*
Y037410*
X028160*
X024660Y030260D02*
Y030220D01*
X024740*
Y030260*
X024780*
Y030340*
X024740*
Y030380*
X024660*
Y030340*
X024620*
Y030260*
X024660*
Y030860D02*
Y030820D01*
X024740*
Y030860*
X024780*
Y030940*
X024740*
Y030980*
X024660*
Y030940*
X024620*
Y030860*
X024660*
X025010Y035160D02*
Y035120D01*
X025090*
Y035160*
X025130*
Y035240*
X025090*
Y035280*
X025010*
Y035240*
X024970*
Y035160*
X025010*
X028860Y034860D02*
Y034820D01*
X028940*
Y034860*
X028980*
Y034940*
X028940*
Y034980*
X028860*
Y034940*
X028820*
Y034860*
X028860*
X031610Y033760D02*
Y033720D01*
X031690*
Y033760*
X031730*
Y033840*
X031690*
Y033880*
X031610*
Y033840*
X031570*
Y033760*
X031610*
X021660Y035060D02*
Y035020D01*
X021740*
Y035060*
X021780*
Y035140*
X021740*
Y035180*
X021660*
Y035140*
X021620*
Y035060*
X021660*
Y033840D02*
Y033800D01*
X021740*
Y033840*
X021780*
Y033920*
X021740*
Y033960*
X021660*
Y033920*
X021620*
Y033840*
X021660*
Y032620D02*
Y032580D01*
X021740*
Y032620*
X021780*
Y032700*
X021740*
Y032740*
X021660*
Y032700*
X021620*
Y032620*
X021660*
Y031400D02*
Y031360D01*
X021740*
Y031400*
X021780*
Y031480*
X021740*
Y031520*
X021660*
Y031480*
X021620*
Y031400*
X021660*
X021610Y030230D02*
Y030190D01*
X021690*
Y030230*
X021730*
Y030310*
X021690*
Y030350*
X021610*
Y030310*
X021570*
Y030230*
X021610*
X039860Y029060D02*
Y029020D01*
X039940*
Y029060*
X039980*
Y029140*
X039940*
Y029180*
X039860*
Y029140*
X039820*
Y029060*
X039860*
X037860D02*
Y029020D01*
X037940*
Y029060*
X037980*
Y029140*
X037940*
Y029180*
X037860*
Y029140*
X037820*
Y029060*
X037860*
X035910Y029010D02*
Y028970D01*
X035990*
Y029010*
X036030*
Y029090*
X035990*
Y029130*
X035910*
Y029090*
X035870*
Y029010*
X035910*
X034160D02*
Y028970D01*
X034240*
Y029010*
X034280*
Y029090*
X034240*
Y029130*
X034160*
Y029090*
X034120*
Y029010*
X034160*
X031610D02*
Y028970D01*
X031690*
Y029010*
X031730*
Y029090*
X031690*
Y029130*
X031610*
Y029090*
X031570*
Y029010*
X031610*
X029610D02*
Y028970D01*
X029690*
Y029010*
X029730*
Y029090*
X029690*
Y029130*
X029610*
Y029090*
X029570*
Y029010*
X029610*
X021610D02*
Y028970D01*
X021690*
Y029010*
X021730*
Y029090*
X021690*
Y029130*
X021610*
Y029090*
X021570*
Y029010*
X021610*
X019910D02*
Y028970D01*
X019990*
Y029010*
X020030*
Y029090*
X019990*
Y029130*
X019910*
Y029090*
X019870*
Y029010*
X019910*
X018210D02*
Y028970D01*
X018290*
Y029010*
X018330*
Y029090*
X018290*
Y029130*
X018210*
Y029090*
X018170*
Y029010*
X018210*
X016510D02*
Y028970D01*
X016590*
Y029010*
X016630*
Y029090*
X016590*
Y029130*
X016510*
Y029090*
X016470*
Y029010*
X016510*
X014810D02*
Y028970D01*
X014890*
Y029010*
X014930*
Y029090*
X014890*
Y029130*
X014810*
Y029090*
X014770*
Y029010*
X014810*
X016491Y057860D02*
Y057820D01*
X016571*
Y057860*
X016611*
Y057940*
X016571*
Y057980*
X016491*
Y057940*
X016451*
Y057860*
X016491*
Y058349D02*
Y058309D01*
X016571*
Y058349*
X016611*
Y058429*
X016571*
Y058469*
X016491*
Y058429*
X016451*
Y058349*
X016491*
Y058838D02*
Y058798D01*
X016571*
Y058838*
X016611*
Y058918*
X016571*
Y058958*
X016491*
Y058918*
X016451*
Y058838*
X016491*
Y059327D02*
Y059287D01*
X016571*
Y059327*
X016611*
Y059407*
X016571*
Y059447*
X016491*
Y059407*
X016451*
Y059327*
X016491*
Y059816D02*
Y059776D01*
X016571*
Y059816*
X016611*
Y059896*
X016571*
Y059936*
X016491*
Y059896*
X016451*
Y059816*
X016491*
Y060304D02*
Y060264D01*
X016571*
Y060304*
X016611*
Y060384*
X016571*
Y060424*
X016491*
Y060384*
X016451*
Y060304*
X016491*
Y061282D02*
Y061242D01*
X016571*
Y061282*
X016611*
Y061362*
X016571*
Y061402*
X016491*
Y061362*
X016451*
Y061282*
X016491*
Y061771D02*
Y061731D01*
X016571*
Y061771*
X016611*
Y061851*
X016571*
Y061891*
X016491*
Y061851*
X016451*
Y061771*
X016491*
Y062280D02*
Y062240D01*
X016571*
Y062280*
X016611*
Y062360*
X016571*
Y062400*
X016491*
Y062360*
X016451*
Y062280*
X016491*
Y060793D02*
Y060753D01*
X016571*
Y060793*
X016611*
Y060873*
X016571*
Y060913*
X016491*
Y060873*
X016451*
Y060793*
X016491*
X015721Y057860D02*
Y057820D01*
X015801*
Y057860*
X015841*
Y057940*
X015801*
Y057980*
X015721*
Y057940*
X015681*
Y057860*
X015721*
Y058349D02*
Y058309D01*
X015801*
Y058349*
X015841*
Y058429*
X015801*
Y058469*
X015721*
Y058429*
X015681*
Y058349*
X015721*
Y058838D02*
Y058798D01*
X015801*
Y058838*
X015841*
Y058918*
X015801*
Y058958*
X015721*
Y058918*
X015681*
Y058838*
X015721*
Y059327D02*
Y059287D01*
X015801*
Y059327*
X015841*
Y059407*
X015801*
Y059447*
X015721*
Y059407*
X015681*
Y059327*
X015721*
Y059816D02*
Y059776D01*
X015801*
Y059816*
X015841*
Y059896*
X015801*
Y059936*
X015721*
Y059896*
X015681*
Y059816*
X015721*
Y060304D02*
Y060264D01*
X015801*
Y060304*
X015841*
Y060384*
X015801*
Y060424*
X015721*
Y060384*
X015681*
Y060304*
X015721*
Y061282D02*
Y061242D01*
X015801*
Y061282*
X015841*
Y061362*
X015801*
Y061402*
X015721*
Y061362*
X015681*
Y061282*
X015721*
Y061771D02*
Y061731D01*
X015801*
Y061771*
X015841*
Y061851*
X015801*
Y061891*
X015721*
Y061851*
X015681*
Y061771*
X015721*
Y062280D02*
Y062240D01*
X015801*
Y062280*
X015841*
Y062360*
X015801*
Y062400*
X015721*
Y062360*
X015681*
Y062280*
X015721*
Y060793D02*
Y060753D01*
X015801*
Y060793*
X015841*
Y060873*
X015801*
Y060913*
X015721*
Y060873*
X015681*
Y060793*
X015721*
X014952Y057860D02*
Y057820D01*
X015032*
Y057860*
X015072*
Y057940*
X015032*
Y057980*
X014952*
Y057940*
X014912*
Y057860*
X014952*
Y058349D02*
Y058309D01*
X015032*
Y058349*
X015072*
Y058429*
X015032*
Y058469*
X014952*
Y058429*
X014912*
Y058349*
X014952*
Y058838D02*
Y058798D01*
X015032*
Y058838*
X015072*
Y058918*
X015032*
Y058958*
X014952*
Y058918*
X014912*
Y058838*
X014952*
Y059327D02*
Y059287D01*
X015032*
Y059327*
X015072*
Y059407*
X015032*
Y059447*
X014952*
Y059407*
X014912*
Y059327*
X014952*
Y059816D02*
Y059776D01*
X015032*
Y059816*
X015072*
Y059896*
X015032*
Y059936*
X014952*
Y059896*
X014912*
Y059816*
X014952*
Y060304D02*
Y060264D01*
X015032*
Y060304*
X015072*
Y060384*
X015032*
Y060424*
X014952*
Y060384*
X014912*
Y060304*
X014952*
Y061282D02*
Y061242D01*
X015032*
Y061282*
X015072*
Y061362*
X015032*
Y061402*
X014952*
Y061362*
X014912*
Y061282*
X014952*
Y061771D02*
Y061731D01*
X015032*
Y061771*
X015072*
Y061851*
X015032*
Y061891*
X014952*
Y061851*
X014912*
Y061771*
X014952*
Y062280D02*
Y062240D01*
X015032*
Y062280*
X015072*
Y062360*
X015032*
Y062400*
X014952*
Y062360*
X014912*
Y062280*
X014952*
Y060793D02*
Y060753D01*
X015032*
Y060793*
X015072*
Y060873*
X015032*
Y060913*
X014952*
Y060873*
X014912*
Y060793*
X014952*
X014182Y060814D02*
Y060774D01*
X014262*
Y060814*
X014302*
Y060894*
X014262*
Y060934*
X014182*
Y060894*
X014142*
Y060814*
X014182*
Y062280D02*
Y062240D01*
X014262*
Y062280*
X014302*
Y062360*
X014262*
Y062400*
X014182*
Y062360*
X014142*
Y062280*
X014182*
Y061791D02*
Y061751D01*
X014262*
Y061791*
X014302*
Y061871*
X014262*
Y061911*
X014182*
Y061871*
X014142*
Y061791*
X014182*
Y061303D02*
Y061263D01*
X014262*
Y061303*
X014302*
Y061383*
X014262*
Y061423*
X014182*
Y061383*
X014142*
Y061303*
X014182*
Y060325D02*
Y060285D01*
X014262*
Y060325*
X014302*
Y060405*
X014262*
Y060445*
X014182*
Y060405*
X014142*
Y060325*
X014182*
Y059836D02*
Y059796D01*
X014262*
Y059836*
X014302*
Y059916*
X014262*
Y059956*
X014182*
Y059916*
X014142*
Y059836*
X014182*
Y059347D02*
Y059307D01*
X014262*
Y059347*
X014302*
Y059427*
X014262*
Y059467*
X014182*
Y059427*
X014142*
Y059347*
X014182*
Y058858D02*
Y058818D01*
X014262*
Y058858*
X014302*
Y058938*
X014262*
Y058978*
X014182*
Y058938*
X014142*
Y058858*
X014182*
Y058369D02*
Y058329D01*
X014262*
Y058369*
X014302*
Y058449*
X014262*
Y058489*
X014182*
Y058449*
X014142*
Y058369*
X014182*
Y057880D02*
Y057840D01*
X014262*
Y057880*
X014302*
Y057960*
X014262*
Y058000*
X014182*
Y057960*
X014142*
Y057880*
X014182*
X017610Y047910D02*
Y047870D01*
X017690*
Y047910*
X017730*
Y047990*
X017690*
Y048030*
X017610*
Y047990*
X017570*
Y047910*
X017610*
X017460Y049060D02*
Y049020D01*
X017540*
Y049060*
X017580*
Y049140*
X017540*
Y049180*
X017460*
Y049140*
X017420*
Y049060*
X017460*
X013990Y042610D02*
Y042570D01*
X014070*
Y042610*
X014110*
Y042690*
X014070*
Y042730*
X013990*
Y042690*
X013950*
Y042610*
X013990*
Y044160D02*
Y044120D01*
X014070*
Y044160*
X014110*
Y044240*
X014070*
Y044280*
X013990*
Y044240*
X013950*
Y044160*
X013990*
Y045710D02*
Y045670D01*
X014070*
Y045710*
X014110*
Y045790*
X014070*
Y045830*
X013990*
Y045790*
X013950*
Y045710*
X013990*
X014060Y053860D02*
Y053820D01*
X014140*
Y053860*
X014180*
Y053940*
X014140*
Y053980*
X014060*
Y053940*
X014020*
Y053860*
X014060*
X014710D02*
Y053820D01*
X014790*
Y053860*
X014830*
Y053940*
X014790*
Y053980*
X014710*
Y053940*
X014670*
Y053860*
X014710*
X015360D02*
Y053820D01*
X015440*
Y053860*
X015480*
Y053940*
X015440*
Y053980*
X015360*
Y053940*
X015320*
Y053860*
X015360*
X016060D02*
Y053820D01*
X016140*
Y053860*
X016180*
Y053940*
X016140*
Y053980*
X016060*
Y053940*
X016020*
Y053860*
X016060*
X013990Y048810D02*
Y048770D01*
X014070*
Y048810*
X014110*
Y048890*
X014070*
Y048930*
X013990*
Y048890*
X013950*
Y048810*
X013990*
Y047260D02*
Y047220D01*
X014070*
Y047260*
X014110*
Y047340*
X014070*
Y047380*
X013990*
Y047340*
X013950*
Y047260*
X013990*
X023560Y052110D02*
Y052070D01*
X023640*
Y052110*
X023680*
Y052190*
X023640*
Y052230*
X023560*
Y052190*
X023520*
Y052110*
X023560*
X035660Y050660D02*
Y050620D01*
X035740*
Y050660*
X035780*
Y050740*
X035740*
Y050780*
X035660*
Y050740*
X035620*
Y050660*
X035660*
X033760Y057060D02*
Y057020D01*
X033840*
Y057060*
X033880*
Y057140*
X033840*
Y057180*
X033760*
Y057140*
X033720*
Y057060*
X033760*
X017960Y052510D02*
Y052470D01*
X018040*
Y052510*
X018080*
Y052590*
X018040*
Y052630*
X017960*
Y052590*
X017920*
Y052510*
X017960*
X021010Y052110D02*
Y052070D01*
X021090*
Y052110*
X021130*
Y052190*
X021090*
Y052230*
X021010*
Y052190*
X020970*
Y052110*
X021010*
X032260Y037460D02*
Y037420D01*
X032340*
Y037460*
X032380*
Y037540*
X032340*
Y037580*
X032260*
Y037540*
X032220*
Y037460*
X032260*
X028110Y051710D02*
Y051670D01*
X028190*
Y051710*
X028230*
Y051790*
X028190*
Y051830*
X028110*
Y051790*
X028070*
Y051710*
X028110*
X038610Y046660D02*
Y046620D01*
X038690*
Y046660*
X038730*
Y046740*
X038690*
Y046780*
X038610*
Y046740*
X038570*
Y046660*
X038610*
X022460Y058960D02*
Y058920D01*
X022540*
Y058960*
X022580*
Y059040*
X022540*
Y059080*
X022460*
Y059040*
X022420*
Y058960*
X022460*
X027725Y063595D02*
Y063555D01*
X027805*
Y063595*
X027845*
Y063675*
X027805*
Y063715*
X027725*
Y063675*
X027685*
Y063595*
X027725*
X028360Y051260D02*
Y051220D01*
X028440*
Y051260*
X028480*
Y051340*
X028440*
Y051380*
X028360*
Y051340*
X028320*
Y051260*
X028360*
X026160Y050060D02*
Y050020D01*
X026240*
Y050060*
X026280*
Y050140*
X026240*
Y050180*
X026160*
Y050140*
X026120*
Y050060*
X026160*
X024010Y049310D02*
Y049270D01*
X024090*
Y049310*
X024130*
Y049390*
X024090*
Y049430*
X024010*
Y049390*
X023970*
Y049310*
X024010*
X026660Y050060D02*
Y050020D01*
X026740*
Y050060*
X026780*
Y050140*
X026740*
Y050180*
X026660*
Y050140*
X026620*
Y050060*
X026660*
X028010Y050910D02*
Y050870D01*
X028090*
Y050910*
X028130*
Y050990*
X028090*
Y051030*
X028010*
Y050990*
X027970*
Y050910*
X028010*
X031260Y039910D02*
Y039870D01*
X031340*
Y039910*
X031380*
Y039990*
X031340*
Y040030*
X031260*
Y039990*
X031220*
Y039910*
X031260*
X024560Y040010D02*
Y039970D01*
X024640*
Y040010*
X024680*
Y040090*
X024640*
Y040130*
X024560*
Y040090*
X024520*
Y040010*
X024560*
X024760Y038710D02*
Y038670D01*
X024840*
Y038710*
X024880*
Y038790*
X024840*
Y038830*
X024760*
Y038790*
X024720*
Y038710*
X024760*
X024660Y032710D02*
Y032670D01*
X024740*
Y032710*
X024780*
Y032790*
X024740*
Y032830*
X024660*
Y032790*
X024620*
Y032710*
X024660*
X036860Y041860D02*
Y041820D01*
X036940*
Y041860*
X036980*
Y041940*
X036940*
Y041980*
X036860*
Y041940*
X036820*
Y041860*
X036860*
X038260Y055260D02*
Y055220D01*
X038340*
Y055260*
X038380*
Y055340*
X038340*
Y055380*
X038260*
Y055340*
X038220*
Y055260*
X038260*
X038610Y059260D02*
Y059220D01*
X038690*
Y059260*
X038730*
Y059340*
X038690*
Y059380*
X038610*
Y059340*
X038570*
Y059260*
X038610*
X029910Y056810D02*
Y056770D01*
X029990*
Y056810*
X030030*
Y056890*
X029990*
Y056930*
X029910*
Y056890*
X029870*
Y056810*
X029910*
X028275Y060575D02*
Y060535D01*
X028355*
Y060575*
X028395*
Y060655*
X028355*
Y060695*
X028275*
Y060655*
X028235*
Y060575*
X028275*
X019160Y036131D02*
Y036091D01*
X019240*
Y036131*
X019280*
Y036211*
X019240*
Y036251*
X019160*
Y036211*
X019120*
Y036131*
X019160*
X034910Y036110D02*
Y036070D01*
X034990*
Y036110*
X035030*
Y036190*
X034990*
Y036230*
X034910*
Y036190*
X034870*
Y036110*
X034910*
X020210Y035289D02*
Y035249D01*
X020290*
Y035289*
X020330*
Y035369*
X020290*
Y035409*
X020210*
Y035369*
X020170*
Y035289*
X020210*
X033960Y035360D02*
Y035320D01*
X034040*
Y035360*
X034080*
Y035440*
X034040*
Y035480*
X033960*
Y035440*
X033920*
Y035360*
X033960*
X027110Y046110D02*
Y046070D01*
X027190*
Y046110*
X027230*
Y046190*
X027190*
Y046230*
X027110*
Y046190*
X027070*
Y046110*
X027110*
X027810D02*
Y046070D01*
X027890*
Y046110*
X027930*
Y046190*
X027890*
Y046230*
X027810*
Y046190*
X027770*
Y046110*
X027810*
X030310D02*
Y046070D01*
X030390*
Y046110*
X030430*
Y046190*
X030390*
Y046230*
X030310*
Y046190*
X030270*
Y046110*
X030310*
X030910D02*
Y046070D01*
X030990*
Y046110*
X031030*
Y046190*
X030990*
Y046230*
X030910*
Y046190*
X030870*
Y046110*
X030910*
X031510D02*
Y046070D01*
X031590*
Y046110*
X031630*
Y046190*
X031590*
Y046230*
X031510*
Y046190*
X031470*
Y046110*
X031510*
X032410D02*
Y046070D01*
X032490*
Y046110*
X032530*
Y046190*
X032490*
Y046230*
X032410*
Y046190*
X032370*
Y046110*
X032410*
X032510Y057210D02*
Y057170D01*
X032590*
Y057210*
X032630*
Y057290*
X032590*
Y057330*
X032510*
Y057290*
X032470*
Y057210*
X032510*
Y056760D02*
Y056720D01*
X032590*
Y056760*
X032630*
Y056840*
X032590*
Y056880*
X032510*
Y056840*
X032470*
Y056760*
X032510*
X036860Y053960D02*
Y053920D01*
X036940*
Y053960*
X036980*
Y054040*
X036940*
Y054080*
X036860*
Y054040*
X036820*
Y053960*
X036860*
X035110Y054260D02*
Y054220D01*
X035190*
Y054260*
X035230*
Y054340*
X035190*
Y054380*
X035110*
Y054340*
X035070*
Y054260*
X035110*
X035860Y054610D02*
Y054570D01*
X035940*
Y054610*
X035980*
Y054690*
X035940*
Y054730*
X035860*
Y054690*
X035820*
Y054610*
X035860*
X039160Y054210D02*
Y054170D01*
X039240*
Y054210*
X039280*
Y054290*
X039240*
Y054330*
X039160*
Y054290*
X039120*
Y054210*
X039160*
X023810Y051231D02*
Y051191D01*
X023890*
Y051231*
X023930*
Y051311*
X023890*
Y051351*
X023810*
Y051311*
X023770*
Y051231*
X023810*
X034210Y048610D02*
Y048570D01*
X034290*
Y048610*
X034330*
Y048690*
X034290*
Y048730*
X034210*
Y048690*
X034170*
Y048610*
X034210*
X033860Y048910D02*
Y048870D01*
X033940*
Y048910*
X033980*
Y048990*
X033940*
Y049030*
X033860*
Y048990*
X033820*
Y048910*
X033860*
X033460Y048610D02*
Y048570D01*
X033540*
Y048610*
X033580*
Y048690*
X033540*
Y048730*
X033460*
Y048690*
X033420*
Y048610*
X033460*
X033110Y048910D02*
Y048870D01*
X033190*
Y048910*
X033230*
Y048990*
X033190*
Y049030*
X033110*
Y048990*
X033070*
Y048910*
X033110*
X013990Y043310D02*
Y043270D01*
X014070*
Y043310*
X014110*
Y043390*
X014070*
Y043430*
X013990*
Y043390*
X013950*
Y043310*
X013990*
Y047945D02*
Y047905D01*
X014070*
Y047945*
X014110*
Y048025*
X014070*
Y048065*
X013990*
Y048025*
X013950*
Y047945*
X013990*
Y046360D02*
Y046320D01*
X014070*
Y046360*
X014110*
Y046440*
X014070*
Y046480*
X013990*
Y046440*
X013950*
Y046360*
X013990*
X029810Y058610D02*
Y058570D01*
X029890*
Y058610*
X029930*
Y058690*
X029890*
Y058730*
X029810*
Y058690*
X029770*
Y058610*
X029810*
X030210Y060410D02*
Y060370D01*
X030290*
Y060410*
X030330*
Y060490*
X030290*
Y060530*
X030210*
Y060490*
X030170*
Y060410*
X030210*
X026568Y034860D02*
Y034820D01*
X026648*
Y034860*
X026688*
Y034940*
X026648*
Y034980*
X026568*
Y034940*
X026528*
Y034860*
X026568*
X028034D02*
Y034820D01*
X028114*
Y034860*
X028154*
Y034940*
X028114*
Y034980*
X028034*
Y034940*
X027994*
Y034860*
X028034*
X027210Y038310D02*
Y038270D01*
X027290*
Y038310*
X027330*
Y038390*
X027290*
Y038430*
X027210*
Y038390*
X027170*
Y038310*
X027210*
X026710D02*
Y038270D01*
X026790*
Y038310*
X026830*
Y038390*
X026790*
Y038430*
X026710*
Y038390*
X026670*
Y038310*
X026710*
X028620Y032720D02*
Y032680D01*
X028700*
Y032720*
X028740*
Y032800*
X028700*
Y032840*
X028620*
Y032800*
X028580*
Y032720*
X028620*
X024040Y030170D02*
Y030130D01*
X024120*
Y030170*
X024160*
Y030250*
X024120*
Y030290*
X024040*
Y030250*
X024000*
Y030170*
X024040*
Y030820D02*
Y030780D01*
X024120*
Y030820*
X024160*
Y030900*
X024120*
Y030940*
X024040*
Y030900*
X024000*
Y030820*
X024040*
X025525Y032025D02*
Y031985D01*
X025605*
Y032025*
X025645*
Y032105*
X025605*
Y032145*
X025525*
Y032105*
X025485*
Y032025*
X025525*
X027950Y032020D02*
Y031980D01*
X028030*
Y032020*
X028070*
Y032100*
X028030*
Y032140*
X027950*
Y032100*
X027910*
Y032020*
X027950*
X028620Y032180D02*
Y032140D01*
X028700*
Y032180*
X028740*
Y032260*
X028700*
Y032300*
X028620*
Y032260*
X028580*
Y032180*
X028620*
X025520Y034110D02*
Y034070D01*
X025600*
Y034110*
X025640*
Y034190*
X025600*
Y034230*
X025520*
Y034190*
X025480*
Y034110*
X025520*
X026962Y031920D02*
Y031880D01*
X027042*
Y031920*
X027082*
Y032000*
X027042*
Y032040*
X026962*
Y032000*
X026922*
Y031920*
X026962*
X027040Y031090D02*
Y031050D01*
X027120*
Y031090*
X027160*
Y031170*
X027120*
Y031210*
X027040*
Y031170*
X027000*
Y031090*
X027040*
Y030610D02*
Y030570D01*
X027120*
Y030610*
X027160*
Y030690*
X027120*
Y030730*
X027040*
Y030690*
X027000*
Y030610*
X027040*
Y030130D02*
Y030090D01*
X027120*
Y030130*
X027160*
Y030210*
X027120*
Y030250*
X027040*
Y030210*
X027000*
Y030130*
X027040*
X030577Y060720D02*
Y060680D01*
X030657*
Y060720*
X030697*
Y060800*
X030657*
Y060840*
X030577*
Y060800*
X030537*
Y060720*
X030577*
X039900Y050470D02*
Y050430D01*
X039980*
Y050470*
X040020*
Y050550*
X039980*
Y050590*
X039900*
Y050550*
X039860*
Y050470*
X039900*
X039380D02*
Y050430D01*
X039460*
Y050470*
X039500*
Y050550*
X039460*
Y050590*
X039380*
Y050550*
X039340*
Y050470*
X039380*
X037300Y051360D02*
Y051320D01*
X037380*
Y051360*
X037420*
Y051440*
X037380*
Y051480*
X037300*
Y051440*
X037260*
Y051360*
X037300*
Y051860D02*
Y051820D01*
X037380*
Y051860*
X037420*
Y051940*
X037380*
Y051980*
X037300*
Y051940*
X037260*
Y051860*
X037300*
X038470Y058120D02*
Y058080D01*
X038550*
Y058120*
X038590*
Y058200*
X038550*
Y058240*
X038470*
Y058200*
X038430*
Y058120*
X038470*
X038950Y058130D02*
Y058090D01*
X039030*
Y058130*
X039070*
Y058210*
X039030*
Y058250*
X038950*
Y058210*
X038910*
Y058130*
X038950*
X039460Y059270D02*
Y059230D01*
X039540*
Y059270*
X039580*
Y059350*
X039540*
Y059390*
X039460*
Y059350*
X039420*
Y059270*
X039460*
X038130Y059260D02*
Y059220D01*
X038210*
Y059260*
X038250*
Y059340*
X038210*
Y059380*
X038130*
Y059340*
X038090*
Y059260*
X038130*
X032410Y059860D02*
Y059820D01*
X032490*
Y059860*
X032530*
Y059940*
X032490*
Y059980*
X032410*
Y059940*
X032370*
Y059860*
X032410*
X030580Y058210D02*
Y058170D01*
X030660*
Y058210*
X030700*
Y058290*
X030660*
Y058330*
X030580*
Y058290*
X030540*
Y058210*
X030580*
X030110D02*
Y058170D01*
X030190*
Y058210*
X030230*
Y058290*
X030190*
Y058330*
X030110*
Y058290*
X030070*
Y058210*
X030110*
X030390Y058810D02*
Y058770D01*
X030470*
Y058810*
X030510*
Y058890*
X030470*
Y058930*
X030390*
Y058890*
X030350*
Y058810*
X030390*
X030810D02*
Y058770D01*
X030890*
Y058810*
X030930*
Y058890*
X030890*
Y058930*
X030810*
Y058890*
X030770*
Y058810*
X030810*
X028650Y055330D02*
Y055290D01*
X028730*
Y055330*
X028770*
Y055410*
X028730*
Y055450*
X028650*
Y055410*
X028610*
Y055330*
X028650*
X029100D02*
Y055290D01*
X029180*
Y055330*
X029220*
Y055410*
X029180*
Y055450*
X029100*
Y055410*
X029060*
Y055330*
X029100*
X030510Y055570D02*
Y055530D01*
X030590*
Y055570*
X030630*
Y055650*
X030590*
Y055690*
X030510*
Y055650*
X030470*
Y055570*
X030510*
Y055110D02*
Y055070D01*
X030590*
Y055110*
X030630*
Y055190*
X030590*
Y055230*
X030510*
Y055190*
X030470*
Y055110*
X030510*
X027510Y057660D02*
Y057620D01*
X027590*
Y057660*
X027630*
Y057740*
X027590*
Y057780*
X027510*
Y057740*
X027470*
Y057660*
X027510*
X027860Y057410D02*
Y057370D01*
X027940*
Y057410*
X027980*
Y057490*
X027940*
Y057530*
X027860*
Y057490*
X027820*
Y057410*
X027860*
X029110Y057310D02*
Y057270D01*
X029190*
Y057310*
X029230*
Y057390*
X029190*
Y057430*
X029110*
Y057390*
X029070*
Y057310*
X029110*
X026410Y053860D02*
Y053820D01*
X026490*
Y053860*
X026530*
Y053940*
X026490*
Y053980*
X026410*
Y053940*
X026370*
Y053860*
X026410*
X027010D02*
Y053820D01*
X027090*
Y053860*
X027130*
Y053940*
X027090*
Y053980*
X027010*
Y053940*
X026970*
Y053860*
X027010*
X030760Y049610D02*
Y049570D01*
X030840*
Y049610*
X030880*
Y049690*
X030840*
Y049730*
X030760*
Y049690*
X030720*
Y049610*
X030760*
X035610Y047660D02*
Y047620D01*
X035690*
Y047660*
X035730*
Y047740*
X035690*
Y047780*
X035610*
Y047740*
X035570*
Y047660*
X035610*
X037960Y047410D02*
Y047370D01*
X038040*
Y047410*
X038080*
Y047490*
X038040*
Y047530*
X037960*
Y047490*
X037920*
Y047410*
X037960*
X036610Y047660D02*
Y047620D01*
X036690*
Y047660*
X036730*
Y047740*
X036690*
Y047780*
X036610*
Y047740*
X036570*
Y047660*
X036610*
X031160Y056910D02*
Y056870D01*
X031240*
Y056910*
X031280*
Y056990*
X031240*
Y057030*
X031160*
Y056990*
X031120*
Y056910*
X031160*
X028510Y046760D02*
Y046720D01*
X028590*
Y046760*
X028630*
Y046840*
X028590*
Y046880*
X028510*
Y046840*
X028470*
Y046760*
X028510*
X025410Y054860D02*
Y054820D01*
X025490*
Y054860*
X025530*
Y054940*
X025490*
Y054980*
X025410*
Y054940*
X025370*
Y054860*
X025410*
X027060Y056160D02*
Y056120D01*
X027140*
Y056160*
X027180*
Y056240*
X027140*
Y056280*
X027060*
Y056240*
X027020*
Y056160*
X027060*
X029610Y038210D02*
Y038170D01*
X029690*
Y038210*
X029730*
Y038290*
X029690*
Y038330*
X029610*
Y038290*
X029570*
Y038210*
X029610*
X028010Y050160D02*
Y050120D01*
X028090*
Y050160*
X028130*
Y050240*
X028090*
Y050280*
X028010*
Y050240*
X027970*
Y050160*
X028010*
X027210D02*
Y050120D01*
X027290*
Y050160*
X027330*
Y050240*
X027290*
Y050280*
X027210*
Y050240*
X027170*
Y050160*
X027210*
X026560Y058010D02*
Y057970D01*
X026640*
Y058010*
X026680*
Y058090*
X026640*
Y058130*
X026560*
Y058090*
X026520*
Y058010*
X026560*
X027210Y057960D02*
Y057920D01*
X027290*
Y057960*
X027330*
Y058040*
X027290*
Y058080*
X027210*
Y058040*
X027170*
Y057960*
X027210*
X027510Y058260D02*
Y058220D01*
X027590*
Y058260*
X027630*
Y058340*
X027590*
Y058380*
X027510*
Y058340*
X027470*
Y058260*
X027510*
X026860Y050510D02*
Y050470D01*
X026940*
Y050510*
X026980*
Y050590*
X026940*
Y050630*
X026860*
Y050590*
X026820*
Y050510*
X026860*
X028360D02*
Y050470D01*
X028440*
Y050510*
X028480*
Y050590*
X028440*
Y050630*
X028360*
Y050590*
X028320*
Y050510*
X028360*
X029860Y037660D02*
Y037620D01*
X029940*
Y037660*
X029980*
Y037740*
X029940*
Y037780*
X029860*
Y037740*
X029820*
Y037660*
X029860*
X029160D02*
Y037620D01*
X029240*
Y037660*
X029280*
Y037740*
X029240*
Y037780*
X029160*
Y037740*
X029120*
Y037660*
X029160*
Y039710D02*
Y039670D01*
X029240*
Y039710*
X029280*
Y039790*
X029240*
Y039830*
X029160*
Y039790*
X029120*
Y039710*
X029160*
X024260D02*
Y039670D01*
X024340*
Y039710*
X024380*
Y039790*
X024340*
Y039830*
X024260*
Y039790*
X024220*
Y039710*
X024260*
X022960Y037010D02*
Y036970D01*
X023040*
Y037010*
X023080*
Y037090*
X023040*
Y037130*
X022960*
Y037090*
X022920*
Y037010*
X022960*
X023160Y039045D02*
Y039005D01*
X023240*
Y039045*
X023280*
Y039125*
X023240*
Y039165*
X023160*
Y039125*
X023120*
Y039045*
X023160*
X023560Y038010D02*
Y037970D01*
X023640*
Y038010*
X023680*
Y038090*
X023640*
Y038130*
X023560*
Y038090*
X023520*
Y038010*
X023560*
Y034410D02*
Y034370D01*
X023640*
Y034410*
X023680*
Y034490*
X023640*
Y034530*
X023560*
Y034490*
X023520*
Y034410*
X023560*
X037510Y044160D02*
Y044120D01*
X037590*
Y044160*
X037630*
Y044240*
X037590*
Y044280*
X037510*
Y044240*
X037470*
Y044160*
X037510*
X025910Y040760D02*
Y040720D01*
X025990*
Y040760*
X026030*
Y040840*
X025990*
Y040880*
X025910*
Y040840*
X025870*
Y040760*
X025910*
X031210Y040360D02*
Y040320D01*
X031290*
Y040360*
X031330*
Y040440*
X031290*
Y040480*
X031210*
Y040440*
X031170*
Y040360*
X031210*
X037510Y043560D02*
Y043520D01*
X037590*
Y043560*
X037630*
Y043640*
X037590*
Y043680*
X037510*
Y043640*
X037470*
Y043560*
X037510*
X021710Y040160D02*
Y040120D01*
X021790*
Y040160*
X021830*
Y040240*
X021790*
Y040280*
X021710*
Y040240*
X021670*
Y040160*
X021710*
X037410Y042960D02*
Y042920D01*
X037490*
Y042960*
X037530*
Y043040*
X037490*
Y043080*
X037410*
Y043040*
X037370*
Y042960*
X037410*
X031760Y028260D02*
Y028220D01*
X031840*
Y028260*
X031880*
Y028340*
X031840*
Y028380*
X031760*
Y028340*
X031720*
Y028260*
X031760*
X026310Y023560D02*
Y023520D01*
X026390*
Y023560*
X026430*
Y023640*
X026390*
Y023680*
X026310*
Y023640*
X026270*
Y023560*
X026310*
X027360Y023910D02*
Y023870D01*
X027440*
Y023910*
X027480*
Y023990*
X027440*
Y024030*
X027360*
Y023990*
X027320*
Y023910*
X027360*
X026110Y056160D02*
Y056120D01*
X026190*
Y056160*
X026230*
Y056240*
X026190*
Y056280*
X026110*
Y056240*
X026070*
Y056160*
X026110*
Y057310D02*
Y057270D01*
X026190*
Y057310*
X026230*
Y057390*
X026190*
Y057430*
X026110*
Y057390*
X026070*
Y057310*
X026110*
X028660Y056160D02*
Y056120D01*
X028740*
Y056160*
X028780*
Y056240*
X028740*
Y056280*
X028660*
Y056240*
X028620*
Y056160*
X028660*
X031610D02*
Y056120D01*
X031690*
Y056160*
X031730*
Y056240*
X031690*
Y056280*
X031610*
Y056240*
X031570*
Y056160*
X031610*
X032110Y060960D02*
Y060920D01*
X032190*
Y060960*
X032230*
Y061040*
X032190*
Y061080*
X032110*
Y061040*
X032070*
Y060960*
X032110*
X029910Y060060D02*
Y060020D01*
X029990*
Y060060*
X030030*
Y060140*
X029990*
Y060180*
X029910*
Y060140*
X029870*
Y060060*
X029910*
X021660Y036810D02*
Y036770D01*
X021740*
Y036810*
X021780*
Y036890*
X021740*
Y036930*
X021660*
Y036890*
X021620*
Y036810*
X021660*
Y038160D02*
Y038120D01*
X021740*
Y038160*
X021780*
Y038240*
X021740*
Y038280*
X021660*
Y038240*
X021620*
Y038160*
X021660*
Y039510D02*
Y039470D01*
X021740*
Y039510*
X021780*
Y039590*
X021740*
Y039630*
X021660*
Y039590*
X021620*
Y039510*
X021660*
X032710Y061810D02*
Y061770D01*
X032790*
Y061810*
X032830*
Y061890*
X032790*
Y061930*
X032710*
Y061890*
X032670*
Y061810*
X032710*
X037610Y063110D02*
Y063070D01*
X037690*
Y063110*
X037730*
Y063190*
X037690*
Y063230*
X037610*
Y063190*
X037570*
Y063110*
X037610*
Y062360D02*
Y062320D01*
X037690*
Y062360*
X037730*
Y062440*
X037690*
Y062480*
X037610*
Y062440*
X037570*
Y062360*
X037610*
Y061310D02*
Y061270D01*
X037690*
Y061310*
X037730*
Y061390*
X037690*
Y061430*
X037610*
Y061390*
X037570*
Y061310*
X037610*
X030810Y040160D02*
Y040120D01*
X030890*
Y040160*
X030930*
Y040240*
X030890*
Y040280*
X030810*
Y040240*
X030770*
Y040160*
X030810*
X031060Y037860D02*
Y037820D01*
X031140*
Y037860*
X031180*
Y037940*
X031140*
Y037980*
X031060*
Y037940*
X031020*
Y037860*
X031060*
X013990Y044810D02*
Y044770D01*
X014070*
Y044810*
X014110*
Y044890*
X014070*
Y044930*
X013990*
Y044890*
X013950*
Y044810*
X013990*
X031610Y061310D02*
Y061270D01*
X031690*
Y061310*
X031730*
Y061390*
X031690*
Y061430*
X031610*
Y061390*
X031570*
Y061310*
X031610*
X032110Y061360D02*
Y061320D01*
X032190*
Y061360*
X032230*
Y061440*
X032190*
Y061480*
X032110*
Y061440*
X032070*
Y061360*
X032110*
X028195Y040875D02*
Y040835D01*
X028275*
Y040875*
X028315*
Y040955*
X028275*
Y040995*
X028195*
Y040955*
X028155*
Y040875*
X028195*
X039250Y041260D02*
Y041220D01*
X039330*
Y041260*
X039370*
Y041340*
X039330*
Y041380*
X039250*
Y041340*
X039210*
Y041260*
X039250*
X037950Y045870D02*
Y045830D01*
X038030*
Y045870*
X038070*
Y045950*
X038030*
Y045990*
X037950*
Y045950*
X037910*
Y045870*
X037950*
X039780Y054690D02*
Y054650D01*
X039860*
Y054690*
X039900*
Y054770*
X039860*
Y054810*
X039780*
Y054770*
X039740*
Y054690*
X039780*
X013990Y049500D02*
Y049460D01*
X014070*
Y049500*
X014110*
Y049580*
X014070*
Y049620*
X013990*
Y049580*
X013950*
Y049500*
X013990*
G54D128*
X029010Y051750D02*
D01*
X029009Y051755*
X029009Y051761*
X029008Y051766*
X029006Y051772*
X029005Y051777*
X029003Y051782*
X029000Y051787*
X028997Y051792*
X028994Y051797*
X028991Y051801*
X028987Y051805*
X028983Y051809*
X028979Y051813*
X028974Y051816*
X028970Y051819*
X028965Y051821*
X028959Y051824*
X028954Y051826*
X028949Y051827*
X028943Y051828*
X028938Y051829*
X028932Y051829*
X028927*
X028921Y051829*
X028916Y051828*
X028910Y051827*
X028905Y051826*
X028900Y051824*
X028894Y051821*
X028890Y051819*
X028885Y051816*
X028880Y051813*
X028876Y051809*
X028872Y051805*
X028868Y051801*
X028865Y051797*
X028862Y051792*
X028859Y051787*
X028856Y051782*
X028854Y051777*
X028853Y051772*
X028851Y051766*
X028850Y051761*
X028850Y051755*
X028850Y051750*
X028850Y051744*
X028850Y051738*
X028851Y051733*
X028853Y051727*
X028854Y051722*
X028856Y051717*
X028859Y051712*
X028862Y051707*
X028865Y051702*
X028868Y051698*
X028872Y051694*
X028876Y051690*
X028880Y051686*
X028885Y051683*
X028890Y051680*
X028894Y051678*
X028900Y051675*
X028905Y051673*
X028910Y051672*
X028916Y051671*
X028921Y051670*
X028927Y051670*
X028932*
X028938Y051670*
X028943Y051671*
X028949Y051672*
X028954Y051673*
X028959Y051675*
X028965Y051678*
X028970Y051680*
X028974Y051683*
X028979Y051686*
X028983Y051690*
X028987Y051694*
X028991Y051698*
X028994Y051702*
X028997Y051707*
X029000Y051712*
X029003Y051717*
X029005Y051722*
X029006Y051727*
X029008Y051733*
X029009Y051738*
X029009Y051744*
X029010Y051750*
X026450D02*
D01*
X026449Y051755*
X026449Y051761*
X026448Y051766*
X026446Y051772*
X026445Y051777*
X026443Y051782*
X026440Y051787*
X026437Y051792*
X026434Y051797*
X026431Y051801*
X026427Y051805*
X026423Y051809*
X026419Y051813*
X026414Y051816*
X026410Y051819*
X026405Y051821*
X026399Y051824*
X026394Y051826*
X026389Y051827*
X026383Y051828*
X026378Y051829*
X026372Y051829*
X026367*
X026361Y051829*
X026356Y051828*
X026350Y051827*
X026345Y051826*
X026340Y051824*
X026334Y051821*
X026330Y051819*
X026325Y051816*
X026320Y051813*
X026316Y051809*
X026312Y051805*
X026308Y051801*
X026305Y051797*
X026302Y051792*
X026299Y051787*
X026296Y051782*
X026294Y051777*
X026293Y051772*
X026291Y051766*
X026290Y051761*
X026290Y051755*
X026290Y051750*
X026290Y051744*
X026290Y051738*
X026291Y051733*
X026293Y051727*
X026294Y051722*
X026296Y051717*
X026299Y051712*
X026302Y051707*
X026305Y051702*
X026308Y051698*
X026312Y051694*
X026316Y051690*
X026320Y051686*
X026325Y051683*
X026330Y051680*
X026334Y051678*
X026340Y051675*
X026345Y051673*
X026350Y051672*
X026356Y051671*
X026361Y051670*
X026367Y051670*
X026372*
X026378Y051670*
X026383Y051671*
X026389Y051672*
X026394Y051673*
X026399Y051675*
X026405Y051678*
X026410Y051680*
X026414Y051683*
X026419Y051686*
X026423Y051690*
X026427Y051694*
X026431Y051698*
X026434Y051702*
X026437Y051707*
X026440Y051712*
X026443Y051717*
X026445Y051722*
X026446Y051727*
X026448Y051733*
X026449Y051738*
X026449Y051744*
X026450Y051750*
M02*