%FSDAX24Y24*%
%MOIN*%
%SFA1B1*%

%IPPOS*%
%ADD44C,0.010000*%
%ADD49C,0.019700*%
%ADD78C,0.007900*%
%ADD79C,0.003900*%
%LNde-290817-1*%
%LPD*%
G54D44*
X032772Y050951D02*
Y057351D01*
Y050951D02*
X034772D01*
Y057351*
X032772D02*
X034772D01*
X013300Y064331D02*
X040859D01*
X013300Y044646D02*
X040859D01*
X013300D02*
Y064331D01*
X040859Y044646D02*
Y064331D01*
X014481Y045827D02*
X037709D01*
X014481D02*
Y063150D01*
X037709Y045827D02*
Y063150D01*
X014481D02*
X037709D01*
X013300Y041496D02*
X040850D01*
X013300Y031851D02*
X040850D01*
X013300D02*
Y041496D01*
X040850Y031851D02*
Y041496D01*
X014875Y040315D02*
Y041496D01*
Y040315D02*
X016843D01*
Y041496*
X025898Y040315D02*
Y041496D01*
X023930Y040315D02*
X025898D01*
X023930D02*
Y041496D01*
X030229Y040315D02*
Y041496D01*
X028261Y040315D02*
X030229D01*
X028261D02*
Y041496D01*
X039284Y040315D02*
Y041496D01*
X037316Y040315D02*
X039284D01*
X037316D02*
Y041496D01*
X028064Y022993D02*
Y024174D01*
X026095Y022993D02*
X028064D01*
X026095D02*
Y024174D01*
G54D49*
X021174Y031851D02*
Y041300D01*
X032985Y031851D02*
Y041300D01*
X032591Y013200D02*
Y024174D01*
X021568Y013200D02*
Y024174D01*
Y013200D02*
X032591D01*
X021568Y024174D02*
X032591D01*
G54D78*
X026469Y023898D02*
X026942D01*
X026469Y023268D02*
X026942D01*
X026469D02*
Y023898D01*
X027808Y023426D02*
Y023741D01*
X027217Y023898D02*
X027611D01*
Y023268D02*
X027808Y023426D01*
X027611Y023898D02*
X027808Y023741D01*
X027217Y023268D02*
X027611D01*
X015249Y041221D02*
X015721D01*
X015249Y040591D02*
X015721D01*
X015249D02*
Y041221D01*
X016587Y040748D02*
Y041063D01*
X015997Y041221D02*
X016391D01*
Y040591D02*
X016587Y040748D01*
X016391Y041221D02*
X016587Y041063D01*
X015997Y040591D02*
X016391D01*
X024988Y040585D02*
X025382D01*
Y041215D02*
X025578Y041057D01*
X025382Y040585D02*
X025578Y040743D01*
X024988Y041215D02*
X025382D01*
X025578Y040743D02*
Y041057D01*
X024240Y040585D02*
Y041215D01*
Y040585D02*
X024712D01*
X024240Y041215D02*
X024712D01*
X037640Y041221D02*
X038112D01*
X037640Y040591D02*
X038112D01*
X037640D02*
Y041221D01*
X038978Y040748D02*
Y041063D01*
X038388Y041221D02*
X038781D01*
Y040591D02*
X038978Y040748D01*
X038781Y041221D02*
X038978Y041063D01*
X038388Y040591D02*
X038781D01*
G54D79*
X034780Y057640D02*
Y057837D01*
X034682*
X034649Y057804*
Y057738*
X034682Y057706*
X034780*
X034583Y057640D02*
X034518D01*
X034550*
Y057837*
X034583Y057804*
X034419D02*
X034386Y057837D01*
X034321*
X034288Y057804*
Y057673*
X034321Y057640*
X034386*
X034419Y057673*
Y057804*
X034222Y057640D02*
X034157D01*
X034190*
Y057837*
X034222Y057804*
X027450Y024597D02*
Y024400D01*
X027352*
X027319Y024433*
Y024564*
X027352Y024597*
X027450*
X027253Y024400D02*
X027188D01*
X027220*
Y024597*
X027253Y024564*
X027089D02*
X027056Y024597D01*
X026991*
X026958Y024564*
Y024433*
X026991Y024400*
X027056*
X027089Y024433*
Y024564*
X026761Y024597D02*
X026892D01*
Y024498*
X026827Y024531*
X026794*
X026761Y024498*
Y024433*
X026794Y024400*
X026860*
X026892Y024433*
X038650Y041897D02*
Y041700D01*
X038552*
X038519Y041733*
Y041864*
X038552Y041897*
X038650*
X038453Y041700D02*
X038388D01*
X038420*
Y041897*
X038453Y041864*
X038289D02*
X038256Y041897D01*
X038191*
X038158Y041864*
Y041733*
X038191Y041700*
X038256*
X038289Y041733*
Y041864*
X037994Y041700D02*
Y041897D01*
X038092Y041798*
X037961*
X025250Y041891D02*
Y041694D01*
X025152*
X025119Y041727*
Y041858*
X025152Y041891*
X025250*
X025053Y041694D02*
X024988D01*
X025020*
Y041891*
X025053Y041858*
X024889D02*
X024856Y041891D01*
X024791*
X024758Y041858*
Y041727*
X024791Y041694*
X024856*
X024889Y041727*
Y041858*
X024561Y041694D02*
X024692D01*
X024561Y041825*
Y041858*
X024594Y041891*
X024660*
X024692Y041858*
X016250Y041897D02*
Y041700D01*
X016152*
X016119Y041733*
Y041864*
X016152Y041897*
X016250*
X016053Y041700D02*
X015988D01*
X016020*
Y041897*
X016053Y041864*
X015889D02*
X015856Y041897D01*
X015791*
X015758Y041864*
Y041733*
X015791Y041700*
X015856*
X015889Y041733*
Y041864*
X015692D02*
X015660Y041897D01*
X015594*
X015561Y041864*
Y041733*
X015594Y041700*
X015660*
X015692Y041733*
Y041864*
M02*