%FSDAX24Y24*%
%MOIN*%
%SFA1B1*%

%IPPOS*%
%ADD32C,0.059100*%
%ADD62C,0.053200*%
%ADD63R,0.059100X0.059100*%
%ADD64R,0.059100X0.059100*%
%ADD65C,0.060000*%
%ADD66C,0.047200*%
%ADD68O,0.157500X0.015700*%
%ADD69R,0.157500X0.015700*%
%ADD70R,0.031500X0.031500*%
%LNde-290817-1*%
%LPD*%
G54D32*
X019100Y047950D03*
Y045981D03*
X020100Y047950D03*
Y045981D03*
X021147D03*
X022132D03*
X023116D03*
X024100D03*
X021147Y047950D03*
X022132D03*
X023116D03*
X024100D03*
X028450Y062200D03*
Y063200D03*
X029450Y062200D03*
Y063200D03*
X030450Y062200D03*
Y063200D03*
X031450Y062200D03*
X032250Y053800D03*
X034850Y062200D03*
X019080Y043600D03*
X020080Y042600D03*
Y043600D03*
X021080Y042600D03*
Y043600D03*
X022080Y042600D03*
Y043600D03*
X023080Y042600D03*
Y043600D03*
X024080Y042600D03*
Y043600D03*
X025080Y042600D03*
Y043600D03*
X026080Y042600D03*
Y043600D03*
X027080Y042600D03*
Y043600D03*
X028080Y042600D03*
Y043600D03*
X029080Y042600D03*
Y043600D03*
X030080Y042600D03*
Y043600D03*
X031080Y042600D03*
Y043600D03*
X032080Y042600D03*
Y043600D03*
X033080Y042600D03*
Y043600D03*
X034080Y042600D03*
Y043600D03*
X035080Y042600D03*
Y043600D03*
G54D62*
X028930Y051750D03*
X026370D03*
G54D63*
X031450Y063200D03*
X031250Y053800D03*
X019080Y042600D03*
G54D64*
X034850Y063200D03*
G54D65*
X038536Y061714D03*
X036764D03*
X038536Y063486D03*
X036764D03*
X029325Y048800D03*
X026175D03*
G54D66*
X037450Y058137D03*
Y058963D03*
G54D68*
X033772Y051496D03*
Y051811D03*
Y052126D03*
Y052441D03*
Y052756D03*
Y053071D03*
Y053386D03*
Y053701D03*
Y054016D03*
Y054331D03*
Y054646D03*
Y054961D03*
Y055276D03*
Y055591D03*
Y055906D03*
Y056221D03*
Y056536D03*
G54D69*
X033772Y056851D03*
G54D70*
X027375Y023583D03*
X026784D03*
X016154Y040906D03*
X015564D03*
X024555Y040900D03*
X025145D03*
X038545Y040906D03*
X037955D03*
M02*