%FSDAX24Y24*%
%MOIN*%
%SFA1B1*%

%IPPOS*%
%ADD9500C,0.015700*%
%ADD9501C,0.023600*%
%ADD9502C,0.030000*%
%ADD9503C,0.031500*%
%ADD9504C,0.035400*%
%ADD9505C,0.047200*%
%LNde-290817-1*%
%LPD*%
G54D9500*
X027991Y015118D03*
X031800Y028300D03*
X031650Y029050D03*
X034200D03*
X035950D03*
X037900Y029100D03*
X039900D03*
X029650Y029050D03*
X027080Y030170D03*
Y030650D03*
Y031130D03*
X024700Y030900D03*
Y030300D03*
X024080Y030210D03*
Y030860D03*
X021650Y030270D03*
Y029050D03*
X019950D03*
X018250D03*
X016550D03*
X025898Y025750D03*
X027080Y026536D03*
X028250Y025750D03*
X027400Y023950D03*
X026350Y023600D03*
X026820Y016300D03*
X014850Y029050D03*
X014030Y042650D03*
Y043350D03*
Y044200D03*
Y044850D03*
Y045750D03*
Y046400D03*
X018150Y044100D03*
Y043450D03*
X021750Y040200D03*
X021700Y039550D03*
Y038200D03*
Y036850D03*
X023000Y037050D03*
X023600Y038050D03*
X023200Y039085D03*
X024300Y039750D03*
X024600Y040050D03*
X024800Y038750D03*
X026750Y038350D03*
X027250D03*
X028200Y037450D03*
X029200Y037700D03*
X029900D03*
X029650Y038250D03*
X031100Y037900D03*
X030850Y040200D03*
X029200Y039750D03*
X028235Y040915D03*
X025950Y040800D03*
X025650Y041600D03*
X026200Y037450D03*
X026608Y034900D03*
X028074D03*
X028900D03*
X028660Y032760D03*
Y032220D03*
X027990Y032060D03*
X027002Y031960D03*
X025565Y032065D03*
X024700Y032750D03*
X025560Y034150D03*
X025050Y035200D03*
X023600Y034450D03*
X021700Y033880D03*
Y035100D03*
X020250Y035329D03*
X019200Y036171D03*
X021700Y032660D03*
Y031440D03*
X027150Y046150D03*
X027850D03*
X028550Y046800D03*
X030350Y046150D03*
X030950D03*
X031550D03*
X032450D03*
X037990Y045910D03*
X038650Y046700D03*
X040350Y044850D03*
X037550Y044200D03*
Y043600D03*
X037450Y043000D03*
X036900Y041900D03*
X039290Y041300D03*
X040350D03*
X031250Y040400D03*
X031300Y039950D03*
X032300Y037500D03*
X031400Y036550D03*
X031650Y033800D03*
X034000Y035400D03*
X034950Y036150D03*
X035650Y047700D03*
X036650D03*
X038000Y047450D03*
X040350Y048400D03*
X039940Y050510D03*
X039420D03*
X037340Y051400D03*
Y051900D03*
X036900Y054000D03*
X035900Y054650D03*
X035150Y054300D03*
X036350Y055700D03*
X035900Y057350D03*
X033800Y057100D03*
X032550Y057250D03*
Y056800D03*
X031650Y056200D03*
X033650Y058550D03*
X032450Y059900D03*
X032150Y061000D03*
Y061400D03*
X031650Y061350D03*
X032750Y061850D03*
X035100Y061550D03*
X036450Y060400D03*
X037650Y061350D03*
Y062400D03*
X038170Y059300D03*
X038650D03*
X039500Y059310D03*
X038990Y058170D03*
X038510Y058160D03*
X038300Y055300D03*
X039200Y054250D03*
X039820Y054730D03*
X035700Y050700D03*
X034250Y048650D03*
X033900Y048950D03*
X033500Y048650D03*
X033150Y048950D03*
X031450Y050050D03*
X030800Y049650D03*
Y048050D03*
X027200Y047850D03*
X027250Y050200D03*
X026700Y050100D03*
X026200D03*
X026900Y050550D03*
X028050Y050200D03*
X028400Y050550D03*
Y051300D03*
X028150Y051750D03*
X028050Y050950D03*
X026150Y052850D03*
X026450Y053900D03*
X027050D03*
X027100Y056200D03*
X026150D03*
X025750Y055600D03*
X025450Y054900D03*
X026150Y057350D03*
X026600Y058050D03*
X027250Y058000D03*
X027550Y057700D03*
X027900Y057450D03*
X027550Y058300D03*
X029200Y057850D03*
X029150Y057350D03*
X030300Y057400D03*
X029950Y056850D03*
X031200Y056950D03*
X030620Y058250D03*
X030150D03*
X029850Y058650D03*
X030430Y058850D03*
X030850D03*
X030617Y060760D03*
X030250Y060450D03*
X029950Y060100D03*
X028975Y060615D03*
X028315D03*
X028700Y056200D03*
X028690Y055370D03*
X029140D03*
X030550Y055150D03*
Y055610D03*
X023600Y052150D03*
X023850Y051271D03*
X024050Y049350D03*
X023550D03*
X021850Y050550D03*
X021050Y052150D03*
X019350Y050600D03*
X017500Y050700D03*
Y051900D03*
X018000Y052550D03*
X016100Y053300D03*
Y053900D03*
X018500Y054750D03*
X018863D03*
X019225D03*
X019588D03*
X019950D03*
Y055150D03*
Y055750D03*
Y056250D03*
X017300Y057900D03*
Y058389D03*
Y058878D03*
Y059367D03*
Y059856D03*
Y060344D03*
Y060833D03*
Y061322D03*
Y061811D03*
Y062320D03*
X016531D03*
Y061811D03*
Y061322D03*
Y060833D03*
Y060344D03*
Y059856D03*
Y059367D03*
Y058878D03*
Y058389D03*
Y057900D03*
X015761D03*
Y058389D03*
Y058878D03*
Y059367D03*
Y059856D03*
Y060344D03*
Y060833D03*
Y061322D03*
Y061811D03*
Y062320D03*
X022500Y059000D03*
X022900D03*
X017500Y049100D03*
X017650Y047950D03*
X014030Y047985D03*
Y047300D03*
Y048850D03*
Y049540D03*
X014100Y053300D03*
Y053900D03*
X014750D03*
Y053300D03*
X015400D03*
Y053900D03*
X014992Y057900D03*
Y058389D03*
Y058878D03*
Y059367D03*
Y059856D03*
Y060344D03*
Y060833D03*
Y061322D03*
Y061811D03*
Y062320D03*
X014222D03*
Y061831D03*
Y061343D03*
Y060854D03*
Y060365D03*
Y059876D03*
Y059387D03*
Y058898D03*
Y058409D03*
Y057920D03*
X027765Y063635D03*
X037650Y063150D03*
G54D9501*
X037450Y058137D03*
Y058963D03*
G54D9502*
X036764Y061714D03*
X038536D03*
X029325Y048800D03*
X026175D03*
X036764Y063486D03*
X038536D03*
G54D9503*
X026370Y051750D03*
X028930D03*
G54D9504*
X019080Y042600D03*
Y043600D03*
X020080D03*
Y042600D03*
X021080D03*
Y043600D03*
X022080D03*
Y042600D03*
X023080D03*
Y043600D03*
X024080D03*
Y042600D03*
X025080D03*
Y043600D03*
X026080D03*
Y042600D03*
X027080D03*
Y043600D03*
X028080D03*
Y042600D03*
X029080D03*
Y043600D03*
X030080D03*
Y042600D03*
X031080D03*
Y043600D03*
X032080D03*
Y042600D03*
X033080D03*
Y043600D03*
X034080D03*
Y042600D03*
X035080D03*
Y043600D03*
X032250Y053800D03*
X031250D03*
X031450Y062200D03*
X034850D03*
X030450D03*
X029450D03*
X028450D03*
Y063200D03*
X029450D03*
X030450D03*
X031450D03*
X034850D03*
G54D9505*
X019100Y045981D03*
X020100D03*
X021147D03*
X022132D03*
X023116D03*
X024100D03*
Y047950D03*
X023116D03*
X022132D03*
X021147D03*
X020100D03*
X019100D03*
M02*