%FSDAX24Y24*%
%MOIN*%
%SFA1B1*%

%IPPOS*%
%ADD16C,0.039400*%
%ADD17C,0.030000*%
%ADD18C,0.020000*%
%ADD19C,0.078700*%
%ADD20R,0.059100X0.059100*%
%ADD21C,0.059100*%
%ADD22R,0.059100X0.059100*%
%ADD23C,0.098400*%
%ADD24C,0.065000*%
%ADD25O,0.047200X0.098400*%
%ADD26R,0.047200X0.098400*%
%ADD27C,0.063000*%
%ADD28R,0.063000X0.063000*%
%ADD29C,0.116100*%
%ADD30C,0.063000*%
%ADD31C,0.059100*%
%ADD32R,0.059100X0.059100*%
%ADD33C,0.031500*%
%ADD37C,0.010000*%
%ADD62C,0.005000*%
%LNde-060418_copper_signal_bot-1*%
%LPD*%
G54D62*
X015775Y000062D02*
X015737Y000025D01*
X000024*
X000025Y010375*
X002110*
X003310Y011575*
X015775*
Y000062*
G54D37*
X015725Y000083D02*
X015716Y000075D01*
X000074*
Y010325*
X002131*
X003331Y011525*
X015725*
Y000083*
G54D18*
X015625Y000124D02*
X015675Y000175D01*
X000174*
Y010225*
X002172*
X003372Y011425*
X015625*
Y000124*
X000180Y000230D02*
X015570D01*
X000180Y000430D02*
X015570D01*
X000180Y000630D02*
X015570D01*
X000180Y000830D02*
X015570D01*
X000180Y001030D02*
X015570D01*
X000180Y001230D02*
X015570D01*
X000180Y001430D02*
X015570D01*
X000180Y001630D02*
X015570D01*
X000180Y001830D02*
X015570D01*
X000180Y002030D02*
X015570D01*
X000180Y002230D02*
X015570D01*
X000180Y002430D02*
X015570D01*
X000180Y002630D02*
X015570D01*
X000180Y002830D02*
X015570D01*
X000180Y003030D02*
X015570D01*
X000180Y003230D02*
X015570D01*
X000180Y003430D02*
X015570D01*
X000180Y003630D02*
X015570D01*
X000180Y003830D02*
X015570D01*
X000180Y004030D02*
X015570D01*
X000180Y004230D02*
X015570D01*
X000180Y004430D02*
X015570D01*
X000180Y004630D02*
X015570D01*
X000180Y004830D02*
X015570D01*
X000180Y005030D02*
X015570D01*
X000180Y005230D02*
X015570D01*
X000180Y005430D02*
X015570D01*
X000180Y005630D02*
X015570D01*
X000180Y005830D02*
X015570D01*
X000180Y006030D02*
X015570D01*
X000180Y006230D02*
X015570D01*
X000180Y006430D02*
X015570D01*
X000180Y006630D02*
X015570D01*
X000180Y006830D02*
X015570D01*
X000180Y007030D02*
X015570D01*
X000180Y007230D02*
X015570D01*
X000180Y007430D02*
X015570D01*
X000180Y007630D02*
X015570D01*
X000180Y007830D02*
X015570D01*
X000180Y008030D02*
X015570D01*
X000180Y008230D02*
X015570D01*
X000180Y008430D02*
X015570D01*
X000180Y008630D02*
X015570D01*
X000180Y008830D02*
X015570D01*
X000180Y009030D02*
X015570D01*
X000180Y009230D02*
X015570D01*
X000180Y009430D02*
X015570D01*
X000180Y009630D02*
X015570D01*
X000180Y009830D02*
X015570D01*
X000180Y010030D02*
X015570D01*
X002230Y010230D02*
X015570D01*
X002430Y010430D02*
X015570D01*
X002630Y010630D02*
X015570D01*
X002830Y010830D02*
X015570D01*
X003030Y011030D02*
X015570D01*
X003230Y011230D02*
X015570D01*
%LNde-060418_copper_signal_bot-2*%
%LPC*%
G36*
X012595Y001395D02*
X012250D01*
Y001050*
X012595*
Y001395*
G37*
G36*
X012150D02*
X011805D01*
Y001050*
X012150*
Y001395*
G37*
G36*
X009895D02*
X009550D01*
Y001050*
X009895*
Y001395*
G37*
G36*
X001250Y005183D02*
X001095Y005168D01*
X000946Y005123*
X000809Y005049*
X000689Y004951*
X000590Y004830*
X000517Y004693*
X000472Y004544*
X000456Y004390*
X000472Y004235*
X000517Y004086*
X000590Y003949*
X000689Y003828*
X000809Y003730*
X000946Y003656*
X001095Y003611*
X001250Y003596*
X001405Y003611*
X001554Y003656*
X001691Y003730*
X001811Y003828*
X001910Y003949*
X001983Y004086*
X002028Y004235*
X002044Y004390*
X002028Y004544*
X001983Y004693*
X001910Y004830*
X001811Y004951*
X001691Y005049*
X001554Y005123*
X001405Y005168*
X001250Y005183*
G37*
G36*
X002145Y006840D02*
X001800D01*
Y006494*
X002145*
Y006840*
G37*
G36*
X001700D02*
X001355D01*
Y006494*
X001700*
Y006840*
G37*
G36*
X005750Y005183D02*
X005595Y005168D01*
X005446Y005123*
X005309Y005049*
X005189Y004951*
X005090Y004830*
X005017Y004693*
X004972Y004544*
X004956Y004390*
X004972Y004235*
X005017Y004086*
X005090Y003949*
X005189Y003828*
X005309Y003730*
X005446Y003656*
X005595Y003611*
X005750Y003596*
X005905Y003611*
X006054Y003656*
X006191Y003730*
X006311Y003828*
X006410Y003949*
X006483Y004086*
X006528Y004235*
X006544Y004390*
X006528Y004544*
X006483Y004693*
X006410Y004830*
X006311Y004951*
X006191Y005049*
X006054Y005123*
X005905Y005168*
X005750Y005183*
G37*
G36*
X009450Y000950D02*
X009105D01*
Y000605*
X009450*
Y000950*
G37*
G36*
X014200Y001449D02*
X014084Y001434D01*
X013975Y001389*
X013882Y001318*
X013811Y001225*
X013766Y001116*
X013751Y001000*
X013766Y000884*
X013811Y000775*
X013882Y000682*
X013975Y000611*
X014084Y000566*
X014200Y000551*
X014316Y000566*
X014425Y000611*
X014518Y000682*
X014589Y000775*
X014634Y000884*
X014649Y001000*
X014634Y001116*
X014589Y001225*
X014518Y001318*
X014425Y001389*
X014316Y001434*
X014200Y001449*
G37*
G36*
X008500D02*
X008384Y001434D01*
X008275Y001389*
X008182Y001318*
X008111Y001225*
X008066Y001116*
X008051Y001000*
X008066Y000884*
X008111Y000775*
X008182Y000682*
X008275Y000611*
X008384Y000566*
X008500Y000551*
X008616Y000566*
X008725Y000611*
X008818Y000682*
X008889Y000775*
X008934Y000884*
X008949Y001000*
X008934Y001116*
X008889Y001225*
X008818Y001318*
X008725Y001389*
X008616Y001434*
X008500Y001449*
G37*
G36*
X009895Y000950D02*
X009550D01*
Y000605*
X009895*
Y000950*
G37*
G36*
X009450Y001395D02*
X009105D01*
Y001050*
X009450*
Y001395*
G37*
G36*
X012595Y000950D02*
X012250D01*
Y000605*
X012595*
Y000950*
G37*
G36*
X012150D02*
X011805D01*
Y000605*
X012150*
Y000950*
G37*
G36*
X002750Y010492D02*
Y010150D01*
X003092*
X003085Y010203*
X003045Y010299*
X002982Y010382*
X002899Y010445*
X002803Y010485*
X002750Y010492*
G37*
G36*
X002650D02*
X002597Y010485D01*
X002501Y010445*
X002418Y010382*
X002355Y010299*
X002315Y010203*
X002308Y010150*
X002650*
Y010492*
G37*
G36*
X003092Y010050D02*
X002750D01*
Y009708*
X002803Y009715*
X002899Y009755*
X002982Y009818*
X003045Y009901*
X003085Y009997*
X003092Y010050*
G37*
G36*
X012950Y010688D02*
X012912Y010683D01*
X012830Y010650*
X012760Y010596*
X012706Y010525*
X012672Y010444*
X012661Y010356*
Y010150*
X012950*
Y010688*
G37*
G36*
X008650Y010788D02*
Y010250D01*
X008939*
Y010456*
X008928Y010544*
X008894Y010625*
X008840Y010696*
X008770Y010750*
X008688Y010783*
X008650Y010788*
G37*
G36*
X008550D02*
X008512Y010783D01*
X008430Y010750*
X008360Y010696*
X008306Y010625*
X008272Y010544*
X008261Y010456*
Y010250*
X008550*
Y010788*
G37*
G36*
X013050Y010688D02*
Y010150D01*
X013339*
Y010356*
X013328Y010444*
X013294Y010525*
X013240Y010596*
X013170Y010650*
X013088Y010683*
X013050Y010688*
G37*
G36*
X002650Y010050D02*
X002308D01*
X002315Y009997*
X002355Y009901*
X002418Y009818*
X002501Y009755*
X002597Y009715*
X002650Y009708*
Y010050*
G37*
G36*
X014000Y010745D02*
X013899Y010732D01*
X013805Y010693*
X013725Y010631*
X013663Y010551*
X013624Y010457*
X013610Y010356*
Y009844*
X013624Y009743*
X013663Y009649*
X013725Y009569*
X013805Y009507*
X013899Y009468*
X014000Y009455*
X014101Y009468*
X014195Y009507*
X014275Y009569*
X014337Y009649*
X014376Y009743*
X014390Y009844*
Y010356*
X014376Y010457*
X014337Y010551*
X014275Y010631*
X014195Y010693*
X014101Y010732*
X014000Y010745*
G37*
G36*
X002145Y007285D02*
X001800D01*
Y006940*
X002145*
Y007285*
G37*
G36*
X001700D02*
X001355D01*
Y006940*
X001700*
Y007285*
G37*
G36*
X012386Y010742D02*
X011614D01*
Y009458*
X012386*
Y010742*
G37*
G36*
X009600Y010845D02*
X009499Y010832D01*
X009405Y010793*
X009325Y010731*
X009263Y010651*
X009224Y010557*
X009210Y010456*
Y009944*
X009224Y009843*
X009263Y009749*
X009325Y009669*
X009342Y009655*
X009309Y009555*
X008824*
X008775Y009644*
Y009655*
X008840Y009704*
X008894Y009775*
X008928Y009856*
X008939Y009944*
Y010150*
X008261*
Y009944*
X008272Y009856*
X008306Y009775*
X008360Y009704*
X008425Y009655*
Y009644*
X008376Y009555*
X008085*
X007986Y009558*
Y009655*
Y010842*
X007214*
Y009655*
Y009558*
X007115Y009555*
X005506*
X005255Y009806*
Y010027*
X005269Y010045*
X005300Y010120*
X005310Y010200*
X005300Y010280*
X005269Y010355*
X005219Y010419*
X005155Y010469*
X005080Y010500*
X005000Y010510*
X004920Y010500*
X004845Y010469*
X004781Y010419*
X004731Y010355*
X004700Y010280*
X004690Y010200*
X004700Y010120*
X004731Y010045*
X004745Y010027*
Y009700*
X004764Y009602*
X004820Y009520*
X005220Y009120*
X005302Y009065*
X005400Y009045*
X010431*
X010496Y008945*
X010490Y008900*
X010500Y008820*
X010531Y008745*
X010581Y008681*
X010645Y008631*
X010720Y008600*
X010742Y008597*
X011045Y008294*
Y006906*
X010871Y006732*
X010787Y006789*
X010800Y006820*
X010810Y006900*
X010800Y006980*
X010769Y007055*
X010719Y007119*
X010655Y007169*
X010580Y007200*
X010500Y007210*
X010420Y007200*
X010345Y007169*
X010327Y007155*
X010306*
X008773Y008688*
X008690Y008743*
X008593Y008762*
X003507*
X003454Y008752*
X003404Y008844*
X003880Y009320*
X003936Y009402*
X003955Y009500*
Y009734*
X004018Y009782*
X004089Y009875*
X004134Y009984*
X004149Y010100*
X004134Y010216*
X004089Y010325*
X004018Y010418*
X003925Y010489*
X003816Y010534*
X003700Y010549*
X003584Y010534*
X003475Y010489*
X003382Y010418*
X003311Y010325*
X003266Y010216*
X003251Y010100*
X003266Y009984*
X003311Y009875*
X003382Y009782*
X003445Y009734*
Y009606*
X002574Y008735*
X002519Y008652*
X002500Y008555*
Y008376*
X002400Y008310*
X002366Y008323*
X002250Y008339*
X002134Y008323*
X002025Y008279*
X001932Y008207*
X001861Y008114*
X001816Y008006*
X001801Y007890*
X001816Y007773*
X001861Y007665*
X001932Y007572*
X002025Y007501*
X002134Y007456*
X002250Y007440*
X002366Y007456*
X002475Y007501*
X002530Y007503*
X002580Y007499*
X002648Y007435*
X002609Y007334*
X002516Y007296*
X002418Y007221*
X002344Y007124*
X002297Y007011*
X002281Y006890*
X002297Y006768*
X002344Y006655*
X002418Y006558*
X002495Y006499*
Y005450*
X002515Y005352*
X002570Y005270*
X004820Y003020*
X004902Y002964*
X005000Y002945*
X010700*
X010798Y002964*
X010880Y003020*
X011106Y003245*
X011655*
Y003055*
X012545*
Y003945*
X011655*
Y003755*
X011000*
X010902Y003735*
X010820Y003680*
X010594Y003455*
X005106*
X003005Y005556*
Y006297*
X003044Y006321*
X003105Y006335*
X003670Y005770*
X003752Y005715*
X003850Y005695*
X005850*
X005948Y005715*
X006030Y005770*
X006406Y006145*
X006843*
X006885Y006045*
X006712Y005873*
X006657Y005790*
X006638Y005693*
Y005107*
X006657Y005010*
X006712Y004927*
X006920Y004720*
X007002Y004665*
X007100Y004645*
X008854*
X009542Y003957*
X009545Y003934*
X009576Y003859*
X009626Y003795*
X009690Y003746*
X009765Y003715*
X009845Y003704*
X009925Y003715*
X010000Y003746*
X010064Y003795*
X010113Y003859*
X010144Y003934*
X010155Y004015*
X010148Y004071*
X010154Y004090*
X010182Y004130*
X010223Y004167*
X013072*
X013203Y004036*
X013156Y003942*
X013100Y003949*
X012984Y003934*
X012875Y003889*
X012782Y003818*
X012711Y003725*
X012666Y003616*
X012651Y003500*
X012666Y003384*
X012711Y003275*
X012782Y003182*
X012875Y003111*
X012984Y003066*
X013100Y003051*
X013216Y003066*
X013325Y003111*
X013418Y003182*
X013489Y003275*
X013534Y003384*
X013545Y003469*
X013645Y003463*
Y002406*
X013020Y001780*
X012965Y001698*
X012945Y001600*
Y001366*
X012882Y001318*
X012811Y001225*
X012766Y001116*
X012751Y001000*
X012766Y000884*
X012811Y000775*
X012882Y000682*
X012975Y000611*
X013084Y000566*
X013200Y000551*
X013316Y000566*
X013425Y000611*
X013518Y000682*
X013589Y000775*
X013634Y000884*
X013649Y001000*
X013634Y001116*
X013589Y001225*
X013518Y001318*
X013455Y001366*
Y001494*
X014080Y002120*
X014136Y002202*
X014155Y002300*
Y003700*
X014136Y003798*
X014080Y003880*
X013358Y004602*
X013276Y004658*
X013178Y004677*
X010842*
X010822Y004696*
X010782Y004777*
X010800Y004820*
X010810Y004900*
X010800Y004980*
X010773Y005045*
X010784Y005086*
X010822Y005150*
X010898Y005165*
X010980Y005220*
X011880Y006120*
X011935Y006202*
X011955Y006300*
Y008576*
X011935Y008674*
X011880Y008756*
X011149Y009488*
X011066Y009543*
X010969Y009562*
X010631*
X010594Y009555*
X009891*
X009858Y009655*
X009875Y009669*
X009937Y009749*
X009976Y009843*
X009990Y009944*
Y010456*
X009976Y010557*
X009937Y010651*
X009875Y010731*
X009795Y010793*
X009701Y010832*
X009600Y010845*
G37*
G36*
X013339Y010050D02*
X013050D01*
Y009512*
X013088Y009517*
X013170Y009550*
X013240Y009604*
X013294Y009675*
X013328Y009756*
X013339Y009844*
Y010050*
G37*
G36*
X012950D02*
X012661D01*
Y009844*
X012672Y009756*
X012706Y009675*
X012760Y009604*
X012830Y009550*
X012912Y009517*
X012950Y009512*
Y010050*
G37*
%LNde-060418_copper_signal_bot-3*%
%LPD*%
G54D16*
X008600Y018400D02*
Y020100D01*
X013200D02*
X013400Y019900D01*
Y018400D02*
Y019900D01*
G54D17*
X014400Y017200D02*
Y018400D01*
X014000Y016800D02*
X014400Y017200D01*
X014000Y013100D02*
Y016800D01*
X009600Y017000D02*
Y018400D01*
X009000Y016400D02*
X009600Y017000D01*
X009000Y015200D02*
Y016400D01*
Y015200D02*
X009600Y014600D01*
Y013200D02*
Y014600D01*
X001800Y012500D02*
Y014900D01*
X002400Y015500*
G54D18*
X008959Y004900D02*
X009845Y004015D01*
X007100Y004900D02*
X008959D01*
X006893Y005107D02*
X007100Y004900D01*
X006893Y005107D02*
Y005693D01*
X007100Y005900*
X007300*
X005900Y006800D02*
Y007700D01*
X005400Y006300D02*
X005900Y006800D01*
X004000Y006300D02*
X005400D01*
X005850Y005950D02*
X006300Y006400D01*
X003850Y005950D02*
X005850D01*
X006300Y006400D02*
X007300D01*
X006607Y007807D02*
X008193D01*
X006300Y007500D02*
X006607Y007807D01*
X006300Y006400D02*
Y007500D01*
X006357Y008157D02*
X008443D01*
X005900Y007700D02*
X006357Y008157D01*
X008593Y008507D02*
X010200Y006900D01*
X003250Y008250D02*
X003507Y008507D01*
X008443Y008157D02*
X009300Y007300D01*
X003270Y006530D02*
X003850Y005950D01*
X008193Y007807D02*
X008800Y007200D01*
X003507Y008507D02*
X008593D01*
X007300Y007400D02*
X007600D01*
X010178Y004422D02*
X013178D01*
X009200Y005400D02*
X010178Y004422D01*
X007300Y005400D02*
X009200D01*
X010200Y004900D02*
X010500D01*
X008800Y006300D02*
X010200Y004900D01*
X008800Y006300D02*
Y007200D01*
X010100Y005900D02*
X010500D01*
X009300Y006700D02*
X010100Y005900D01*
X009300Y006700D02*
Y007300D01*
X010200Y006900D02*
X010500D01*
X010969Y009307D02*
X011700Y008576D01*
X010631Y009307D02*
X010969D01*
X010624Y009300D02*
X010631Y009307D01*
X005400Y009300D02*
X010624D01*
X005000Y009700D02*
X005400Y009300D01*
X011300Y006800D02*
Y008400D01*
X010800Y008900D02*
X011300Y008400D01*
X011700Y006300D02*
Y008576D01*
X010800Y005400D02*
X011700Y006300D01*
X010500Y005400D02*
X010800D01*
X005000Y003200D02*
X010700D01*
X002750Y005450D02*
X005000Y003200D01*
X002750Y005450D02*
Y006890D01*
X003250Y007890D02*
Y008250D01*
X007600Y007400D02*
X007900Y007100D01*
X013200Y001000D02*
Y001600D01*
X013900Y002300*
Y003700*
X002755Y008555D02*
X003700Y009500D01*
Y010100*
X002755Y007684D02*
Y008555D01*
Y007684D02*
X003270Y007200D01*
X003750Y006550D02*
Y006890D01*
Y006550D02*
X004000Y006300D01*
X010500Y006400D02*
X010900D01*
X011300Y006800*
X005000Y009700D02*
Y010200D01*
X013178Y004422D02*
X013900Y003700D01*
X010700Y003200D02*
X011000Y003500D01*
X012100*
X003270Y006530D02*
Y007200D01*
X009500Y001000D02*
Y001700D01*
X009200Y002000D02*
X009500Y001700D01*
X005400Y002000D02*
X009200D01*
X001750Y005650D02*
X005400Y002000D01*
X001750Y005650D02*
Y006890D01*
X007300Y005400D02*
X007900D01*
Y007100*
G54D19*
X008600Y020100D02*
X013200D01*
X003484Y020816D02*
Y021700D01*
Y020816D02*
X004200Y020100D01*
X008600*
G54D20*
X012200Y001000D03*
X012100Y003500D03*
X009500Y001000D03*
G54D21*
X013200Y001000D03*
X014200D03*
X002700Y010100D03*
X003700D03*
X002700Y013100D03*
X013100Y003500D03*
X008500Y001000D03*
G54D22*
X003700Y013100D03*
G54D23*
X001516Y021700D03*
X003484D03*
X010000D03*
X008000D03*
X006000D03*
X014384D03*
X012416D03*
G54D24*
X005400Y018500D03*
Y015500D03*
X010300D03*
X007300D03*
X015000D03*
X012000D03*
G54D25*
X009600Y013200D03*
X008600D03*
X007600D03*
X009600Y010200D03*
X008600D03*
X014000Y013100D03*
X013000D03*
X012000D03*
X014000Y010100D03*
X013000D03*
G54D26*
X007600Y010200D03*
X012000Y010100D03*
G54D27*
X009600Y018400D03*
X008600D03*
X014400D03*
X013400D03*
G54D28*
X007600Y018400D03*
X012400D03*
G54D29*
X005750Y004390D03*
X001250D03*
G54D30*
X002750Y006890D03*
G54D31*
X003750Y006890D03*
X003250Y007890D03*
X004250D03*
X004750Y006890D03*
X002250Y007890D03*
X005250D03*
G54D32*
X001750Y006890D03*
G54D33*
X007300Y007400D03*
X002400Y015500D03*
X001800Y012500D03*
X007300Y006400D03*
Y005400D03*
X010500D03*
Y006400D03*
X010800Y008900D03*
X010500Y006900D03*
Y005900D03*
Y004900D03*
X005000Y010200D03*
X007300Y005900D03*
X009845Y004015D03*
M02*