%FSDAX24Y24*%
%MOIN*%
%SFA1B1*%

%IPPOS*%
%ADD34C,0.009800*%
%ADD35C,0.023600*%
%ADD36C,0.007900*%
%ADD37C,0.010000*%
%ADD38C,0.005900*%
%LNde-060418_legend_top-1*%
%LPD*%
G54D34*
X008004Y007735D02*
D01*
X008003Y007738*
X008003Y007741*
X008002Y007745*
X008002Y007748*
X008001Y007751*
X007999Y007754*
X007998Y007758*
X007996Y007760*
X007994Y007763*
X007992Y007766*
X007990Y007769*
X007987Y007771*
X007985Y007773*
X007982Y007775*
X007979Y007777*
X007976Y007779*
X007973Y007780*
X007970Y007781*
X007966Y007782*
X007963Y007783*
X007960Y007783*
X007956Y007783*
X007953*
X007949Y007783*
X007946Y007783*
X007943Y007782*
X007939Y007781*
X007936Y007780*
X007933Y007779*
X007930Y007777*
X007927Y007775*
X007924Y007773*
X007922Y007771*
X007919Y007769*
X007917Y007766*
X007915Y007763*
X007913Y007760*
X007911Y007758*
X007910Y007754*
X007908Y007751*
X007907Y007748*
X007907Y007745*
X007906Y007741*
X007906Y007738*
X007906Y007735*
X007906Y007731*
X007906Y007728*
X007907Y007724*
X007907Y007721*
X007908Y007718*
X007910Y007715*
X007911Y007711*
X007913Y007709*
X007915Y007706*
X007917Y007703*
X007919Y007700*
X007922Y007698*
X007924Y007696*
X007927Y007694*
X007930Y007692*
X007933Y007690*
X007936Y007689*
X007939Y007688*
X007943Y007687*
X007946Y007686*
X007949Y007686*
X007953Y007686*
X007956*
X007960Y007686*
X007963Y007686*
X007966Y007687*
X007970Y007688*
X007973Y007689*
X007976Y007690*
X007979Y007692*
X007982Y007694*
X007985Y007696*
X007987Y007698*
X007990Y007700*
X007992Y007703*
X007994Y007706*
X007996Y007709*
X007998Y007711*
X007999Y007715*
X008001Y007718*
X008002Y007721*
X008002Y007724*
X008003Y007728*
X008003Y007731*
X008004Y007735*
X004261Y013100D02*
D01*
X004260Y013103*
X004260Y013106*
X004259Y013110*
X004259Y013113*
X004258Y013116*
X004256Y013119*
X004255Y013123*
X004253Y013125*
X004251Y013128*
X004249Y013131*
X004247Y013134*
X004244Y013136*
X004242Y013138*
X004239Y013140*
X004236Y013142*
X004233Y013144*
X004230Y013145*
X004227Y013146*
X004223Y013147*
X004220Y013148*
X004217Y013148*
X004213Y013148*
X004210*
X004206Y013148*
X004203Y013148*
X004200Y013147*
X004196Y013146*
X004193Y013145*
X004190Y013144*
X004187Y013142*
X004184Y013140*
X004181Y013138*
X004179Y013136*
X004176Y013134*
X004174Y013131*
X004172Y013128*
X004170Y013125*
X004168Y013123*
X004167Y013119*
X004165Y013116*
X004164Y013113*
X004164Y013110*
X004163Y013106*
X004163Y013103*
X004163Y013100*
X004163Y013096*
X004163Y013093*
X004164Y013089*
X004164Y013086*
X004165Y013083*
X004167Y013080*
X004168Y013076*
X004170Y013074*
X004172Y013071*
X004174Y013068*
X004176Y013065*
X004179Y013063*
X004181Y013061*
X004184Y013059*
X004187Y013057*
X004190Y013055*
X004193Y013054*
X004196Y013053*
X004200Y013052*
X004203Y013051*
X004206Y013051*
X004210Y013051*
X004213*
X004217Y013051*
X004220Y013051*
X004223Y013052*
X004227Y013053*
X004230Y013054*
X004233Y013055*
X004236Y013057*
X004239Y013059*
X004242Y013061*
X004244Y013063*
X004247Y013065*
X004249Y013068*
X004251Y013071*
X004253Y013074*
X004255Y013076*
X004256Y013080*
X004258Y013083*
X004259Y013086*
X004259Y013089*
X004260Y013093*
X004260Y013096*
X004261Y013100*
X002058Y012113D02*
D01*
X002057Y012116*
X002057Y012119*
X002056Y012123*
X002056Y012126*
X002055Y012129*
X002053Y012132*
X002052Y012136*
X002050Y012138*
X002048Y012141*
X002046Y012144*
X002044Y012147*
X002041Y012149*
X002039Y012151*
X002036Y012153*
X002033Y012155*
X002030Y012157*
X002027Y012158*
X002024Y012159*
X002020Y012160*
X002017Y012161*
X002014Y012161*
X002010Y012161*
X002007*
X002003Y012161*
X002000Y012161*
X001997Y012160*
X001993Y012159*
X001990Y012158*
X001987Y012157*
X001984Y012155*
X001981Y012153*
X001978Y012151*
X001976Y012149*
X001973Y012147*
X001971Y012144*
X001969Y012141*
X001967Y012138*
X001965Y012136*
X001964Y012132*
X001962Y012129*
X001961Y012126*
X001961Y012123*
X001960Y012119*
X001960Y012116*
X001960Y012113*
X001960Y012109*
X001960Y012106*
X001961Y012102*
X001961Y012099*
X001962Y012096*
X001964Y012093*
X001965Y012089*
X001967Y012087*
X001969Y012084*
X001971Y012081*
X001973Y012078*
X001976Y012076*
X001978Y012074*
X001981Y012072*
X001984Y012070*
X001987Y012068*
X001990Y012067*
X001993Y012066*
X001997Y012065*
X002000Y012064*
X002003Y012064*
X002007Y012064*
X002010*
X002014Y012064*
X002017Y012064*
X002020Y012065*
X002024Y012066*
X002027Y012067*
X002030Y012068*
X002033Y012070*
X002036Y012072*
X002039Y012074*
X002041Y012076*
X002044Y012078*
X002046Y012081*
X002048Y012084*
X002050Y012087*
X002052Y012089*
X002053Y012093*
X002055Y012096*
X002056Y012099*
X002056Y012102*
X002057Y012106*
X002057Y012109*
X002058Y012113*
X006366Y018400D02*
D01*
X006365Y018403*
X006365Y018406*
X006364Y018410*
X006364Y018413*
X006363Y018416*
X006361Y018419*
X006360Y018423*
X006358Y018425*
X006356Y018428*
X006354Y018431*
X006352Y018434*
X006349Y018436*
X006347Y018438*
X006344Y018440*
X006341Y018442*
X006338Y018444*
X006335Y018445*
X006332Y018446*
X006328Y018447*
X006325Y018448*
X006322Y018448*
X006318Y018448*
X006315*
X006311Y018448*
X006308Y018448*
X006305Y018447*
X006301Y018446*
X006298Y018445*
X006295Y018444*
X006292Y018442*
X006289Y018440*
X006286Y018438*
X006284Y018436*
X006281Y018434*
X006279Y018431*
X006277Y018428*
X006275Y018425*
X006273Y018423*
X006272Y018419*
X006270Y018416*
X006269Y018413*
X006269Y018410*
X006268Y018406*
X006268Y018403*
X006268Y018400*
X006268Y018396*
X006268Y018393*
X006269Y018389*
X006269Y018386*
X006270Y018383*
X006272Y018380*
X006273Y018376*
X006275Y018374*
X006277Y018371*
X006279Y018368*
X006281Y018365*
X006284Y018363*
X006286Y018361*
X006289Y018359*
X006292Y018357*
X006295Y018355*
X006298Y018354*
X006301Y018353*
X006305Y018352*
X006308Y018351*
X006311Y018351*
X006315Y018351*
X006318*
X006322Y018351*
X006325Y018351*
X006328Y018352*
X006332Y018353*
X006335Y018354*
X006338Y018355*
X006341Y018357*
X006344Y018359*
X006347Y018361*
X006349Y018363*
X006352Y018365*
X006354Y018368*
X006356Y018371*
X006358Y018374*
X006360Y018376*
X006361Y018380*
X006363Y018383*
X006364Y018386*
X006364Y018389*
X006365Y018393*
X006365Y018396*
X006366Y018400*
X011166D02*
D01*
X011165Y018403*
X011165Y018406*
X011164Y018410*
X011164Y018413*
X011163Y018416*
X011161Y018419*
X011160Y018423*
X011158Y018425*
X011156Y018428*
X011154Y018431*
X011152Y018434*
X011149Y018436*
X011147Y018438*
X011144Y018440*
X011141Y018442*
X011138Y018444*
X011135Y018445*
X011132Y018446*
X011128Y018447*
X011125Y018448*
X011122Y018448*
X011118Y018448*
X011115*
X011111Y018448*
X011108Y018448*
X011105Y018447*
X011101Y018446*
X011098Y018445*
X011095Y018444*
X011092Y018442*
X011089Y018440*
X011086Y018438*
X011084Y018436*
X011081Y018434*
X011079Y018431*
X011077Y018428*
X011075Y018425*
X011073Y018423*
X011072Y018419*
X011070Y018416*
X011069Y018413*
X011069Y018410*
X011068Y018406*
X011068Y018403*
X011068Y018400*
X011068Y018396*
X011068Y018393*
X011069Y018389*
X011069Y018386*
X011070Y018383*
X011072Y018380*
X011073Y018376*
X011075Y018374*
X011077Y018371*
X011079Y018368*
X011081Y018365*
X011084Y018363*
X011086Y018361*
X011089Y018359*
X011092Y018357*
X011095Y018355*
X011098Y018354*
X011101Y018353*
X011105Y018352*
X011108Y018351*
X011111Y018351*
X011115Y018351*
X011118*
X011122Y018351*
X011125Y018351*
X011128Y018352*
X011132Y018353*
X011135Y018354*
X011138Y018355*
X011141Y018357*
X011144Y018359*
X011147Y018361*
X011149Y018363*
X011152Y018365*
X011154Y018368*
X011156Y018371*
X011158Y018374*
X011160Y018376*
X011161Y018380*
X011163Y018383*
X011164Y018386*
X011164Y018389*
X011165Y018393*
X011165Y018396*
X011166Y018400*
G54D35*
X003928Y012250D02*
D01*
X003927Y012258*
X003926Y012266*
X003925Y012274*
X003923Y012282*
X003920Y012290*
X003917Y012297*
X003914Y012305*
X003910Y012312*
X003905Y012319*
X003900Y012325*
X003894Y012331*
X003888Y012337*
X003882Y012342*
X003875Y012347*
X003869Y012352*
X003861Y012356*
X003854Y012359*
X003846Y012362*
X003838Y012364*
X003830Y012366*
X003822Y012367*
X003814Y012367*
X003805*
X003797Y012367*
X003789Y012366*
X003781Y012364*
X003773Y012362*
X003765Y012359*
X003758Y012356*
X003751Y012352*
X003744Y012347*
X003737Y012342*
X003731Y012337*
X003725Y012331*
X003719Y012325*
X003714Y012319*
X003709Y012312*
X003705Y012305*
X003702Y012297*
X003699Y012290*
X003696Y012282*
X003694Y012274*
X003693Y012266*
X003692Y012258*
X003692Y012250*
X003692Y012241*
X003693Y012233*
X003694Y012225*
X003696Y012217*
X003699Y012209*
X003702Y012202*
X003705Y012194*
X003709Y012187*
X003714Y012180*
X003719Y012174*
X003725Y012168*
X003731Y012162*
X003737Y012157*
X003744Y012152*
X003751Y012147*
X003758Y012143*
X003765Y012140*
X003773Y012137*
X003781Y012135*
X003789Y012133*
X003797Y012132*
X003805Y012132*
X003814*
X003822Y012132*
X003830Y012133*
X003838Y012135*
X003846Y012137*
X003854Y012140*
X003861Y012143*
X003869Y012147*
X003875Y012152*
X003882Y012157*
X003888Y012162*
X003894Y012168*
X003900Y012174*
X003905Y012180*
X003910Y012187*
X003914Y012194*
X003917Y012202*
X003920Y012209*
X003923Y012217*
X003925Y012225*
X003926Y012233*
X003927Y012241*
X003928Y012250*
G54D36*
X004204Y011850D02*
D01*
X004186Y011849*
X004169Y011847*
X004152Y011844*
X004135Y011840*
X004118Y011834*
X004102Y011828*
X004086Y011820*
X004071Y011812*
X004057Y011802*
X004043Y011791*
X004030Y011779*
X004018Y011767*
X004006Y011753*
X003996Y011739*
X003987Y011725*
X003979Y011709*
X003972Y011693*
X003966Y011677*
X003961Y011660*
X003957Y011643*
X003955Y011626*
X003954Y011608*
Y011591*
X003955Y011573*
X003957Y011556*
X003961Y011539*
X003966Y011522*
X003972Y011506*
X003979Y011490*
X003987Y011475*
X003996Y011460*
X004006Y011446*
X004018Y011432*
X004030Y011420*
X004043Y011408*
X004057Y011397*
X004071Y011387*
X004086Y011379*
X004102Y011371*
X004118Y011365*
X004135Y011359*
X004152Y011355*
X004169Y011352*
X004186Y011350*
X004204Y011350*
X007100Y011450D02*
D01*
X007117Y011450*
X007134Y011452*
X007151Y011455*
X007168Y011459*
X007185Y011465*
X007201Y011471*
X007217Y011479*
X007232Y011487*
X007246Y011497*
X007260Y011508*
X007273Y011520*
X007285Y011532*
X007297Y011546*
X007307Y011560*
X007316Y011575*
X007324Y011590*
X007331Y011606*
X007337Y011622*
X007342Y011639*
X007346Y011656*
X007348Y011673*
X007349Y011691*
Y011708*
X007348Y011726*
X007346Y011743*
X007342Y011760*
X007337Y011777*
X007331Y011793*
X007324Y011809*
X007316Y011825*
X007307Y011839*
X007297Y011853*
X007285Y011867*
X007273Y011879*
X007260Y011891*
X007246Y011902*
X007232Y011912*
X007217Y011920*
X007201Y011928*
X007185Y011934*
X007168Y011940*
X007151Y011944*
X007134Y011947*
X007117Y011949*
X007100Y011950*
X011500Y011350D02*
D01*
X011517Y011350*
X011534Y011352*
X011551Y011355*
X011568Y011359*
X011585Y011365*
X011601Y011371*
X011617Y011379*
X011632Y011387*
X011646Y011397*
X011660Y011408*
X011673Y011420*
X011685Y011432*
X011697Y011446*
X011707Y011460*
X011716Y011475*
X011724Y011490*
X011731Y011506*
X011737Y011522*
X011742Y011539*
X011746Y011556*
X011748Y011573*
X011749Y011591*
Y011608*
X011748Y011626*
X011746Y011643*
X011742Y011660*
X011737Y011677*
X011731Y011693*
X011724Y011709*
X011716Y011725*
X011707Y011739*
X011697Y011753*
X011685Y011767*
X011673Y011779*
X011660Y011791*
X011646Y011802*
X011632Y011812*
X011617Y011820*
X011601Y011828*
X011585Y011834*
X011568Y011840*
X011551Y011844*
X011534Y011847*
X011517Y011849*
X011500Y011850*
X011700Y000500D02*
X014700D01*
Y001500*
X011700D02*
X014700D01*
X011700Y000500D02*
Y001500D01*
X008546Y004168D02*
X009254D01*
X008546Y007632D02*
X009254D01*
Y004168D02*
Y007632D01*
X008546Y004168D02*
Y007632D01*
X002196Y010557D02*
Y012643D01*
X004204Y010557D02*
Y011350D01*
Y011850D02*
Y012643D01*
X002196Y010557D02*
X004204D01*
X002196Y012643D02*
X004204D01*
X003026Y015017D02*
X003183D01*
Y015095*
Y014505D02*
Y014583D01*
X003026D02*
X003183D01*
X003026Y014505D02*
X003774D01*
X003026Y015095D02*
X003774D01*
Y014505D02*
Y014583D01*
X003026Y014505D02*
Y014583D01*
X003774Y015017D02*
Y015095D01*
X003026Y015017D02*
Y015095D01*
X001517Y014583D02*
X001674D01*
X001517Y014505D02*
Y014583D01*
Y015017D02*
Y015095D01*
Y015017D02*
X001674D01*
X000926Y015095D02*
X001674D01*
X000926Y014505D02*
X001674D01*
X000926Y015017D02*
Y015095D01*
X001674Y015017D02*
Y015095D01*
X000926Y014505D02*
Y014583D01*
X001674Y014505D02*
Y014583D01*
X000644Y013052D02*
X001156D01*
X001891Y011424D02*
Y011700D01*
X001576Y011424D02*
X001891D01*
X000709D02*
Y011700D01*
Y011424D02*
X001024D01*
X001517Y012583D02*
X001674D01*
X001517Y012505D02*
Y012583D01*
Y013017D02*
Y013095D01*
Y013017D02*
X001674D01*
X000926Y013095D02*
X001674D01*
X000926Y012505D02*
X001674D01*
X000926Y013017D02*
Y013095D01*
X001674Y013017D02*
Y013095D01*
X000926Y012505D02*
Y012583D01*
X001674Y012505D02*
Y012583D01*
X003617Y015283D02*
X003774D01*
X003617Y015205D02*
Y015283D01*
Y015717D02*
Y015795D01*
Y015717D02*
X003774D01*
X003026Y015795D02*
X003774D01*
X003026Y015205D02*
X003774D01*
X003026Y015717D02*
Y015795D01*
X003774Y015717D02*
Y015795D01*
X003026Y015205D02*
Y015283D01*
X003774Y015205D02*
Y015283D01*
X001026Y015717D02*
X001183D01*
Y015795*
Y015205D02*
Y015283D01*
X001026D02*
X001183D01*
X001026Y015205D02*
X001774D01*
X001026Y015795D02*
X001774D01*
Y015205D02*
Y015283D01*
X001026Y015205D02*
Y015283D01*
X001774Y015717D02*
Y015795D01*
X001026Y015717D02*
Y015795D01*
X004908Y018339D02*
X004975D01*
X004908Y015661D02*
Y018339D01*
X005825Y015661D02*
X005892D01*
Y018339*
X005825D02*
X005892D01*
X004908Y015661D02*
X004975D01*
X012848Y007544D02*
Y008056D01*
X012769Y008343D02*
Y008657D01*
X007100Y011021D02*
X010100D01*
Y012379*
X007100D02*
X010100D01*
X007100Y011950D02*
Y012379D01*
Y011021D02*
Y011450D01*
X010139Y015925D02*
Y015992D01*
X007461D02*
X010139D01*
X007461Y015008D02*
Y015075D01*
Y015008D02*
X010139D01*
Y015075*
X007461Y015925D02*
Y015992D01*
X006572Y019252D02*
X010628D01*
X006572Y019449D02*
X010628D01*
X006572Y017520D02*
X010628D01*
Y019449*
X006572Y017520D02*
Y019449D01*
X011500Y010921D02*
X014500D01*
Y012279*
X011500D02*
X014500D01*
X011500Y011850D02*
Y012279D01*
Y010921D02*
Y011350D01*
X014839Y015925D02*
Y015992D01*
X012161D02*
X014839D01*
X012161Y015008D02*
Y015075D01*
Y015008D02*
X014839D01*
Y015075*
X012161Y015925D02*
Y015992D01*
X011372Y019252D02*
X015428D01*
X011372Y019449D02*
X015428D01*
X011372Y017520D02*
X015428D01*
Y019449*
X011372Y017520D02*
Y019449D01*
X011600Y004000D02*
X013600D01*
X011600Y003000D02*
Y004000D01*
Y003000D02*
X013600D01*
Y004000*
X008000Y000500D02*
X010000D01*
Y001500*
X008000D02*
X010000D01*
X008000Y000500D02*
Y001500D01*
X009669Y001843D02*
Y002157D01*
X006500Y000240D02*
Y004119D01*
Y004660D02*
Y008342D01*
X000500D02*
X006500D01*
X000500Y004660D02*
Y008342D01*
Y000240D02*
Y004119D01*
Y000240D02*
X006500D01*
G54D37*
X000000Y023622D02*
X015748D01*
Y000000D02*
Y023622D01*
X000000Y000000D02*
X015748D01*
X000000D02*
Y023622D01*
X000531Y020125D02*
X004469D01*
Y023325*
X000531Y020125D02*
Y023325D01*
X004469*
X010953Y020125D02*
Y023275D01*
X005047Y020125D02*
Y023275D01*
X010953*
X005047Y020125D02*
X010953D01*
X011431Y023275D02*
X015368D01*
X011431Y020075D02*
Y023275D01*
X015368Y020075D02*
Y023275D01*
X011431Y020075D02*
X015368D01*
G54D38*
X000238Y013410D02*
X000185Y013357D01*
Y013252*
X000238Y013200*
X000448*
X000500Y013252*
Y013357*
X000448Y013410*
X000500Y013515D02*
Y013620D01*
Y013567*
X000185*
X000238Y013515*
X005360Y017062D02*
X005307Y017115D01*
X005202*
X005150Y017062*
Y016852*
X005202Y016800*
X005307*
X005360Y016852*
X005675Y016800D02*
X005465D01*
X005675Y017010*
Y017062*
X005622Y017115*
X005517*
X005465Y017062*
X013160Y008632D02*
X013107Y008685D01*
X013002*
X012950Y008632*
Y008422*
X013002Y008370*
X013107*
X013160Y008422*
X013265Y008632D02*
X013317Y008685D01*
X013422*
X013475Y008632*
Y008580*
X013422Y008527*
X013370*
X013422*
X013475Y008475*
Y008422*
X013422Y008370*
X013317*
X013265Y008422*
X013230Y007942D02*
X013177Y007995D01*
X013072*
X013020Y007942*
Y007732*
X013072Y007680*
X013177*
X013230Y007732*
X013492Y007680D02*
Y007995D01*
X013335Y007837*
X013545*
X008510Y015612D02*
X008457Y015665D01*
X008352*
X008300Y015612*
Y015402*
X008352Y015350*
X008457*
X008510Y015402*
X008825Y015665D02*
X008615D01*
Y015507*
X008720Y015560*
X008772*
X008825Y015507*
Y015402*
X008772Y015350*
X008667*
X008615Y015402*
X013360Y015562D02*
X013307Y015615D01*
X013202*
X013150Y015562*
Y015352*
X013202Y015300*
X013307*
X013360Y015352*
X013675Y015615D02*
X013570Y015562D01*
X013465Y015457*
Y015352*
X013517Y015300*
X013622*
X013675Y015352*
Y015405*
X013622Y015457*
X013465*
X007910Y002062D02*
X007857Y002115D01*
X007752*
X007700Y002062*
Y001852*
X007752Y001800*
X007857*
X007910Y001852*
X008015Y002115D02*
X008225D01*
Y002062*
X008015Y001852*
Y001800*
X004300Y015015D02*
Y014700D01*
X004457*
X004510Y014752*
Y014962*
X004457Y015015*
X004300*
X004615Y014700D02*
X004720D01*
X004667*
Y015015*
X004615Y014962*
X000135Y014500D02*
X000450D01*
Y014657*
X000398Y014710*
X000188*
X000135Y014657*
Y014500*
X000450Y015025D02*
Y014815D01*
X000240Y015025*
X000188*
X000135Y014972*
Y014867*
X000188Y014815*
X000135Y012350D02*
X000450D01*
Y012507*
X000398Y012560*
X000188*
X000135Y012507*
Y012350*
X000188Y012665D02*
X000135Y012717D01*
Y012822*
X000188Y012875*
X000240*
X000293Y012822*
Y012770*
Y012822*
X000345Y012875*
X000398*
X000450Y012822*
Y012717*
X000398Y012665*
X004300Y015665D02*
Y015350D01*
X004457*
X004510Y015402*
Y015612*
X004457Y015665*
X004300*
X004772Y015350D02*
Y015665D01*
X004615Y015507*
X004825*
X000135Y015350D02*
X000450D01*
Y015507*
X000398Y015560*
X000188*
X000135Y015507*
Y015350*
Y015875D02*
Y015665D01*
X000293*
X000240Y015770*
Y015822*
X000293Y015875*
X000398*
X000450Y015822*
Y015717*
X000398Y015665*
X010100Y017315D02*
Y017000D01*
X010257*
X010310Y017052*
Y017262*
X010257Y017315*
X010100*
X010625D02*
X010520Y017262D01*
X010415Y017157*
Y017052*
X010467Y017000*
X010572*
X010625Y017052*
Y017105*
X010572Y017157*
X010415*
X014950Y017265D02*
Y016950D01*
X015107*
X015160Y017002*
Y017212*
X015107Y017265*
X014950*
X015265D02*
X015475D01*
Y017212*
X015265Y017002*
Y016950*
X011100Y000600D02*
Y000915D01*
X011257*
X011310Y000862*
Y000757*
X011257Y000705*
X011100*
X011415Y000600D02*
X011520D01*
X011467*
Y000915*
X011415Y000862*
X002150Y019600D02*
Y019915D01*
X002307*
X002360Y019862*
Y019757*
X002307Y019705*
X002150*
X002675Y019600D02*
X002465D01*
X002675Y019810*
Y019862*
X002622Y019915*
X002517*
X002465Y019862*
X008350Y019650D02*
Y019965D01*
X008507*
X008560Y019912*
Y019807*
X008507Y019755*
X008350*
X008665Y019912D02*
X008717Y019965D01*
X008822*
X008875Y019912*
Y019860*
X008822Y019807*
X008770*
X008822*
X008875Y019755*
Y019702*
X008822Y019650*
X008717*
X008665Y019702*
X013300Y019600D02*
Y019915D01*
X013457*
X013510Y019862*
Y019757*
X013457Y019705*
X013300*
X013772Y019600D02*
Y019915D01*
X013615Y019757*
X013825*
X007200Y000500D02*
Y000815D01*
X007357*
X007410Y000762*
Y000657*
X007357Y000605*
X007200*
X007725Y000815D02*
X007515D01*
Y000657*
X007620Y000710*
X007672*
X007725Y000657*
Y000552*
X007672Y000500*
X007567*
X007515Y000552*
X011600Y002500D02*
Y002815D01*
X011757*
X011810Y002762*
Y002657*
X011757Y002605*
X011600*
X012125Y002815D02*
X012020Y002762D01*
X011915Y002657*
Y002552*
X011967Y002500*
X012072*
X012125Y002552*
Y002605*
X012072Y002657*
X011915*
X000910Y010552D02*
Y010762D01*
X000857Y010815*
X000752*
X000700Y010762*
Y010552*
X000752Y010500*
X000857*
X000805Y010605D02*
X000910Y010500D01*
X000857D02*
X000910Y010552D01*
X001015Y010500D02*
X001120D01*
X001067*
Y010815*
X001015Y010762*
X009690Y007890D02*
Y008205D01*
X009847*
X009900Y008152*
Y008047*
X009847Y007995*
X009690*
X009795D02*
X009900Y007890D01*
X010005D02*
X010110D01*
X010057*
Y008205*
X010005Y008152*
X012180Y004645D02*
Y004960D01*
X012337*
X012390Y004907*
Y004803*
X012337Y004750*
X012180*
X012285D02*
X012390Y004645D01*
X012705D02*
X012495D01*
X012705Y004855*
Y004907*
X012652Y004960*
X012547*
X012495Y004907*
X004100Y013950D02*
Y014265D01*
X004257*
X004310Y014212*
Y014107*
X004257Y014055*
X004100*
X004205D02*
X004310Y013950D01*
X004415Y014212D02*
X004467Y014265D01*
X004572*
X004625Y014212*
Y014160*
X004572Y014107*
X004520*
X004572*
X004625Y014055*
Y014002*
X004572Y013950*
X004467*
X004415Y014002*
X003100Y016900D02*
Y017215D01*
X003257*
X003310Y017162*
Y017057*
X003257Y017005*
X003100*
X003205D02*
X003310Y016900D01*
X003572D02*
Y017215D01*
X003415Y017057*
X003625*
X003900Y018400D02*
Y018715D01*
X004057*
X004110Y018662*
Y018557*
X004057Y018505*
X003900*
X004005D02*
X004110Y018400D01*
X004425Y018715D02*
X004215D01*
Y018557*
X004320Y018610*
X004372*
X004425Y018557*
Y018452*
X004372Y018400*
X004267*
X004215Y018452*
X002300Y018700D02*
Y019015D01*
X002457*
X002510Y018962*
Y018857*
X002457Y018805*
X002300*
X002405D02*
X002510Y018700D01*
X002825Y019015D02*
X002720Y018962D01*
X002615Y018857*
Y018752*
X002667Y018700*
X002772*
X002825Y018752*
Y018805*
X002772Y018857*
X002615*
X003035Y020235D02*
Y020550D01*
X003192*
X003245Y020497*
Y020392*
X003192Y020340*
X003035*
X003140D02*
X003245Y020235D01*
X003350Y020550D02*
X003560D01*
Y020497*
X003350Y020287*
Y020235*
X002500Y014400D02*
X002185D01*
Y014557*
X002238Y014610*
X002343*
X002395Y014557*
Y014400*
Y014505D02*
X002500Y014610D01*
X002238Y014715D02*
X002185Y014767D01*
Y014872*
X002238Y014925*
X002290*
X002343Y014872*
X002395Y014925*
X002448*
X002500Y014872*
Y014767*
X002448Y014715*
X002395*
X002343Y014767*
X002290Y014715*
X002238*
X002343Y014767D02*
Y014872D01*
X007700Y003500D02*
Y003815D01*
X007857*
X007910Y003762*
Y003657*
X007857Y003605*
X007700*
X007805D02*
X007910Y003500D01*
X008015Y003552D02*
X008067Y003500D01*
X008172*
X008225Y003552*
Y003762*
X008172Y003815*
X008067*
X008015Y003762*
Y003710*
X008067Y003657*
X008225*
X010330Y003510D02*
Y003825D01*
X010487*
X010540Y003772*
Y003667*
X010487Y003615*
X010330*
X010435D02*
X010540Y003510D01*
X010645D02*
X010750D01*
X010697*
Y003825*
X010645Y003772*
X010907D02*
X010960Y003825D01*
X011065*
X011117Y003772*
Y003562*
X011065Y003510*
X010960*
X010907Y003562*
Y003772*
X002000Y016300D02*
Y016615D01*
X002157*
X002210Y016562*
Y016457*
X002157Y016405*
X002000*
X002105D02*
X002210Y016300D01*
X002315D02*
X002420D01*
X002367*
Y016615*
X002315Y016562*
X002577Y016300D02*
X002682D01*
X002630*
Y016615*
X002577Y016562*
X001300Y017200D02*
Y017515D01*
X001457*
X001510Y017462*
Y017357*
X001457Y017305*
X001300*
X001405D02*
X001510Y017200D01*
X001615D02*
X001720D01*
X001667*
Y017515*
X001615Y017462*
X002087Y017200D02*
X001877D01*
X002087Y017410*
Y017462*
X002035Y017515*
X001930*
X001877Y017462*
X000400Y018700D02*
Y019015D01*
X000557*
X000610Y018962*
Y018857*
X000557Y018805*
X000400*
X000505D02*
X000610Y018700D01*
X000715D02*
X000820D01*
X000767*
Y019015*
X000715Y018962*
X000977D02*
X001030Y019015D01*
X001135*
X001187Y018962*
Y018910*
X001135Y018857*
X001082*
X001135*
X001187Y018805*
Y018752*
X001135Y018700*
X001030*
X000977Y018752*
X000450Y019300D02*
X000135D01*
Y019457*
X000188Y019510*
X000293*
X000345Y019457*
Y019300*
Y019405D02*
X000450Y019510D01*
Y019615D02*
Y019720D01*
Y019667*
X000135*
X000188Y019615*
X000450Y020035D02*
X000135D01*
X000293Y019877*
Y020087*
X012200Y005680D02*
Y005995D01*
X012357*
X012410Y005942*
Y005837*
X012357Y005785*
X012200*
X012305D02*
X012410Y005680D01*
X012515D02*
X012620D01*
X012567*
Y005995*
X012515Y005942*
X012987Y005995D02*
X012777D01*
Y005837*
X012882Y005890*
X012935*
X012987Y005837*
Y005732*
X012935Y005680*
X012830*
X012777Y005732*
X006400Y014200D02*
Y014515D01*
X006557*
X006610Y014462*
Y014357*
X006557Y014305*
X006400*
X006505D02*
X006610Y014200D01*
X006715D02*
X006820D01*
X006767*
Y014515*
X006715Y014462*
X007187Y014515D02*
X007082Y014462D01*
X006977Y014357*
Y014252*
X007030Y014200*
X007135*
X007187Y014252*
Y014305*
X007135Y014357*
X006977*
X008900Y013650D02*
Y013965D01*
X009057*
X009110Y013912*
Y013807*
X009057Y013755*
X008900*
X009005D02*
X009110Y013650D01*
X009215D02*
X009320D01*
X009267*
Y013965*
X009215Y013912*
X009477Y013965D02*
X009687D01*
Y013912*
X009477Y013702*
Y013650*
X008900Y017050D02*
Y017365D01*
X009057*
X009110Y017312*
Y017207*
X009057Y017155*
X008900*
X009005D02*
X009110Y017050D01*
X009215D02*
X009320D01*
X009267*
Y017365*
X009215Y017312*
X009477D02*
X009530Y017365D01*
X009635*
X009687Y017312*
Y017260*
X009635Y017207*
X009687Y017155*
Y017102*
X009635Y017050*
X009530*
X009477Y017102*
Y017155*
X009530Y017207*
X009477Y017260*
Y017312*
X009530Y017207D02*
X009635D01*
X007350Y017050D02*
Y017365D01*
X007507*
X007560Y017312*
Y017207*
X007507Y017155*
X007350*
X007455D02*
X007560Y017050D01*
X007665D02*
X007770D01*
X007717*
Y017365*
X007665Y017312*
X007927Y017102D02*
X007980Y017050D01*
X008085*
X008137Y017102*
Y017312*
X008085Y017365*
X007980*
X007927Y017312*
Y017260*
X007980Y017207*
X008137*
X005330Y010660D02*
Y010975D01*
X005487*
X005540Y010922*
Y010817*
X005487Y010765*
X005330*
X005435D02*
X005540Y010660D01*
X005855D02*
X005645D01*
X005855Y010870*
Y010922*
X005802Y010975*
X005697*
X005645Y010922*
X005960D02*
X006012Y010975D01*
X006117*
X006170Y010922*
Y010712*
X006117Y010660*
X006012*
X005960Y010712*
Y010922*
X012160Y006700D02*
Y007015D01*
X012317*
X012370Y006962*
Y006857*
X012317Y006805*
X012160*
X012265D02*
X012370Y006700D01*
X012685D02*
X012475D01*
X012685Y006910*
Y006962*
X012632Y007015*
X012527*
X012475Y006962*
X012790Y006700D02*
X012895D01*
X012842*
Y007015*
X012790Y006962*
X010750Y014200D02*
Y014515D01*
X010907*
X010960Y014462*
Y014357*
X010907Y014305*
X010750*
X010855D02*
X010960Y014200D01*
X011275D02*
X011065D01*
X011275Y014410*
Y014462*
X011222Y014515*
X011117*
X011065Y014462*
X011590Y014200D02*
X011380D01*
X011590Y014410*
Y014462*
X011537Y014515*
X011432*
X011380Y014462*
X013400Y013650D02*
Y013965D01*
X013557*
X013610Y013912*
Y013807*
X013557Y013755*
X013400*
X013505D02*
X013610Y013650D01*
X013925D02*
X013715D01*
X013925Y013860*
Y013912*
X013872Y013965*
X013767*
X013715Y013912*
X014030D02*
X014082Y013965D01*
X014187*
X014240Y013912*
Y013860*
X014187Y013807*
X014135*
X014187*
X014240Y013755*
Y013702*
X014187Y013650*
X014082*
X014030Y013702*
X013650Y017100D02*
Y017415D01*
X013807*
X013860Y017362*
Y017257*
X013807Y017205*
X013650*
X013755D02*
X013860Y017100D01*
X014175D02*
X013965D01*
X014175Y017310*
Y017362*
X014122Y017415*
X014017*
X013965Y017362*
X014437Y017100D02*
Y017415D01*
X014280Y017257*
X014490*
X012000Y017150D02*
Y017465D01*
X012157*
X012210Y017412*
Y017307*
X012157Y017255*
X012000*
X012105D02*
X012210Y017150D01*
X012525D02*
X012315D01*
X012525Y017360*
Y017412*
X012472Y017465*
X012367*
X012315Y017412*
X012840Y017465D02*
X012630D01*
Y017307*
X012735Y017360*
X012787*
X012840Y017307*
Y017202*
X012787Y017150*
X012682*
X012630Y017202*
X010450Y010600D02*
Y010915D01*
X010607*
X010660Y010862*
Y010757*
X010607Y010705*
X010450*
X010555D02*
X010660Y010600D01*
X010975D02*
X010765D01*
X010975Y010810*
Y010862*
X010922Y010915*
X010817*
X010765Y010862*
X011290Y010915D02*
X011185Y010862D01*
X011080Y010757*
Y010652*
X011132Y010600*
X011237*
X011290Y010652*
Y010705*
X011237Y010757*
X011080*
X013900Y004000D02*
Y004315D01*
X014057*
X014110Y004262*
Y004157*
X014057Y004105*
X013900*
X014005D02*
X014110Y004000D01*
X014425D02*
X014215D01*
X014425Y004210*
Y004262*
X014372Y004315*
X014267*
X014215Y004262*
X014530Y004315D02*
X014740D01*
Y004262*
X014530Y004052*
Y004000*
X007280Y008185D02*
Y007922D01*
X007332Y007870*
X007437*
X007490Y007922*
Y008185*
X007595Y007870D02*
X007700D01*
X007647*
Y008185*
X007595Y008132*
X004400Y012815D02*
Y012552D01*
X004452Y012500*
X004557*
X004610Y012552*
Y012815*
X004925Y012500D02*
X004715D01*
X004925Y012710*
Y012762*
X004872Y012815*
X004767*
X004715Y012762*
X010360Y012895D02*
Y012632D01*
X010412Y012580*
X010517*
X010570Y012632*
Y012895*
X010675Y012842D02*
X010727Y012895D01*
X010832*
X010885Y012842*
Y012790*
X010832Y012737*
X010780*
X010832*
X010885Y012685*
Y012632*
X010832Y012580*
X010727*
X010675Y012632*
X014730Y012815D02*
Y012552D01*
X014782Y012500*
X014887*
X014940Y012552*
Y012815*
X015202Y012500D02*
Y012815D01*
X015045Y012657*
X015255*
X000775Y009000D02*
X000670D01*
X000722*
Y008737*
X000670Y008685*
X000617*
X000565Y008737*
X000880Y008685D02*
X000985D01*
X000932*
Y009000*
X000880Y008947*
M02*