%FSDAX24Y24*%
%MOIN*%
%SFA1B1*%

%IPPOS*%
%ADD20R,0.059100X0.059100*%
%ADD21C,0.059100*%
%ADD22R,0.059100X0.059100*%
%ADD23C,0.098400*%
%ADD24C,0.065000*%
%ADD25O,0.047200X0.098400*%
%ADD26R,0.047200X0.098400*%
%ADD27C,0.063000*%
%ADD28R,0.063000X0.063000*%
%ADD29C,0.116100*%
%ADD30C,0.063000*%
%ADD31C,0.059100*%
%ADD32R,0.059100X0.059100*%
%LNde-060418_pads_bot-1*%
%LPD*%
G54D20*
X012200Y001000D03*
X012100Y003500D03*
X009500Y001000D03*
G54D21*
X013200Y001000D03*
X014200D03*
X002700Y010100D03*
X003700D03*
X002700Y013100D03*
X013100Y003500D03*
X008500Y001000D03*
G54D22*
X003700Y013100D03*
G54D23*
X001516Y021700D03*
X003484D03*
X010000D03*
X008000D03*
X006000D03*
X014384D03*
X012416D03*
G54D24*
X005400Y018500D03*
Y015500D03*
X010300D03*
X007300D03*
X015000D03*
X012000D03*
G54D25*
X009600Y013200D03*
X008600D03*
X007600D03*
X009600Y010200D03*
X008600D03*
X014000Y013100D03*
X013000D03*
X012000D03*
X014000Y010100D03*
X013000D03*
G54D26*
X007600Y010200D03*
X012000Y010100D03*
G54D27*
X009600Y018400D03*
X008600D03*
X014400D03*
X013400D03*
G54D28*
X007600Y018400D03*
X012400D03*
G54D29*
X005750Y004390D03*
X001250D03*
G54D30*
X002750Y006890D03*
G54D31*
X003750Y006890D03*
X003250Y007890D03*
X004250D03*
X004750Y006890D03*
X002250Y007890D03*
X005250D03*
G54D32*
X001750Y006890D03*
M02*