%FSDAX24Y24*%
%MOIN*%
%SFA1B1*%

%IPPOS*%
%ADD39R,0.059200X0.067100*%
%ADD40O,0.094600X0.031600*%
%ADD41R,0.067100X0.059200*%
%ADD42R,0.065100X0.029700*%
%ADD43R,0.031600X0.059200*%
%ADD44R,0.051300X0.047400*%
%ADD45R,0.067100X0.067100*%
%ADD46C,0.067100*%
%ADD47R,0.067100X0.067100*%
%ADD48C,0.106400*%
%ADD49C,0.073000*%
%ADD50O,0.055200X0.106400*%
%ADD51R,0.055200X0.106400*%
%ADD52C,0.071000*%
%ADD53R,0.071000X0.071000*%
%ADD54C,0.124100*%
%ADD55C,0.071000*%
%ADD56C,0.067100*%
%ADD57R,0.067100X0.067100*%
%ADD58C,0.039500*%
%LNde-060418_soldermask_top-1*%
%LPD*%
G54D39*
X011774Y004900D03*
X011026D03*
X009274Y008100D03*
X008526D03*
X003226Y019600D03*
X003974D03*
X003326Y016400D03*
X004074D03*
X003674Y014100D03*
X002926D03*
X001574Y019600D03*
X000826D03*
X001574Y016500D03*
X000826D03*
X008374Y016600D03*
X007626D03*
X009874D03*
X009126D03*
Y014400D03*
X009874D03*
X007626D03*
X008374D03*
X011774Y005900D03*
X011026D03*
X012474Y007800D03*
X011726D03*
X006274Y010200D03*
X005526D03*
X013024Y016650D03*
X012276D03*
X014624D03*
X013876D03*
X013626Y014400D03*
X014374D03*
X012026D03*
X012774D03*
X011774Y006900D03*
X011026D03*
G54D40*
X009845Y004400D03*
Y004900D03*
Y005400D03*
Y005900D03*
Y006400D03*
Y006900D03*
Y007400D03*
X007955Y004400D03*
Y004900D03*
Y005400D03*
Y005900D03*
Y006400D03*
Y006900D03*
Y007400D03*
G54D41*
X003300Y018026D03*
Y018774D03*
X004100Y017226D03*
Y017974D03*
X000900Y013426D03*
Y014174D03*
X001800Y013426D03*
Y014174D03*
X009900Y003574D03*
Y002826D03*
X008700Y003574D03*
Y002826D03*
X001600Y018026D03*
Y018774D03*
X000800Y017326D03*
Y018074D03*
X010800Y010174D03*
Y009426D03*
X014200Y002726D03*
Y003474D03*
G54D42*
X003863Y014800D03*
X002937D03*
X000837D03*
X001763D03*
X000837Y012800D03*
X001763D03*
X002937Y015500D03*
X003863D03*
X001863D03*
X000937D03*
G54D43*
X001674Y012113D03*
X000926D03*
X001300Y011287D03*
G54D44*
X011765Y008500D03*
X012435D03*
X008665Y002000D03*
X009335D03*
G54D45*
X012200Y001000D03*
X012100Y003500D03*
X009500Y001000D03*
G54D46*
X013200Y001000D03*
X014200D03*
X002700Y010100D03*
X003700D03*
X002700Y013100D03*
X013100Y003500D03*
X008500Y001000D03*
G54D47*
X003700Y013100D03*
G54D48*
X001516Y021700D03*
X003484D03*
X010000D03*
X008000D03*
X006000D03*
X014384D03*
X012416D03*
G54D49*
X005400Y018500D03*
Y015500D03*
X010300D03*
X007300D03*
X015000D03*
X012000D03*
G54D50*
X009600Y013200D03*
X008600D03*
X007600D03*
X009600Y010200D03*
X008600D03*
X014000Y013100D03*
X013000D03*
X012000D03*
X014000Y010100D03*
X013000D03*
G54D51*
X007600Y010200D03*
X012000Y010100D03*
G54D52*
X009600Y018400D03*
X008600D03*
X014400D03*
X013400D03*
G54D53*
X007600Y018400D03*
X012400D03*
G54D54*
X005750Y004390D03*
X001250D03*
G54D55*
X002750Y006890D03*
G54D56*
X003750Y006890D03*
X003250Y007890D03*
X004250D03*
X004750Y006890D03*
X002250Y007890D03*
X005250D03*
G54D57*
X001750Y006890D03*
G54D58*
X007300Y007400D03*
X002400Y015500D03*
X001800Y012500D03*
X007300Y006400D03*
Y005400D03*
X010500D03*
Y006400D03*
X010800Y008900D03*
X010500Y006900D03*
Y005900D03*
Y004900D03*
X005000Y010200D03*
X007300Y005900D03*
X009845Y004015D03*
M02*