%FSDAX24Y24*%
%MOIN*%
%SFA1B1*%

%IPPOS*%
%ADD9500C,0.015700*%
%ADD9501C,0.023600*%
%ADD9502C,0.030000*%
%ADD9503C,0.035400*%
%ADD9504C,0.039400*%
%ADD9505C,0.128000*%
%LNde-060418-1*%
%LPD*%
G54D9500*
X018800Y021350D03*
Y021850D03*
Y022350D03*
Y023350D03*
X022000Y022850D03*
Y022350D03*
Y021850D03*
Y021350D03*
Y020850D03*
X021345Y019965D03*
X022300Y024850D03*
X016500Y026150D03*
X013300Y028450D03*
X013900Y031450D03*
G54D9501*
X019100Y026150D03*
X020100D03*
X021100D03*
X023500Y026050D03*
X024500D03*
X025500D03*
Y029050D03*
X024500D03*
X023500D03*
X021100Y029150D03*
X020100D03*
X019100D03*
G54D9502*
X013016Y037650D03*
X014984D03*
X017500D03*
X019500D03*
X021500D03*
X023916D03*
X025884D03*
G54D9503*
X020000Y016950D03*
X021000D03*
X023700D03*
X024700D03*
X025700D03*
X024600Y019450D03*
X023600D03*
X016250Y022840D03*
X015750Y023840D03*
X016750D03*
X014750D03*
X013750D03*
X014250Y022840D03*
X015250D03*
X013250D03*
X014200Y026050D03*
X015200D03*
Y029050D03*
X014200D03*
G54D9504*
X016900Y031450D03*
X018800D03*
X021800D03*
X023500D03*
X026500D03*
X025900Y034350D03*
X024900D03*
X023900D03*
X021100D03*
X020100D03*
X019100D03*
X016900Y034450D03*
G54D9505*
X017250Y020340D03*
X012750D03*
M02*