%FSDAX24Y24*%
%MOIN*%
%SFA1B1*%

%IPPOS*%
%ADD10R,0.051200X0.059100*%
%ADD11O,0.086600X0.023600*%
%ADD12R,0.059100X0.051200*%
%ADD13R,0.057100X0.021700*%
%ADD14R,0.023600X0.051200*%
%ADD15R,0.043300X0.039400*%
%ADD20R,0.059100X0.059100*%
%ADD21C,0.059100*%
%ADD22R,0.059100X0.059100*%
%ADD23C,0.098400*%
%ADD24C,0.065000*%
%ADD25O,0.047200X0.098400*%
%ADD26R,0.047200X0.098400*%
%ADD27C,0.063000*%
%ADD28R,0.063000X0.063000*%
%ADD29C,0.116100*%
%ADD30C,0.063000*%
%ADD31C,0.059100*%
%ADD32R,0.059100X0.059100*%
%LNde-060418_pads_top-1*%
%LPD*%
G54D10*
X011774Y004900D03*
X011026D03*
X009274Y008100D03*
X008526D03*
X003226Y019600D03*
X003974D03*
X003326Y016400D03*
X004074D03*
X003674Y014100D03*
X002926D03*
X001574Y019600D03*
X000826D03*
X001574Y016500D03*
X000826D03*
X008374Y016600D03*
X007626D03*
X009874D03*
X009126D03*
Y014400D03*
X009874D03*
X007626D03*
X008374D03*
X011774Y005900D03*
X011026D03*
X012474Y007800D03*
X011726D03*
X006274Y010200D03*
X005526D03*
X013024Y016650D03*
X012276D03*
X014624D03*
X013876D03*
X013626Y014400D03*
X014374D03*
X012026D03*
X012774D03*
X011774Y006900D03*
X011026D03*
G54D11*
X009845Y004400D03*
Y004900D03*
Y005400D03*
Y005900D03*
Y006400D03*
Y006900D03*
Y007400D03*
X007955Y004400D03*
Y004900D03*
Y005400D03*
Y005900D03*
Y006400D03*
Y006900D03*
Y007400D03*
G54D12*
X003300Y018026D03*
Y018774D03*
X004100Y017226D03*
Y017974D03*
X000900Y013426D03*
Y014174D03*
X001800Y013426D03*
Y014174D03*
X009900Y003574D03*
Y002826D03*
X008700Y003574D03*
Y002826D03*
X001600Y018026D03*
Y018774D03*
X000800Y017326D03*
Y018074D03*
X010800Y010174D03*
Y009426D03*
X014200Y002726D03*
Y003474D03*
G54D13*
X003863Y014800D03*
X002937D03*
X000837D03*
X001763D03*
X000837Y012800D03*
X001763D03*
X002937Y015500D03*
X003863D03*
X001863D03*
X000937D03*
G54D14*
X001674Y012113D03*
X000926D03*
X001300Y011287D03*
G54D15*
X011765Y008500D03*
X012435D03*
X008665Y002000D03*
X009335D03*
G54D20*
X012200Y001000D03*
X012100Y003500D03*
X009500Y001000D03*
G54D21*
X013200Y001000D03*
X014200D03*
X002700Y010100D03*
X003700D03*
X002700Y013100D03*
X013100Y003500D03*
X008500Y001000D03*
G54D22*
X003700Y013100D03*
G54D23*
X001516Y021700D03*
X003484D03*
X010000D03*
X008000D03*
X006000D03*
X014384D03*
X012416D03*
G54D24*
X005400Y018500D03*
Y015500D03*
X010300D03*
X007300D03*
X015000D03*
X012000D03*
G54D25*
X009600Y013200D03*
X008600D03*
X007600D03*
X009600Y010200D03*
X008600D03*
X014000Y013100D03*
X013000D03*
X012000D03*
X014000Y010100D03*
X013000D03*
G54D26*
X007600Y010200D03*
X012000Y010100D03*
G54D27*
X009600Y018400D03*
X008600D03*
X014400D03*
X013400D03*
G54D28*
X007600Y018400D03*
X012400D03*
G54D29*
X005750Y004390D03*
X001250D03*
G54D30*
X002750Y006890D03*
G54D31*
X003750Y006890D03*
X003250Y007890D03*
X004250D03*
X004750Y006890D03*
X002250Y007890D03*
X005250D03*
G54D32*
X001750Y006890D03*
M02*